<?xml version="1.0" encoding="utf-8" standalone="no"?>
<!DOCTYPE svg PUBLIC "-//W3C//DTD SVG 1.1//EN"
  "http://www.w3.org/Graphics/SVG/1.1/DTD/svg11.dtd">
<svg height="154.396938pt" version="1.1" viewBox="0 0 210.712453 154.396938" width="210.712453pt" xmlns="http://www.w3.org/2000/svg" xmlns:xlink="http://www.w3.org/1999/xlink">
 <metadata>
  <rdf:RDF xmlns:cc="http://creativecommons.org/ns#" xmlns:dc="http://purl.org/dc/elements/1.1/" xmlns:rdf="http://www.w3.org/1999/02/22-rdf-syntax-ns#">
   <cc:Work>
    <dc:type rdf:resource="http://purl.org/dc/dcmitype/StillImage"/>
    <dc:date>2022-03-23T21:07:42.823030</dc:date>
    <dc:format>image/svg+xml</dc:format>
    <dc:creator>
     <cc:Agent>
      <dc:title>Matplotlib v3.4.2, https://matplotlib.org/</dc:title>
     </cc:Agent>
    </dc:creator>
   </cc:Work>
  </rdf:RDF>
 </metadata>
 <defs>
  <style type="text/css">*{stroke-linecap:butt;stroke-linejoin:round;}</style>
 </defs>
 <g id="figure_1">
  <g id="patch_1">
   <path d="M 0 154.396938 
L 210.712453 154.396938 
L 210.712453 0 
L 0 0 
z
" style="fill:#ffffff;"/>
  </g>
  <g id="axes_1">
   <g id="patch_2">
    <path d="M 39.677875 116.403656 
L 202.891875 116.403656 
L 202.891875 33.095906 
L 39.677875 33.095906 
z
" style="fill:#ffffff;"/>
   </g>
   <g id="matplotlib.axis_1">
    <g id="xtick_1">
     <g id="line2d_1">
      <defs>
       <path d="M 0 0 
L 0 4.8 
" id="m9a226a043a" style="stroke:#262626;"/>
      </defs>
      <g>
       <use style="fill:#262626;stroke:#262626;" x="80.481375" xlink:href="#m9a226a043a" y="116.403656"/>
      </g>
     </g>
     <g id="text_1">
      <!-- Residential -->
      <g style="fill:#262626;" transform="translate(58.219734 131.145688)scale(0.09 -0.09)">
       <defs>
        <path d="M 503 0 
L 503 4581 
L 2534 4581 
Q 3147 4581 3465 4457 
Q 3784 4334 3975 4021 
Q 4166 3709 4166 3331 
Q 4166 2844 3850 2509 
Q 3534 2175 2875 2084 
Q 3116 1969 3241 1856 
Q 3506 1613 3744 1247 
L 4541 0 
L 3778 0 
L 3172 953 
Q 2906 1366 2734 1584 
Q 2563 1803 2427 1890 
Q 2291 1978 2150 2013 
Q 2047 2034 1813 2034 
L 1109 2034 
L 1109 0 
L 503 0 
z
M 1109 2559 
L 2413 2559 
Q 2828 2559 3062 2645 
Q 3297 2731 3419 2920 
Q 3541 3109 3541 3331 
Q 3541 3656 3305 3865 
Q 3069 4075 2559 4075 
L 1109 4075 
L 1109 2559 
z
" id="ArialMT-52" transform="scale(0.015625)"/>
        <path d="M 2694 1069 
L 3275 997 
Q 3138 488 2766 206 
Q 2394 -75 1816 -75 
Q 1088 -75 661 373 
Q 234 822 234 1631 
Q 234 2469 665 2931 
Q 1097 3394 1784 3394 
Q 2450 3394 2872 2941 
Q 3294 2488 3294 1666 
Q 3294 1616 3291 1516 
L 816 1516 
Q 847 969 1125 678 
Q 1403 388 1819 388 
Q 2128 388 2347 550 
Q 2566 713 2694 1069 
z
M 847 1978 
L 2700 1978 
Q 2663 2397 2488 2606 
Q 2219 2931 1791 2931 
Q 1403 2931 1139 2672 
Q 875 2413 847 1978 
z
" id="ArialMT-65" transform="scale(0.015625)"/>
        <path d="M 197 991 
L 753 1078 
Q 800 744 1014 566 
Q 1228 388 1613 388 
Q 2000 388 2187 545 
Q 2375 703 2375 916 
Q 2375 1106 2209 1216 
Q 2094 1291 1634 1406 
Q 1016 1563 777 1677 
Q 538 1791 414 1992 
Q 291 2194 291 2438 
Q 291 2659 392 2848 
Q 494 3038 669 3163 
Q 800 3259 1026 3326 
Q 1253 3394 1513 3394 
Q 1903 3394 2198 3281 
Q 2494 3169 2634 2976 
Q 2775 2784 2828 2463 
L 2278 2388 
Q 2241 2644 2061 2787 
Q 1881 2931 1553 2931 
Q 1166 2931 1000 2803 
Q 834 2675 834 2503 
Q 834 2394 903 2306 
Q 972 2216 1119 2156 
Q 1203 2125 1616 2013 
Q 2213 1853 2448 1751 
Q 2684 1650 2818 1456 
Q 2953 1263 2953 975 
Q 2953 694 2789 445 
Q 2625 197 2315 61 
Q 2006 -75 1616 -75 
Q 969 -75 630 194 
Q 291 463 197 991 
z
" id="ArialMT-73" transform="scale(0.015625)"/>
        <path d="M 425 3934 
L 425 4581 
L 988 4581 
L 988 3934 
L 425 3934 
z
M 425 0 
L 425 3319 
L 988 3319 
L 988 0 
L 425 0 
z
" id="ArialMT-69" transform="scale(0.015625)"/>
        <path d="M 2575 0 
L 2575 419 
Q 2259 -75 1647 -75 
Q 1250 -75 917 144 
Q 584 363 401 755 
Q 219 1147 219 1656 
Q 219 2153 384 2558 
Q 550 2963 881 3178 
Q 1213 3394 1622 3394 
Q 1922 3394 2156 3267 
Q 2391 3141 2538 2938 
L 2538 4581 
L 3097 4581 
L 3097 0 
L 2575 0 
z
M 797 1656 
Q 797 1019 1065 703 
Q 1334 388 1700 388 
Q 2069 388 2326 689 
Q 2584 991 2584 1609 
Q 2584 2291 2321 2609 
Q 2059 2928 1675 2928 
Q 1300 2928 1048 2622 
Q 797 2316 797 1656 
z
" id="ArialMT-64" transform="scale(0.015625)"/>
        <path d="M 422 0 
L 422 3319 
L 928 3319 
L 928 2847 
Q 1294 3394 1984 3394 
Q 2284 3394 2536 3286 
Q 2788 3178 2913 3003 
Q 3038 2828 3088 2588 
Q 3119 2431 3119 2041 
L 3119 0 
L 2556 0 
L 2556 2019 
Q 2556 2363 2490 2533 
Q 2425 2703 2258 2804 
Q 2091 2906 1866 2906 
Q 1506 2906 1245 2678 
Q 984 2450 984 1813 
L 984 0 
L 422 0 
z
" id="ArialMT-6e" transform="scale(0.015625)"/>
        <path d="M 1650 503 
L 1731 6 
Q 1494 -44 1306 -44 
Q 1000 -44 831 53 
Q 663 150 594 308 
Q 525 466 525 972 
L 525 2881 
L 113 2881 
L 113 3319 
L 525 3319 
L 525 4141 
L 1084 4478 
L 1084 3319 
L 1650 3319 
L 1650 2881 
L 1084 2881 
L 1084 941 
Q 1084 700 1114 631 
Q 1144 563 1211 522 
Q 1278 481 1403 481 
Q 1497 481 1650 503 
z
" id="ArialMT-74" transform="scale(0.015625)"/>
        <path d="M 2588 409 
Q 2275 144 1986 34 
Q 1697 -75 1366 -75 
Q 819 -75 525 192 
Q 231 459 231 875 
Q 231 1119 342 1320 
Q 453 1522 633 1644 
Q 813 1766 1038 1828 
Q 1203 1872 1538 1913 
Q 2219 1994 2541 2106 
Q 2544 2222 2544 2253 
Q 2544 2597 2384 2738 
Q 2169 2928 1744 2928 
Q 1347 2928 1158 2789 
Q 969 2650 878 2297 
L 328 2372 
Q 403 2725 575 2942 
Q 747 3159 1072 3276 
Q 1397 3394 1825 3394 
Q 2250 3394 2515 3294 
Q 2781 3194 2906 3042 
Q 3031 2891 3081 2659 
Q 3109 2516 3109 2141 
L 3109 1391 
Q 3109 606 3145 398 
Q 3181 191 3288 0 
L 2700 0 
Q 2613 175 2588 409 
z
M 2541 1666 
Q 2234 1541 1622 1453 
Q 1275 1403 1131 1340 
Q 988 1278 909 1158 
Q 831 1038 831 891 
Q 831 666 1001 516 
Q 1172 366 1500 366 
Q 1825 366 2078 508 
Q 2331 650 2450 897 
Q 2541 1088 2541 1459 
L 2541 1666 
z
" id="ArialMT-61" transform="scale(0.015625)"/>
        <path d="M 409 0 
L 409 4581 
L 972 4581 
L 972 0 
L 409 0 
z
" id="ArialMT-6c" transform="scale(0.015625)"/>
       </defs>
       <use xlink:href="#ArialMT-52"/>
       <use x="72.216797" xlink:href="#ArialMT-65"/>
       <use x="127.832031" xlink:href="#ArialMT-73"/>
       <use x="177.832031" xlink:href="#ArialMT-69"/>
       <use x="200.048828" xlink:href="#ArialMT-64"/>
       <use x="255.664062" xlink:href="#ArialMT-65"/>
       <use x="311.279297" xlink:href="#ArialMT-6e"/>
       <use x="366.894531" xlink:href="#ArialMT-74"/>
       <use x="394.677734" xlink:href="#ArialMT-69"/>
       <use x="416.894531" xlink:href="#ArialMT-61"/>
       <use x="472.509766" xlink:href="#ArialMT-6c"/>
      </g>
     </g>
    </g>
    <g id="xtick_2">
     <g id="line2d_2">
      <g>
       <use style="fill:#262626;stroke:#262626;" x="162.088375" xlink:href="#m9a226a043a" y="116.403656"/>
      </g>
     </g>
     <g id="text_2">
      <!-- Non-residential -->
      <g style="fill:#262626;" transform="translate(131.825172 131.145688)scale(0.09 -0.09)">
       <defs>
        <path d="M 488 0 
L 488 4581 
L 1109 4581 
L 3516 984 
L 3516 4581 
L 4097 4581 
L 4097 0 
L 3475 0 
L 1069 3600 
L 1069 0 
L 488 0 
z
" id="ArialMT-4e" transform="scale(0.015625)"/>
        <path d="M 213 1659 
Q 213 2581 725 3025 
Q 1153 3394 1769 3394 
Q 2453 3394 2887 2945 
Q 3322 2497 3322 1706 
Q 3322 1066 3130 698 
Q 2938 331 2570 128 
Q 2203 -75 1769 -75 
Q 1072 -75 642 372 
Q 213 819 213 1659 
z
M 791 1659 
Q 791 1022 1069 705 
Q 1347 388 1769 388 
Q 2188 388 2466 706 
Q 2744 1025 2744 1678 
Q 2744 2294 2464 2611 
Q 2184 2928 1769 2928 
Q 1347 2928 1069 2612 
Q 791 2297 791 1659 
z
" id="ArialMT-6f" transform="scale(0.015625)"/>
        <path d="M 203 1375 
L 203 1941 
L 1931 1941 
L 1931 1375 
L 203 1375 
z
" id="ArialMT-2d" transform="scale(0.015625)"/>
        <path d="M 416 0 
L 416 3319 
L 922 3319 
L 922 2816 
Q 1116 3169 1280 3281 
Q 1444 3394 1641 3394 
Q 1925 3394 2219 3213 
L 2025 2691 
Q 1819 2813 1613 2813 
Q 1428 2813 1281 2702 
Q 1134 2591 1072 2394 
Q 978 2094 978 1738 
L 978 0 
L 416 0 
z
" id="ArialMT-72" transform="scale(0.015625)"/>
       </defs>
       <use xlink:href="#ArialMT-4e"/>
       <use x="72.216797" xlink:href="#ArialMT-6f"/>
       <use x="127.832031" xlink:href="#ArialMT-6e"/>
       <use x="183.447266" xlink:href="#ArialMT-2d"/>
       <use x="216.748047" xlink:href="#ArialMT-72"/>
       <use x="250.048828" xlink:href="#ArialMT-65"/>
       <use x="305.664062" xlink:href="#ArialMT-73"/>
       <use x="355.664062" xlink:href="#ArialMT-69"/>
       <use x="377.880859" xlink:href="#ArialMT-64"/>
       <use x="433.496094" xlink:href="#ArialMT-65"/>
       <use x="489.111328" xlink:href="#ArialMT-6e"/>
       <use x="544.726562" xlink:href="#ArialMT-74"/>
       <use x="572.509766" xlink:href="#ArialMT-69"/>
       <use x="594.726562" xlink:href="#ArialMT-61"/>
       <use x="650.341797" xlink:href="#ArialMT-6c"/>
      </g>
     </g>
    </g>
    <g id="text_3">
     <!-- building use type -->
     <g style="fill:#262626;" transform="translate(83.760656 145.09225)scale(0.1 -0.1)">
      <defs>
       <path d="M 941 0 
L 419 0 
L 419 4581 
L 981 4581 
L 981 2947 
Q 1338 3394 1891 3394 
Q 2197 3394 2470 3270 
Q 2744 3147 2920 2923 
Q 3097 2700 3197 2384 
Q 3297 2069 3297 1709 
Q 3297 856 2875 390 
Q 2453 -75 1863 -75 
Q 1275 -75 941 416 
L 941 0 
z
M 934 1684 
Q 934 1088 1097 822 
Q 1363 388 1816 388 
Q 2184 388 2453 708 
Q 2722 1028 2722 1663 
Q 2722 2313 2464 2622 
Q 2206 2931 1841 2931 
Q 1472 2931 1203 2611 
Q 934 2291 934 1684 
z
" id="ArialMT-62" transform="scale(0.015625)"/>
       <path d="M 2597 0 
L 2597 488 
Q 2209 -75 1544 -75 
Q 1250 -75 995 37 
Q 741 150 617 320 
Q 494 491 444 738 
Q 409 903 409 1263 
L 409 3319 
L 972 3319 
L 972 1478 
Q 972 1038 1006 884 
Q 1059 663 1231 536 
Q 1403 409 1656 409 
Q 1909 409 2131 539 
Q 2353 669 2445 892 
Q 2538 1116 2538 1541 
L 2538 3319 
L 3100 3319 
L 3100 0 
L 2597 0 
z
" id="ArialMT-75" transform="scale(0.015625)"/>
       <path d="M 319 -275 
L 866 -356 
Q 900 -609 1056 -725 
Q 1266 -881 1628 -881 
Q 2019 -881 2231 -725 
Q 2444 -569 2519 -288 
Q 2563 -116 2559 434 
Q 2191 0 1641 0 
Q 956 0 581 494 
Q 206 988 206 1678 
Q 206 2153 378 2554 
Q 550 2956 876 3175 
Q 1203 3394 1644 3394 
Q 2231 3394 2613 2919 
L 2613 3319 
L 3131 3319 
L 3131 450 
Q 3131 -325 2973 -648 
Q 2816 -972 2473 -1159 
Q 2131 -1347 1631 -1347 
Q 1038 -1347 672 -1080 
Q 306 -813 319 -275 
z
M 784 1719 
Q 784 1066 1043 766 
Q 1303 466 1694 466 
Q 2081 466 2343 764 
Q 2606 1063 2606 1700 
Q 2606 2309 2336 2618 
Q 2066 2928 1684 2928 
Q 1309 2928 1046 2623 
Q 784 2319 784 1719 
z
" id="ArialMT-67" transform="scale(0.015625)"/>
       <path id="ArialMT-20" transform="scale(0.015625)"/>
       <path d="M 397 -1278 
L 334 -750 
Q 519 -800 656 -800 
Q 844 -800 956 -737 
Q 1069 -675 1141 -563 
Q 1194 -478 1313 -144 
Q 1328 -97 1363 -6 
L 103 3319 
L 709 3319 
L 1400 1397 
Q 1534 1031 1641 628 
Q 1738 1016 1872 1384 
L 2581 3319 
L 3144 3319 
L 1881 -56 
Q 1678 -603 1566 -809 
Q 1416 -1088 1222 -1217 
Q 1028 -1347 759 -1347 
Q 597 -1347 397 -1278 
z
" id="ArialMT-79" transform="scale(0.015625)"/>
       <path d="M 422 -1272 
L 422 3319 
L 934 3319 
L 934 2888 
Q 1116 3141 1344 3267 
Q 1572 3394 1897 3394 
Q 2322 3394 2647 3175 
Q 2972 2956 3137 2557 
Q 3303 2159 3303 1684 
Q 3303 1175 3120 767 
Q 2938 359 2589 142 
Q 2241 -75 1856 -75 
Q 1575 -75 1351 44 
Q 1128 163 984 344 
L 984 -1272 
L 422 -1272 
z
M 931 1641 
Q 931 1000 1190 694 
Q 1450 388 1819 388 
Q 2194 388 2461 705 
Q 2728 1022 2728 1688 
Q 2728 2322 2467 2637 
Q 2206 2953 1844 2953 
Q 1484 2953 1207 2617 
Q 931 2281 931 1641 
z
" id="ArialMT-70" transform="scale(0.015625)"/>
      </defs>
      <use xlink:href="#ArialMT-62"/>
      <use x="55.615234" xlink:href="#ArialMT-75"/>
      <use x="111.230469" xlink:href="#ArialMT-69"/>
      <use x="133.447266" xlink:href="#ArialMT-6c"/>
      <use x="155.664062" xlink:href="#ArialMT-64"/>
      <use x="211.279297" xlink:href="#ArialMT-69"/>
      <use x="233.496094" xlink:href="#ArialMT-6e"/>
      <use x="289.111328" xlink:href="#ArialMT-67"/>
      <use x="344.726562" xlink:href="#ArialMT-20"/>
      <use x="372.509766" xlink:href="#ArialMT-75"/>
      <use x="428.125" xlink:href="#ArialMT-73"/>
      <use x="478.125" xlink:href="#ArialMT-65"/>
      <use x="533.740234" xlink:href="#ArialMT-20"/>
      <use x="561.523438" xlink:href="#ArialMT-74"/>
      <use x="589.306641" xlink:href="#ArialMT-79"/>
      <use x="639.306641" xlink:href="#ArialMT-70"/>
      <use x="694.921875" xlink:href="#ArialMT-65"/>
     </g>
    </g>
   </g>
   <g id="matplotlib.axis_2">
    <g id="ytick_1">
     <g id="line2d_3">
      <path clip-path="url(#pef789d63b8)" d="M 39.677875 116.403656 
L 202.891875 116.403656 
" style="fill:none;stroke:#cccccc;stroke-linecap:round;stroke-width:0.8;"/>
     </g>
     <g id="line2d_4">
      <defs>
       <path d="M 0 0 
L -4.8 0 
" id="m370687e0fe" style="stroke:#262626;"/>
      </defs>
      <g>
       <use style="fill:#262626;stroke:#262626;" x="39.677875" xlink:href="#m370687e0fe" y="116.403656"/>
      </g>
     </g>
     <g id="text_4">
      <!-- 0 -->
      <g style="fill:#262626;" transform="translate(26.48425 119.553094)scale(0.088 -0.088)">
       <defs>
        <path d="M 266 2259 
Q 266 3072 433 3567 
Q 600 4063 929 4331 
Q 1259 4600 1759 4600 
Q 2128 4600 2406 4451 
Q 2684 4303 2865 4023 
Q 3047 3744 3150 3342 
Q 3253 2941 3253 2259 
Q 3253 1453 3087 958 
Q 2922 463 2592 192 
Q 2263 -78 1759 -78 
Q 1097 -78 719 397 
Q 266 969 266 2259 
z
M 844 2259 
Q 844 1131 1108 757 
Q 1372 384 1759 384 
Q 2147 384 2411 759 
Q 2675 1134 2675 2259 
Q 2675 3391 2411 3762 
Q 2147 4134 1753 4134 
Q 1366 4134 1134 3806 
Q 844 3388 844 2259 
z
" id="ArialMT-30" transform="scale(0.015625)"/>
       </defs>
       <use xlink:href="#ArialMT-30"/>
      </g>
     </g>
    </g>
    <g id="ytick_2">
     <g id="line2d_5">
      <path clip-path="url(#pef789d63b8)" d="M 39.677875 92.601442 
L 202.891875 92.601442 
" style="fill:none;stroke:#cccccc;stroke-linecap:round;stroke-width:0.8;"/>
     </g>
     <g id="line2d_6">
      <g>
       <use style="fill:#262626;stroke:#262626;" x="39.677875" xlink:href="#m370687e0fe" y="92.601442"/>
      </g>
     </g>
     <g id="text_5">
      <!-- 20 -->
      <g style="fill:#262626;" transform="translate(21.590625 95.750879)scale(0.088 -0.088)">
       <defs>
        <path d="M 3222 541 
L 3222 0 
L 194 0 
Q 188 203 259 391 
Q 375 700 629 1000 
Q 884 1300 1366 1694 
Q 2113 2306 2375 2664 
Q 2638 3022 2638 3341 
Q 2638 3675 2398 3904 
Q 2159 4134 1775 4134 
Q 1369 4134 1125 3890 
Q 881 3647 878 3216 
L 300 3275 
Q 359 3922 746 4261 
Q 1134 4600 1788 4600 
Q 2447 4600 2831 4234 
Q 3216 3869 3216 3328 
Q 3216 3053 3103 2787 
Q 2991 2522 2730 2228 
Q 2469 1934 1863 1422 
Q 1356 997 1212 845 
Q 1069 694 975 541 
L 3222 541 
z
" id="ArialMT-32" transform="scale(0.015625)"/>
       </defs>
       <use xlink:href="#ArialMT-32"/>
       <use x="55.615234" xlink:href="#ArialMT-30"/>
      </g>
     </g>
    </g>
    <g id="ytick_3">
     <g id="line2d_7">
      <path clip-path="url(#pef789d63b8)" d="M 39.677875 68.799228 
L 202.891875 68.799228 
" style="fill:none;stroke:#cccccc;stroke-linecap:round;stroke-width:0.8;"/>
     </g>
     <g id="line2d_8">
      <g>
       <use style="fill:#262626;stroke:#262626;" x="39.677875" xlink:href="#m370687e0fe" y="68.799228"/>
      </g>
     </g>
     <g id="text_6">
      <!-- 40 -->
      <g style="fill:#262626;" transform="translate(21.590625 71.948665)scale(0.088 -0.088)">
       <defs>
        <path d="M 2069 0 
L 2069 1097 
L 81 1097 
L 81 1613 
L 2172 4581 
L 2631 4581 
L 2631 1613 
L 3250 1613 
L 3250 1097 
L 2631 1097 
L 2631 0 
L 2069 0 
z
M 2069 1613 
L 2069 3678 
L 634 1613 
L 2069 1613 
z
" id="ArialMT-34" transform="scale(0.015625)"/>
       </defs>
       <use xlink:href="#ArialMT-34"/>
       <use x="55.615234" xlink:href="#ArialMT-30"/>
      </g>
     </g>
    </g>
    <g id="ytick_4">
     <g id="line2d_9">
      <path clip-path="url(#pef789d63b8)" d="M 39.677875 44.997013 
L 202.891875 44.997013 
" style="fill:none;stroke:#cccccc;stroke-linecap:round;stroke-width:0.8;"/>
     </g>
     <g id="line2d_10">
      <g>
       <use style="fill:#262626;stroke:#262626;" x="39.677875" xlink:href="#m370687e0fe" y="44.997013"/>
      </g>
     </g>
     <g id="text_7">
      <!-- 60 -->
      <g style="fill:#262626;" transform="translate(21.590625 48.146451)scale(0.088 -0.088)">
       <defs>
        <path d="M 3184 3459 
L 2625 3416 
Q 2550 3747 2413 3897 
Q 2184 4138 1850 4138 
Q 1581 4138 1378 3988 
Q 1113 3794 959 3422 
Q 806 3050 800 2363 
Q 1003 2672 1297 2822 
Q 1591 2972 1913 2972 
Q 2475 2972 2870 2558 
Q 3266 2144 3266 1488 
Q 3266 1056 3080 686 
Q 2894 316 2569 119 
Q 2244 -78 1831 -78 
Q 1128 -78 684 439 
Q 241 956 241 2144 
Q 241 3472 731 4075 
Q 1159 4600 1884 4600 
Q 2425 4600 2770 4297 
Q 3116 3994 3184 3459 
z
M 888 1484 
Q 888 1194 1011 928 
Q 1134 663 1356 523 
Q 1578 384 1822 384 
Q 2178 384 2434 671 
Q 2691 959 2691 1453 
Q 2691 1928 2437 2201 
Q 2184 2475 1800 2475 
Q 1419 2475 1153 2201 
Q 888 1928 888 1484 
z
" id="ArialMT-36" transform="scale(0.015625)"/>
       </defs>
       <use xlink:href="#ArialMT-36"/>
       <use x="55.615234" xlink:href="#ArialMT-30"/>
      </g>
     </g>
    </g>
    <g id="text_8">
     <!-- kgCO2e/m²/year -->
     <g style="fill:#262626;" transform="translate(14.485937 111.424781)rotate(-90)scale(0.1 -0.1)">
      <defs>
       <path d="M 425 0 
L 425 4581 
L 988 4581 
L 988 1969 
L 2319 3319 
L 3047 3319 
L 1778 2088 
L 3175 0 
L 2481 0 
L 1384 1697 
L 988 1316 
L 988 0 
L 425 0 
z
" id="ArialMT-6b" transform="scale(0.015625)"/>
       <path d="M 3763 1606 
L 4369 1453 
Q 4178 706 3683 314 
Q 3188 -78 2472 -78 
Q 1731 -78 1267 223 
Q 803 525 561 1097 
Q 319 1669 319 2325 
Q 319 3041 592 3573 
Q 866 4106 1370 4382 
Q 1875 4659 2481 4659 
Q 3169 4659 3637 4309 
Q 4106 3959 4291 3325 
L 3694 3184 
Q 3534 3684 3231 3912 
Q 2928 4141 2469 4141 
Q 1941 4141 1586 3887 
Q 1231 3634 1087 3207 
Q 944 2781 944 2328 
Q 944 1744 1114 1308 
Q 1284 872 1643 656 
Q 2003 441 2422 441 
Q 2931 441 3284 734 
Q 3638 1028 3763 1606 
z
" id="ArialMT-43" transform="scale(0.015625)"/>
       <path d="M 309 2231 
Q 309 3372 921 4017 
Q 1534 4663 2503 4663 
Q 3138 4663 3647 4359 
Q 4156 4056 4423 3514 
Q 4691 2972 4691 2284 
Q 4691 1588 4409 1038 
Q 4128 488 3612 205 
Q 3097 -78 2500 -78 
Q 1853 -78 1343 234 
Q 834 547 571 1087 
Q 309 1628 309 2231 
z
M 934 2222 
Q 934 1394 1379 917 
Q 1825 441 2497 441 
Q 3181 441 3623 922 
Q 4066 1403 4066 2288 
Q 4066 2847 3877 3264 
Q 3688 3681 3323 3911 
Q 2959 4141 2506 4141 
Q 1863 4141 1398 3698 
Q 934 3256 934 2222 
z
" id="ArialMT-4f" transform="scale(0.015625)"/>
       <path d="M 0 -78 
L 1328 4659 
L 1778 4659 
L 453 -78 
L 0 -78 
z
" id="ArialMT-2f" transform="scale(0.015625)"/>
       <path d="M 422 0 
L 422 3319 
L 925 3319 
L 925 2853 
Q 1081 3097 1340 3245 
Q 1600 3394 1931 3394 
Q 2300 3394 2536 3241 
Q 2772 3088 2869 2813 
Q 3263 3394 3894 3394 
Q 4388 3394 4653 3120 
Q 4919 2847 4919 2278 
L 4919 0 
L 4359 0 
L 4359 2091 
Q 4359 2428 4304 2576 
Q 4250 2725 4106 2815 
Q 3963 2906 3769 2906 
Q 3419 2906 3187 2673 
Q 2956 2441 2956 1928 
L 2956 0 
L 2394 0 
L 2394 2156 
Q 2394 2531 2256 2718 
Q 2119 2906 1806 2906 
Q 1569 2906 1367 2781 
Q 1166 2656 1075 2415 
Q 984 2175 984 1722 
L 984 0 
L 422 0 
z
" id="ArialMT-6d" transform="scale(0.015625)"/>
       <path d="M 78 2291 
Q 97 2469 225 2647 
Q 422 2916 872 3242 
Q 1322 3569 1406 3663 
Q 1522 3791 1522 3925 
Q 1522 4075 1412 4172 
Q 1303 4269 1091 4269 
Q 884 4269 782 4195 
Q 681 4122 616 3913 
L 144 3963 
Q 234 4309 457 4473 
Q 681 4638 1100 4638 
Q 1572 4638 1792 4453 
Q 2013 4269 2013 4003 
Q 2013 3741 1828 3506 
Q 1688 3331 1188 2972 
Q 928 2781 819 2669 
L 2025 2669 
L 2025 2291 
L 78 2291 
z
" id="ArialMT-b2" transform="scale(0.015625)"/>
      </defs>
      <use xlink:href="#ArialMT-6b"/>
      <use x="50" xlink:href="#ArialMT-67"/>
      <use x="105.615234" xlink:href="#ArialMT-43"/>
      <use x="177.832031" xlink:href="#ArialMT-4f"/>
      <use x="255.615234" xlink:href="#ArialMT-32"/>
      <use x="311.230469" xlink:href="#ArialMT-65"/>
      <use x="366.845703" xlink:href="#ArialMT-2f"/>
      <use x="394.628906" xlink:href="#ArialMT-6d"/>
      <use x="477.929688" xlink:href="#ArialMT-b2"/>
      <use x="511.230469" xlink:href="#ArialMT-2f"/>
      <use x="539.013672" xlink:href="#ArialMT-79"/>
      <use x="589.013672" xlink:href="#ArialMT-65"/>
      <use x="644.628906" xlink:href="#ArialMT-61"/>
      <use x="700.244141" xlink:href="#ArialMT-72"/>
     </g>
    </g>
   </g>
   <g id="patch_3">
    <path clip-path="url(#pef789d63b8)" d="M 60.079625 104.288089 
L 100.883125 104.288089 
L 100.883125 100.878336 
L 60.079625 100.878336 
L 60.079625 104.288089 
z
" style="fill:#1e94d2;stroke:#484848;stroke-linejoin:miter;"/>
   </g>
   <g id="patch_4">
    <path clip-path="url(#pef789d63b8)" d="M 141.686625 108.217834 
L 182.490125 108.217834 
L 182.490125 98.451853 
L 141.686625 98.451853 
L 141.686625 108.217834 
z
" style="fill:#1e94d2;stroke:#484848;stroke-linejoin:miter;"/>
   </g>
   <g id="line2d_11">
    <path clip-path="url(#pef789d63b8)" d="M 80.481375 104.288089 
L 80.481375 109.328437 
" style="fill:none;stroke:#484848;stroke-linecap:round;"/>
   </g>
   <g id="line2d_12">
    <path clip-path="url(#pef789d63b8)" d="M 80.481375 100.878336 
L 80.481375 95.852379 
" style="fill:none;stroke:#484848;stroke-linecap:round;"/>
   </g>
   <g id="line2d_13">
    <path clip-path="url(#pef789d63b8)" d="M 70.2805 109.328437 
L 90.68225 109.328437 
" style="fill:none;stroke:#484848;stroke-linecap:round;"/>
   </g>
   <g id="line2d_14">
    <path clip-path="url(#pef789d63b8)" d="M 70.2805 95.852379 
L 90.68225 95.852379 
" style="fill:none;stroke:#484848;stroke-linecap:round;"/>
   </g>
   <g id="line2d_15">
    <defs>
     <path d="M 0 2.828427 
L 1.697056 0 
L 0 -2.828427 
L -1.697056 0 
z
" id="m4d3cc1123d" style="stroke:#000000;stroke-linejoin:miter;"/>
    </defs>
    <g clip-path="url(#pef789d63b8)">
     <use style="fill:#ffffff;stroke:#000000;stroke-linejoin:miter;" x="80.481375" xlink:href="#m4d3cc1123d" y="110.131773"/>
     <use style="fill:#ffffff;stroke:#000000;stroke-linejoin:miter;" x="80.481375" xlink:href="#m4d3cc1123d" y="110.155575"/>
     <use style="fill:#ffffff;stroke:#000000;stroke-linejoin:miter;" x="80.481375" xlink:href="#m4d3cc1123d" y="110.048465"/>
     <use style="fill:#ffffff;stroke:#000000;stroke-linejoin:miter;" x="80.481375" xlink:href="#m4d3cc1123d" y="110.833938"/>
     <use style="fill:#ffffff;stroke:#000000;stroke-linejoin:miter;" x="80.481375" xlink:href="#m4d3cc1123d" y="111.167169"/>
     <use style="fill:#ffffff;stroke:#000000;stroke-linejoin:miter;" x="80.481375" xlink:href="#m4d3cc1123d" y="109.822344"/>
     <use style="fill:#ffffff;stroke:#000000;stroke-linejoin:miter;" x="80.481375" xlink:href="#m4d3cc1123d" y="110.000861"/>
     <use style="fill:#ffffff;stroke:#000000;stroke-linejoin:miter;" x="80.481375" xlink:href="#m4d3cc1123d" y="109.98896"/>
     <use style="fill:#ffffff;stroke:#000000;stroke-linejoin:miter;" x="80.481375" xlink:href="#m4d3cc1123d" y="110.357894"/>
     <use style="fill:#ffffff;stroke:#000000;stroke-linejoin:miter;" x="80.481375" xlink:href="#m4d3cc1123d" y="110.048465"/>
     <use style="fill:#ffffff;stroke:#000000;stroke-linejoin:miter;" x="80.481375" xlink:href="#m4d3cc1123d" y="111.583708"/>
     <use style="fill:#ffffff;stroke:#000000;stroke-linejoin:miter;" x="80.481375" xlink:href="#m4d3cc1123d" y="112.494938"/>
     <use style="fill:#ffffff;stroke:#000000;stroke-linejoin:miter;" x="80.481375" xlink:href="#m4d3cc1123d" y="109.507886"/>
     <use style="fill:#ffffff;stroke:#000000;stroke-linejoin:miter;" x="80.481375" xlink:href="#m4d3cc1123d" y="111.590711"/>
     <use style="fill:#ffffff;stroke:#000000;stroke-linejoin:miter;" x="80.481375" xlink:href="#m4d3cc1123d" y="110.863401"/>
     <use style="fill:#ffffff;stroke:#000000;stroke-linejoin:miter;" x="80.481375" xlink:href="#m4d3cc1123d" y="110.828395"/>
     <use style="fill:#ffffff;stroke:#000000;stroke-linejoin:miter;" x="80.481375" xlink:href="#m4d3cc1123d" y="110.453896"/>
     <use style="fill:#ffffff;stroke:#000000;stroke-linejoin:miter;" x="80.481375" xlink:href="#m4d3cc1123d" y="110.115905"/>
     <use style="fill:#ffffff;stroke:#000000;stroke-linejoin:miter;" x="80.481375" xlink:href="#m4d3cc1123d" y="109.56462"/>
     <use style="fill:#ffffff;stroke:#000000;stroke-linejoin:miter;" x="80.481375" xlink:href="#m4d3cc1123d" y="109.548451"/>
     <use style="fill:#ffffff;stroke:#000000;stroke-linejoin:miter;" x="80.481375" xlink:href="#m4d3cc1123d" y="110.22601"/>
     <use style="fill:#ffffff;stroke:#000000;stroke-linejoin:miter;" x="80.481375" xlink:href="#m4d3cc1123d" y="111.015782"/>
     <use style="fill:#ffffff;stroke:#000000;stroke-linejoin:miter;" x="80.481375" xlink:href="#m4d3cc1123d" y="111.05149"/>
     <use style="fill:#ffffff;stroke:#000000;stroke-linejoin:miter;" x="80.481375" xlink:href="#m4d3cc1123d" y="110.081689"/>
     <use style="fill:#ffffff;stroke:#000000;stroke-linejoin:miter;" x="80.481375" xlink:href="#m4d3cc1123d" y="111.647256"/>
     <use style="fill:#ffffff;stroke:#000000;stroke-linejoin:miter;" x="80.481375" xlink:href="#m4d3cc1123d" y="111.604806"/>
     <use style="fill:#ffffff;stroke:#000000;stroke-linejoin:miter;" x="80.481375" xlink:href="#m4d3cc1123d" y="111.507398"/>
     <use style="fill:#ffffff;stroke:#000000;stroke-linejoin:miter;" x="80.481375" xlink:href="#m4d3cc1123d" y="111.326317"/>
     <use style="fill:#ffffff;stroke:#000000;stroke-linejoin:miter;" x="80.481375" xlink:href="#m4d3cc1123d" y="111.505757"/>
     <use style="fill:#ffffff;stroke:#000000;stroke-linejoin:miter;" x="80.481375" xlink:href="#m4d3cc1123d" y="112.418478"/>
     <use style="fill:#ffffff;stroke:#000000;stroke-linejoin:miter;" x="80.481375" xlink:href="#m4d3cc1123d" y="112.428585"/>
     <use style="fill:#ffffff;stroke:#000000;stroke-linejoin:miter;" x="80.481375" xlink:href="#m4d3cc1123d" y="112.325746"/>
     <use style="fill:#ffffff;stroke:#000000;stroke-linejoin:miter;" x="80.481375" xlink:href="#m4d3cc1123d" y="111.598742"/>
     <use style="fill:#ffffff;stroke:#000000;stroke-linejoin:miter;" x="80.481375" xlink:href="#m4d3cc1123d" y="84.649754"/>
     <use style="fill:#ffffff;stroke:#000000;stroke-linejoin:miter;" x="80.481375" xlink:href="#m4d3cc1123d" y="75.305214"/>
     <use style="fill:#ffffff;stroke:#000000;stroke-linejoin:miter;" x="80.481375" xlink:href="#m4d3cc1123d" y="95.278259"/>
     <use style="fill:#ffffff;stroke:#000000;stroke-linejoin:miter;" x="80.481375" xlink:href="#m4d3cc1123d" y="94.670372"/>
     <use style="fill:#ffffff;stroke:#000000;stroke-linejoin:miter;" x="80.481375" xlink:href="#m4d3cc1123d" y="94.314151"/>
     <use style="fill:#ffffff;stroke:#000000;stroke-linejoin:miter;" x="80.481375" xlink:href="#m4d3cc1123d" y="94.203658"/>
     <use style="fill:#ffffff;stroke:#000000;stroke-linejoin:miter;" x="80.481375" xlink:href="#m4d3cc1123d" y="94.034988"/>
     <use style="fill:#ffffff;stroke:#000000;stroke-linejoin:miter;" x="80.481375" xlink:href="#m4d3cc1123d" y="95.302021"/>
     <use style="fill:#ffffff;stroke:#000000;stroke-linejoin:miter;" x="80.481375" xlink:href="#m4d3cc1123d" y="93.044629"/>
     <use style="fill:#ffffff;stroke:#000000;stroke-linejoin:miter;" x="80.481375" xlink:href="#m4d3cc1123d" y="94.914604"/>
     <use style="fill:#ffffff;stroke:#000000;stroke-linejoin:miter;" x="80.481375" xlink:href="#m4d3cc1123d" y="95.762228"/>
     <use style="fill:#ffffff;stroke:#000000;stroke-linejoin:miter;" x="80.481375" xlink:href="#m4d3cc1123d" y="87.10234"/>
     <use style="fill:#ffffff;stroke:#000000;stroke-linejoin:miter;" x="80.481375" xlink:href="#m4d3cc1123d" y="88.457363"/>
    </g>
   </g>
   <g id="line2d_16">
    <path clip-path="url(#pef789d63b8)" d="M 162.088375 108.217834 
L 162.088375 113.859683 
" style="fill:none;stroke:#484848;stroke-linecap:round;"/>
   </g>
   <g id="line2d_17">
    <path clip-path="url(#pef789d63b8)" d="M 162.088375 98.451853 
L 162.088375 84.475176 
" style="fill:none;stroke:#484848;stroke-linecap:round;"/>
   </g>
   <g id="line2d_18">
    <path clip-path="url(#pef789d63b8)" d="M 151.8875 113.859683 
L 172.28925 113.859683 
" style="fill:none;stroke:#484848;stroke-linecap:round;"/>
   </g>
   <g id="line2d_19">
    <path clip-path="url(#pef789d63b8)" d="M 151.8875 84.475176 
L 172.28925 84.475176 
" style="fill:none;stroke:#484848;stroke-linecap:round;"/>
   </g>
   <g id="line2d_20">
    <g clip-path="url(#pef789d63b8)">
     <use style="fill:#ffffff;stroke:#000000;stroke-linejoin:miter;" x="162.088375" xlink:href="#m4d3cc1123d" y="81.998401"/>
     <use style="fill:#ffffff;stroke:#000000;stroke-linejoin:miter;" x="162.088375" xlink:href="#m4d3cc1123d" y="44.581825"/>
     <use style="fill:#ffffff;stroke:#000000;stroke-linejoin:miter;" x="162.088375" xlink:href="#m4d3cc1123d" y="76.025938"/>
     <use style="fill:#ffffff;stroke:#000000;stroke-linejoin:miter;" x="162.088375" xlink:href="#m4d3cc1123d" y="81.33814"/>
     <use style="fill:#ffffff;stroke:#000000;stroke-linejoin:miter;" x="162.088375" xlink:href="#m4d3cc1123d" y="81.787876"/>
     <use style="fill:#ffffff;stroke:#000000;stroke-linejoin:miter;" x="162.088375" xlink:href="#m4d3cc1123d" y="76.690647"/>
     <use style="fill:#ffffff;stroke:#000000;stroke-linejoin:miter;" x="162.088375" xlink:href="#m4d3cc1123d" y="73.566371"/>
    </g>
   </g>
   <g id="line2d_21">
    <path clip-path="url(#pef789d63b8)" d="M 60.079625 102.511424 
L 100.883125 102.511424 
" style="fill:none;stroke:#484848;stroke-linecap:round;"/>
   </g>
   <g id="line2d_22">
    <defs>
     <path d="M 0 2.5 
C 0.663008 2.5 1.29895 2.236584 1.767767 1.767767 
C 2.236584 1.29895 2.5 0.663008 2.5 0 
C 2.5 -0.663008 2.236584 -1.29895 1.767767 -1.767767 
C 1.29895 -2.236584 0.663008 -2.5 0 -2.5 
C -0.663008 -2.5 -1.29895 -2.236584 -1.767767 -1.767767 
C -2.236584 -1.29895 -2.5 -0.663008 -2.5 0 
C -2.5 0.663008 -2.236584 1.29895 -1.767767 1.767767 
C -1.29895 2.236584 -0.663008 2.5 0 2.5 
z
" id="m8f054a66cf" style="stroke:#000000;"/>
    </defs>
    <g clip-path="url(#pef789d63b8)">
     <use style="fill:#ffffff;stroke:#000000;" x="80.481375" xlink:href="#m8f054a66cf" y="102.747388"/>
    </g>
   </g>
   <g id="line2d_23">
    <path clip-path="url(#pef789d63b8)" d="M 141.686625 105.335627 
L 182.490125 105.335627 
" style="fill:none;stroke:#484848;stroke-linecap:round;"/>
   </g>
   <g id="line2d_24">
    <g clip-path="url(#pef789d63b8)">
     <use style="fill:#ffffff;stroke:#000000;" x="162.088375" xlink:href="#m8f054a66cf" y="101.87265"/>
    </g>
   </g>
   <g id="patch_5">
    <path d="M 39.677875 116.403656 
L 39.677875 33.095906 
" style="fill:none;stroke:#262626;stroke-linecap:square;stroke-linejoin:miter;"/>
   </g>
   <g id="patch_6">
    <path d="M 202.891875 116.403656 
L 202.891875 33.095906 
" style="fill:none;stroke:#262626;stroke-linecap:square;stroke-linejoin:miter;"/>
   </g>
   <g id="patch_7">
    <path d="M 39.677875 116.403656 
L 202.891875 116.403656 
" style="fill:none;stroke:#262626;stroke-linecap:square;stroke-linejoin:miter;"/>
   </g>
   <g id="patch_8">
    <path d="M 39.677875 33.095906 
L 202.891875 33.095906 
" style="fill:none;stroke:#262626;stroke-linecap:square;stroke-linejoin:miter;"/>
   </g>
   <g id="text_9">
    <!-- Embodied carbon per m² per year -->
    <g style="fill:#262626;" transform="translate(39.057297 15.171562)scale(0.11 -0.11)">
     <defs>
      <path d="M 506 0 
L 506 4581 
L 3819 4581 
L 3819 4041 
L 1113 4041 
L 1113 2638 
L 3647 2638 
L 3647 2100 
L 1113 2100 
L 1113 541 
L 3925 541 
L 3925 0 
L 506 0 
z
" id="ArialMT-45" transform="scale(0.015625)"/>
      <path d="M 2588 1216 
L 3141 1144 
Q 3050 572 2676 248 
Q 2303 -75 1759 -75 
Q 1078 -75 664 370 
Q 250 816 250 1647 
Q 250 2184 428 2587 
Q 606 2991 970 3192 
Q 1334 3394 1763 3394 
Q 2303 3394 2647 3120 
Q 2991 2847 3088 2344 
L 2541 2259 
Q 2463 2594 2264 2762 
Q 2066 2931 1784 2931 
Q 1359 2931 1093 2626 
Q 828 2322 828 1663 
Q 828 994 1084 691 
Q 1341 388 1753 388 
Q 2084 388 2306 591 
Q 2528 794 2588 1216 
z
" id="ArialMT-63" transform="scale(0.015625)"/>
     </defs>
     <use xlink:href="#ArialMT-45"/>
     <use x="66.699219" xlink:href="#ArialMT-6d"/>
     <use x="150" xlink:href="#ArialMT-62"/>
     <use x="205.615234" xlink:href="#ArialMT-6f"/>
     <use x="261.230469" xlink:href="#ArialMT-64"/>
     <use x="316.845703" xlink:href="#ArialMT-69"/>
     <use x="339.0625" xlink:href="#ArialMT-65"/>
     <use x="394.677734" xlink:href="#ArialMT-64"/>
     <use x="450.292969" xlink:href="#ArialMT-20"/>
     <use x="478.076172" xlink:href="#ArialMT-63"/>
     <use x="528.076172" xlink:href="#ArialMT-61"/>
     <use x="583.691406" xlink:href="#ArialMT-72"/>
     <use x="616.992188" xlink:href="#ArialMT-62"/>
     <use x="672.607422" xlink:href="#ArialMT-6f"/>
     <use x="728.222656" xlink:href="#ArialMT-6e"/>
     <use x="783.837891" xlink:href="#ArialMT-20"/>
     <use x="811.621094" xlink:href="#ArialMT-70"/>
     <use x="867.236328" xlink:href="#ArialMT-65"/>
     <use x="922.851562" xlink:href="#ArialMT-72"/>
     <use x="956.152344" xlink:href="#ArialMT-20"/>
     <use x="983.935547" xlink:href="#ArialMT-6d"/>
     <use x="1067.236328" xlink:href="#ArialMT-b2"/>
     <use x="1100.537109" xlink:href="#ArialMT-20"/>
     <use x="1128.320312" xlink:href="#ArialMT-70"/>
     <use x="1183.935547" xlink:href="#ArialMT-65"/>
     <use x="1239.550781" xlink:href="#ArialMT-72"/>
     <use x="1272.851562" xlink:href="#ArialMT-20"/>
     <use x="1300.634766" xlink:href="#ArialMT-79"/>
     <use x="1350.634766" xlink:href="#ArialMT-65"/>
     <use x="1406.25" xlink:href="#ArialMT-61"/>
     <use x="1461.865234" xlink:href="#ArialMT-72"/>
    </g>
    <!-- by building use type for EU-ECB -->
    <g style="fill:#262626;" transform="translate(42.416594 27.095906)scale(0.11 -0.11)">
     <defs>
      <path d="M 556 0 
L 556 2881 
L 59 2881 
L 59 3319 
L 556 3319 
L 556 3672 
Q 556 4006 616 4169 
Q 697 4388 901 4523 
Q 1106 4659 1475 4659 
Q 1713 4659 2000 4603 
L 1916 4113 
Q 1741 4144 1584 4144 
Q 1328 4144 1222 4034 
Q 1116 3925 1116 3625 
L 1116 3319 
L 1763 3319 
L 1763 2881 
L 1116 2881 
L 1116 0 
L 556 0 
z
" id="ArialMT-66" transform="scale(0.015625)"/>
      <path d="M 3500 4581 
L 4106 4581 
L 4106 1934 
Q 4106 1244 3950 837 
Q 3794 431 3386 176 
Q 2978 -78 2316 -78 
Q 1672 -78 1262 144 
Q 853 366 678 786 
Q 503 1206 503 1934 
L 503 4581 
L 1109 4581 
L 1109 1938 
Q 1109 1341 1220 1058 
Q 1331 775 1601 622 
Q 1872 469 2263 469 
Q 2931 469 3215 772 
Q 3500 1075 3500 1938 
L 3500 4581 
z
" id="ArialMT-55" transform="scale(0.015625)"/>
      <path d="M 469 0 
L 469 4581 
L 2188 4581 
Q 2713 4581 3030 4442 
Q 3347 4303 3526 4014 
Q 3706 3725 3706 3409 
Q 3706 3116 3547 2856 
Q 3388 2597 3066 2438 
Q 3481 2316 3704 2022 
Q 3928 1728 3928 1328 
Q 3928 1006 3792 729 
Q 3656 453 3456 303 
Q 3256 153 2954 76 
Q 2653 0 2216 0 
L 469 0 
z
M 1075 2656 
L 2066 2656 
Q 2469 2656 2644 2709 
Q 2875 2778 2992 2937 
Q 3109 3097 3109 3338 
Q 3109 3566 3000 3739 
Q 2891 3913 2687 3977 
Q 2484 4041 1991 4041 
L 1075 4041 
L 1075 2656 
z
M 1075 541 
L 2216 541 
Q 2509 541 2628 563 
Q 2838 600 2978 687 
Q 3119 775 3209 942 
Q 3300 1109 3300 1328 
Q 3300 1584 3169 1773 
Q 3038 1963 2805 2039 
Q 2572 2116 2134 2116 
L 1075 2116 
L 1075 541 
z
" id="ArialMT-42" transform="scale(0.015625)"/>
     </defs>
     <use xlink:href="#ArialMT-62"/>
     <use x="55.615234" xlink:href="#ArialMT-79"/>
     <use x="105.615234" xlink:href="#ArialMT-20"/>
     <use x="133.398438" xlink:href="#ArialMT-62"/>
     <use x="189.013672" xlink:href="#ArialMT-75"/>
     <use x="244.628906" xlink:href="#ArialMT-69"/>
     <use x="266.845703" xlink:href="#ArialMT-6c"/>
     <use x="289.0625" xlink:href="#ArialMT-64"/>
     <use x="344.677734" xlink:href="#ArialMT-69"/>
     <use x="366.894531" xlink:href="#ArialMT-6e"/>
     <use x="422.509766" xlink:href="#ArialMT-67"/>
     <use x="478.125" xlink:href="#ArialMT-20"/>
     <use x="505.908203" xlink:href="#ArialMT-75"/>
     <use x="561.523438" xlink:href="#ArialMT-73"/>
     <use x="611.523438" xlink:href="#ArialMT-65"/>
     <use x="667.138672" xlink:href="#ArialMT-20"/>
     <use x="694.921875" xlink:href="#ArialMT-74"/>
     <use x="722.705078" xlink:href="#ArialMT-79"/>
     <use x="772.705078" xlink:href="#ArialMT-70"/>
     <use x="828.320312" xlink:href="#ArialMT-65"/>
     <use x="883.935547" xlink:href="#ArialMT-20"/>
     <use x="911.71875" xlink:href="#ArialMT-66"/>
     <use x="939.501953" xlink:href="#ArialMT-6f"/>
     <use x="995.117188" xlink:href="#ArialMT-72"/>
     <use x="1028.417969" xlink:href="#ArialMT-20"/>
     <use x="1056.201172" xlink:href="#ArialMT-45"/>
     <use x="1122.900391" xlink:href="#ArialMT-55"/>
     <use x="1195.117188" xlink:href="#ArialMT-2d"/>
     <use x="1228.417969" xlink:href="#ArialMT-45"/>
     <use x="1295.117188" xlink:href="#ArialMT-43"/>
     <use x="1367.333984" xlink:href="#ArialMT-42"/>
    </g>
   </g>
  </g>
 </g>
 <defs>
  <clipPath id="pef789d63b8">
   <rect height="83.30775" width="163.214" x="39.677875" y="33.095906"/>
  </clipPath>
 </defs>
</svg>
