<?xml version="1.0" encoding="utf-8" standalone="no"?>
<!DOCTYPE svg PUBLIC "-//W3C//DTD SVG 1.1//EN"
  "http://www.w3.org/Graphics/SVG/1.1/DTD/svg11.dtd">
<svg height="216pt" version="1.1" viewBox="0 0 432 216" width="432pt" xmlns="http://www.w3.org/2000/svg" xmlns:xlink="http://www.w3.org/1999/xlink">
 <metadata>
  <rdf:RDF xmlns:cc="http://creativecommons.org/ns#" xmlns:dc="http://purl.org/dc/elements/1.1/" xmlns:rdf="http://www.w3.org/1999/02/22-rdf-syntax-ns#">
   <cc:Work>
    <dc:type rdf:resource="http://purl.org/dc/dcmitype/StillImage"/>
    <dc:date>2022-03-23T21:08:52.398941</dc:date>
    <dc:format>image/svg+xml</dc:format>
    <dc:creator>
     <cc:Agent>
      <dc:title>Matplotlib v3.4.2, https://matplotlib.org/</dc:title>
     </cc:Agent>
    </dc:creator>
   </cc:Work>
  </rdf:RDF>
 </metadata>
 <defs>
  <style type="text/css">*{stroke-linecap:butt;stroke-linejoin:round;}</style>
 </defs>
 <g id="figure_1">
  <g id="patch_1">
   <path d="M 0 216 
L 432 216 
L 432 0 
L 0 0 
z
" style="fill:#ffffff;"/>
  </g>
  <g id="axes_1">
   <g id="patch_2">
    <path d="M 47.293 174.332 
L 421.632 174.332 
L 421.632 36.014875 
L 47.293 36.014875 
z
" style="fill:#ffffff;"/>
   </g>
   <g id="matplotlib.axis_1">
    <g id="xtick_1">
     <g id="line2d_1">
      <defs>
       <path d="M 0 0 
L 0 4.8 
" id="mb502ea1b2e" style="stroke:#262626;"/>
      </defs>
      <g>
       <use style="fill:#262626;stroke:#262626;" x="84.7269" xlink:href="#mb502ea1b2e" y="174.332"/>
      </g>
     </g>
     <g id="text_1">
      <!-- A123 -->
      <g style="fill:#262626;" transform="translate(74.217994 189.074031)scale(0.09 -0.09)">
       <defs>
        <path d="M -9 0 
L 1750 4581 
L 2403 4581 
L 4278 0 
L 3588 0 
L 3053 1388 
L 1138 1388 
L 634 0 
L -9 0 
z
M 1313 1881 
L 2866 1881 
L 2388 3150 
Q 2169 3728 2063 4100 
Q 1975 3659 1816 3225 
L 1313 1881 
z
" id="ArialMT-41" transform="scale(0.015625)"/>
        <path d="M 2384 0 
L 1822 0 
L 1822 3584 
Q 1619 3391 1289 3197 
Q 959 3003 697 2906 
L 697 3450 
Q 1169 3672 1522 3987 
Q 1875 4303 2022 4600 
L 2384 4600 
L 2384 0 
z
" id="ArialMT-31" transform="scale(0.015625)"/>
        <path d="M 3222 541 
L 3222 0 
L 194 0 
Q 188 203 259 391 
Q 375 700 629 1000 
Q 884 1300 1366 1694 
Q 2113 2306 2375 2664 
Q 2638 3022 2638 3341 
Q 2638 3675 2398 3904 
Q 2159 4134 1775 4134 
Q 1369 4134 1125 3890 
Q 881 3647 878 3216 
L 300 3275 
Q 359 3922 746 4261 
Q 1134 4600 1788 4600 
Q 2447 4600 2831 4234 
Q 3216 3869 3216 3328 
Q 3216 3053 3103 2787 
Q 2991 2522 2730 2228 
Q 2469 1934 1863 1422 
Q 1356 997 1212 845 
Q 1069 694 975 541 
L 3222 541 
z
" id="ArialMT-32" transform="scale(0.015625)"/>
        <path d="M 269 1209 
L 831 1284 
Q 928 806 1161 595 
Q 1394 384 1728 384 
Q 2125 384 2398 659 
Q 2672 934 2672 1341 
Q 2672 1728 2419 1979 
Q 2166 2231 1775 2231 
Q 1616 2231 1378 2169 
L 1441 2663 
Q 1497 2656 1531 2656 
Q 1891 2656 2178 2843 
Q 2466 3031 2466 3422 
Q 2466 3731 2256 3934 
Q 2047 4138 1716 4138 
Q 1388 4138 1169 3931 
Q 950 3725 888 3313 
L 325 3413 
Q 428 3978 793 4289 
Q 1159 4600 1703 4600 
Q 2078 4600 2393 4439 
Q 2709 4278 2876 4000 
Q 3044 3722 3044 3409 
Q 3044 3113 2884 2869 
Q 2725 2625 2413 2481 
Q 2819 2388 3044 2092 
Q 3269 1797 3269 1353 
Q 3269 753 2831 336 
Q 2394 -81 1725 -81 
Q 1122 -81 723 278 
Q 325 638 269 1209 
z
" id="ArialMT-33" transform="scale(0.015625)"/>
       </defs>
       <use xlink:href="#ArialMT-41"/>
       <use x="66.699219" xlink:href="#ArialMT-31"/>
       <use x="122.314453" xlink:href="#ArialMT-32"/>
       <use x="177.929688" xlink:href="#ArialMT-33"/>
      </g>
     </g>
    </g>
    <g id="xtick_2">
     <g id="line2d_2">
      <g>
       <use style="fill:#262626;stroke:#262626;" x="159.5947" xlink:href="#mb502ea1b2e" y="174.332"/>
      </g>
     </g>
     <g id="text_2">
      <!-- A45 -->
      <g style="fill:#262626;" transform="translate(151.588216 189.074031)scale(0.09 -0.09)">
       <defs>
        <path d="M 2069 0 
L 2069 1097 
L 81 1097 
L 81 1613 
L 2172 4581 
L 2631 4581 
L 2631 1613 
L 3250 1613 
L 3250 1097 
L 2631 1097 
L 2631 0 
L 2069 0 
z
M 2069 1613 
L 2069 3678 
L 634 1613 
L 2069 1613 
z
" id="ArialMT-34" transform="scale(0.015625)"/>
        <path d="M 266 1200 
L 856 1250 
Q 922 819 1161 601 
Q 1400 384 1738 384 
Q 2144 384 2425 690 
Q 2706 997 2706 1503 
Q 2706 1984 2436 2262 
Q 2166 2541 1728 2541 
Q 1456 2541 1237 2417 
Q 1019 2294 894 2097 
L 366 2166 
L 809 4519 
L 3088 4519 
L 3088 3981 
L 1259 3981 
L 1013 2750 
Q 1425 3038 1878 3038 
Q 2478 3038 2890 2622 
Q 3303 2206 3303 1553 
Q 3303 931 2941 478 
Q 2500 -78 1738 -78 
Q 1113 -78 717 272 
Q 322 622 266 1200 
z
" id="ArialMT-35" transform="scale(0.015625)"/>
       </defs>
       <use xlink:href="#ArialMT-41"/>
       <use x="66.699219" xlink:href="#ArialMT-34"/>
       <use x="122.314453" xlink:href="#ArialMT-35"/>
      </g>
     </g>
    </g>
    <g id="xtick_3">
     <g id="line2d_3">
      <g>
       <use style="fill:#262626;stroke:#262626;" x="234.4625" xlink:href="#mb502ea1b2e" y="174.332"/>
      </g>
     </g>
     <g id="text_3">
      <!-- B1234 -->
      <g style="fill:#262626;" transform="translate(221.451172 189.074031)scale(0.09 -0.09)">
       <defs>
        <path d="M 469 0 
L 469 4581 
L 2188 4581 
Q 2713 4581 3030 4442 
Q 3347 4303 3526 4014 
Q 3706 3725 3706 3409 
Q 3706 3116 3547 2856 
Q 3388 2597 3066 2438 
Q 3481 2316 3704 2022 
Q 3928 1728 3928 1328 
Q 3928 1006 3792 729 
Q 3656 453 3456 303 
Q 3256 153 2954 76 
Q 2653 0 2216 0 
L 469 0 
z
M 1075 2656 
L 2066 2656 
Q 2469 2656 2644 2709 
Q 2875 2778 2992 2937 
Q 3109 3097 3109 3338 
Q 3109 3566 3000 3739 
Q 2891 3913 2687 3977 
Q 2484 4041 1991 4041 
L 1075 4041 
L 1075 2656 
z
M 1075 541 
L 2216 541 
Q 2509 541 2628 563 
Q 2838 600 2978 687 
Q 3119 775 3209 942 
Q 3300 1109 3300 1328 
Q 3300 1584 3169 1773 
Q 3038 1963 2805 2039 
Q 2572 2116 2134 2116 
L 1075 2116 
L 1075 541 
z
" id="ArialMT-42" transform="scale(0.015625)"/>
       </defs>
       <use xlink:href="#ArialMT-42"/>
       <use x="66.699219" xlink:href="#ArialMT-31"/>
       <use x="122.314453" xlink:href="#ArialMT-32"/>
       <use x="177.929688" xlink:href="#ArialMT-33"/>
       <use x="233.544922" xlink:href="#ArialMT-34"/>
      </g>
     </g>
    </g>
    <g id="xtick_4">
     <g id="line2d_4">
      <g>
       <use style="fill:#262626;stroke:#262626;" x="309.3303" xlink:href="#mb502ea1b2e" y="174.332"/>
      </g>
     </g>
     <g id="text_4">
      <!-- C12 -->
      <g style="fill:#262626;" transform="translate(301.075612 189.074031)scale(0.09 -0.09)">
       <defs>
        <path d="M 3763 1606 
L 4369 1453 
Q 4178 706 3683 314 
Q 3188 -78 2472 -78 
Q 1731 -78 1267 223 
Q 803 525 561 1097 
Q 319 1669 319 2325 
Q 319 3041 592 3573 
Q 866 4106 1370 4382 
Q 1875 4659 2481 4659 
Q 3169 4659 3637 4309 
Q 4106 3959 4291 3325 
L 3694 3184 
Q 3534 3684 3231 3912 
Q 2928 4141 2469 4141 
Q 1941 4141 1586 3887 
Q 1231 3634 1087 3207 
Q 944 2781 944 2328 
Q 944 1744 1114 1308 
Q 1284 872 1643 656 
Q 2003 441 2422 441 
Q 2931 441 3284 734 
Q 3638 1028 3763 1606 
z
" id="ArialMT-43" transform="scale(0.015625)"/>
       </defs>
       <use xlink:href="#ArialMT-43"/>
       <use x="72.216797" xlink:href="#ArialMT-31"/>
       <use x="127.832031" xlink:href="#ArialMT-32"/>
      </g>
     </g>
    </g>
    <g id="xtick_5">
     <g id="line2d_5">
      <g>
       <use style="fill:#262626;stroke:#262626;" x="384.1981" xlink:href="#mb502ea1b2e" y="174.332"/>
      </g>
     </g>
     <g id="text_5">
      <!-- C34 -->
      <g style="fill:#262626;" transform="translate(375.943412 189.074031)scale(0.09 -0.09)">
       <use xlink:href="#ArialMT-43"/>
       <use x="72.216797" xlink:href="#ArialMT-33"/>
       <use x="127.832031" xlink:href="#ArialMT-34"/>
      </g>
     </g>
    </g>
    <g id="text_6">
     <!-- Life cycle stages -->
     <g style="fill:#262626;" transform="translate(197.501562 203.142469)scale(0.1 -0.1)">
      <defs>
       <path d="M 469 0 
L 469 4581 
L 1075 4581 
L 1075 541 
L 3331 541 
L 3331 0 
L 469 0 
z
" id="ArialMT-4c" transform="scale(0.015625)"/>
       <path d="M 425 3934 
L 425 4581 
L 988 4581 
L 988 3934 
L 425 3934 
z
M 425 0 
L 425 3319 
L 988 3319 
L 988 0 
L 425 0 
z
" id="ArialMT-69" transform="scale(0.015625)"/>
       <path d="M 556 0 
L 556 2881 
L 59 2881 
L 59 3319 
L 556 3319 
L 556 3672 
Q 556 4006 616 4169 
Q 697 4388 901 4523 
Q 1106 4659 1475 4659 
Q 1713 4659 2000 4603 
L 1916 4113 
Q 1741 4144 1584 4144 
Q 1328 4144 1222 4034 
Q 1116 3925 1116 3625 
L 1116 3319 
L 1763 3319 
L 1763 2881 
L 1116 2881 
L 1116 0 
L 556 0 
z
" id="ArialMT-66" transform="scale(0.015625)"/>
       <path d="M 2694 1069 
L 3275 997 
Q 3138 488 2766 206 
Q 2394 -75 1816 -75 
Q 1088 -75 661 373 
Q 234 822 234 1631 
Q 234 2469 665 2931 
Q 1097 3394 1784 3394 
Q 2450 3394 2872 2941 
Q 3294 2488 3294 1666 
Q 3294 1616 3291 1516 
L 816 1516 
Q 847 969 1125 678 
Q 1403 388 1819 388 
Q 2128 388 2347 550 
Q 2566 713 2694 1069 
z
M 847 1978 
L 2700 1978 
Q 2663 2397 2488 2606 
Q 2219 2931 1791 2931 
Q 1403 2931 1139 2672 
Q 875 2413 847 1978 
z
" id="ArialMT-65" transform="scale(0.015625)"/>
       <path id="ArialMT-20" transform="scale(0.015625)"/>
       <path d="M 2588 1216 
L 3141 1144 
Q 3050 572 2676 248 
Q 2303 -75 1759 -75 
Q 1078 -75 664 370 
Q 250 816 250 1647 
Q 250 2184 428 2587 
Q 606 2991 970 3192 
Q 1334 3394 1763 3394 
Q 2303 3394 2647 3120 
Q 2991 2847 3088 2344 
L 2541 2259 
Q 2463 2594 2264 2762 
Q 2066 2931 1784 2931 
Q 1359 2931 1093 2626 
Q 828 2322 828 1663 
Q 828 994 1084 691 
Q 1341 388 1753 388 
Q 2084 388 2306 591 
Q 2528 794 2588 1216 
z
" id="ArialMT-63" transform="scale(0.015625)"/>
       <path d="M 397 -1278 
L 334 -750 
Q 519 -800 656 -800 
Q 844 -800 956 -737 
Q 1069 -675 1141 -563 
Q 1194 -478 1313 -144 
Q 1328 -97 1363 -6 
L 103 3319 
L 709 3319 
L 1400 1397 
Q 1534 1031 1641 628 
Q 1738 1016 1872 1384 
L 2581 3319 
L 3144 3319 
L 1881 -56 
Q 1678 -603 1566 -809 
Q 1416 -1088 1222 -1217 
Q 1028 -1347 759 -1347 
Q 597 -1347 397 -1278 
z
" id="ArialMT-79" transform="scale(0.015625)"/>
       <path d="M 409 0 
L 409 4581 
L 972 4581 
L 972 0 
L 409 0 
z
" id="ArialMT-6c" transform="scale(0.015625)"/>
       <path d="M 197 991 
L 753 1078 
Q 800 744 1014 566 
Q 1228 388 1613 388 
Q 2000 388 2187 545 
Q 2375 703 2375 916 
Q 2375 1106 2209 1216 
Q 2094 1291 1634 1406 
Q 1016 1563 777 1677 
Q 538 1791 414 1992 
Q 291 2194 291 2438 
Q 291 2659 392 2848 
Q 494 3038 669 3163 
Q 800 3259 1026 3326 
Q 1253 3394 1513 3394 
Q 1903 3394 2198 3281 
Q 2494 3169 2634 2976 
Q 2775 2784 2828 2463 
L 2278 2388 
Q 2241 2644 2061 2787 
Q 1881 2931 1553 2931 
Q 1166 2931 1000 2803 
Q 834 2675 834 2503 
Q 834 2394 903 2306 
Q 972 2216 1119 2156 
Q 1203 2125 1616 2013 
Q 2213 1853 2448 1751 
Q 2684 1650 2818 1456 
Q 2953 1263 2953 975 
Q 2953 694 2789 445 
Q 2625 197 2315 61 
Q 2006 -75 1616 -75 
Q 969 -75 630 194 
Q 291 463 197 991 
z
" id="ArialMT-73" transform="scale(0.015625)"/>
       <path d="M 1650 503 
L 1731 6 
Q 1494 -44 1306 -44 
Q 1000 -44 831 53 
Q 663 150 594 308 
Q 525 466 525 972 
L 525 2881 
L 113 2881 
L 113 3319 
L 525 3319 
L 525 4141 
L 1084 4478 
L 1084 3319 
L 1650 3319 
L 1650 2881 
L 1084 2881 
L 1084 941 
Q 1084 700 1114 631 
Q 1144 563 1211 522 
Q 1278 481 1403 481 
Q 1497 481 1650 503 
z
" id="ArialMT-74" transform="scale(0.015625)"/>
       <path d="M 2588 409 
Q 2275 144 1986 34 
Q 1697 -75 1366 -75 
Q 819 -75 525 192 
Q 231 459 231 875 
Q 231 1119 342 1320 
Q 453 1522 633 1644 
Q 813 1766 1038 1828 
Q 1203 1872 1538 1913 
Q 2219 1994 2541 2106 
Q 2544 2222 2544 2253 
Q 2544 2597 2384 2738 
Q 2169 2928 1744 2928 
Q 1347 2928 1158 2789 
Q 969 2650 878 2297 
L 328 2372 
Q 403 2725 575 2942 
Q 747 3159 1072 3276 
Q 1397 3394 1825 3394 
Q 2250 3394 2515 3294 
Q 2781 3194 2906 3042 
Q 3031 2891 3081 2659 
Q 3109 2516 3109 2141 
L 3109 1391 
Q 3109 606 3145 398 
Q 3181 191 3288 0 
L 2700 0 
Q 2613 175 2588 409 
z
M 2541 1666 
Q 2234 1541 1622 1453 
Q 1275 1403 1131 1340 
Q 988 1278 909 1158 
Q 831 1038 831 891 
Q 831 666 1001 516 
Q 1172 366 1500 366 
Q 1825 366 2078 508 
Q 2331 650 2450 897 
Q 2541 1088 2541 1459 
L 2541 1666 
z
" id="ArialMT-61" transform="scale(0.015625)"/>
       <path d="M 319 -275 
L 866 -356 
Q 900 -609 1056 -725 
Q 1266 -881 1628 -881 
Q 2019 -881 2231 -725 
Q 2444 -569 2519 -288 
Q 2563 -116 2559 434 
Q 2191 0 1641 0 
Q 956 0 581 494 
Q 206 988 206 1678 
Q 206 2153 378 2554 
Q 550 2956 876 3175 
Q 1203 3394 1644 3394 
Q 2231 3394 2613 2919 
L 2613 3319 
L 3131 3319 
L 3131 450 
Q 3131 -325 2973 -648 
Q 2816 -972 2473 -1159 
Q 2131 -1347 1631 -1347 
Q 1038 -1347 672 -1080 
Q 306 -813 319 -275 
z
M 784 1719 
Q 784 1066 1043 766 
Q 1303 466 1694 466 
Q 2081 466 2343 764 
Q 2606 1063 2606 1700 
Q 2606 2309 2336 2618 
Q 2066 2928 1684 2928 
Q 1309 2928 1046 2623 
Q 784 2319 784 1719 
z
" id="ArialMT-67" transform="scale(0.015625)"/>
      </defs>
      <use xlink:href="#ArialMT-4c"/>
      <use x="55.615234" xlink:href="#ArialMT-69"/>
      <use x="77.832031" xlink:href="#ArialMT-66"/>
      <use x="105.615234" xlink:href="#ArialMT-65"/>
      <use x="161.230469" xlink:href="#ArialMT-20"/>
      <use x="189.013672" xlink:href="#ArialMT-63"/>
      <use x="239.013672" xlink:href="#ArialMT-79"/>
      <use x="289.013672" xlink:href="#ArialMT-63"/>
      <use x="339.013672" xlink:href="#ArialMT-6c"/>
      <use x="361.230469" xlink:href="#ArialMT-65"/>
      <use x="416.845703" xlink:href="#ArialMT-20"/>
      <use x="444.628906" xlink:href="#ArialMT-73"/>
      <use x="494.628906" xlink:href="#ArialMT-74"/>
      <use x="522.412109" xlink:href="#ArialMT-61"/>
      <use x="578.027344" xlink:href="#ArialMT-67"/>
      <use x="633.642578" xlink:href="#ArialMT-65"/>
      <use x="689.257812" xlink:href="#ArialMT-73"/>
     </g>
    </g>
   </g>
   <g id="matplotlib.axis_2">
    <g id="ytick_1">
     <g id="line2d_6">
      <path clip-path="url(#p437c880a01)" d="M 47.293 174.332 
L 421.632 174.332 
" style="fill:none;stroke:#cccccc;stroke-linecap:round;stroke-width:0.8;"/>
     </g>
     <g id="line2d_7">
      <defs>
       <path d="M 0 0 
L -4.8 0 
" id="md7ab638476" style="stroke:#262626;"/>
      </defs>
      <g>
       <use style="fill:#262626;stroke:#262626;" x="47.293" xlink:href="#md7ab638476" y="174.332"/>
      </g>
     </g>
     <g id="text_7">
      <!-- 0 -->
      <g style="fill:#262626;" transform="translate(34.099375 177.481437)scale(0.088 -0.088)">
       <defs>
        <path d="M 266 2259 
Q 266 3072 433 3567 
Q 600 4063 929 4331 
Q 1259 4600 1759 4600 
Q 2128 4600 2406 4451 
Q 2684 4303 2865 4023 
Q 3047 3744 3150 3342 
Q 3253 2941 3253 2259 
Q 3253 1453 3087 958 
Q 2922 463 2592 192 
Q 2263 -78 1759 -78 
Q 1097 -78 719 397 
Q 266 969 266 2259 
z
M 844 2259 
Q 844 1131 1108 757 
Q 1372 384 1759 384 
Q 2147 384 2411 759 
Q 2675 1134 2675 2259 
Q 2675 3391 2411 3762 
Q 2147 4134 1753 4134 
Q 1366 4134 1134 3806 
Q 844 3388 844 2259 
z
" id="ArialMT-30" transform="scale(0.015625)"/>
       </defs>
       <use xlink:href="#ArialMT-30"/>
      </g>
     </g>
    </g>
    <g id="ytick_2">
     <g id="line2d_8">
      <path clip-path="url(#p437c880a01)" d="M 47.293 153.052442 
L 421.632 153.052442 
" style="fill:none;stroke:#cccccc;stroke-linecap:round;stroke-width:0.8;"/>
     </g>
     <g id="line2d_9">
      <g>
       <use style="fill:#262626;stroke:#262626;" x="47.293" xlink:href="#md7ab638476" y="153.052442"/>
      </g>
     </g>
     <g id="text_8">
      <!-- 100 -->
      <g style="fill:#262626;" transform="translate(24.312125 156.20188)scale(0.088 -0.088)">
       <use xlink:href="#ArialMT-31"/>
       <use x="55.615234" xlink:href="#ArialMT-30"/>
       <use x="111.230469" xlink:href="#ArialMT-30"/>
      </g>
     </g>
    </g>
    <g id="ytick_3">
     <g id="line2d_10">
      <path clip-path="url(#p437c880a01)" d="M 47.293 131.772885 
L 421.632 131.772885 
" style="fill:none;stroke:#cccccc;stroke-linecap:round;stroke-width:0.8;"/>
     </g>
     <g id="line2d_11">
      <g>
       <use style="fill:#262626;stroke:#262626;" x="47.293" xlink:href="#md7ab638476" y="131.772885"/>
      </g>
     </g>
     <g id="text_9">
      <!-- 200 -->
      <g style="fill:#262626;" transform="translate(24.312125 134.922322)scale(0.088 -0.088)">
       <use xlink:href="#ArialMT-32"/>
       <use x="55.615234" xlink:href="#ArialMT-30"/>
       <use x="111.230469" xlink:href="#ArialMT-30"/>
      </g>
     </g>
    </g>
    <g id="ytick_4">
     <g id="line2d_12">
      <path clip-path="url(#p437c880a01)" d="M 47.293 110.493327 
L 421.632 110.493327 
" style="fill:none;stroke:#cccccc;stroke-linecap:round;stroke-width:0.8;"/>
     </g>
     <g id="line2d_13">
      <g>
       <use style="fill:#262626;stroke:#262626;" x="47.293" xlink:href="#md7ab638476" y="110.493327"/>
      </g>
     </g>
     <g id="text_10">
      <!-- 300 -->
      <g style="fill:#262626;" transform="translate(24.312125 113.642764)scale(0.088 -0.088)">
       <use xlink:href="#ArialMT-33"/>
       <use x="55.615234" xlink:href="#ArialMT-30"/>
       <use x="111.230469" xlink:href="#ArialMT-30"/>
      </g>
     </g>
    </g>
    <g id="ytick_5">
     <g id="line2d_14">
      <path clip-path="url(#p437c880a01)" d="M 47.293 89.213769 
L 421.632 89.213769 
" style="fill:none;stroke:#cccccc;stroke-linecap:round;stroke-width:0.8;"/>
     </g>
     <g id="line2d_15">
      <g>
       <use style="fill:#262626;stroke:#262626;" x="47.293" xlink:href="#md7ab638476" y="89.213769"/>
      </g>
     </g>
     <g id="text_11">
      <!-- 400 -->
      <g style="fill:#262626;" transform="translate(24.312125 92.363207)scale(0.088 -0.088)">
       <use xlink:href="#ArialMT-34"/>
       <use x="55.615234" xlink:href="#ArialMT-30"/>
       <use x="111.230469" xlink:href="#ArialMT-30"/>
      </g>
     </g>
    </g>
    <g id="ytick_6">
     <g id="line2d_16">
      <path clip-path="url(#p437c880a01)" d="M 47.293 67.934212 
L 421.632 67.934212 
" style="fill:none;stroke:#cccccc;stroke-linecap:round;stroke-width:0.8;"/>
     </g>
     <g id="line2d_17">
      <g>
       <use style="fill:#262626;stroke:#262626;" x="47.293" xlink:href="#md7ab638476" y="67.934212"/>
      </g>
     </g>
     <g id="text_12">
      <!-- 500 -->
      <g style="fill:#262626;" transform="translate(24.312125 71.083649)scale(0.088 -0.088)">
       <use xlink:href="#ArialMT-35"/>
       <use x="55.615234" xlink:href="#ArialMT-30"/>
       <use x="111.230469" xlink:href="#ArialMT-30"/>
      </g>
     </g>
    </g>
    <g id="ytick_7">
     <g id="line2d_18">
      <path clip-path="url(#p437c880a01)" d="M 47.293 46.654654 
L 421.632 46.654654 
" style="fill:none;stroke:#cccccc;stroke-linecap:round;stroke-width:0.8;"/>
     </g>
     <g id="line2d_19">
      <g>
       <use style="fill:#262626;stroke:#262626;" x="47.293" xlink:href="#md7ab638476" y="46.654654"/>
      </g>
     </g>
     <g id="text_13">
      <!-- 600 -->
      <g style="fill:#262626;" transform="translate(24.312125 49.804091)scale(0.088 -0.088)">
       <defs>
        <path d="M 3184 3459 
L 2625 3416 
Q 2550 3747 2413 3897 
Q 2184 4138 1850 4138 
Q 1581 4138 1378 3988 
Q 1113 3794 959 3422 
Q 806 3050 800 2363 
Q 1003 2672 1297 2822 
Q 1591 2972 1913 2972 
Q 2475 2972 2870 2558 
Q 3266 2144 3266 1488 
Q 3266 1056 3080 686 
Q 2894 316 2569 119 
Q 2244 -78 1831 -78 
Q 1128 -78 684 439 
Q 241 956 241 2144 
Q 241 3472 731 4075 
Q 1159 4600 1884 4600 
Q 2425 4600 2770 4297 
Q 3116 3994 3184 3459 
z
M 888 1484 
Q 888 1194 1011 928 
Q 1134 663 1356 523 
Q 1578 384 1822 384 
Q 2178 384 2434 671 
Q 2691 959 2691 1453 
Q 2691 1928 2437 2201 
Q 2184 2475 1800 2475 
Q 1419 2475 1153 2201 
Q 888 1928 888 1484 
z
" id="ArialMT-36" transform="scale(0.015625)"/>
       </defs>
       <use xlink:href="#ArialMT-36"/>
       <use x="55.615234" xlink:href="#ArialMT-30"/>
       <use x="111.230469" xlink:href="#ArialMT-30"/>
      </g>
     </g>
    </g>
    <g id="text_14">
     <!-- kgCO2/m²/year -->
     <g style="fill:#262626;" transform="translate(17.207437 139.067969)rotate(-90)scale(0.1 -0.1)">
      <defs>
       <path d="M 425 0 
L 425 4581 
L 988 4581 
L 988 1969 
L 2319 3319 
L 3047 3319 
L 1778 2088 
L 3175 0 
L 2481 0 
L 1384 1697 
L 988 1316 
L 988 0 
L 425 0 
z
" id="ArialMT-6b" transform="scale(0.015625)"/>
       <path d="M 309 2231 
Q 309 3372 921 4017 
Q 1534 4663 2503 4663 
Q 3138 4663 3647 4359 
Q 4156 4056 4423 3514 
Q 4691 2972 4691 2284 
Q 4691 1588 4409 1038 
Q 4128 488 3612 205 
Q 3097 -78 2500 -78 
Q 1853 -78 1343 234 
Q 834 547 571 1087 
Q 309 1628 309 2231 
z
M 934 2222 
Q 934 1394 1379 917 
Q 1825 441 2497 441 
Q 3181 441 3623 922 
Q 4066 1403 4066 2288 
Q 4066 2847 3877 3264 
Q 3688 3681 3323 3911 
Q 2959 4141 2506 4141 
Q 1863 4141 1398 3698 
Q 934 3256 934 2222 
z
" id="ArialMT-4f" transform="scale(0.015625)"/>
       <path d="M 0 -78 
L 1328 4659 
L 1778 4659 
L 453 -78 
L 0 -78 
z
" id="ArialMT-2f" transform="scale(0.015625)"/>
       <path d="M 422 0 
L 422 3319 
L 925 3319 
L 925 2853 
Q 1081 3097 1340 3245 
Q 1600 3394 1931 3394 
Q 2300 3394 2536 3241 
Q 2772 3088 2869 2813 
Q 3263 3394 3894 3394 
Q 4388 3394 4653 3120 
Q 4919 2847 4919 2278 
L 4919 0 
L 4359 0 
L 4359 2091 
Q 4359 2428 4304 2576 
Q 4250 2725 4106 2815 
Q 3963 2906 3769 2906 
Q 3419 2906 3187 2673 
Q 2956 2441 2956 1928 
L 2956 0 
L 2394 0 
L 2394 2156 
Q 2394 2531 2256 2718 
Q 2119 2906 1806 2906 
Q 1569 2906 1367 2781 
Q 1166 2656 1075 2415 
Q 984 2175 984 1722 
L 984 0 
L 422 0 
z
" id="ArialMT-6d" transform="scale(0.015625)"/>
       <path d="M 78 2291 
Q 97 2469 225 2647 
Q 422 2916 872 3242 
Q 1322 3569 1406 3663 
Q 1522 3791 1522 3925 
Q 1522 4075 1412 4172 
Q 1303 4269 1091 4269 
Q 884 4269 782 4195 
Q 681 4122 616 3913 
L 144 3963 
Q 234 4309 457 4473 
Q 681 4638 1100 4638 
Q 1572 4638 1792 4453 
Q 2013 4269 2013 4003 
Q 2013 3741 1828 3506 
Q 1688 3331 1188 2972 
Q 928 2781 819 2669 
L 2025 2669 
L 2025 2291 
L 78 2291 
z
" id="ArialMT-b2" transform="scale(0.015625)"/>
       <path d="M 416 0 
L 416 3319 
L 922 3319 
L 922 2816 
Q 1116 3169 1280 3281 
Q 1444 3394 1641 3394 
Q 1925 3394 2219 3213 
L 2025 2691 
Q 1819 2813 1613 2813 
Q 1428 2813 1281 2702 
Q 1134 2591 1072 2394 
Q 978 2094 978 1738 
L 978 0 
L 416 0 
z
" id="ArialMT-72" transform="scale(0.015625)"/>
      </defs>
      <use xlink:href="#ArialMT-6b"/>
      <use x="50" xlink:href="#ArialMT-67"/>
      <use x="105.615234" xlink:href="#ArialMT-43"/>
      <use x="177.832031" xlink:href="#ArialMT-4f"/>
      <use x="255.615234" xlink:href="#ArialMT-32"/>
      <use x="311.230469" xlink:href="#ArialMT-2f"/>
      <use x="339.013672" xlink:href="#ArialMT-6d"/>
      <use x="422.314453" xlink:href="#ArialMT-b2"/>
      <use x="455.615234" xlink:href="#ArialMT-2f"/>
      <use x="483.398438" xlink:href="#ArialMT-79"/>
      <use x="533.398438" xlink:href="#ArialMT-65"/>
      <use x="589.013672" xlink:href="#ArialMT-61"/>
      <use x="644.628906" xlink:href="#ArialMT-72"/>
     </g>
    </g>
   </g>
   <g id="patch_3">
    <path clip-path="url(#p437c880a01)" d="M 66.00995 112.561785 
L 103.44385 112.561785 
L 103.44385 88.232542 
L 66.00995 88.232542 
L 66.00995 112.561785 
z
" style="fill:#1e94d2;stroke:#484848;stroke-linejoin:miter;"/>
   </g>
   <g id="patch_4">
    <path clip-path="url(#p437c880a01)" d="M 140.87775 166.617715 
L 178.31165 166.617715 
L 178.31165 163.226034 
L 140.87775 163.226034 
L 140.87775 166.617715 
z
" style="fill:#1e94d2;stroke:#484848;stroke-linejoin:miter;"/>
   </g>
   <g id="patch_5">
    <path clip-path="url(#p437c880a01)" d="M 215.74555 130.297638 
L 253.17945 130.297638 
L 253.17945 120.332831 
L 215.74555 120.332831 
L 215.74555 130.297638 
z
" style="fill:#1e94d2;stroke:#484848;stroke-linejoin:miter;"/>
   </g>
   <g id="patch_6">
    <path clip-path="url(#p437c880a01)" d="M 290.61335 172.159723 
L 328.04725 172.159723 
L 328.04725 171.237196 
L 290.61335 171.237196 
L 290.61335 172.159723 
z
" style="fill:#1e94d2;stroke:#484848;stroke-linejoin:miter;"/>
   </g>
   <g id="patch_7">
    <path clip-path="url(#p437c880a01)" d="M 365.48115 172.348661 
L 402.91505 172.348661 
L 402.91505 171.678467 
L 365.48115 171.678467 
L 365.48115 172.348661 
z
" style="fill:#1e94d2;stroke:#484848;stroke-linejoin:miter;"/>
   </g>
   <g id="line2d_20">
    <path clip-path="url(#p437c880a01)" d="M 84.7269 112.561785 
L 84.7269 118.384495 
" style="fill:none;stroke:#484848;stroke-linecap:round;"/>
   </g>
   <g id="line2d_21">
    <path clip-path="url(#p437c880a01)" d="M 84.7269 88.232542 
L 84.7269 52.819113 
" style="fill:none;stroke:#484848;stroke-linecap:round;"/>
   </g>
   <g id="line2d_22">
    <path clip-path="url(#p437c880a01)" d="M 75.368425 118.384495 
L 94.085375 118.384495 
" style="fill:none;stroke:#484848;stroke-linecap:round;"/>
   </g>
   <g id="line2d_23">
    <path clip-path="url(#p437c880a01)" d="M 75.368425 52.819113 
L 94.085375 52.819113 
" style="fill:none;stroke:#484848;stroke-linecap:round;"/>
   </g>
   <g id="line2d_24">
    <defs>
     <path d="M 0 2.828427 
L 1.697056 0 
L 0 -2.828427 
L -1.697056 0 
z
" id="m8bc4ec19fd" style="stroke:#000000;stroke-linejoin:miter;"/>
    </defs>
    <g clip-path="url(#p437c880a01)">
     <use style="fill:#ffffff;stroke:#000000;stroke-linejoin:miter;" x="84.7269" xlink:href="#m8bc4ec19fd" y="49.372559"/>
     <use style="fill:#ffffff;stroke:#000000;stroke-linejoin:miter;" x="84.7269" xlink:href="#m8bc4ec19fd" y="49.372559"/>
    </g>
   </g>
   <g id="line2d_25">
    <path clip-path="url(#p437c880a01)" d="M 159.5947 166.617715 
L 159.5947 167.42165 
" style="fill:none;stroke:#484848;stroke-linecap:round;"/>
   </g>
   <g id="line2d_26">
    <path clip-path="url(#p437c880a01)" d="M 159.5947 163.226034 
L 159.5947 158.957472 
" style="fill:none;stroke:#484848;stroke-linecap:round;"/>
   </g>
   <g id="line2d_27">
    <path clip-path="url(#p437c880a01)" d="M 150.236225 167.42165 
L 168.953175 167.42165 
" style="fill:none;stroke:#484848;stroke-linecap:round;"/>
   </g>
   <g id="line2d_28">
    <path clip-path="url(#p437c880a01)" d="M 150.236225 158.957472 
L 168.953175 158.957472 
" style="fill:none;stroke:#484848;stroke-linecap:round;"/>
   </g>
   <g id="line2d_29"/>
   <g id="line2d_30">
    <path clip-path="url(#p437c880a01)" d="M 234.4625 130.297638 
L 234.4625 133.158501 
" style="fill:none;stroke:#484848;stroke-linecap:round;"/>
   </g>
   <g id="line2d_31">
    <path clip-path="url(#p437c880a01)" d="M 234.4625 120.332831 
L 234.4625 109.660829 
" style="fill:none;stroke:#484848;stroke-linecap:round;"/>
   </g>
   <g id="line2d_32">
    <path clip-path="url(#p437c880a01)" d="M 225.104025 133.158501 
L 243.820975 133.158501 
" style="fill:none;stroke:#484848;stroke-linecap:round;"/>
   </g>
   <g id="line2d_33">
    <path clip-path="url(#p437c880a01)" d="M 225.104025 109.660829 
L 243.820975 109.660829 
" style="fill:none;stroke:#484848;stroke-linecap:round;"/>
   </g>
   <g id="line2d_34"/>
   <g id="line2d_35">
    <path clip-path="url(#p437c880a01)" d="M 309.3303 172.159723 
L 309.3303 172.720234 
" style="fill:none;stroke:#484848;stroke-linecap:round;"/>
   </g>
   <g id="line2d_36">
    <path clip-path="url(#p437c880a01)" d="M 309.3303 171.237196 
L 309.3303 169.853826 
" style="fill:none;stroke:#484848;stroke-linecap:round;"/>
   </g>
   <g id="line2d_37">
    <path clip-path="url(#p437c880a01)" d="M 299.971825 172.720234 
L 318.688775 172.720234 
" style="fill:none;stroke:#484848;stroke-linecap:round;"/>
   </g>
   <g id="line2d_38">
    <path clip-path="url(#p437c880a01)" d="M 299.971825 169.853826 
L 318.688775 169.853826 
" style="fill:none;stroke:#484848;stroke-linecap:round;"/>
   </g>
   <g id="line2d_39">
    <g clip-path="url(#p437c880a01)">
     <use style="fill:#ffffff;stroke:#000000;stroke-linejoin:miter;" x="309.3303" xlink:href="#m8bc4ec19fd" y="169.798168"/>
     <use style="fill:#ffffff;stroke:#000000;stroke-linejoin:miter;" x="309.3303" xlink:href="#m8bc4ec19fd" y="169.553893"/>
     <use style="fill:#ffffff;stroke:#000000;stroke-linejoin:miter;" x="309.3303" xlink:href="#m8bc4ec19fd" y="169.605214"/>
     <use style="fill:#ffffff;stroke:#000000;stroke-linejoin:miter;" x="309.3303" xlink:href="#m8bc4ec19fd" y="169.553893"/>
     <use style="fill:#ffffff;stroke:#000000;stroke-linejoin:miter;" x="309.3303" xlink:href="#m8bc4ec19fd" y="169.605214"/>
    </g>
   </g>
   <g id="line2d_40">
    <path clip-path="url(#p437c880a01)" d="M 384.1981 172.348661 
L 384.1981 173.097818 
" style="fill:none;stroke:#484848;stroke-linecap:round;"/>
   </g>
   <g id="line2d_41">
    <path clip-path="url(#p437c880a01)" d="M 384.1981 171.678467 
L 384.1981 170.808022 
" style="fill:none;stroke:#484848;stroke-linecap:round;"/>
   </g>
   <g id="line2d_42">
    <path clip-path="url(#p437c880a01)" d="M 374.839625 173.097818 
L 393.556575 173.097818 
" style="fill:none;stroke:#484848;stroke-linecap:round;"/>
   </g>
   <g id="line2d_43">
    <path clip-path="url(#p437c880a01)" d="M 374.839625 170.808022 
L 393.556575 170.808022 
" style="fill:none;stroke:#484848;stroke-linecap:round;"/>
   </g>
   <g id="line2d_44">
    <g clip-path="url(#p437c880a01)">
     <use style="fill:#ffffff;stroke:#000000;stroke-linejoin:miter;" x="384.1981" xlink:href="#m8bc4ec19fd" y="170.578523"/>
     <use style="fill:#ffffff;stroke:#000000;stroke-linejoin:miter;" x="384.1981" xlink:href="#m8bc4ec19fd" y="169.898123"/>
     <use style="fill:#ffffff;stroke:#000000;stroke-linejoin:miter;" x="384.1981" xlink:href="#m8bc4ec19fd" y="170.501297"/>
     <use style="fill:#ffffff;stroke:#000000;stroke-linejoin:miter;" x="384.1981" xlink:href="#m8bc4ec19fd" y="170.59311"/>
     <use style="fill:#ffffff;stroke:#000000;stroke-linejoin:miter;" x="384.1981" xlink:href="#m8bc4ec19fd" y="170.59311"/>
    </g>
   </g>
   <g id="line2d_45">
    <path clip-path="url(#p437c880a01)" d="M 66.00995 107.717842 
L 103.44385 107.717842 
" style="fill:none;stroke:#484848;stroke-linecap:round;"/>
   </g>
   <g id="line2d_46">
    <defs>
     <path d="M 0 2.5 
C 0.663008 2.5 1.29895 2.236584 1.767767 1.767767 
C 2.236584 1.29895 2.5 0.663008 2.5 0 
C 2.5 -0.663008 2.236584 -1.29895 1.767767 -1.767767 
C 1.29895 -2.236584 0.663008 -2.5 0 -2.5 
C -0.663008 -2.5 -1.29895 -2.236584 -1.767767 -1.767767 
C -2.236584 -1.29895 -2.5 -0.663008 -2.5 0 
C -2.5 0.663008 -2.236584 1.29895 -1.767767 1.767767 
C -1.29895 2.236584 -0.663008 2.5 0 2.5 
z
" id="me868cd2eda" style="stroke:#000000;"/>
    </defs>
    <g clip-path="url(#p437c880a01)">
     <use style="fill:#ffffff;stroke:#000000;" x="84.7269" xlink:href="#me868cd2eda" y="98.956626"/>
    </g>
   </g>
   <g id="line2d_47">
    <path clip-path="url(#p437c880a01)" d="M 140.87775 165.927475 
L 178.31165 165.927475 
" style="fill:none;stroke:#484848;stroke-linecap:round;"/>
   </g>
   <g id="line2d_48">
    <g clip-path="url(#p437c880a01)">
     <use style="fill:#ffffff;stroke:#000000;" x="159.5947" xlink:href="#me868cd2eda" y="164.875246"/>
    </g>
   </g>
   <g id="line2d_49">
    <path clip-path="url(#p437c880a01)" d="M 215.74555 127.040861 
L 253.17945 127.040861 
" style="fill:none;stroke:#484848;stroke-linecap:round;"/>
   </g>
   <g id="line2d_50">
    <g clip-path="url(#p437c880a01)">
     <use style="fill:#ffffff;stroke:#000000;" x="234.4625" xlink:href="#me868cd2eda" y="124.937753"/>
    </g>
   </g>
   <g id="line2d_51">
    <path clip-path="url(#p437c880a01)" d="M 290.61335 171.946583 
L 328.04725 171.946583 
" style="fill:none;stroke:#484848;stroke-linecap:round;"/>
   </g>
   <g id="line2d_52">
    <g clip-path="url(#p437c880a01)">
     <use style="fill:#ffffff;stroke:#000000;" x="309.3303" xlink:href="#me868cd2eda" y="171.626613"/>
    </g>
   </g>
   <g id="line2d_53">
    <path clip-path="url(#p437c880a01)" d="M 365.48115 172.022323 
L 402.91505 172.022323 
" style="fill:none;stroke:#484848;stroke-linecap:round;"/>
   </g>
   <g id="line2d_54">
    <g clip-path="url(#p437c880a01)">
     <use style="fill:#ffffff;stroke:#000000;" x="384.1981" xlink:href="#me868cd2eda" y="171.92877"/>
    </g>
   </g>
   <g id="patch_8">
    <path d="M 47.293 174.332 
L 47.293 36.014875 
" style="fill:none;stroke:#262626;stroke-linecap:square;stroke-linejoin:miter;"/>
   </g>
   <g id="patch_9">
    <path d="M 421.632 174.332 
L 421.632 36.014875 
" style="fill:none;stroke:#262626;stroke-linecap:square;stroke-linejoin:miter;"/>
   </g>
   <g id="patch_10">
    <path d="M 47.293 174.332 
L 421.632 174.332 
" style="fill:none;stroke:#262626;stroke-linecap:square;stroke-linejoin:miter;"/>
   </g>
   <g id="patch_11">
    <path d="M 47.293 36.014875 
L 421.632 36.014875 
" style="fill:none;stroke:#262626;stroke-linecap:square;stroke-linejoin:miter;"/>
   </g>
   <g id="text_15">
    <!-- Embodied Carbon sum of life cycle stages  -->
    <g style="fill:#262626;" transform="translate(130.22375 18.251406)scale(0.11 -0.11)">
     <defs>
      <path d="M 506 0 
L 506 4581 
L 3819 4581 
L 3819 4041 
L 1113 4041 
L 1113 2638 
L 3647 2638 
L 3647 2100 
L 1113 2100 
L 1113 541 
L 3925 541 
L 3925 0 
L 506 0 
z
" id="ArialMT-45" transform="scale(0.015625)"/>
      <path d="M 941 0 
L 419 0 
L 419 4581 
L 981 4581 
L 981 2947 
Q 1338 3394 1891 3394 
Q 2197 3394 2470 3270 
Q 2744 3147 2920 2923 
Q 3097 2700 3197 2384 
Q 3297 2069 3297 1709 
Q 3297 856 2875 390 
Q 2453 -75 1863 -75 
Q 1275 -75 941 416 
L 941 0 
z
M 934 1684 
Q 934 1088 1097 822 
Q 1363 388 1816 388 
Q 2184 388 2453 708 
Q 2722 1028 2722 1663 
Q 2722 2313 2464 2622 
Q 2206 2931 1841 2931 
Q 1472 2931 1203 2611 
Q 934 2291 934 1684 
z
" id="ArialMT-62" transform="scale(0.015625)"/>
      <path d="M 213 1659 
Q 213 2581 725 3025 
Q 1153 3394 1769 3394 
Q 2453 3394 2887 2945 
Q 3322 2497 3322 1706 
Q 3322 1066 3130 698 
Q 2938 331 2570 128 
Q 2203 -75 1769 -75 
Q 1072 -75 642 372 
Q 213 819 213 1659 
z
M 791 1659 
Q 791 1022 1069 705 
Q 1347 388 1769 388 
Q 2188 388 2466 706 
Q 2744 1025 2744 1678 
Q 2744 2294 2464 2611 
Q 2184 2928 1769 2928 
Q 1347 2928 1069 2612 
Q 791 2297 791 1659 
z
" id="ArialMT-6f" transform="scale(0.015625)"/>
      <path d="M 2575 0 
L 2575 419 
Q 2259 -75 1647 -75 
Q 1250 -75 917 144 
Q 584 363 401 755 
Q 219 1147 219 1656 
Q 219 2153 384 2558 
Q 550 2963 881 3178 
Q 1213 3394 1622 3394 
Q 1922 3394 2156 3267 
Q 2391 3141 2538 2938 
L 2538 4581 
L 3097 4581 
L 3097 0 
L 2575 0 
z
M 797 1656 
Q 797 1019 1065 703 
Q 1334 388 1700 388 
Q 2069 388 2326 689 
Q 2584 991 2584 1609 
Q 2584 2291 2321 2609 
Q 2059 2928 1675 2928 
Q 1300 2928 1048 2622 
Q 797 2316 797 1656 
z
" id="ArialMT-64" transform="scale(0.015625)"/>
      <path d="M 422 0 
L 422 3319 
L 928 3319 
L 928 2847 
Q 1294 3394 1984 3394 
Q 2284 3394 2536 3286 
Q 2788 3178 2913 3003 
Q 3038 2828 3088 2588 
Q 3119 2431 3119 2041 
L 3119 0 
L 2556 0 
L 2556 2019 
Q 2556 2363 2490 2533 
Q 2425 2703 2258 2804 
Q 2091 2906 1866 2906 
Q 1506 2906 1245 2678 
Q 984 2450 984 1813 
L 984 0 
L 422 0 
z
" id="ArialMT-6e" transform="scale(0.015625)"/>
      <path d="M 2597 0 
L 2597 488 
Q 2209 -75 1544 -75 
Q 1250 -75 995 37 
Q 741 150 617 320 
Q 494 491 444 738 
Q 409 903 409 1263 
L 409 3319 
L 972 3319 
L 972 1478 
Q 972 1038 1006 884 
Q 1059 663 1231 536 
Q 1403 409 1656 409 
Q 1909 409 2131 539 
Q 2353 669 2445 892 
Q 2538 1116 2538 1541 
L 2538 3319 
L 3100 3319 
L 3100 0 
L 2597 0 
z
" id="ArialMT-75" transform="scale(0.015625)"/>
     </defs>
     <use xlink:href="#ArialMT-45"/>
     <use x="66.699219" xlink:href="#ArialMT-6d"/>
     <use x="150" xlink:href="#ArialMT-62"/>
     <use x="205.615234" xlink:href="#ArialMT-6f"/>
     <use x="261.230469" xlink:href="#ArialMT-64"/>
     <use x="316.845703" xlink:href="#ArialMT-69"/>
     <use x="339.0625" xlink:href="#ArialMT-65"/>
     <use x="394.677734" xlink:href="#ArialMT-64"/>
     <use x="450.292969" xlink:href="#ArialMT-20"/>
     <use x="478.076172" xlink:href="#ArialMT-43"/>
     <use x="550.292969" xlink:href="#ArialMT-61"/>
     <use x="605.908203" xlink:href="#ArialMT-72"/>
     <use x="639.208984" xlink:href="#ArialMT-62"/>
     <use x="694.824219" xlink:href="#ArialMT-6f"/>
     <use x="750.439453" xlink:href="#ArialMT-6e"/>
     <use x="806.054688" xlink:href="#ArialMT-20"/>
     <use x="833.837891" xlink:href="#ArialMT-73"/>
     <use x="883.837891" xlink:href="#ArialMT-75"/>
     <use x="939.453125" xlink:href="#ArialMT-6d"/>
     <use x="1022.753906" xlink:href="#ArialMT-20"/>
     <use x="1050.537109" xlink:href="#ArialMT-6f"/>
     <use x="1106.152344" xlink:href="#ArialMT-66"/>
     <use x="1133.935547" xlink:href="#ArialMT-20"/>
     <use x="1161.71875" xlink:href="#ArialMT-6c"/>
     <use x="1183.935547" xlink:href="#ArialMT-69"/>
     <use x="1206.152344" xlink:href="#ArialMT-66"/>
     <use x="1233.935547" xlink:href="#ArialMT-65"/>
     <use x="1289.550781" xlink:href="#ArialMT-20"/>
     <use x="1317.333984" xlink:href="#ArialMT-63"/>
     <use x="1367.333984" xlink:href="#ArialMT-79"/>
     <use x="1417.333984" xlink:href="#ArialMT-63"/>
     <use x="1467.333984" xlink:href="#ArialMT-6c"/>
     <use x="1489.550781" xlink:href="#ArialMT-65"/>
     <use x="1545.166016" xlink:href="#ArialMT-20"/>
     <use x="1572.949219" xlink:href="#ArialMT-73"/>
     <use x="1622.949219" xlink:href="#ArialMT-74"/>
     <use x="1650.732422" xlink:href="#ArialMT-61"/>
     <use x="1706.347656" xlink:href="#ArialMT-67"/>
     <use x="1761.962891" xlink:href="#ArialMT-65"/>
     <use x="1817.578125" xlink:href="#ArialMT-73"/>
     <use x="1867.578125" xlink:href="#ArialMT-20"/>
    </g>
    <!-- formassive brick residential EU-ECB cases -->
    <g style="fill:#262626;" transform="translate(129.934141 30.014875)scale(0.11 -0.11)">
     <defs>
      <path d="M 1344 0 
L 81 3319 
L 675 3319 
L 1388 1331 
Q 1503 1009 1600 663 
Q 1675 925 1809 1294 
L 2547 3319 
L 3125 3319 
L 1869 0 
L 1344 0 
z
" id="ArialMT-76" transform="scale(0.015625)"/>
      <path d="M 3500 4581 
L 4106 4581 
L 4106 1934 
Q 4106 1244 3950 837 
Q 3794 431 3386 176 
Q 2978 -78 2316 -78 
Q 1672 -78 1262 144 
Q 853 366 678 786 
Q 503 1206 503 1934 
L 503 4581 
L 1109 4581 
L 1109 1938 
Q 1109 1341 1220 1058 
Q 1331 775 1601 622 
Q 1872 469 2263 469 
Q 2931 469 3215 772 
Q 3500 1075 3500 1938 
L 3500 4581 
z
" id="ArialMT-55" transform="scale(0.015625)"/>
      <path d="M 203 1375 
L 203 1941 
L 1931 1941 
L 1931 1375 
L 203 1375 
z
" id="ArialMT-2d" transform="scale(0.015625)"/>
     </defs>
     <use xlink:href="#ArialMT-66"/>
     <use x="27.783203" xlink:href="#ArialMT-6f"/>
     <use x="83.398438" xlink:href="#ArialMT-72"/>
     <use x="116.699219" xlink:href="#ArialMT-6d"/>
     <use x="200" xlink:href="#ArialMT-61"/>
     <use x="255.615234" xlink:href="#ArialMT-73"/>
     <use x="305.615234" xlink:href="#ArialMT-73"/>
     <use x="355.615234" xlink:href="#ArialMT-69"/>
     <use x="377.832031" xlink:href="#ArialMT-76"/>
     <use x="427.832031" xlink:href="#ArialMT-65"/>
     <use x="483.447266" xlink:href="#ArialMT-20"/>
     <use x="511.230469" xlink:href="#ArialMT-62"/>
     <use x="566.845703" xlink:href="#ArialMT-72"/>
     <use x="600.146484" xlink:href="#ArialMT-69"/>
     <use x="622.363281" xlink:href="#ArialMT-63"/>
     <use x="672.363281" xlink:href="#ArialMT-6b"/>
     <use x="722.363281" xlink:href="#ArialMT-20"/>
     <use x="750.146484" xlink:href="#ArialMT-72"/>
     <use x="783.447266" xlink:href="#ArialMT-65"/>
     <use x="839.0625" xlink:href="#ArialMT-73"/>
     <use x="889.0625" xlink:href="#ArialMT-69"/>
     <use x="911.279297" xlink:href="#ArialMT-64"/>
     <use x="966.894531" xlink:href="#ArialMT-65"/>
     <use x="1022.509766" xlink:href="#ArialMT-6e"/>
     <use x="1078.125" xlink:href="#ArialMT-74"/>
     <use x="1105.908203" xlink:href="#ArialMT-69"/>
     <use x="1128.125" xlink:href="#ArialMT-61"/>
     <use x="1183.740234" xlink:href="#ArialMT-6c"/>
     <use x="1205.957031" xlink:href="#ArialMT-20"/>
     <use x="1233.740234" xlink:href="#ArialMT-45"/>
     <use x="1300.439453" xlink:href="#ArialMT-55"/>
     <use x="1372.65625" xlink:href="#ArialMT-2d"/>
     <use x="1405.957031" xlink:href="#ArialMT-45"/>
     <use x="1472.65625" xlink:href="#ArialMT-43"/>
     <use x="1544.873047" xlink:href="#ArialMT-42"/>
     <use x="1611.572266" xlink:href="#ArialMT-20"/>
     <use x="1639.355469" xlink:href="#ArialMT-63"/>
     <use x="1689.355469" xlink:href="#ArialMT-61"/>
     <use x="1744.970703" xlink:href="#ArialMT-73"/>
     <use x="1794.970703" xlink:href="#ArialMT-65"/>
     <use x="1850.585938" xlink:href="#ArialMT-73"/>
    </g>
   </g>
  </g>
 </g>
 <defs>
  <clipPath id="p437c880a01">
   <rect height="138.317125" width="374.339" x="47.293" y="36.014875"/>
  </clipPath>
 </defs>
</svg>
