<?xml version="1.0" encoding="utf-8" standalone="no"?>
<!DOCTYPE svg PUBLIC "-//W3C//DTD SVG 1.1//EN"
  "http://www.w3.org/Graphics/SVG/1.1/DTD/svg11.dtd">
<!-- Created with matplotlib (http://matplotlib.org/) -->
<svg height="216pt" version="1.1" viewBox="0 0 432 216" width="432pt" xmlns="http://www.w3.org/2000/svg" xmlns:xlink="http://www.w3.org/1999/xlink">
 <defs>
  <style type="text/css">
*{stroke-linecap:butt;stroke-linejoin:round;}
  </style>
 </defs>
 <g id="figure_1">
  <g id="patch_1">
   <path d="M 0 216 
L 432 216 
L 432 0 
L 0 0 
z
" style="fill:#ffffff;"/>
  </g>
  <g id="axes_1">
   <g id="patch_2">
    <path d="M 52.168 174.332 
L 416.832 174.332 
L 416.832 25.368 
L 52.168 25.368 
z
" style="fill:#ffffff;"/>
   </g>
   <g id="matplotlib.axis_1">
    <g id="xtick_1">
     <g id="line2d_1">
      <defs>
       <path d="M 0 0 
L 0 4.8 
" id="mbd1f94fe1f" style="stroke:#262626;"/>
      </defs>
      <g>
       <use style="fill:#262626;stroke:#262626;" x="88.6344" xlink:href="#mbd1f94fe1f" y="174.332"/>
      </g>
     </g>
     <g id="text_1">
      <!-- Denmark -->
      <defs>
       <path d="M 7.71875 0 
L 7.71875 71.578125 
L 32.375 71.578125 
Q 40.71875 71.578125 45.125 70.5625 
Q 51.265625 69.140625 55.609375 65.4375 
Q 61.28125 60.640625 64.078125 53.1875 
Q 66.890625 45.75 66.890625 36.1875 
Q 66.890625 28.03125 64.984375 21.734375 
Q 63.09375 15.4375 60.109375 11.296875 
Q 57.125 7.171875 53.578125 4.796875 
Q 50.046875 2.4375 45.046875 1.21875 
Q 40.046875 0 33.546875 0 
z
M 17.1875 8.453125 
L 32.46875 8.453125 
Q 39.546875 8.453125 43.578125 9.765625 
Q 47.609375 11.078125 50 13.484375 
Q 53.375 16.84375 55.25 22.53125 
Q 57.125 28.21875 57.125 36.328125 
Q 57.125 47.5625 53.4375 53.59375 
Q 49.75 59.625 44.484375 61.671875 
Q 40.671875 63.140625 32.234375 63.140625 
L 17.1875 63.140625 
z
" id="ArialMT-44"/>
       <path d="M 42.09375 16.703125 
L 51.171875 15.578125 
Q 49.03125 7.625 43.21875 3.21875 
Q 37.40625 -1.171875 28.375 -1.171875 
Q 17 -1.171875 10.328125 5.828125 
Q 3.65625 12.84375 3.65625 25.484375 
Q 3.65625 38.578125 10.390625 45.796875 
Q 17.140625 53.03125 27.875 53.03125 
Q 38.28125 53.03125 44.875 45.953125 
Q 51.46875 38.875 51.46875 26.03125 
Q 51.46875 25.25 51.421875 23.6875 
L 12.75 23.6875 
Q 13.234375 15.140625 17.578125 10.59375 
Q 21.921875 6.0625 28.421875 6.0625 
Q 33.25 6.0625 36.671875 8.59375 
Q 40.09375 11.140625 42.09375 16.703125 
z
M 13.234375 30.90625 
L 42.1875 30.90625 
Q 41.609375 37.453125 38.875 40.71875 
Q 34.671875 45.796875 27.984375 45.796875 
Q 21.921875 45.796875 17.796875 41.75 
Q 13.671875 37.703125 13.234375 30.90625 
z
" id="ArialMT-65"/>
       <path d="M 6.59375 0 
L 6.59375 51.859375 
L 14.5 51.859375 
L 14.5 44.484375 
Q 20.21875 53.03125 31 53.03125 
Q 35.6875 53.03125 39.625 51.34375 
Q 43.5625 49.65625 45.515625 46.921875 
Q 47.46875 44.1875 48.25 40.4375 
Q 48.734375 37.984375 48.734375 31.890625 
L 48.734375 0 
L 39.9375 0 
L 39.9375 31.546875 
Q 39.9375 36.921875 38.90625 39.578125 
Q 37.890625 42.234375 35.28125 43.8125 
Q 32.671875 45.40625 29.15625 45.40625 
Q 23.53125 45.40625 19.453125 41.84375 
Q 15.375 38.28125 15.375 28.328125 
L 15.375 0 
z
" id="ArialMT-6e"/>
       <path d="M 6.59375 0 
L 6.59375 51.859375 
L 14.453125 51.859375 
L 14.453125 44.578125 
Q 16.890625 48.390625 20.9375 50.703125 
Q 25 53.03125 30.171875 53.03125 
Q 35.9375 53.03125 39.625 50.640625 
Q 43.3125 48.25 44.828125 43.953125 
Q 50.984375 53.03125 60.84375 53.03125 
Q 68.5625 53.03125 72.703125 48.75 
Q 76.859375 44.484375 76.859375 35.59375 
L 76.859375 0 
L 68.109375 0 
L 68.109375 32.671875 
Q 68.109375 37.9375 67.25 40.25 
Q 66.40625 42.578125 64.15625 43.984375 
Q 61.921875 45.40625 58.890625 45.40625 
Q 53.421875 45.40625 49.796875 41.765625 
Q 46.1875 38.140625 46.1875 30.125 
L 46.1875 0 
L 37.40625 0 
L 37.40625 33.6875 
Q 37.40625 39.546875 35.25 42.46875 
Q 33.109375 45.40625 28.21875 45.40625 
Q 24.515625 45.40625 21.359375 43.453125 
Q 18.21875 41.5 16.796875 37.734375 
Q 15.375 33.984375 15.375 26.90625 
L 15.375 0 
z
" id="ArialMT-6d"/>
       <path d="M 40.4375 6.390625 
Q 35.546875 2.25 31.03125 0.53125 
Q 26.515625 -1.171875 21.34375 -1.171875 
Q 12.796875 -1.171875 8.203125 3 
Q 3.609375 7.171875 3.609375 13.671875 
Q 3.609375 17.484375 5.34375 20.625 
Q 7.078125 23.78125 9.890625 25.6875 
Q 12.703125 27.59375 16.21875 28.5625 
Q 18.796875 29.25 24.03125 29.890625 
Q 34.671875 31.15625 39.703125 32.90625 
Q 39.75 34.71875 39.75 35.203125 
Q 39.75 40.578125 37.25 42.78125 
Q 33.890625 45.75 27.25 45.75 
Q 21.046875 45.75 18.09375 43.578125 
Q 15.140625 41.40625 13.71875 35.890625 
L 5.125 37.0625 
Q 6.296875 42.578125 8.984375 45.96875 
Q 11.671875 49.359375 16.75 51.1875 
Q 21.828125 53.03125 28.515625 53.03125 
Q 35.15625 53.03125 39.296875 51.46875 
Q 43.453125 49.90625 45.40625 47.53125 
Q 47.359375 45.171875 48.140625 41.546875 
Q 48.578125 39.3125 48.578125 33.453125 
L 48.578125 21.734375 
Q 48.578125 9.46875 49.140625 6.21875 
Q 49.703125 2.984375 51.375 0 
L 42.1875 0 
Q 40.828125 2.734375 40.4375 6.390625 
z
M 39.703125 26.03125 
Q 34.90625 24.078125 25.34375 22.703125 
Q 19.921875 21.921875 17.671875 20.9375 
Q 15.4375 19.96875 14.203125 18.09375 
Q 12.984375 16.21875 12.984375 13.921875 
Q 12.984375 10.40625 15.640625 8.0625 
Q 18.3125 5.71875 23.4375 5.71875 
Q 28.515625 5.71875 32.46875 7.9375 
Q 36.421875 10.15625 38.28125 14.015625 
Q 39.703125 17 39.703125 22.796875 
z
" id="ArialMT-61"/>
       <path d="M 6.5 0 
L 6.5 51.859375 
L 14.40625 51.859375 
L 14.40625 44 
Q 17.4375 49.515625 20 51.265625 
Q 22.5625 53.03125 25.640625 53.03125 
Q 30.078125 53.03125 34.671875 50.203125 
L 31.640625 42.046875 
Q 28.421875 43.953125 25.203125 43.953125 
Q 22.3125 43.953125 20.015625 42.21875 
Q 17.71875 40.484375 16.75 37.40625 
Q 15.28125 32.71875 15.28125 27.15625 
L 15.28125 0 
z
" id="ArialMT-72"/>
       <path d="M 6.640625 0 
L 6.640625 71.578125 
L 15.4375 71.578125 
L 15.4375 30.765625 
L 36.234375 51.859375 
L 47.609375 51.859375 
L 27.78125 32.625 
L 49.609375 0 
L 38.765625 0 
L 21.625 26.515625 
L 15.4375 20.5625 
L 15.4375 0 
z
" id="ArialMT-6b"/>
      </defs>
      <g style="fill:#262626;" transform="translate(70.380572 189.074031)scale(0.09 -0.09)">
       <use xlink:href="#ArialMT-44"/>
       <use x="72.216797" xlink:href="#ArialMT-65"/>
       <use x="127.832031" xlink:href="#ArialMT-6e"/>
       <use x="183.447266" xlink:href="#ArialMT-6d"/>
       <use x="266.748047" xlink:href="#ArialMT-61"/>
       <use x="322.363281" xlink:href="#ArialMT-72"/>
       <use x="355.664062" xlink:href="#ArialMT-6b"/>
      </g>
     </g>
    </g>
    <g id="xtick_2">
     <g id="line2d_2">
      <g>
       <use style="fill:#262626;stroke:#262626;" x="161.5672" xlink:href="#mbd1f94fe1f" y="174.332"/>
      </g>
     </g>
     <g id="text_2">
      <!-- France -->
      <defs>
       <path d="M 8.203125 0 
L 8.203125 71.578125 
L 56.5 71.578125 
L 56.5 63.140625 
L 17.671875 63.140625 
L 17.671875 40.96875 
L 51.265625 40.96875 
L 51.265625 32.515625 
L 17.671875 32.515625 
L 17.671875 0 
z
" id="ArialMT-46"/>
       <path d="M 40.4375 19 
L 49.078125 17.875 
Q 47.65625 8.9375 41.8125 3.875 
Q 35.984375 -1.171875 27.484375 -1.171875 
Q 16.84375 -1.171875 10.375 5.78125 
Q 3.90625 12.75 3.90625 25.734375 
Q 3.90625 34.125 6.6875 40.421875 
Q 9.46875 46.734375 15.15625 49.875 
Q 20.84375 53.03125 27.546875 53.03125 
Q 35.984375 53.03125 41.359375 48.75 
Q 46.734375 44.484375 48.25 36.625 
L 39.703125 35.296875 
Q 38.484375 40.53125 35.375 43.15625 
Q 32.28125 45.796875 27.875 45.796875 
Q 21.234375 45.796875 17.078125 41.03125 
Q 12.9375 36.28125 12.9375 25.984375 
Q 12.9375 15.53125 16.9375 10.796875 
Q 20.953125 6.0625 27.390625 6.0625 
Q 32.5625 6.0625 36.03125 9.234375 
Q 39.5 12.40625 40.4375 19 
z
" id="ArialMT-63"/>
      </defs>
      <g style="fill:#262626;" transform="translate(147.563059 189.074031)scale(0.09 -0.09)">
       <use xlink:href="#ArialMT-46"/>
       <use x="61.083984" xlink:href="#ArialMT-72"/>
       <use x="94.384766" xlink:href="#ArialMT-61"/>
       <use x="150" xlink:href="#ArialMT-6e"/>
       <use x="205.615234" xlink:href="#ArialMT-63"/>
       <use x="255.615234" xlink:href="#ArialMT-65"/>
      </g>
     </g>
    </g>
    <g id="xtick_3">
     <g id="line2d_3">
      <g>
       <use style="fill:#262626;stroke:#262626;" x="234.5" xlink:href="#mbd1f94fe1f" y="174.332"/>
      </g>
     </g>
     <g id="text_3">
      <!-- Belgium -->
      <defs>
       <path d="M 7.328125 0 
L 7.328125 71.578125 
L 34.1875 71.578125 
Q 42.390625 71.578125 47.34375 69.40625 
Q 52.296875 67.234375 55.09375 62.71875 
Q 57.90625 58.203125 57.90625 53.265625 
Q 57.90625 48.6875 55.421875 44.625 
Q 52.9375 40.578125 47.90625 38.09375 
Q 54.390625 36.1875 57.875 31.59375 
Q 61.375 27 61.375 20.75 
Q 61.375 15.71875 59.25 11.390625 
Q 57.125 7.078125 54 4.734375 
Q 50.875 2.390625 46.15625 1.1875 
Q 41.453125 0 34.625 0 
z
M 16.796875 41.5 
L 32.28125 41.5 
Q 38.578125 41.5 41.3125 42.328125 
Q 44.921875 43.40625 46.75 45.890625 
Q 48.578125 48.390625 48.578125 52.15625 
Q 48.578125 55.71875 46.875 58.421875 
Q 45.171875 61.140625 41.984375 62.140625 
Q 38.8125 63.140625 31.109375 63.140625 
L 16.796875 63.140625 
z
M 16.796875 8.453125 
L 34.625 8.453125 
Q 39.203125 8.453125 41.0625 8.796875 
Q 44.34375 9.375 46.53125 10.734375 
Q 48.734375 12.109375 50.140625 14.71875 
Q 51.5625 17.328125 51.5625 20.75 
Q 51.5625 24.75 49.515625 27.703125 
Q 47.46875 30.671875 43.828125 31.859375 
Q 40.1875 33.0625 33.34375 33.0625 
L 16.796875 33.0625 
z
" id="ArialMT-42"/>
       <path d="M 6.390625 0 
L 6.390625 71.578125 
L 15.1875 71.578125 
L 15.1875 0 
z
" id="ArialMT-6c"/>
       <path d="M 4.984375 -4.296875 
L 13.53125 -5.5625 
Q 14.0625 -9.515625 16.5 -11.328125 
Q 19.78125 -13.765625 25.4375 -13.765625 
Q 31.546875 -13.765625 34.859375 -11.328125 
Q 38.1875 -8.890625 39.359375 -4.5 
Q 40.046875 -1.8125 39.984375 6.78125 
Q 34.234375 0 25.640625 0 
Q 14.9375 0 9.078125 7.71875 
Q 3.21875 15.4375 3.21875 26.21875 
Q 3.21875 33.640625 5.90625 39.90625 
Q 8.59375 46.1875 13.6875 49.609375 
Q 18.796875 53.03125 25.6875 53.03125 
Q 34.859375 53.03125 40.828125 45.609375 
L 40.828125 51.859375 
L 48.921875 51.859375 
L 48.921875 7.03125 
Q 48.921875 -5.078125 46.453125 -10.125 
Q 44 -15.1875 38.640625 -18.109375 
Q 33.296875 -21.046875 25.484375 -21.046875 
Q 16.21875 -21.046875 10.5 -16.875 
Q 4.78125 -12.703125 4.984375 -4.296875 
z
M 12.25 26.859375 
Q 12.25 16.65625 16.296875 11.96875 
Q 20.359375 7.28125 26.46875 7.28125 
Q 32.515625 7.28125 36.609375 11.9375 
Q 40.71875 16.609375 40.71875 26.5625 
Q 40.71875 36.078125 36.5 40.90625 
Q 32.28125 45.75 26.3125 45.75 
Q 20.453125 45.75 16.34375 40.984375 
Q 12.25 36.234375 12.25 26.859375 
z
" id="ArialMT-67"/>
       <path d="M 6.640625 61.46875 
L 6.640625 71.578125 
L 15.4375 71.578125 
L 15.4375 61.46875 
z
M 6.640625 0 
L 6.640625 51.859375 
L 15.4375 51.859375 
L 15.4375 0 
z
" id="ArialMT-69"/>
       <path d="M 40.578125 0 
L 40.578125 7.625 
Q 34.515625 -1.171875 24.125 -1.171875 
Q 19.53125 -1.171875 15.546875 0.578125 
Q 11.578125 2.34375 9.640625 5 
Q 7.71875 7.671875 6.9375 11.53125 
Q 6.390625 14.109375 6.390625 19.734375 
L 6.390625 51.859375 
L 15.1875 51.859375 
L 15.1875 23.09375 
Q 15.1875 16.21875 15.71875 13.8125 
Q 16.546875 10.359375 19.234375 8.375 
Q 21.921875 6.390625 25.875 6.390625 
Q 29.828125 6.390625 33.296875 8.421875 
Q 36.765625 10.453125 38.203125 13.9375 
Q 39.65625 17.4375 39.65625 24.078125 
L 39.65625 51.859375 
L 48.4375 51.859375 
L 48.4375 0 
z
" id="ArialMT-75"/>
      </defs>
      <g style="fill:#262626;" transform="translate(218.243047 189.074031)scale(0.09 -0.09)">
       <use xlink:href="#ArialMT-42"/>
       <use x="66.699219" xlink:href="#ArialMT-65"/>
       <use x="122.314453" xlink:href="#ArialMT-6c"/>
       <use x="144.53125" xlink:href="#ArialMT-67"/>
       <use x="200.146484" xlink:href="#ArialMT-69"/>
       <use x="222.363281" xlink:href="#ArialMT-75"/>
       <use x="277.978516" xlink:href="#ArialMT-6d"/>
      </g>
     </g>
    </g>
    <g id="xtick_4">
     <g id="line2d_4">
      <g>
       <use style="fill:#262626;stroke:#262626;" x="307.4328" xlink:href="#mbd1f94fe1f" y="174.332"/>
      </g>
     </g>
     <g id="text_4">
      <!-- Netherlands -->
      <defs>
       <path d="M 7.625 0 
L 7.625 71.578125 
L 17.328125 71.578125 
L 54.9375 15.375 
L 54.9375 71.578125 
L 64.015625 71.578125 
L 64.015625 0 
L 54.296875 0 
L 16.703125 56.25 
L 16.703125 0 
z
" id="ArialMT-4e"/>
       <path d="M 25.78125 7.859375 
L 27.046875 0.09375 
Q 23.34375 -0.6875 20.40625 -0.6875 
Q 15.625 -0.6875 12.984375 0.828125 
Q 10.359375 2.34375 9.28125 4.8125 
Q 8.203125 7.28125 8.203125 15.1875 
L 8.203125 45.015625 
L 1.765625 45.015625 
L 1.765625 51.859375 
L 8.203125 51.859375 
L 8.203125 64.703125 
L 16.9375 69.96875 
L 16.9375 51.859375 
L 25.78125 51.859375 
L 25.78125 45.015625 
L 16.9375 45.015625 
L 16.9375 14.703125 
Q 16.9375 10.9375 17.40625 9.859375 
Q 17.875 8.796875 18.921875 8.15625 
Q 19.96875 7.515625 21.921875 7.515625 
Q 23.390625 7.515625 25.78125 7.859375 
z
" id="ArialMT-74"/>
       <path d="M 6.59375 0 
L 6.59375 71.578125 
L 15.375 71.578125 
L 15.375 45.90625 
Q 21.53125 53.03125 30.90625 53.03125 
Q 36.671875 53.03125 40.921875 50.75 
Q 45.171875 48.484375 47 44.484375 
Q 48.828125 40.484375 48.828125 32.859375 
L 48.828125 0 
L 40.046875 0 
L 40.046875 32.859375 
Q 40.046875 39.453125 37.1875 42.453125 
Q 34.328125 45.453125 29.109375 45.453125 
Q 25.203125 45.453125 21.75 43.421875 
Q 18.3125 41.40625 16.84375 37.9375 
Q 15.375 34.46875 15.375 28.375 
L 15.375 0 
z
" id="ArialMT-68"/>
       <path d="M 40.234375 0 
L 40.234375 6.546875 
Q 35.296875 -1.171875 25.734375 -1.171875 
Q 19.53125 -1.171875 14.328125 2.25 
Q 9.125 5.671875 6.265625 11.796875 
Q 3.421875 17.921875 3.421875 25.875 
Q 3.421875 33.640625 6 39.96875 
Q 8.59375 46.296875 13.765625 49.65625 
Q 18.953125 53.03125 25.34375 53.03125 
Q 30.03125 53.03125 33.6875 51.046875 
Q 37.359375 49.078125 39.65625 45.90625 
L 39.65625 71.578125 
L 48.390625 71.578125 
L 48.390625 0 
z
M 12.453125 25.875 
Q 12.453125 15.921875 16.640625 10.984375 
Q 20.84375 6.0625 26.5625 6.0625 
Q 32.328125 6.0625 36.34375 10.765625 
Q 40.375 15.484375 40.375 25.140625 
Q 40.375 35.796875 36.265625 40.765625 
Q 32.171875 45.75 26.171875 45.75 
Q 20.3125 45.75 16.375 40.96875 
Q 12.453125 36.1875 12.453125 25.875 
z
" id="ArialMT-64"/>
       <path d="M 3.078125 15.484375 
L 11.765625 16.84375 
Q 12.5 11.625 15.84375 8.84375 
Q 19.1875 6.0625 25.203125 6.0625 
Q 31.25 6.0625 34.171875 8.515625 
Q 37.109375 10.984375 37.109375 14.3125 
Q 37.109375 17.28125 34.515625 19 
Q 32.71875 20.171875 25.53125 21.96875 
Q 15.875 24.421875 12.140625 26.203125 
Q 8.40625 27.984375 6.46875 31.125 
Q 4.546875 34.28125 4.546875 38.09375 
Q 4.546875 41.546875 6.125 44.5 
Q 7.71875 47.46875 10.453125 49.421875 
Q 12.5 50.921875 16.03125 51.96875 
Q 19.578125 53.03125 23.640625 53.03125 
Q 29.734375 53.03125 34.34375 51.265625 
Q 38.96875 49.515625 41.15625 46.5 
Q 43.359375 43.5 44.1875 38.484375 
L 35.59375 37.3125 
Q 35.015625 41.3125 32.203125 43.546875 
Q 29.390625 45.796875 24.265625 45.796875 
Q 18.21875 45.796875 15.625 43.796875 
Q 13.03125 41.796875 13.03125 39.109375 
Q 13.03125 37.40625 14.109375 36.03125 
Q 15.1875 34.625 17.484375 33.6875 
Q 18.796875 33.203125 25.25 31.453125 
Q 34.578125 28.953125 38.25 27.359375 
Q 41.9375 25.78125 44.03125 22.75 
Q 46.140625 19.734375 46.140625 15.234375 
Q 46.140625 10.84375 43.578125 6.953125 
Q 41.015625 3.078125 36.171875 0.953125 
Q 31.34375 -1.171875 25.25 -1.171875 
Q 15.140625 -1.171875 9.84375 3.03125 
Q 4.546875 7.234375 3.078125 15.484375 
z
" id="ArialMT-73"/>
      </defs>
      <g style="fill:#262626;" transform="translate(283.170066 189.074031)scale(0.09 -0.09)">
       <use xlink:href="#ArialMT-4e"/>
       <use x="72.216797" xlink:href="#ArialMT-65"/>
       <use x="127.832031" xlink:href="#ArialMT-74"/>
       <use x="155.615234" xlink:href="#ArialMT-68"/>
       <use x="211.230469" xlink:href="#ArialMT-65"/>
       <use x="266.845703" xlink:href="#ArialMT-72"/>
       <use x="300.146484" xlink:href="#ArialMT-6c"/>
       <use x="322.363281" xlink:href="#ArialMT-61"/>
       <use x="377.978516" xlink:href="#ArialMT-6e"/>
       <use x="433.59375" xlink:href="#ArialMT-64"/>
       <use x="489.208984" xlink:href="#ArialMT-73"/>
      </g>
     </g>
    </g>
    <g id="xtick_5">
     <g id="line2d_5">
      <g>
       <use style="fill:#262626;stroke:#262626;" x="380.3656" xlink:href="#mbd1f94fe1f" y="174.332"/>
      </g>
     </g>
     <g id="text_5">
      <!-- Finland -->
      <g style="fill:#262626;" transform="translate(365.607709 189.074031)scale(0.09 -0.09)">
       <use xlink:href="#ArialMT-46"/>
       <use x="61.083984" xlink:href="#ArialMT-69"/>
       <use x="83.300781" xlink:href="#ArialMT-6e"/>
       <use x="138.916016" xlink:href="#ArialMT-6c"/>
       <use x="161.132812" xlink:href="#ArialMT-61"/>
       <use x="216.748047" xlink:href="#ArialMT-6e"/>
       <use x="272.363281" xlink:href="#ArialMT-64"/>
      </g>
     </g>
    </g>
    <g id="text_6">
     <!-- Country -->
     <defs>
      <path d="M 58.796875 25.09375 
L 68.265625 22.703125 
Q 65.28125 11.03125 57.546875 4.90625 
Q 49.8125 -1.21875 38.625 -1.21875 
Q 27.046875 -1.21875 19.796875 3.484375 
Q 12.546875 8.203125 8.765625 17.140625 
Q 4.984375 26.078125 4.984375 36.328125 
Q 4.984375 47.515625 9.25 55.828125 
Q 13.53125 64.15625 21.40625 68.46875 
Q 29.296875 72.796875 38.765625 72.796875 
Q 49.515625 72.796875 56.828125 67.328125 
Q 64.15625 61.859375 67.046875 51.953125 
L 57.71875 49.75 
Q 55.21875 57.5625 50.484375 61.125 
Q 45.75 64.703125 38.578125 64.703125 
Q 30.328125 64.703125 24.78125 60.734375 
Q 19.234375 56.78125 16.984375 50.109375 
Q 14.75 43.453125 14.75 36.375 
Q 14.75 27.25 17.40625 20.4375 
Q 20.0625 13.625 25.671875 10.25 
Q 31.296875 6.890625 37.84375 6.890625 
Q 45.796875 6.890625 51.3125 11.46875 
Q 56.84375 16.0625 58.796875 25.09375 
z
" id="ArialMT-43"/>
      <path d="M 3.328125 25.921875 
Q 3.328125 40.328125 11.328125 47.265625 
Q 18.015625 53.03125 27.640625 53.03125 
Q 38.328125 53.03125 45.109375 46.015625 
Q 51.90625 39.015625 51.90625 26.65625 
Q 51.90625 16.65625 48.90625 10.90625 
Q 45.90625 5.171875 40.15625 2 
Q 34.421875 -1.171875 27.640625 -1.171875 
Q 16.75 -1.171875 10.03125 5.8125 
Q 3.328125 12.796875 3.328125 25.921875 
z
M 12.359375 25.921875 
Q 12.359375 15.96875 16.703125 11.015625 
Q 21.046875 6.0625 27.640625 6.0625 
Q 34.1875 6.0625 38.53125 11.03125 
Q 42.875 16.015625 42.875 26.21875 
Q 42.875 35.84375 38.5 40.796875 
Q 34.125 45.75 27.640625 45.75 
Q 21.046875 45.75 16.703125 40.8125 
Q 12.359375 35.890625 12.359375 25.921875 
z
" id="ArialMT-6f"/>
      <path d="M 6.203125 -19.96875 
L 5.21875 -11.71875 
Q 8.109375 -12.5 10.25 -12.5 
Q 13.1875 -12.5 14.9375 -11.515625 
Q 16.703125 -10.546875 17.828125 -8.796875 
Q 18.65625 -7.46875 20.515625 -2.25 
Q 20.75 -1.515625 21.296875 -0.09375 
L 1.609375 51.859375 
L 11.078125 51.859375 
L 21.875 21.828125 
Q 23.96875 16.109375 25.640625 9.8125 
Q 27.15625 15.875 29.25 21.625 
L 40.328125 51.859375 
L 49.125 51.859375 
L 29.390625 -0.875 
Q 26.21875 -9.421875 24.46875 -12.640625 
Q 22.125 -17 19.09375 -19.015625 
Q 16.0625 -21.046875 11.859375 -21.046875 
Q 9.328125 -21.046875 6.203125 -19.96875 
z
" id="ArialMT-79"/>
     </defs>
     <g style="fill:#262626;" transform="translate(216.99375 203.247938)scale(0.1 -0.1)">
      <use xlink:href="#ArialMT-43"/>
      <use x="72.216797" xlink:href="#ArialMT-6f"/>
      <use x="127.832031" xlink:href="#ArialMT-75"/>
      <use x="183.447266" xlink:href="#ArialMT-6e"/>
      <use x="239.0625" xlink:href="#ArialMT-74"/>
      <use x="266.845703" xlink:href="#ArialMT-72"/>
      <use x="300.146484" xlink:href="#ArialMT-79"/>
     </g>
    </g>
   </g>
   <g id="matplotlib.axis_2">
    <g id="ytick_1">
     <g id="line2d_6">
      <defs>
       <path d="M 0 0 
L -4.8 0 
" id="mbd0ac84b5c" style="stroke:#262626;"/>
      </defs>
      <g>
       <use style="fill:#262626;stroke:#262626;" x="52.168" xlink:href="#mbd0ac84b5c" y="156.11173"/>
      </g>
     </g>
     <g id="text_7">
      <!-- 250 -->
      <defs>
       <path d="M 50.34375 8.453125 
L 50.34375 0 
L 3.03125 0 
Q 2.9375 3.171875 4.046875 6.109375 
Q 5.859375 10.9375 9.828125 15.625 
Q 13.8125 20.3125 21.34375 26.46875 
Q 33.015625 36.03125 37.109375 41.625 
Q 41.21875 47.21875 41.21875 52.203125 
Q 41.21875 57.421875 37.46875 61 
Q 33.734375 64.59375 27.734375 64.59375 
Q 21.390625 64.59375 17.578125 60.78125 
Q 13.765625 56.984375 13.71875 50.25 
L 4.6875 51.171875 
Q 5.609375 61.28125 11.65625 66.578125 
Q 17.71875 71.875 27.9375 71.875 
Q 38.234375 71.875 44.234375 66.15625 
Q 50.25 60.453125 50.25 52 
Q 50.25 47.703125 48.484375 43.546875 
Q 46.734375 39.40625 42.65625 34.8125 
Q 38.578125 30.21875 29.109375 22.21875 
Q 21.1875 15.578125 18.9375 13.203125 
Q 16.703125 10.84375 15.234375 8.453125 
z
" id="ArialMT-32"/>
       <path d="M 4.15625 18.75 
L 13.375 19.53125 
Q 14.40625 12.796875 18.140625 9.390625 
Q 21.875 6 27.15625 6 
Q 33.5 6 37.890625 10.78125 
Q 42.28125 15.578125 42.28125 23.484375 
Q 42.28125 31 38.0625 35.34375 
Q 33.84375 39.703125 27 39.703125 
Q 22.75 39.703125 19.328125 37.765625 
Q 15.921875 35.84375 13.96875 32.765625 
L 5.71875 33.84375 
L 12.640625 70.609375 
L 48.25 70.609375 
L 48.25 62.203125 
L 19.671875 62.203125 
L 15.828125 42.96875 
Q 22.265625 47.46875 29.34375 47.46875 
Q 38.71875 47.46875 45.15625 40.96875 
Q 51.609375 34.46875 51.609375 24.265625 
Q 51.609375 14.546875 45.953125 7.46875 
Q 39.0625 -1.21875 27.15625 -1.21875 
Q 17.390625 -1.21875 11.203125 4.25 
Q 5.03125 9.71875 4.15625 18.75 
z
" id="ArialMT-35"/>
       <path d="M 4.15625 35.296875 
Q 4.15625 48 6.765625 55.734375 
Q 9.375 63.484375 14.515625 67.671875 
Q 19.671875 71.875 27.484375 71.875 
Q 33.25 71.875 37.59375 69.546875 
Q 41.9375 67.234375 44.765625 62.859375 
Q 47.609375 58.5 49.21875 52.21875 
Q 50.828125 45.953125 50.828125 35.296875 
Q 50.828125 22.703125 48.234375 14.96875 
Q 45.65625 7.234375 40.5 3 
Q 35.359375 -1.21875 27.484375 -1.21875 
Q 17.140625 -1.21875 11.234375 6.203125 
Q 4.15625 15.140625 4.15625 35.296875 
z
M 13.1875 35.296875 
Q 13.1875 17.671875 17.3125 11.828125 
Q 21.4375 6 27.484375 6 
Q 33.546875 6 37.671875 11.859375 
Q 41.796875 17.71875 41.796875 35.296875 
Q 41.796875 52.984375 37.671875 58.78125 
Q 33.546875 64.59375 27.390625 64.59375 
Q 21.34375 64.59375 17.71875 59.46875 
Q 13.1875 52.9375 13.1875 35.296875 
z
" id="ArialMT-30"/>
      </defs>
      <g style="fill:#262626;" transform="translate(29.187125 159.261168)scale(0.088 -0.088)">
       <use xlink:href="#ArialMT-32"/>
       <use x="55.615234" xlink:href="#ArialMT-35"/>
       <use x="111.230469" xlink:href="#ArialMT-30"/>
      </g>
     </g>
    </g>
    <g id="ytick_2">
     <g id="line2d_7">
      <g>
       <use style="fill:#262626;stroke:#262626;" x="52.168" xlink:href="#mbd0ac84b5c" y="136.112511"/>
      </g>
     </g>
     <g id="text_8">
      <!-- 500 -->
      <g style="fill:#262626;" transform="translate(29.187125 139.261949)scale(0.088 -0.088)">
       <use xlink:href="#ArialMT-35"/>
       <use x="55.615234" xlink:href="#ArialMT-30"/>
       <use x="111.230469" xlink:href="#ArialMT-30"/>
      </g>
     </g>
    </g>
    <g id="ytick_3">
     <g id="line2d_8">
      <g>
       <use style="fill:#262626;stroke:#262626;" x="52.168" xlink:href="#mbd0ac84b5c" y="116.113292"/>
      </g>
     </g>
     <g id="text_9">
      <!-- 750 -->
      <defs>
       <path d="M 4.734375 62.203125 
L 4.734375 70.65625 
L 51.078125 70.65625 
L 51.078125 63.8125 
Q 44.234375 56.546875 37.515625 44.484375 
Q 30.8125 32.421875 27.15625 19.671875 
Q 24.515625 10.6875 23.78125 0 
L 14.75 0 
Q 14.890625 8.453125 18.0625 20.40625 
Q 21.234375 32.375 27.171875 43.484375 
Q 33.109375 54.59375 39.796875 62.203125 
z
" id="ArialMT-37"/>
      </defs>
      <g style="fill:#262626;" transform="translate(29.187125 119.26273)scale(0.088 -0.088)">
       <use xlink:href="#ArialMT-37"/>
       <use x="55.615234" xlink:href="#ArialMT-35"/>
       <use x="111.230469" xlink:href="#ArialMT-30"/>
      </g>
     </g>
    </g>
    <g id="ytick_4">
     <g id="line2d_9">
      <g>
       <use style="fill:#262626;stroke:#262626;" x="52.168" xlink:href="#mbd0ac84b5c" y="96.114073"/>
      </g>
     </g>
     <g id="text_10">
      <!-- 1000 -->
      <defs>
       <path d="M 37.25 0 
L 28.46875 0 
L 28.46875 56 
Q 25.296875 52.984375 20.140625 49.953125 
Q 14.984375 46.921875 10.890625 45.40625 
L 10.890625 53.90625 
Q 18.265625 57.375 23.78125 62.296875 
Q 29.296875 67.234375 31.59375 71.875 
L 37.25 71.875 
z
" id="ArialMT-31"/>
      </defs>
      <g style="fill:#262626;" transform="translate(24.2935 99.263511)scale(0.088 -0.088)">
       <use xlink:href="#ArialMT-31"/>
       <use x="55.615234" xlink:href="#ArialMT-30"/>
       <use x="111.230469" xlink:href="#ArialMT-30"/>
       <use x="166.845703" xlink:href="#ArialMT-30"/>
      </g>
     </g>
    </g>
    <g id="ytick_5">
     <g id="line2d_10">
      <g>
       <use style="fill:#262626;stroke:#262626;" x="52.168" xlink:href="#mbd0ac84b5c" y="76.114854"/>
      </g>
     </g>
     <g id="text_11">
      <!-- 1250 -->
      <g style="fill:#262626;" transform="translate(24.2935 79.264292)scale(0.088 -0.088)">
       <use xlink:href="#ArialMT-31"/>
       <use x="55.615234" xlink:href="#ArialMT-32"/>
       <use x="111.230469" xlink:href="#ArialMT-35"/>
       <use x="166.845703" xlink:href="#ArialMT-30"/>
      </g>
     </g>
    </g>
    <g id="ytick_6">
     <g id="line2d_11">
      <g>
       <use style="fill:#262626;stroke:#262626;" x="52.168" xlink:href="#mbd0ac84b5c" y="56.115635"/>
      </g>
     </g>
     <g id="text_12">
      <!-- 1500 -->
      <g style="fill:#262626;" transform="translate(24.2935 59.265073)scale(0.088 -0.088)">
       <use xlink:href="#ArialMT-31"/>
       <use x="55.615234" xlink:href="#ArialMT-35"/>
       <use x="111.230469" xlink:href="#ArialMT-30"/>
       <use x="166.845703" xlink:href="#ArialMT-30"/>
      </g>
     </g>
    </g>
    <g id="ytick_7">
     <g id="line2d_12">
      <g>
       <use style="fill:#262626;stroke:#262626;" x="52.168" xlink:href="#mbd0ac84b5c" y="36.116416"/>
      </g>
     </g>
     <g id="text_13">
      <!-- 1750 -->
      <g style="fill:#262626;" transform="translate(24.2935 39.265854)scale(0.088 -0.088)">
       <use xlink:href="#ArialMT-31"/>
       <use x="55.615234" xlink:href="#ArialMT-37"/>
       <use x="111.230469" xlink:href="#ArialMT-35"/>
       <use x="166.845703" xlink:href="#ArialMT-30"/>
      </g>
     </g>
    </g>
    <g id="text_14">
     <!-- kgCO2e/m² -->
     <defs>
      <path d="M 4.828125 34.859375 
Q 4.828125 52.6875 14.390625 62.765625 
Q 23.96875 72.859375 39.109375 72.859375 
Q 49.03125 72.859375 56.984375 68.109375 
Q 64.9375 63.375 69.109375 54.90625 
Q 73.296875 46.4375 73.296875 35.6875 
Q 73.296875 24.8125 68.890625 16.21875 
Q 64.5 7.625 56.4375 3.203125 
Q 48.390625 -1.21875 39.0625 -1.21875 
Q 28.953125 -1.21875 20.984375 3.65625 
Q 13.03125 8.546875 8.921875 16.984375 
Q 4.828125 25.4375 4.828125 34.859375 
z
M 14.59375 34.71875 
Q 14.59375 21.78125 21.546875 14.328125 
Q 28.515625 6.890625 39.015625 6.890625 
Q 49.703125 6.890625 56.609375 14.40625 
Q 63.53125 21.921875 63.53125 35.75 
Q 63.53125 44.484375 60.578125 51 
Q 57.625 57.515625 51.921875 61.109375 
Q 46.234375 64.703125 39.15625 64.703125 
Q 29.109375 64.703125 21.84375 57.78125 
Q 14.59375 50.875 14.59375 34.71875 
z
" id="ArialMT-4f"/>
      <path d="M 0 -1.21875 
L 20.75 72.796875 
L 27.78125 72.796875 
L 7.078125 -1.21875 
z
" id="ArialMT-2f"/>
      <path d="M 1.21875 35.796875 
Q 1.515625 38.578125 3.515625 41.359375 
Q 6.59375 45.5625 13.625 50.65625 
Q 20.65625 55.765625 21.96875 57.234375 
Q 23.78125 59.234375 23.78125 61.328125 
Q 23.78125 63.671875 22.0625 65.1875 
Q 20.359375 66.703125 17.046875 66.703125 
Q 13.8125 66.703125 12.21875 65.546875 
Q 10.640625 64.40625 9.625 61.140625 
L 2.25 61.921875 
Q 3.65625 67.328125 7.140625 69.890625 
Q 10.640625 72.46875 17.1875 72.46875 
Q 24.5625 72.46875 28 69.578125 
Q 31.453125 66.703125 31.453125 62.546875 
Q 31.453125 58.453125 28.5625 54.78125 
Q 26.375 52.046875 18.5625 46.4375 
Q 14.5 43.453125 12.796875 41.703125 
L 31.640625 41.703125 
L 31.640625 35.796875 
z
" id="ArialMT-b2"/>
     </defs>
     <g style="fill:#262626;" transform="translate(17.188812 125.410156)rotate(-90)scale(0.1 -0.1)">
      <use xlink:href="#ArialMT-6b"/>
      <use x="50" xlink:href="#ArialMT-67"/>
      <use x="105.615234" xlink:href="#ArialMT-43"/>
      <use x="177.832031" xlink:href="#ArialMT-4f"/>
      <use x="255.615234" xlink:href="#ArialMT-32"/>
      <use x="311.230469" xlink:href="#ArialMT-65"/>
      <use x="366.845703" xlink:href="#ArialMT-2f"/>
      <use x="394.628906" xlink:href="#ArialMT-6d"/>
      <use x="477.929688" xlink:href="#ArialMT-b2"/>
     </g>
    </g>
   </g>
   <g id="patch_3">
    <path clip-path="url(#pd958aee873)" d="M 59.753011 151.641905 
L 88.342669 151.641905 
L 88.342669 143.912206 
L 59.753011 143.912206 
L 59.753011 151.641905 
z
" style="fill:#1e94d2;stroke:#242424;stroke-linejoin:miter;"/>
   </g>
   <g id="patch_4">
    <path clip-path="url(#pd958aee873)" d="M 88.926131 152.065888 
L 117.515789 152.065888 
L 117.515789 143.222233 
L 88.926131 143.222233 
L 88.926131 152.065888 
z
" style="fill:#0f4a69;stroke:#242424;stroke-linejoin:miter;"/>
   </g>
   <g id="patch_5">
    <path clip-path="url(#pd958aee873)" d="M 132.685811 104.306963 
L 161.275469 104.306963 
L 161.275469 70.036435 
L 132.685811 70.036435 
L 132.685811 104.306963 
z
" style="fill:#1e94d2;stroke:#242424;stroke-linejoin:miter;"/>
   </g>
   <g id="patch_6">
    <path clip-path="url(#pd958aee873)" d="M 161.858931 130.569629 
L 190.448589 130.569629 
L 190.448589 122.043419 
L 161.858931 122.043419 
L 161.858931 130.569629 
z
" style="fill:#0f4a69;stroke:#242424;stroke-linejoin:miter;"/>
   </g>
   <g id="patch_7">
    <path clip-path="url(#pd958aee873)" d="M 234.791731 134.389177 
L 263.381389 134.389177 
L 263.381389 121.906364 
L 234.791731 121.906364 
L 234.791731 134.389177 
z
" style="fill:#0f4a69;stroke:#242424;stroke-linejoin:miter;"/>
   </g>
   <g id="patch_8">
    <path clip-path="url(#pd958aee873)" d="M 278.551411 149.711483 
L 307.141069 149.711483 
L 307.141069 144.27219 
L 278.551411 144.27219 
L 278.551411 149.711483 
z
" style="fill:#1e94d2;stroke:#242424;stroke-linejoin:miter;"/>
   </g>
   <g id="patch_9">
    <path clip-path="url(#pd958aee873)" d="M 307.724531 151.388768 
L 336.314189 151.388768 
L 336.314189 140.445348 
L 307.724531 140.445348 
L 307.724531 151.388768 
z
" style="fill:#0f4a69;stroke:#242424;stroke-linejoin:miter;"/>
   </g>
   <g id="patch_10">
    <path clip-path="url(#pd958aee873)" d="M 351.484211 140.602336 
L 380.073869 140.602336 
L 380.073869 128.793657 
L 351.484211 128.793657 
L 351.484211 140.602336 
z
" style="fill:#1e94d2;stroke:#242424;stroke-linejoin:miter;"/>
   </g>
   <g id="patch_11">
    <path clip-path="url(#pd958aee873)" d="M 380.657331 143.937905 
L 409.246989 143.937905 
L 409.246989 136.812484 
L 380.657331 136.812484 
L 380.657331 143.937905 
z
" style="fill:#0f4a69;stroke:#242424;stroke-linejoin:miter;"/>
   </g>
   <g id="patch_12">
    <path clip-path="url(#pd958aee873)" d="M 88.6344 176.110949 
L 88.6344 176.110949 
L 88.6344 176.110949 
L 88.6344 176.110949 
z
" style="fill:#1e94d2;stroke:#242424;stroke-linejoin:miter;stroke-width:0.5;"/>
   </g>
   <g id="patch_13">
    <path clip-path="url(#pd958aee873)" d="M 88.6344 176.110949 
L 88.6344 176.110949 
L 88.6344 176.110949 
L 88.6344 176.110949 
z
" style="fill:#0f4a69;stroke:#242424;stroke-linejoin:miter;stroke-width:0.5;"/>
   </g>
   <g id="line2d_13">
    <path clip-path="url(#pd958aee873)" d="M 74.04784 151.641905 
L 74.04784 161.456479 
" style="fill:none;stroke:#242424;stroke-linecap:round;"/>
   </g>
   <g id="line2d_14">
    <path clip-path="url(#pd958aee873)" d="M 74.04784 143.912206 
L 74.04784 135.320542 
" style="fill:none;stroke:#242424;stroke-linecap:round;"/>
   </g>
   <g id="line2d_15">
    <path clip-path="url(#pd958aee873)" d="M 66.900426 161.456479 
L 81.195254 161.456479 
" style="fill:none;stroke:#242424;stroke-linecap:round;"/>
   </g>
   <g id="line2d_16">
    <path clip-path="url(#pd958aee873)" d="M 66.900426 135.320542 
L 81.195254 135.320542 
" style="fill:none;stroke:#242424;stroke-linecap:round;"/>
   </g>
   <g id="line2d_17">
    <defs>
     <path d="M 0 3.535534 
L 2.12132 0 
L 0 -3.535534 
L -2.12132 0 
z
" id="m64d35a3c1d" style="stroke:#242424;stroke-linejoin:miter;"/>
    </defs>
    <g clip-path="url(#pd958aee873)">
     <use style="fill:#242424;stroke:#242424;stroke-linejoin:miter;" x="74.04784" xlink:href="#m64d35a3c1d" y="167.560909"/>
    </g>
   </g>
   <g id="line2d_18">
    <path clip-path="url(#pd958aee873)" d="M 103.22096 152.065888 
L 103.22096 158.511636 
" style="fill:none;stroke:#242424;stroke-linecap:round;"/>
   </g>
   <g id="line2d_19">
    <path clip-path="url(#pd958aee873)" d="M 103.22096 143.222233 
L 103.22096 132.712644 
" style="fill:none;stroke:#242424;stroke-linecap:round;"/>
   </g>
   <g id="line2d_20">
    <path clip-path="url(#pd958aee873)" d="M 96.073546 158.511636 
L 110.368374 158.511636 
" style="fill:none;stroke:#242424;stroke-linecap:round;"/>
   </g>
   <g id="line2d_21">
    <path clip-path="url(#pd958aee873)" d="M 96.073546 132.712644 
L 110.368374 132.712644 
" style="fill:none;stroke:#242424;stroke-linecap:round;"/>
   </g>
   <g id="line2d_22"/>
   <g id="line2d_23">
    <path clip-path="url(#pd958aee873)" d="M 146.98064 104.306963 
L 146.98064 132.686578 
" style="fill:none;stroke:#242424;stroke-linecap:round;"/>
   </g>
   <g id="line2d_24">
    <path clip-path="url(#pd958aee873)" d="M 146.98064 70.036435 
L 146.98064 32.139091 
" style="fill:none;stroke:#242424;stroke-linecap:round;"/>
   </g>
   <g id="line2d_25">
    <path clip-path="url(#pd958aee873)" d="M 139.833226 132.686578 
L 154.128054 132.686578 
" style="fill:none;stroke:#242424;stroke-linecap:round;"/>
   </g>
   <g id="line2d_26">
    <path clip-path="url(#pd958aee873)" d="M 139.833226 32.139091 
L 154.128054 32.139091 
" style="fill:none;stroke:#242424;stroke-linecap:round;"/>
   </g>
   <g id="line2d_27"/>
   <g id="line2d_28">
    <path clip-path="url(#pd958aee873)" d="M 176.15376 130.569629 
L 176.15376 143.072164 
" style="fill:none;stroke:#242424;stroke-linecap:round;"/>
   </g>
   <g id="line2d_29">
    <path clip-path="url(#pd958aee873)" d="M 176.15376 122.043419 
L 176.15376 109.410867 
" style="fill:none;stroke:#242424;stroke-linecap:round;"/>
   </g>
   <g id="line2d_30">
    <path clip-path="url(#pd958aee873)" d="M 169.006346 143.072164 
L 183.301174 143.072164 
" style="fill:none;stroke:#242424;stroke-linecap:round;"/>
   </g>
   <g id="line2d_31">
    <path clip-path="url(#pd958aee873)" d="M 169.006346 109.410867 
L 183.301174 109.410867 
" style="fill:none;stroke:#242424;stroke-linecap:round;"/>
   </g>
   <g id="line2d_32">
    <g clip-path="url(#pd958aee873)">
     <use style="fill:#242424;stroke:#242424;stroke-linejoin:miter;" x="176.15376" xlink:href="#m64d35a3c1d" y="69.389239"/>
     <use style="fill:#242424;stroke:#242424;stroke-linejoin:miter;" x="176.15376" xlink:href="#m64d35a3c1d" y="37.983172"/>
     <use style="fill:#242424;stroke:#242424;stroke-linejoin:miter;" x="176.15376" xlink:href="#m64d35a3c1d" y="105.110589"/>
     <use style="fill:#242424;stroke:#242424;stroke-linejoin:miter;" x="176.15376" xlink:href="#m64d35a3c1d" y="103.06754"/>
     <use style="fill:#242424;stroke:#242424;stroke-linejoin:miter;" x="176.15376" xlink:href="#m64d35a3c1d" y="101.870318"/>
     <use style="fill:#242424;stroke:#242424;stroke-linejoin:miter;" x="176.15376" xlink:href="#m64d35a3c1d" y="101.498963"/>
     <use style="fill:#242424;stroke:#242424;stroke-linejoin:miter;" x="176.15376" xlink:href="#m64d35a3c1d" y="100.932079"/>
     <use style="fill:#242424;stroke:#242424;stroke-linejoin:miter;" x="176.15376" xlink:href="#m64d35a3c1d" y="105.190451"/>
     <use style="fill:#242424;stroke:#242424;stroke-linejoin:miter;" x="176.15376" xlink:href="#m64d35a3c1d" y="97.603581"/>
     <use style="fill:#242424;stroke:#242424;stroke-linejoin:miter;" x="176.15376" xlink:href="#m64d35a3c1d" y="103.88838"/>
     <use style="fill:#242424;stroke:#242424;stroke-linejoin:miter;" x="176.15376" xlink:href="#m64d35a3c1d" y="106.737161"/>
     <use style="fill:#242424;stroke:#242424;stroke-linejoin:miter;" x="176.15376" xlink:href="#m64d35a3c1d" y="77.63214"/>
     <use style="fill:#242424;stroke:#242424;stroke-linejoin:miter;" x="176.15376" xlink:href="#m64d35a3c1d" y="82.186235"/>
     <use style="fill:#242424;stroke:#242424;stroke-linejoin:miter;" x="176.15376" xlink:href="#m64d35a3c1d" y="108.778146"/>
    </g>
   </g>
   <g id="line2d_33">
    <path clip-path="url(#pd958aee873)" d="M 249.08656 134.389177 
L 249.08656 147.73144 
" style="fill:none;stroke:#242424;stroke-linecap:round;"/>
   </g>
   <g id="line2d_34">
    <path clip-path="url(#pd958aee873)" d="M 249.08656 121.906364 
L 249.08656 104.674848 
" style="fill:none;stroke:#242424;stroke-linecap:round;"/>
   </g>
   <g id="line2d_35">
    <path clip-path="url(#pd958aee873)" d="M 241.939146 147.73144 
L 256.233974 147.73144 
" style="fill:none;stroke:#242424;stroke-linecap:round;"/>
   </g>
   <g id="line2d_36">
    <path clip-path="url(#pd958aee873)" d="M 241.939146 104.674848 
L 256.233974 104.674848 
" style="fill:none;stroke:#242424;stroke-linecap:round;"/>
   </g>
   <g id="line2d_37">
    <g clip-path="url(#pd958aee873)">
     <use style="fill:#242424;stroke:#242424;stroke-linejoin:miter;" x="249.08656" xlink:href="#m64d35a3c1d" y="102.417013"/>
     <use style="fill:#242424;stroke:#242424;stroke-linejoin:miter;" x="249.08656" xlink:href="#m64d35a3c1d" y="100.247057"/>
     <use style="fill:#242424;stroke:#242424;stroke-linejoin:miter;" x="249.08656" xlink:href="#m64d35a3c1d" y="97.717035"/>
     <use style="fill:#242424;stroke:#242424;stroke-linejoin:miter;" x="249.08656" xlink:href="#m64d35a3c1d" y="100.247057"/>
     <use style="fill:#242424;stroke:#242424;stroke-linejoin:miter;" x="249.08656" xlink:href="#m64d35a3c1d" y="97.717035"/>
    </g>
   </g>
   <g id="line2d_38">
    <path clip-path="url(#pd958aee873)" d="M 292.84624 149.711483 
L 292.84624 156.047273 
" style="fill:none;stroke:#242424;stroke-linecap:round;"/>
   </g>
   <g id="line2d_39">
    <path clip-path="url(#pd958aee873)" d="M 292.84624 144.27219 
L 292.84624 142.413679 
" style="fill:none;stroke:#242424;stroke-linecap:round;"/>
   </g>
   <g id="line2d_40">
    <path clip-path="url(#pd958aee873)" d="M 285.698826 156.047273 
L 299.993654 156.047273 
" style="fill:none;stroke:#242424;stroke-linecap:round;"/>
   </g>
   <g id="line2d_41">
    <path clip-path="url(#pd958aee873)" d="M 285.698826 142.413679 
L 299.993654 142.413679 
" style="fill:none;stroke:#242424;stroke-linecap:round;"/>
   </g>
   <g id="line2d_42">
    <g clip-path="url(#pd958aee873)">
     <use style="fill:#242424;stroke:#242424;stroke-linejoin:miter;" x="292.84624" xlink:href="#m64d35a3c1d" y="131.570729"/>
     <use style="fill:#242424;stroke:#242424;stroke-linejoin:miter;" x="292.84624" xlink:href="#m64d35a3c1d" y="95.415277"/>
    </g>
   </g>
   <g id="line2d_43">
    <path clip-path="url(#pd958aee873)" d="M 322.01936 151.388768 
L 322.01936 156.083026 
" style="fill:none;stroke:#242424;stroke-linecap:round;"/>
   </g>
   <g id="line2d_44">
    <path clip-path="url(#pd958aee873)" d="M 322.01936 140.445348 
L 322.01936 130.314642 
" style="fill:none;stroke:#242424;stroke-linecap:round;"/>
   </g>
   <g id="line2d_45">
    <path clip-path="url(#pd958aee873)" d="M 314.871946 156.083026 
L 329.166774 156.083026 
" style="fill:none;stroke:#242424;stroke-linecap:round;"/>
   </g>
   <g id="line2d_46">
    <path clip-path="url(#pd958aee873)" d="M 314.871946 130.314642 
L 329.166774 130.314642 
" style="fill:none;stroke:#242424;stroke-linecap:round;"/>
   </g>
   <g id="line2d_47"/>
   <g id="line2d_48">
    <path clip-path="url(#pd958aee873)" d="M 365.77904 140.602336 
L 365.77904 142.913046 
" style="fill:none;stroke:#242424;stroke-linecap:round;"/>
   </g>
   <g id="line2d_49">
    <path clip-path="url(#pd958aee873)" d="M 365.77904 128.793657 
L 365.77904 111.31348 
" style="fill:none;stroke:#242424;stroke-linecap:round;"/>
   </g>
   <g id="line2d_50">
    <path clip-path="url(#pd958aee873)" d="M 358.631626 142.913046 
L 372.926454 142.913046 
" style="fill:none;stroke:#242424;stroke-linecap:round;"/>
   </g>
   <g id="line2d_51">
    <path clip-path="url(#pd958aee873)" d="M 358.631626 111.31348 
L 372.926454 111.31348 
" style="fill:none;stroke:#242424;stroke-linecap:round;"/>
   </g>
   <g id="line2d_52"/>
   <g id="line2d_53">
    <path clip-path="url(#pd958aee873)" d="M 394.95216 143.937905 
L 394.95216 150.911933 
" style="fill:none;stroke:#242424;stroke-linecap:round;"/>
   </g>
   <g id="line2d_54">
    <path clip-path="url(#pd958aee873)" d="M 394.95216 136.812484 
L 394.95216 126.91287 
" style="fill:none;stroke:#242424;stroke-linecap:round;"/>
   </g>
   <g id="line2d_55">
    <path clip-path="url(#pd958aee873)" d="M 387.804746 150.911933 
L 402.099574 150.911933 
" style="fill:none;stroke:#242424;stroke-linecap:round;"/>
   </g>
   <g id="line2d_56">
    <path clip-path="url(#pd958aee873)" d="M 387.804746 126.91287 
L 402.099574 126.91287 
" style="fill:none;stroke:#242424;stroke-linecap:round;"/>
   </g>
   <g id="line2d_57">
    <g clip-path="url(#pd958aee873)">
     <use style="fill:#242424;stroke:#242424;stroke-linejoin:miter;" x="394.95216" xlink:href="#m64d35a3c1d" y="123.712995"/>
     <use style="fill:#242424;stroke:#242424;stroke-linejoin:miter;" x="394.95216" xlink:href="#m64d35a3c1d" y="124.512964"/>
     <use style="fill:#242424;stroke:#242424;stroke-linejoin:miter;" x="394.95216" xlink:href="#m64d35a3c1d" y="116.573218"/>
    </g>
   </g>
   <g id="line2d_58">
    <path clip-path="url(#pd958aee873)" d="M 59.753011 149.291996 
L 88.342669 149.291996 
" style="fill:none;stroke:#242424;stroke-linecap:round;"/>
   </g>
   <g id="line2d_59">
    <path clip-path="url(#pd958aee873)" d="M 74.04784 148.245509 
" style="fill:none;stroke:#55a868;stroke-dasharray:3.7,1.6;stroke-dashoffset:0;"/>
    <defs>
     <path d="M 0 2.5 
C 0.663008 2.5 1.29895 2.236584 1.767767 1.767767 
C 2.236584 1.29895 2.5 0.663008 2.5 0 
C 2.5 -0.663008 2.236584 -1.29895 1.767767 -1.767767 
C 1.29895 -2.236584 0.663008 -2.5 0 -2.5 
C -0.663008 -2.5 -1.29895 -2.236584 -1.767767 -1.767767 
C -2.236584 -1.29895 -2.5 -0.663008 -2.5 0 
C -2.5 0.663008 -2.236584 1.29895 -1.767767 1.767767 
C -1.29895 2.236584 -0.663008 2.5 0 2.5 
z
" id="m4d1ababe7b" style="stroke:#000000;"/>
    </defs>
    <g clip-path="url(#pd958aee873)">
     <use style="fill:#ffffff;stroke:#000000;" x="74.04784" xlink:href="#m4d1ababe7b" y="148.245509"/>
    </g>
   </g>
   <g id="line2d_60">
    <path clip-path="url(#pd958aee873)" d="M 88.926131 147.93205 
L 117.515789 147.93205 
" style="fill:none;stroke:#242424;stroke-linecap:round;"/>
   </g>
   <g id="line2d_61">
    <path clip-path="url(#pd958aee873)" d="M 103.22096 147.636256 
" style="fill:none;stroke:#55a868;stroke-dasharray:3.7,1.6;stroke-dashoffset:0;"/>
    <g clip-path="url(#pd958aee873)">
     <use style="fill:#ffffff;stroke:#000000;" x="103.22096" xlink:href="#m4d1ababe7b" y="147.636256"/>
    </g>
   </g>
   <g id="line2d_62">
    <path clip-path="url(#pd958aee873)" d="M 132.685811 97.405232 
L 161.275469 97.405232 
" style="fill:none;stroke:#242424;stroke-linecap:round;"/>
   </g>
   <g id="line2d_63">
    <path clip-path="url(#pd958aee873)" d="M 146.98064 87.985317 
" style="fill:none;stroke:#55a868;stroke-dasharray:3.7,1.6;stroke-dashoffset:0;"/>
    <g clip-path="url(#pd958aee873)">
     <use style="fill:#ffffff;stroke:#000000;" x="146.98064" xlink:href="#m4d1ababe7b" y="87.985317"/>
    </g>
   </g>
   <g id="line2d_64">
    <path clip-path="url(#pd958aee873)" d="M 161.858931 127.348998 
L 190.448589 127.348998 
" style="fill:none;stroke:#242424;stroke-linecap:round;"/>
   </g>
   <g id="line2d_65">
    <path clip-path="url(#pd958aee873)" d="M 176.15376 125.427029 
" style="fill:none;stroke:#55a868;stroke-dasharray:3.7,1.6;stroke-dashoffset:0;"/>
    <g clip-path="url(#pd958aee873)">
     <use style="fill:#ffffff;stroke:#000000;" x="176.15376" xlink:href="#m4d1ababe7b" y="125.427029"/>
    </g>
   </g>
   <g id="line2d_66">
    <path clip-path="url(#pd958aee873)" d="M 234.791731 130.396015 
L 263.381389 130.396015 
" style="fill:none;stroke:#242424;stroke-linecap:round;"/>
   </g>
   <g id="line2d_67">
    <path clip-path="url(#pd958aee873)" d="M 249.08656 128.827087 
" style="fill:none;stroke:#55a868;stroke-dasharray:3.7,1.6;stroke-dashoffset:0;"/>
    <g clip-path="url(#pd958aee873)">
     <use style="fill:#ffffff;stroke:#000000;" x="249.08656" xlink:href="#m4d1ababe7b" y="128.827087"/>
    </g>
   </g>
   <g id="line2d_68">
    <path clip-path="url(#pd958aee873)" d="M 278.551411 147.468474 
L 307.141069 147.468474 
" style="fill:none;stroke:#242424;stroke-linecap:round;"/>
   </g>
   <g id="line2d_69">
    <path clip-path="url(#pd958aee873)" d="M 292.84624 144.346499 
" style="fill:none;stroke:#55a868;stroke-dasharray:3.7,1.6;stroke-dashoffset:0;"/>
    <g clip-path="url(#pd958aee873)">
     <use style="fill:#ffffff;stroke:#000000;" x="292.84624" xlink:href="#m4d1ababe7b" y="144.346499"/>
    </g>
   </g>
   <g id="line2d_70">
    <path clip-path="url(#pd958aee873)" d="M 307.724531 146.214043 
L 336.314189 146.214043 
" style="fill:none;stroke:#242424;stroke-linecap:round;"/>
   </g>
   <g id="line2d_71">
    <path clip-path="url(#pd958aee873)" d="M 322.01936 145.341408 
" style="fill:none;stroke:#55a868;stroke-dasharray:3.7,1.6;stroke-dashoffset:0;"/>
    <g clip-path="url(#pd958aee873)">
     <use style="fill:#ffffff;stroke:#000000;" x="322.01936" xlink:href="#m4d1ababe7b" y="145.341408"/>
    </g>
   </g>
   <g id="line2d_72">
    <path clip-path="url(#pd958aee873)" d="M 351.484211 134.152588 
L 380.073869 134.152588 
" style="fill:none;stroke:#242424;stroke-linecap:round;"/>
   </g>
   <g id="line2d_73">
    <path clip-path="url(#pd958aee873)" d="M 365.77904 133.518093 
" style="fill:none;stroke:#55a868;stroke-dasharray:3.7,1.6;stroke-dashoffset:0;"/>
    <g clip-path="url(#pd958aee873)">
     <use style="fill:#ffffff;stroke:#000000;" x="365.77904" xlink:href="#m4d1ababe7b" y="133.518093"/>
    </g>
   </g>
   <g id="line2d_74">
    <path clip-path="url(#pd958aee873)" d="M 380.657331 142.604186 
L 409.246989 142.604186 
" style="fill:none;stroke:#242424;stroke-linecap:round;"/>
   </g>
   <g id="line2d_75">
    <path clip-path="url(#pd958aee873)" d="M 394.95216 139.574721 
" style="fill:none;stroke:#55a868;stroke-dasharray:3.7,1.6;stroke-dashoffset:0;"/>
    <g clip-path="url(#pd958aee873)">
     <use style="fill:#ffffff;stroke:#000000;" x="394.95216" xlink:href="#m4d1ababe7b" y="139.574721"/>
    </g>
   </g>
   <g id="patch_14">
    <path d="M 52.168 174.332 
L 52.168 25.368 
" style="fill:none;stroke:#262626;stroke-linecap:square;stroke-linejoin:miter;"/>
   </g>
   <g id="patch_15">
    <path d="M 416.832 174.332 
L 416.832 25.368 
" style="fill:none;stroke:#262626;stroke-linecap:square;stroke-linejoin:miter;"/>
   </g>
   <g id="patch_16">
    <path d="M 52.168 174.332 
L 416.832 174.332 
" style="fill:none;stroke:#262626;stroke-linecap:square;stroke-linejoin:miter;"/>
   </g>
   <g id="patch_17">
    <path d="M 52.168 25.368 
L 416.832 25.368 
" style="fill:none;stroke:#262626;stroke-linecap:square;stroke-linejoin:miter;"/>
   </g>
   <g id="text_15">
    <!-- Embodied carbon per m² (harmonized) by building use type (EU-ECB) -->
    <defs>
     <path d="M 7.90625 0 
L 7.90625 71.578125 
L 59.671875 71.578125 
L 59.671875 63.140625 
L 17.390625 63.140625 
L 17.390625 41.21875 
L 56.984375 41.21875 
L 56.984375 32.8125 
L 17.390625 32.8125 
L 17.390625 8.453125 
L 61.328125 8.453125 
L 61.328125 0 
z
" id="ArialMT-45"/>
     <path d="M 14.703125 0 
L 6.546875 0 
L 6.546875 71.578125 
L 15.328125 71.578125 
L 15.328125 46.046875 
Q 20.90625 53.03125 29.546875 53.03125 
Q 34.328125 53.03125 38.59375 51.09375 
Q 42.875 49.171875 45.625 45.671875 
Q 48.390625 42.1875 49.953125 37.25 
Q 51.515625 32.328125 51.515625 26.703125 
Q 51.515625 13.375 44.921875 6.09375 
Q 38.328125 -1.171875 29.109375 -1.171875 
Q 19.921875 -1.171875 14.703125 6.5 
z
M 14.59375 26.3125 
Q 14.59375 17 17.140625 12.84375 
Q 21.296875 6.0625 28.375 6.0625 
Q 34.125 6.0625 38.328125 11.0625 
Q 42.53125 16.0625 42.53125 25.984375 
Q 42.53125 36.140625 38.5 40.96875 
Q 34.46875 45.796875 28.765625 45.796875 
Q 23 45.796875 18.796875 40.796875 
Q 14.59375 35.796875 14.59375 26.3125 
z
" id="ArialMT-62"/>
     <path id="ArialMT-20"/>
     <path d="M 6.59375 -19.875 
L 6.59375 51.859375 
L 14.59375 51.859375 
L 14.59375 45.125 
Q 17.4375 49.078125 21 51.046875 
Q 24.5625 53.03125 29.640625 53.03125 
Q 36.28125 53.03125 41.359375 49.609375 
Q 46.4375 46.1875 49.015625 39.953125 
Q 51.609375 33.734375 51.609375 26.3125 
Q 51.609375 18.359375 48.75 11.984375 
Q 45.90625 5.609375 40.453125 2.21875 
Q 35.015625 -1.171875 29 -1.171875 
Q 24.609375 -1.171875 21.109375 0.6875 
Q 17.625 2.546875 15.375 5.375 
L 15.375 -19.875 
z
M 14.546875 25.640625 
Q 14.546875 15.625 18.59375 10.84375 
Q 22.65625 6.0625 28.421875 6.0625 
Q 34.28125 6.0625 38.453125 11.015625 
Q 42.625 15.96875 42.625 26.375 
Q 42.625 36.28125 38.546875 41.203125 
Q 34.46875 46.140625 28.8125 46.140625 
Q 23.1875 46.140625 18.859375 40.890625 
Q 14.546875 35.640625 14.546875 25.640625 
z
" id="ArialMT-70"/>
     <path d="M 23.390625 -21.046875 
Q 16.109375 -11.859375 11.078125 0.4375 
Q 6.0625 12.75 6.0625 25.921875 
Q 6.0625 37.546875 9.8125 48.1875 
Q 14.203125 60.546875 23.390625 72.796875 
L 29.6875 72.796875 
Q 23.78125 62.640625 21.875 58.296875 
Q 18.890625 51.5625 17.1875 44.234375 
Q 15.09375 35.109375 15.09375 25.875 
Q 15.09375 2.390625 29.6875 -21.046875 
z
" id="ArialMT-28"/>
     <path d="M 1.953125 0 
L 1.953125 7.125 
L 34.96875 45.015625 
Q 29.34375 44.734375 25.046875 44.734375 
L 3.90625 44.734375 
L 3.90625 51.859375 
L 46.296875 51.859375 
L 46.296875 46.046875 
L 18.21875 13.140625 
L 12.796875 7.125 
Q 18.703125 7.5625 23.875 7.5625 
L 47.859375 7.5625 
L 47.859375 0 
z
" id="ArialMT-7a"/>
     <path d="M 12.359375 -21.046875 
L 6.0625 -21.046875 
Q 20.65625 2.390625 20.65625 25.875 
Q 20.65625 35.0625 18.5625 44.09375 
Q 16.890625 51.421875 13.921875 58.15625 
Q 12.015625 62.546875 6.0625 72.796875 
L 12.359375 72.796875 
Q 21.53125 60.546875 25.921875 48.1875 
Q 29.6875 37.546875 29.6875 25.921875 
Q 29.6875 12.75 24.625 0.4375 
Q 19.578125 -11.859375 12.359375 -21.046875 
z
" id="ArialMT-29"/>
     <path d="M 54.6875 71.578125 
L 64.15625 71.578125 
L 64.15625 30.21875 
Q 64.15625 19.4375 61.71875 13.078125 
Q 59.28125 6.734375 52.90625 2.75 
Q 46.53125 -1.21875 36.1875 -1.21875 
Q 26.125 -1.21875 19.71875 2.25 
Q 13.328125 5.71875 10.59375 12.28125 
Q 7.859375 18.84375 7.859375 30.21875 
L 7.859375 71.578125 
L 17.328125 71.578125 
L 17.328125 30.28125 
Q 17.328125 20.953125 19.0625 16.53125 
Q 20.796875 12.109375 25.015625 9.71875 
Q 29.25 7.328125 35.359375 7.328125 
Q 45.796875 7.328125 50.234375 12.0625 
Q 54.6875 16.796875 54.6875 30.28125 
z
" id="ArialMT-55"/>
     <path d="M 3.171875 21.484375 
L 3.171875 30.328125 
L 30.171875 30.328125 
L 30.171875 21.484375 
z
" id="ArialMT-2d"/>
    </defs>
    <g style="fill:#262626;" transform="translate(63.935547 19.368)scale(0.11 -0.11)">
     <use xlink:href="#ArialMT-45"/>
     <use x="66.699219" xlink:href="#ArialMT-6d"/>
     <use x="150" xlink:href="#ArialMT-62"/>
     <use x="205.615234" xlink:href="#ArialMT-6f"/>
     <use x="261.230469" xlink:href="#ArialMT-64"/>
     <use x="316.845703" xlink:href="#ArialMT-69"/>
     <use x="339.0625" xlink:href="#ArialMT-65"/>
     <use x="394.677734" xlink:href="#ArialMT-64"/>
     <use x="450.292969" xlink:href="#ArialMT-20"/>
     <use x="478.076172" xlink:href="#ArialMT-63"/>
     <use x="528.076172" xlink:href="#ArialMT-61"/>
     <use x="583.691406" xlink:href="#ArialMT-72"/>
     <use x="616.992188" xlink:href="#ArialMT-62"/>
     <use x="672.607422" xlink:href="#ArialMT-6f"/>
     <use x="728.222656" xlink:href="#ArialMT-6e"/>
     <use x="783.837891" xlink:href="#ArialMT-20"/>
     <use x="811.621094" xlink:href="#ArialMT-70"/>
     <use x="867.236328" xlink:href="#ArialMT-65"/>
     <use x="922.851562" xlink:href="#ArialMT-72"/>
     <use x="956.152344" xlink:href="#ArialMT-20"/>
     <use x="983.935547" xlink:href="#ArialMT-6d"/>
     <use x="1067.236328" xlink:href="#ArialMT-b2"/>
     <use x="1100.537109" xlink:href="#ArialMT-20"/>
     <use x="1128.320312" xlink:href="#ArialMT-28"/>
     <use x="1161.621094" xlink:href="#ArialMT-68"/>
     <use x="1217.236328" xlink:href="#ArialMT-61"/>
     <use x="1272.851562" xlink:href="#ArialMT-72"/>
     <use x="1306.152344" xlink:href="#ArialMT-6d"/>
     <use x="1389.453125" xlink:href="#ArialMT-6f"/>
     <use x="1445.068359" xlink:href="#ArialMT-6e"/>
     <use x="1500.683594" xlink:href="#ArialMT-69"/>
     <use x="1522.900391" xlink:href="#ArialMT-7a"/>
     <use x="1572.900391" xlink:href="#ArialMT-65"/>
     <use x="1628.515625" xlink:href="#ArialMT-64"/>
     <use x="1684.130859" xlink:href="#ArialMT-29"/>
     <use x="1717.431641" xlink:href="#ArialMT-20"/>
     <use x="1745.214844" xlink:href="#ArialMT-62"/>
     <use x="1800.830078" xlink:href="#ArialMT-79"/>
     <use x="1850.830078" xlink:href="#ArialMT-20"/>
     <use x="1878.613281" xlink:href="#ArialMT-62"/>
     <use x="1934.228516" xlink:href="#ArialMT-75"/>
     <use x="1989.84375" xlink:href="#ArialMT-69"/>
     <use x="2012.060547" xlink:href="#ArialMT-6c"/>
     <use x="2034.277344" xlink:href="#ArialMT-64"/>
     <use x="2089.892578" xlink:href="#ArialMT-69"/>
     <use x="2112.109375" xlink:href="#ArialMT-6e"/>
     <use x="2167.724609" xlink:href="#ArialMT-67"/>
     <use x="2223.339844" xlink:href="#ArialMT-20"/>
     <use x="2251.123047" xlink:href="#ArialMT-75"/>
     <use x="2306.738281" xlink:href="#ArialMT-73"/>
     <use x="2356.738281" xlink:href="#ArialMT-65"/>
     <use x="2412.353516" xlink:href="#ArialMT-20"/>
     <use x="2440.136719" xlink:href="#ArialMT-74"/>
     <use x="2467.919922" xlink:href="#ArialMT-79"/>
     <use x="2517.919922" xlink:href="#ArialMT-70"/>
     <use x="2573.535156" xlink:href="#ArialMT-65"/>
     <use x="2629.150391" xlink:href="#ArialMT-20"/>
     <use x="2656.933594" xlink:href="#ArialMT-28"/>
     <use x="2690.234375" xlink:href="#ArialMT-45"/>
     <use x="2756.933594" xlink:href="#ArialMT-55"/>
     <use x="2829.150391" xlink:href="#ArialMT-2d"/>
     <use x="2862.451172" xlink:href="#ArialMT-45"/>
     <use x="2929.150391" xlink:href="#ArialMT-43"/>
     <use x="3001.367188" xlink:href="#ArialMT-42"/>
     <use x="3068.066406" xlink:href="#ArialMT-29"/>
    </g>
   </g>
   <g id="legend_1">
    <g id="patch_18">
     <path d="M 323.330625 69.26195 
L 410.672 69.26195 
Q 412.432 69.26195 412.432 67.50195 
L 412.432 31.528 
Q 412.432 29.768 410.672 29.768 
L 323.330625 29.768 
Q 321.570625 29.768 321.570625 31.528 
L 321.570625 67.50195 
Q 321.570625 69.26195 323.330625 69.26195 
z
" style="fill:#ffffff;opacity:0.8;stroke:#cccccc;stroke-linejoin:miter;stroke-width:0.8;"/>
    </g>
    <g id="text_16">
     <!-- bldg_use_type -->
     <defs>
      <path d="M -1.515625 -19.875 
L -1.515625 -13.53125 
L 56.734375 -13.53125 
L 56.734375 -19.875 
z
" id="ArialMT-5f"/>
     </defs>
     <g style="fill:#262626;" transform="translate(340.46155 39.128775)scale(0.0816 -0.0816)">
      <use xlink:href="#ArialMT-62"/>
      <use x="55.615234" xlink:href="#ArialMT-6c"/>
      <use x="77.832031" xlink:href="#ArialMT-64"/>
      <use x="133.447266" xlink:href="#ArialMT-67"/>
      <use x="189.0625" xlink:href="#ArialMT-5f"/>
      <use x="244.677734" xlink:href="#ArialMT-75"/>
      <use x="300.292969" xlink:href="#ArialMT-73"/>
      <use x="350.292969" xlink:href="#ArialMT-65"/>
      <use x="405.908203" xlink:href="#ArialMT-5f"/>
      <use x="461.523438" xlink:href="#ArialMT-74"/>
      <use x="489.306641" xlink:href="#ArialMT-79"/>
      <use x="539.306641" xlink:href="#ArialMT-70"/>
      <use x="594.921875" xlink:href="#ArialMT-65"/>
     </g>
    </g>
    <g id="patch_19">
     <path d="M 325.090625 51.545075 
L 342.690625 51.545075 
L 342.690625 45.385075 
L 325.090625 45.385075 
z
" style="fill:#1e94d2;stroke:#242424;stroke-linejoin:miter;stroke-width:0.5;"/>
    </g>
    <g id="text_17">
     <!-- Non-residential -->
     <g style="fill:#262626;" transform="translate(349.730625 51.545075)scale(0.088 -0.088)">
      <use xlink:href="#ArialMT-4e"/>
      <use x="72.216797" xlink:href="#ArialMT-6f"/>
      <use x="127.832031" xlink:href="#ArialMT-6e"/>
      <use x="183.447266" xlink:href="#ArialMT-2d"/>
      <use x="216.748047" xlink:href="#ArialMT-72"/>
      <use x="250.048828" xlink:href="#ArialMT-65"/>
      <use x="305.664062" xlink:href="#ArialMT-73"/>
      <use x="355.664062" xlink:href="#ArialMT-69"/>
      <use x="377.880859" xlink:href="#ArialMT-64"/>
      <use x="433.496094" xlink:href="#ArialMT-65"/>
      <use x="489.111328" xlink:href="#ArialMT-6e"/>
      <use x="544.726562" xlink:href="#ArialMT-74"/>
      <use x="572.509766" xlink:href="#ArialMT-69"/>
      <use x="594.726562" xlink:href="#ArialMT-61"/>
      <use x="650.341797" xlink:href="#ArialMT-6c"/>
     </g>
    </g>
    <g id="patch_20">
     <path d="M 325.090625 63.99295 
L 342.690625 63.99295 
L 342.690625 57.83295 
L 325.090625 57.83295 
z
" style="fill:#0f4a69;stroke:#242424;stroke-linejoin:miter;stroke-width:0.5;"/>
    </g>
    <g id="text_18">
     <!-- Residential -->
     <defs>
      <path d="M 7.859375 0 
L 7.859375 71.578125 
L 39.59375 71.578125 
Q 49.171875 71.578125 54.140625 69.640625 
Q 59.125 67.71875 62.109375 62.828125 
Q 65.09375 57.953125 65.09375 52.046875 
Q 65.09375 44.4375 60.15625 39.203125 
Q 55.21875 33.984375 44.921875 32.5625 
Q 48.6875 30.765625 50.640625 29 
Q 54.78125 25.203125 58.5 19.484375 
L 70.953125 0 
L 59.03125 0 
L 49.5625 14.890625 
Q 45.40625 21.34375 42.71875 24.75 
Q 40.046875 28.171875 37.921875 29.53125 
Q 35.796875 30.90625 33.59375 31.453125 
Q 31.984375 31.78125 28.328125 31.78125 
L 17.328125 31.78125 
L 17.328125 0 
z
M 17.328125 39.984375 
L 37.703125 39.984375 
Q 44.1875 39.984375 47.84375 41.328125 
Q 51.515625 42.671875 53.421875 45.625 
Q 55.328125 48.578125 55.328125 52.046875 
Q 55.328125 57.125 51.640625 60.390625 
Q 47.953125 63.671875 39.984375 63.671875 
L 17.328125 63.671875 
z
" id="ArialMT-52"/>
     </defs>
     <g style="fill:#262626;" transform="translate(349.730625 63.99295)scale(0.088 -0.088)">
      <use xlink:href="#ArialMT-52"/>
      <use x="72.216797" xlink:href="#ArialMT-65"/>
      <use x="127.832031" xlink:href="#ArialMT-73"/>
      <use x="177.832031" xlink:href="#ArialMT-69"/>
      <use x="200.048828" xlink:href="#ArialMT-64"/>
      <use x="255.664062" xlink:href="#ArialMT-65"/>
      <use x="311.279297" xlink:href="#ArialMT-6e"/>
      <use x="366.894531" xlink:href="#ArialMT-74"/>
      <use x="394.677734" xlink:href="#ArialMT-69"/>
      <use x="416.894531" xlink:href="#ArialMT-61"/>
      <use x="472.509766" xlink:href="#ArialMT-6c"/>
     </g>
    </g>
   </g>
  </g>
 </g>
 <defs>
  <clipPath id="pd958aee873">
   <rect height="148.964" width="364.664" x="52.168" y="25.368"/>
  </clipPath>
 </defs>
</svg>
