<?xml version="1.0" encoding="utf-8" standalone="no"?>
<!DOCTYPE svg PUBLIC "-//W3C//DTD SVG 1.1//EN"
  "http://www.w3.org/Graphics/SVG/1.1/DTD/svg11.dtd">
<!-- Created with matplotlib (http://matplotlib.org/) -->
<svg height="324pt" version="1.1" viewBox="0 0 432 324" width="432pt" xmlns="http://www.w3.org/2000/svg" xmlns:xlink="http://www.w3.org/1999/xlink">
 <defs>
  <style type="text/css">
*{stroke-linecap:butt;stroke-linejoin:round;}
  </style>
 </defs>
 <g id="figure_1">
  <g id="patch_1">
   <path d="M 0 324 
L 432 324 
L 432 0 
L 0 0 
z
" style="fill:#ffffff;"/>
  </g>
  <g id="axes_1">
   <g id="patch_2">
    <path d="M 49.793 282.332 
L 416.832 282.332 
L 416.832 36.02425 
L 49.793 36.02425 
z
" style="fill:#ffffff;"/>
   </g>
   <g id="matplotlib.axis_1">
    <g id="xtick_1">
     <g id="line2d_1">
      <defs>
       <path d="M 0 0 
L 0 4.8 
" id="m2560e93989" style="stroke:#262626;"/>
      </defs>
      <g>
       <use style="fill:#262626;stroke:#262626;" x="80.379583" xlink:href="#m2560e93989" y="282.332"/>
      </g>
     </g>
     <g id="text_1">
      <!-- Ground -->
      <defs>
       <path d="M 41.21875 28.078125 
L 41.21875 36.46875 
L 71.53125 36.53125 
L 71.53125 9.96875 
Q 64.546875 4.390625 57.125 1.578125 
Q 49.703125 -1.21875 41.890625 -1.21875 
Q 31.34375 -1.21875 22.71875 3.296875 
Q 14.109375 7.8125 9.71875 16.359375 
Q 5.328125 24.90625 5.328125 35.453125 
Q 5.328125 45.90625 9.6875 54.953125 
Q 14.0625 64.015625 22.265625 68.40625 
Q 30.46875 72.796875 41.15625 72.796875 
Q 48.921875 72.796875 55.1875 70.28125 
Q 61.46875 67.78125 65.03125 63.28125 
Q 68.609375 58.796875 70.453125 51.5625 
L 61.921875 49.21875 
Q 60.296875 54.6875 57.90625 57.8125 
Q 55.515625 60.9375 51.0625 62.8125 
Q 46.625 64.703125 41.21875 64.703125 
Q 34.71875 64.703125 29.984375 62.71875 
Q 25.25 60.75 22.34375 57.515625 
Q 19.4375 54.296875 17.828125 50.4375 
Q 15.09375 43.796875 15.09375 36.03125 
Q 15.09375 26.46875 18.390625 20.015625 
Q 21.6875 13.578125 27.984375 10.453125 
Q 34.28125 7.328125 41.359375 7.328125 
Q 47.515625 7.328125 53.375 9.6875 
Q 59.234375 12.0625 62.25 14.75 
L 62.25 28.078125 
z
" id="ArialMT-47"/>
       <path d="M 6.5 0 
L 6.5 51.859375 
L 14.40625 51.859375 
L 14.40625 44 
Q 17.4375 49.515625 20 51.265625 
Q 22.5625 53.03125 25.640625 53.03125 
Q 30.078125 53.03125 34.671875 50.203125 
L 31.640625 42.046875 
Q 28.421875 43.953125 25.203125 43.953125 
Q 22.3125 43.953125 20.015625 42.21875 
Q 17.71875 40.484375 16.75 37.40625 
Q 15.28125 32.71875 15.28125 27.15625 
L 15.28125 0 
z
" id="ArialMT-72"/>
       <path d="M 3.328125 25.921875 
Q 3.328125 40.328125 11.328125 47.265625 
Q 18.015625 53.03125 27.640625 53.03125 
Q 38.328125 53.03125 45.109375 46.015625 
Q 51.90625 39.015625 51.90625 26.65625 
Q 51.90625 16.65625 48.90625 10.90625 
Q 45.90625 5.171875 40.15625 2 
Q 34.421875 -1.171875 27.640625 -1.171875 
Q 16.75 -1.171875 10.03125 5.8125 
Q 3.328125 12.796875 3.328125 25.921875 
z
M 12.359375 25.921875 
Q 12.359375 15.96875 16.703125 11.015625 
Q 21.046875 6.0625 27.640625 6.0625 
Q 34.1875 6.0625 38.53125 11.03125 
Q 42.875 16.015625 42.875 26.21875 
Q 42.875 35.84375 38.5 40.796875 
Q 34.125 45.75 27.640625 45.75 
Q 21.046875 45.75 16.703125 40.8125 
Q 12.359375 35.890625 12.359375 25.921875 
z
" id="ArialMT-6f"/>
       <path d="M 40.578125 0 
L 40.578125 7.625 
Q 34.515625 -1.171875 24.125 -1.171875 
Q 19.53125 -1.171875 15.546875 0.578125 
Q 11.578125 2.34375 9.640625 5 
Q 7.71875 7.671875 6.9375 11.53125 
Q 6.390625 14.109375 6.390625 19.734375 
L 6.390625 51.859375 
L 15.1875 51.859375 
L 15.1875 23.09375 
Q 15.1875 16.21875 15.71875 13.8125 
Q 16.546875 10.359375 19.234375 8.375 
Q 21.921875 6.390625 25.875 6.390625 
Q 29.828125 6.390625 33.296875 8.421875 
Q 36.765625 10.453125 38.203125 13.9375 
Q 39.65625 17.4375 39.65625 24.078125 
L 39.65625 51.859375 
L 48.4375 51.859375 
L 48.4375 0 
z
" id="ArialMT-75"/>
       <path d="M 6.59375 0 
L 6.59375 51.859375 
L 14.5 51.859375 
L 14.5 44.484375 
Q 20.21875 53.03125 31 53.03125 
Q 35.6875 53.03125 39.625 51.34375 
Q 43.5625 49.65625 45.515625 46.921875 
Q 47.46875 44.1875 48.25 40.4375 
Q 48.734375 37.984375 48.734375 31.890625 
L 48.734375 0 
L 39.9375 0 
L 39.9375 31.546875 
Q 39.9375 36.921875 38.90625 39.578125 
Q 37.890625 42.234375 35.28125 43.8125 
Q 32.671875 45.40625 29.15625 45.40625 
Q 23.53125 45.40625 19.453125 41.84375 
Q 15.375 38.28125 15.375 28.328125 
L 15.375 0 
z
" id="ArialMT-6e"/>
       <path d="M 40.234375 0 
L 40.234375 6.546875 
Q 35.296875 -1.171875 25.734375 -1.171875 
Q 19.53125 -1.171875 14.328125 2.25 
Q 9.125 5.671875 6.265625 11.796875 
Q 3.421875 17.921875 3.421875 25.875 
Q 3.421875 33.640625 6 39.96875 
Q 8.59375 46.296875 13.765625 49.65625 
Q 18.953125 53.03125 25.34375 53.03125 
Q 30.03125 53.03125 33.6875 51.046875 
Q 37.359375 49.078125 39.65625 45.90625 
L 39.65625 71.578125 
L 48.390625 71.578125 
L 48.390625 0 
z
M 12.453125 25.875 
Q 12.453125 15.921875 16.640625 10.984375 
Q 20.84375 6.0625 26.5625 6.0625 
Q 32.328125 6.0625 36.34375 10.765625 
Q 40.375 15.484375 40.375 25.140625 
Q 40.375 35.796875 36.265625 40.765625 
Q 32.171875 45.75 26.171875 45.75 
Q 20.3125 45.75 16.375 40.96875 
Q 12.453125 36.1875 12.453125 25.875 
z
" id="ArialMT-64"/>
      </defs>
      <g style="fill:#262626;" transform="translate(65.37138 297.074031)scale(0.09 -0.09)">
       <use xlink:href="#ArialMT-47"/>
       <use x="77.783203" xlink:href="#ArialMT-72"/>
       <use x="111.083984" xlink:href="#ArialMT-6f"/>
       <use x="166.699219" xlink:href="#ArialMT-75"/>
       <use x="222.314453" xlink:href="#ArialMT-6e"/>
       <use x="277.929688" xlink:href="#ArialMT-64"/>
      </g>
     </g>
    </g>
    <g id="xtick_2">
     <g id="line2d_2">
      <g>
       <use style="fill:#262626;stroke:#262626;" x="141.55275" xlink:href="#m2560e93989" y="282.332"/>
      </g>
     </g>
     <g id="text_2">
      <!-- Structure -->
      <defs>
       <path d="M 4.5 23 
L 13.421875 23.78125 
Q 14.0625 18.40625 16.375 14.96875 
Q 18.703125 11.53125 23.578125 9.40625 
Q 28.46875 7.28125 34.578125 7.28125 
Q 39.984375 7.28125 44.140625 8.890625 
Q 48.296875 10.5 50.3125 13.296875 
Q 52.34375 16.109375 52.34375 19.4375 
Q 52.34375 22.796875 50.390625 25.3125 
Q 48.4375 27.828125 43.953125 29.546875 
Q 41.0625 30.671875 31.203125 33.03125 
Q 21.34375 35.40625 17.390625 37.5 
Q 12.25 40.1875 9.734375 44.15625 
Q 7.234375 48.140625 7.234375 53.078125 
Q 7.234375 58.5 10.296875 63.203125 
Q 13.375 67.921875 19.28125 70.359375 
Q 25.203125 72.796875 32.421875 72.796875 
Q 40.375 72.796875 46.453125 70.234375 
Q 52.546875 67.671875 55.8125 62.6875 
Q 59.078125 57.71875 59.328125 51.421875 
L 50.25 50.734375 
Q 49.515625 57.515625 45.28125 60.984375 
Q 41.0625 64.453125 32.8125 64.453125 
Q 24.21875 64.453125 20.28125 61.296875 
Q 16.359375 58.15625 16.359375 53.71875 
Q 16.359375 49.859375 19.140625 47.359375 
Q 21.875 44.875 33.421875 42.265625 
Q 44.96875 39.65625 49.265625 37.703125 
Q 55.515625 34.8125 58.484375 30.390625 
Q 61.46875 25.984375 61.46875 20.21875 
Q 61.46875 14.5 58.203125 9.4375 
Q 54.9375 4.390625 48.796875 1.578125 
Q 42.671875 -1.21875 35.015625 -1.21875 
Q 25.296875 -1.21875 18.71875 1.609375 
Q 12.15625 4.4375 8.421875 10.125 
Q 4.6875 15.828125 4.5 23 
z
" id="ArialMT-53"/>
       <path d="M 25.78125 7.859375 
L 27.046875 0.09375 
Q 23.34375 -0.6875 20.40625 -0.6875 
Q 15.625 -0.6875 12.984375 0.828125 
Q 10.359375 2.34375 9.28125 4.8125 
Q 8.203125 7.28125 8.203125 15.1875 
L 8.203125 45.015625 
L 1.765625 45.015625 
L 1.765625 51.859375 
L 8.203125 51.859375 
L 8.203125 64.703125 
L 16.9375 69.96875 
L 16.9375 51.859375 
L 25.78125 51.859375 
L 25.78125 45.015625 
L 16.9375 45.015625 
L 16.9375 14.703125 
Q 16.9375 10.9375 17.40625 9.859375 
Q 17.875 8.796875 18.921875 8.15625 
Q 19.96875 7.515625 21.921875 7.515625 
Q 23.390625 7.515625 25.78125 7.859375 
z
" id="ArialMT-74"/>
       <path d="M 40.4375 19 
L 49.078125 17.875 
Q 47.65625 8.9375 41.8125 3.875 
Q 35.984375 -1.171875 27.484375 -1.171875 
Q 16.84375 -1.171875 10.375 5.78125 
Q 3.90625 12.75 3.90625 25.734375 
Q 3.90625 34.125 6.6875 40.421875 
Q 9.46875 46.734375 15.15625 49.875 
Q 20.84375 53.03125 27.546875 53.03125 
Q 35.984375 53.03125 41.359375 48.75 
Q 46.734375 44.484375 48.25 36.625 
L 39.703125 35.296875 
Q 38.484375 40.53125 35.375 43.15625 
Q 32.28125 45.796875 27.875 45.796875 
Q 21.234375 45.796875 17.078125 41.03125 
Q 12.9375 36.28125 12.9375 25.984375 
Q 12.9375 15.53125 16.9375 10.796875 
Q 20.953125 6.0625 27.390625 6.0625 
Q 32.5625 6.0625 36.03125 9.234375 
Q 39.5 12.40625 40.4375 19 
z
" id="ArialMT-63"/>
       <path d="M 42.09375 16.703125 
L 51.171875 15.578125 
Q 49.03125 7.625 43.21875 3.21875 
Q 37.40625 -1.171875 28.375 -1.171875 
Q 17 -1.171875 10.328125 5.828125 
Q 3.65625 12.84375 3.65625 25.484375 
Q 3.65625 38.578125 10.390625 45.796875 
Q 17.140625 53.03125 27.875 53.03125 
Q 38.28125 53.03125 44.875 45.953125 
Q 51.46875 38.875 51.46875 26.03125 
Q 51.46875 25.25 51.421875 23.6875 
L 12.75 23.6875 
Q 13.234375 15.140625 17.578125 10.59375 
Q 21.921875 6.0625 28.421875 6.0625 
Q 33.25 6.0625 36.671875 8.59375 
Q 40.09375 11.140625 42.09375 16.703125 
z
M 13.234375 30.90625 
L 42.1875 30.90625 
Q 41.609375 37.453125 38.875 40.71875 
Q 34.671875 45.796875 27.984375 45.796875 
Q 21.921875 45.796875 17.796875 41.75 
Q 13.671875 37.703125 13.234375 30.90625 
z
" id="ArialMT-65"/>
      </defs>
      <g style="fill:#262626;" transform="translate(123.296813 297.074031)scale(0.09 -0.09)">
       <use xlink:href="#ArialMT-53"/>
       <use x="66.699219" xlink:href="#ArialMT-74"/>
       <use x="94.482422" xlink:href="#ArialMT-72"/>
       <use x="127.783203" xlink:href="#ArialMT-75"/>
       <use x="183.398438" xlink:href="#ArialMT-63"/>
       <use x="233.398438" xlink:href="#ArialMT-74"/>
       <use x="261.181641" xlink:href="#ArialMT-75"/>
       <use x="316.796875" xlink:href="#ArialMT-72"/>
       <use x="350.097656" xlink:href="#ArialMT-65"/>
      </g>
     </g>
    </g>
    <g id="xtick_3">
     <g id="line2d_3">
      <g>
       <use style="fill:#262626;stroke:#262626;" x="202.725917" xlink:href="#m2560e93989" y="282.332"/>
      </g>
     </g>
     <g id="text_3">
      <!-- Envelope -->
      <defs>
       <path d="M 7.90625 0 
L 7.90625 71.578125 
L 59.671875 71.578125 
L 59.671875 63.140625 
L 17.390625 63.140625 
L 17.390625 41.21875 
L 56.984375 41.21875 
L 56.984375 32.8125 
L 17.390625 32.8125 
L 17.390625 8.453125 
L 61.328125 8.453125 
L 61.328125 0 
z
" id="ArialMT-45"/>
       <path d="M 21 0 
L 1.265625 51.859375 
L 10.546875 51.859375 
L 21.6875 20.796875 
Q 23.484375 15.765625 25 10.359375 
Q 26.171875 14.453125 28.265625 20.21875 
L 39.796875 51.859375 
L 48.828125 51.859375 
L 29.203125 0 
z
" id="ArialMT-76"/>
       <path d="M 6.390625 0 
L 6.390625 71.578125 
L 15.1875 71.578125 
L 15.1875 0 
z
" id="ArialMT-6c"/>
       <path d="M 6.59375 -19.875 
L 6.59375 51.859375 
L 14.59375 51.859375 
L 14.59375 45.125 
Q 17.4375 49.078125 21 51.046875 
Q 24.5625 53.03125 29.640625 53.03125 
Q 36.28125 53.03125 41.359375 49.609375 
Q 46.4375 46.1875 49.015625 39.953125 
Q 51.609375 33.734375 51.609375 26.3125 
Q 51.609375 18.359375 48.75 11.984375 
Q 45.90625 5.609375 40.453125 2.21875 
Q 35.015625 -1.171875 29 -1.171875 
Q 24.609375 -1.171875 21.109375 0.6875 
Q 17.625 2.546875 15.375 5.375 
L 15.375 -19.875 
z
M 14.546875 25.640625 
Q 14.546875 15.625 18.59375 10.84375 
Q 22.65625 6.0625 28.421875 6.0625 
Q 34.28125 6.0625 38.453125 11.015625 
Q 42.625 15.96875 42.625 26.375 
Q 42.625 36.28125 38.546875 41.203125 
Q 34.46875 46.140625 28.8125 46.140625 
Q 23.1875 46.140625 18.859375 40.890625 
Q 14.546875 35.640625 14.546875 25.640625 
z
" id="ArialMT-70"/>
      </defs>
      <g style="fill:#262626;" transform="translate(183.962323 297.074031)scale(0.09 -0.09)">
       <use xlink:href="#ArialMT-45"/>
       <use x="66.699219" xlink:href="#ArialMT-6e"/>
       <use x="122.314453" xlink:href="#ArialMT-76"/>
       <use x="172.314453" xlink:href="#ArialMT-65"/>
       <use x="227.929688" xlink:href="#ArialMT-6c"/>
       <use x="250.146484" xlink:href="#ArialMT-6f"/>
       <use x="305.761719" xlink:href="#ArialMT-70"/>
       <use x="361.376953" xlink:href="#ArialMT-65"/>
      </g>
     </g>
    </g>
    <g id="xtick_4">
     <g id="line2d_4">
      <g>
       <use style="fill:#262626;stroke:#262626;" x="263.899083" xlink:href="#m2560e93989" y="282.332"/>
      </g>
     </g>
     <g id="text_4">
      <!-- Internal -->
      <defs>
       <path d="M 9.328125 0 
L 9.328125 71.578125 
L 18.796875 71.578125 
L 18.796875 0 
z
" id="ArialMT-49"/>
       <path d="M 40.4375 6.390625 
Q 35.546875 2.25 31.03125 0.53125 
Q 26.515625 -1.171875 21.34375 -1.171875 
Q 12.796875 -1.171875 8.203125 3 
Q 3.609375 7.171875 3.609375 13.671875 
Q 3.609375 17.484375 5.34375 20.625 
Q 7.078125 23.78125 9.890625 25.6875 
Q 12.703125 27.59375 16.21875 28.5625 
Q 18.796875 29.25 24.03125 29.890625 
Q 34.671875 31.15625 39.703125 32.90625 
Q 39.75 34.71875 39.75 35.203125 
Q 39.75 40.578125 37.25 42.78125 
Q 33.890625 45.75 27.25 45.75 
Q 21.046875 45.75 18.09375 43.578125 
Q 15.140625 41.40625 13.71875 35.890625 
L 5.125 37.0625 
Q 6.296875 42.578125 8.984375 45.96875 
Q 11.671875 49.359375 16.75 51.1875 
Q 21.828125 53.03125 28.515625 53.03125 
Q 35.15625 53.03125 39.296875 51.46875 
Q 43.453125 49.90625 45.40625 47.53125 
Q 47.359375 45.171875 48.140625 41.546875 
Q 48.578125 39.3125 48.578125 33.453125 
L 48.578125 21.734375 
Q 48.578125 9.46875 49.140625 6.21875 
Q 49.703125 2.984375 51.375 0 
L 42.1875 0 
Q 40.828125 2.734375 40.4375 6.390625 
z
M 39.703125 26.03125 
Q 34.90625 24.078125 25.34375 22.703125 
Q 19.921875 21.921875 17.671875 20.9375 
Q 15.4375 19.96875 14.203125 18.09375 
Q 12.984375 16.21875 12.984375 13.921875 
Q 12.984375 10.40625 15.640625 8.0625 
Q 18.3125 5.71875 23.4375 5.71875 
Q 28.515625 5.71875 32.46875 7.9375 
Q 36.421875 10.15625 38.28125 14.015625 
Q 39.703125 17 39.703125 22.796875 
z
" id="ArialMT-61"/>
      </defs>
      <g style="fill:#262626;" transform="translate(248.89088 297.074031)scale(0.09 -0.09)">
       <use xlink:href="#ArialMT-49"/>
       <use x="27.783203" xlink:href="#ArialMT-6e"/>
       <use x="83.398438" xlink:href="#ArialMT-74"/>
       <use x="111.181641" xlink:href="#ArialMT-65"/>
       <use x="166.796875" xlink:href="#ArialMT-72"/>
       <use x="200.097656" xlink:href="#ArialMT-6e"/>
       <use x="255.712891" xlink:href="#ArialMT-61"/>
       <use x="311.328125" xlink:href="#ArialMT-6c"/>
      </g>
     </g>
    </g>
    <g id="xtick_5">
     <g id="line2d_5">
      <g>
       <use style="fill:#262626;stroke:#262626;" x="325.07225" xlink:href="#m2560e93989" y="282.332"/>
      </g>
     </g>
     <g id="text_5">
      <!-- Services -->
      <defs>
       <path d="M 6.640625 61.46875 
L 6.640625 71.578125 
L 15.4375 71.578125 
L 15.4375 61.46875 
z
M 6.640625 0 
L 6.640625 51.859375 
L 15.4375 51.859375 
L 15.4375 0 
z
" id="ArialMT-69"/>
       <path d="M 3.078125 15.484375 
L 11.765625 16.84375 
Q 12.5 11.625 15.84375 8.84375 
Q 19.1875 6.0625 25.203125 6.0625 
Q 31.25 6.0625 34.171875 8.515625 
Q 37.109375 10.984375 37.109375 14.3125 
Q 37.109375 17.28125 34.515625 19 
Q 32.71875 20.171875 25.53125 21.96875 
Q 15.875 24.421875 12.140625 26.203125 
Q 8.40625 27.984375 6.46875 31.125 
Q 4.546875 34.28125 4.546875 38.09375 
Q 4.546875 41.546875 6.125 44.5 
Q 7.71875 47.46875 10.453125 49.421875 
Q 12.5 50.921875 16.03125 51.96875 
Q 19.578125 53.03125 23.640625 53.03125 
Q 29.734375 53.03125 34.34375 51.265625 
Q 38.96875 49.515625 41.15625 46.5 
Q 43.359375 43.5 44.1875 38.484375 
L 35.59375 37.3125 
Q 35.015625 41.3125 32.203125 43.546875 
Q 29.390625 45.796875 24.265625 45.796875 
Q 18.21875 45.796875 15.625 43.796875 
Q 13.03125 41.796875 13.03125 39.109375 
Q 13.03125 37.40625 14.109375 36.03125 
Q 15.1875 34.625 17.484375 33.6875 
Q 18.796875 33.203125 25.25 31.453125 
Q 34.578125 28.953125 38.25 27.359375 
Q 41.9375 25.78125 44.03125 22.75 
Q 46.140625 19.734375 46.140625 15.234375 
Q 46.140625 10.84375 43.578125 6.953125 
Q 41.015625 3.078125 36.171875 0.953125 
Q 31.34375 -1.171875 25.25 -1.171875 
Q 15.140625 -1.171875 9.84375 3.03125 
Q 4.546875 7.234375 3.078125 15.484375 
z
" id="ArialMT-73"/>
      </defs>
      <g style="fill:#262626;" transform="translate(307.817562 297.074031)scale(0.09 -0.09)">
       <use xlink:href="#ArialMT-53"/>
       <use x="66.699219" xlink:href="#ArialMT-65"/>
       <use x="122.314453" xlink:href="#ArialMT-72"/>
       <use x="155.615234" xlink:href="#ArialMT-76"/>
       <use x="205.615234" xlink:href="#ArialMT-69"/>
       <use x="227.832031" xlink:href="#ArialMT-63"/>
       <use x="277.832031" xlink:href="#ArialMT-65"/>
       <use x="333.447266" xlink:href="#ArialMT-73"/>
      </g>
     </g>
    </g>
    <g id="xtick_6">
     <g id="line2d_6">
      <g>
       <use style="fill:#262626;stroke:#262626;" x="386.245417" xlink:href="#m2560e93989" y="282.332"/>
      </g>
     </g>
     <g id="text_6">
      <!-- Appliances -->
      <defs>
       <path d="M -0.140625 0 
L 27.34375 71.578125 
L 37.546875 71.578125 
L 66.84375 0 
L 56.0625 0 
L 47.703125 21.6875 
L 17.78125 21.6875 
L 9.90625 0 
z
M 20.515625 29.390625 
L 44.78125 29.390625 
L 37.3125 49.21875 
Q 33.890625 58.25 32.234375 64.0625 
Q 30.859375 57.171875 28.375 50.390625 
z
" id="ArialMT-41"/>
      </defs>
      <g style="fill:#262626;" transform="translate(364.231979 297.074031)scale(0.09 -0.09)">
       <use xlink:href="#ArialMT-41"/>
       <use x="66.699219" xlink:href="#ArialMT-70"/>
       <use x="122.314453" xlink:href="#ArialMT-70"/>
       <use x="177.929688" xlink:href="#ArialMT-6c"/>
       <use x="200.146484" xlink:href="#ArialMT-69"/>
       <use x="222.363281" xlink:href="#ArialMT-61"/>
       <use x="277.978516" xlink:href="#ArialMT-6e"/>
       <use x="333.59375" xlink:href="#ArialMT-63"/>
       <use x="383.59375" xlink:href="#ArialMT-65"/>
       <use x="439.208984" xlink:href="#ArialMT-73"/>
      </g>
     </g>
    </g>
    <g id="text_7">
     <!-- building part types -->
     <defs>
      <path d="M 14.703125 0 
L 6.546875 0 
L 6.546875 71.578125 
L 15.328125 71.578125 
L 15.328125 46.046875 
Q 20.90625 53.03125 29.546875 53.03125 
Q 34.328125 53.03125 38.59375 51.09375 
Q 42.875 49.171875 45.625 45.671875 
Q 48.390625 42.1875 49.953125 37.25 
Q 51.515625 32.328125 51.515625 26.703125 
Q 51.515625 13.375 44.921875 6.09375 
Q 38.328125 -1.171875 29.109375 -1.171875 
Q 19.921875 -1.171875 14.703125 6.5 
z
M 14.59375 26.3125 
Q 14.59375 17 17.140625 12.84375 
Q 21.296875 6.0625 28.375 6.0625 
Q 34.125 6.0625 38.328125 11.0625 
Q 42.53125 16.0625 42.53125 25.984375 
Q 42.53125 36.140625 38.5 40.96875 
Q 34.46875 45.796875 28.765625 45.796875 
Q 23 45.796875 18.796875 40.796875 
Q 14.59375 35.796875 14.59375 26.3125 
z
" id="ArialMT-62"/>
      <path d="M 4.984375 -4.296875 
L 13.53125 -5.5625 
Q 14.0625 -9.515625 16.5 -11.328125 
Q 19.78125 -13.765625 25.4375 -13.765625 
Q 31.546875 -13.765625 34.859375 -11.328125 
Q 38.1875 -8.890625 39.359375 -4.5 
Q 40.046875 -1.8125 39.984375 6.78125 
Q 34.234375 0 25.640625 0 
Q 14.9375 0 9.078125 7.71875 
Q 3.21875 15.4375 3.21875 26.21875 
Q 3.21875 33.640625 5.90625 39.90625 
Q 8.59375 46.1875 13.6875 49.609375 
Q 18.796875 53.03125 25.6875 53.03125 
Q 34.859375 53.03125 40.828125 45.609375 
L 40.828125 51.859375 
L 48.921875 51.859375 
L 48.921875 7.03125 
Q 48.921875 -5.078125 46.453125 -10.125 
Q 44 -15.1875 38.640625 -18.109375 
Q 33.296875 -21.046875 25.484375 -21.046875 
Q 16.21875 -21.046875 10.5 -16.875 
Q 4.78125 -12.703125 4.984375 -4.296875 
z
M 12.25 26.859375 
Q 12.25 16.65625 16.296875 11.96875 
Q 20.359375 7.28125 26.46875 7.28125 
Q 32.515625 7.28125 36.609375 11.9375 
Q 40.71875 16.609375 40.71875 26.5625 
Q 40.71875 36.078125 36.5 40.90625 
Q 32.28125 45.75 26.3125 45.75 
Q 20.453125 45.75 16.34375 40.984375 
Q 12.25 36.234375 12.25 26.859375 
z
" id="ArialMT-67"/>
      <path id="ArialMT-20"/>
      <path d="M 6.203125 -19.96875 
L 5.21875 -11.71875 
Q 8.109375 -12.5 10.25 -12.5 
Q 13.1875 -12.5 14.9375 -11.515625 
Q 16.703125 -10.546875 17.828125 -8.796875 
Q 18.65625 -7.46875 20.515625 -2.25 
Q 20.75 -1.515625 21.296875 -0.09375 
L 1.609375 51.859375 
L 11.078125 51.859375 
L 21.875 21.828125 
Q 23.96875 16.109375 25.640625 9.8125 
Q 27.15625 15.875 29.25 21.625 
L 40.328125 51.859375 
L 49.125 51.859375 
L 29.390625 -0.875 
Q 26.21875 -9.421875 24.46875 -12.640625 
Q 22.125 -17 19.09375 -19.015625 
Q 16.0625 -21.046875 11.859375 -21.046875 
Q 9.328125 -21.046875 6.203125 -19.96875 
z
" id="ArialMT-79"/>
     </defs>
     <g style="fill:#262626;" transform="translate(192.734375 311.020594)scale(0.1 -0.1)">
      <use xlink:href="#ArialMT-62"/>
      <use x="55.615234" xlink:href="#ArialMT-75"/>
      <use x="111.230469" xlink:href="#ArialMT-69"/>
      <use x="133.447266" xlink:href="#ArialMT-6c"/>
      <use x="155.664062" xlink:href="#ArialMT-64"/>
      <use x="211.279297" xlink:href="#ArialMT-69"/>
      <use x="233.496094" xlink:href="#ArialMT-6e"/>
      <use x="289.111328" xlink:href="#ArialMT-67"/>
      <use x="344.726562" xlink:href="#ArialMT-20"/>
      <use x="372.509766" xlink:href="#ArialMT-70"/>
      <use x="428.125" xlink:href="#ArialMT-61"/>
      <use x="483.740234" xlink:href="#ArialMT-72"/>
      <use x="517.041016" xlink:href="#ArialMT-74"/>
      <use x="544.824219" xlink:href="#ArialMT-20"/>
      <use x="572.607422" xlink:href="#ArialMT-74"/>
      <use x="600.390625" xlink:href="#ArialMT-79"/>
      <use x="650.390625" xlink:href="#ArialMT-70"/>
      <use x="706.005859" xlink:href="#ArialMT-65"/>
      <use x="761.621094" xlink:href="#ArialMT-73"/>
     </g>
    </g>
   </g>
   <g id="matplotlib.axis_2">
    <g id="ytick_1">
     <g id="line2d_7">
      <path clip-path="url(#p09d0888164)" d="M 49.793 271.61336 
L 416.832 271.61336 
" style="fill:none;stroke:#cccccc;stroke-linecap:round;stroke-width:0.8;"/>
     </g>
     <g id="line2d_8">
      <defs>
       <path d="M 0 0 
L -4.8 0 
" id="m8c917646f3" style="stroke:#262626;"/>
      </defs>
      <g>
       <use style="fill:#262626;stroke:#262626;" x="49.793" xlink:href="#m8c917646f3" y="271.61336"/>
      </g>
     </g>
     <g id="text_8">
      <!-- 0.0 -->
      <defs>
       <path d="M 4.15625 35.296875 
Q 4.15625 48 6.765625 55.734375 
Q 9.375 63.484375 14.515625 67.671875 
Q 19.671875 71.875 27.484375 71.875 
Q 33.25 71.875 37.59375 69.546875 
Q 41.9375 67.234375 44.765625 62.859375 
Q 47.609375 58.5 49.21875 52.21875 
Q 50.828125 45.953125 50.828125 35.296875 
Q 50.828125 22.703125 48.234375 14.96875 
Q 45.65625 7.234375 40.5 3 
Q 35.359375 -1.21875 27.484375 -1.21875 
Q 17.140625 -1.21875 11.234375 6.203125 
Q 4.15625 15.140625 4.15625 35.296875 
z
M 13.1875 35.296875 
Q 13.1875 17.671875 17.3125 11.828125 
Q 21.4375 6 27.484375 6 
Q 33.546875 6 37.671875 11.859375 
Q 41.796875 17.71875 41.796875 35.296875 
Q 41.796875 52.984375 37.671875 58.78125 
Q 33.546875 64.59375 27.390625 64.59375 
Q 21.34375 64.59375 17.71875 59.46875 
Q 13.1875 52.9375 13.1875 35.296875 
z
" id="ArialMT-30"/>
       <path d="M 9.078125 0 
L 9.078125 10.015625 
L 19.09375 10.015625 
L 19.09375 0 
z
" id="ArialMT-2e"/>
      </defs>
      <g style="fill:#262626;" transform="translate(29.261 274.762797)scale(0.088 -0.088)">
       <use xlink:href="#ArialMT-30"/>
       <use x="55.615234" xlink:href="#ArialMT-2e"/>
       <use x="83.398438" xlink:href="#ArialMT-30"/>
      </g>
     </g>
    </g>
    <g id="ytick_2">
     <g id="line2d_9">
      <path clip-path="url(#p09d0888164)" d="M 49.793 240.880994 
L 416.832 240.880994 
" style="fill:none;stroke:#cccccc;stroke-linecap:round;stroke-width:0.8;"/>
     </g>
     <g id="line2d_10">
      <g>
       <use style="fill:#262626;stroke:#262626;" x="49.793" xlink:href="#m8c917646f3" y="240.880994"/>
      </g>
     </g>
     <g id="text_9">
      <!-- 2.5 -->
      <defs>
       <path d="M 50.34375 8.453125 
L 50.34375 0 
L 3.03125 0 
Q 2.9375 3.171875 4.046875 6.109375 
Q 5.859375 10.9375 9.828125 15.625 
Q 13.8125 20.3125 21.34375 26.46875 
Q 33.015625 36.03125 37.109375 41.625 
Q 41.21875 47.21875 41.21875 52.203125 
Q 41.21875 57.421875 37.46875 61 
Q 33.734375 64.59375 27.734375 64.59375 
Q 21.390625 64.59375 17.578125 60.78125 
Q 13.765625 56.984375 13.71875 50.25 
L 4.6875 51.171875 
Q 5.609375 61.28125 11.65625 66.578125 
Q 17.71875 71.875 27.9375 71.875 
Q 38.234375 71.875 44.234375 66.15625 
Q 50.25 60.453125 50.25 52 
Q 50.25 47.703125 48.484375 43.546875 
Q 46.734375 39.40625 42.65625 34.8125 
Q 38.578125 30.21875 29.109375 22.21875 
Q 21.1875 15.578125 18.9375 13.203125 
Q 16.703125 10.84375 15.234375 8.453125 
z
" id="ArialMT-32"/>
       <path d="M 4.15625 18.75 
L 13.375 19.53125 
Q 14.40625 12.796875 18.140625 9.390625 
Q 21.875 6 27.15625 6 
Q 33.5 6 37.890625 10.78125 
Q 42.28125 15.578125 42.28125 23.484375 
Q 42.28125 31 38.0625 35.34375 
Q 33.84375 39.703125 27 39.703125 
Q 22.75 39.703125 19.328125 37.765625 
Q 15.921875 35.84375 13.96875 32.765625 
L 5.71875 33.84375 
L 12.640625 70.609375 
L 48.25 70.609375 
L 48.25 62.203125 
L 19.671875 62.203125 
L 15.828125 42.96875 
Q 22.265625 47.46875 29.34375 47.46875 
Q 38.71875 47.46875 45.15625 40.96875 
Q 51.609375 34.46875 51.609375 24.265625 
Q 51.609375 14.546875 45.953125 7.46875 
Q 39.0625 -1.21875 27.15625 -1.21875 
Q 17.390625 -1.21875 11.203125 4.25 
Q 5.03125 9.71875 4.15625 18.75 
z
" id="ArialMT-35"/>
      </defs>
      <g style="fill:#262626;" transform="translate(29.261 244.030431)scale(0.088 -0.088)">
       <use xlink:href="#ArialMT-32"/>
       <use x="55.615234" xlink:href="#ArialMT-2e"/>
       <use x="83.398438" xlink:href="#ArialMT-35"/>
      </g>
     </g>
    </g>
    <g id="ytick_3">
     <g id="line2d_11">
      <path clip-path="url(#p09d0888164)" d="M 49.793 210.148628 
L 416.832 210.148628 
" style="fill:none;stroke:#cccccc;stroke-linecap:round;stroke-width:0.8;"/>
     </g>
     <g id="line2d_12">
      <g>
       <use style="fill:#262626;stroke:#262626;" x="49.793" xlink:href="#m8c917646f3" y="210.148628"/>
      </g>
     </g>
     <g id="text_10">
      <!-- 5.0 -->
      <g style="fill:#262626;" transform="translate(29.261 213.298066)scale(0.088 -0.088)">
       <use xlink:href="#ArialMT-35"/>
       <use x="55.615234" xlink:href="#ArialMT-2e"/>
       <use x="83.398438" xlink:href="#ArialMT-30"/>
      </g>
     </g>
    </g>
    <g id="ytick_4">
     <g id="line2d_13">
      <path clip-path="url(#p09d0888164)" d="M 49.793 179.416263 
L 416.832 179.416263 
" style="fill:none;stroke:#cccccc;stroke-linecap:round;stroke-width:0.8;"/>
     </g>
     <g id="line2d_14">
      <g>
       <use style="fill:#262626;stroke:#262626;" x="49.793" xlink:href="#m8c917646f3" y="179.416263"/>
      </g>
     </g>
     <g id="text_11">
      <!-- 7.5 -->
      <defs>
       <path d="M 4.734375 62.203125 
L 4.734375 70.65625 
L 51.078125 70.65625 
L 51.078125 63.8125 
Q 44.234375 56.546875 37.515625 44.484375 
Q 30.8125 32.421875 27.15625 19.671875 
Q 24.515625 10.6875 23.78125 0 
L 14.75 0 
Q 14.890625 8.453125 18.0625 20.40625 
Q 21.234375 32.375 27.171875 43.484375 
Q 33.109375 54.59375 39.796875 62.203125 
z
" id="ArialMT-37"/>
      </defs>
      <g style="fill:#262626;" transform="translate(29.261 182.5657)scale(0.088 -0.088)">
       <use xlink:href="#ArialMT-37"/>
       <use x="55.615234" xlink:href="#ArialMT-2e"/>
       <use x="83.398438" xlink:href="#ArialMT-35"/>
      </g>
     </g>
    </g>
    <g id="ytick_5">
     <g id="line2d_15">
      <path clip-path="url(#p09d0888164)" d="M 49.793 148.683897 
L 416.832 148.683897 
" style="fill:none;stroke:#cccccc;stroke-linecap:round;stroke-width:0.8;"/>
     </g>
     <g id="line2d_16">
      <g>
       <use style="fill:#262626;stroke:#262626;" x="49.793" xlink:href="#m8c917646f3" y="148.683897"/>
      </g>
     </g>
     <g id="text_12">
      <!-- 10.0 -->
      <defs>
       <path d="M 37.25 0 
L 28.46875 0 
L 28.46875 56 
Q 25.296875 52.984375 20.140625 49.953125 
Q 14.984375 46.921875 10.890625 45.40625 
L 10.890625 53.90625 
Q 18.265625 57.375 23.78125 62.296875 
Q 29.296875 67.234375 31.59375 71.875 
L 37.25 71.875 
z
" id="ArialMT-31"/>
      </defs>
      <g style="fill:#262626;" transform="translate(24.367375 151.833334)scale(0.088 -0.088)">
       <use xlink:href="#ArialMT-31"/>
       <use x="55.615234" xlink:href="#ArialMT-30"/>
       <use x="111.230469" xlink:href="#ArialMT-2e"/>
       <use x="139.013672" xlink:href="#ArialMT-30"/>
      </g>
     </g>
    </g>
    <g id="ytick_6">
     <g id="line2d_17">
      <path clip-path="url(#p09d0888164)" d="M 49.793 117.951531 
L 416.832 117.951531 
" style="fill:none;stroke:#cccccc;stroke-linecap:round;stroke-width:0.8;"/>
     </g>
     <g id="line2d_18">
      <g>
       <use style="fill:#262626;stroke:#262626;" x="49.793" xlink:href="#m8c917646f3" y="117.951531"/>
      </g>
     </g>
     <g id="text_13">
      <!-- 12.5 -->
      <g style="fill:#262626;" transform="translate(24.367375 121.100969)scale(0.088 -0.088)">
       <use xlink:href="#ArialMT-31"/>
       <use x="55.615234" xlink:href="#ArialMT-32"/>
       <use x="111.230469" xlink:href="#ArialMT-2e"/>
       <use x="139.013672" xlink:href="#ArialMT-35"/>
      </g>
     </g>
    </g>
    <g id="ytick_7">
     <g id="line2d_19">
      <path clip-path="url(#p09d0888164)" d="M 49.793 87.219165 
L 416.832 87.219165 
" style="fill:none;stroke:#cccccc;stroke-linecap:round;stroke-width:0.8;"/>
     </g>
     <g id="line2d_20">
      <g>
       <use style="fill:#262626;stroke:#262626;" x="49.793" xlink:href="#m8c917646f3" y="87.219165"/>
      </g>
     </g>
     <g id="text_14">
      <!-- 15.0 -->
      <g style="fill:#262626;" transform="translate(24.367375 90.368603)scale(0.088 -0.088)">
       <use xlink:href="#ArialMT-31"/>
       <use x="55.615234" xlink:href="#ArialMT-35"/>
       <use x="111.230469" xlink:href="#ArialMT-2e"/>
       <use x="139.013672" xlink:href="#ArialMT-30"/>
      </g>
     </g>
    </g>
    <g id="ytick_8">
     <g id="line2d_21">
      <path clip-path="url(#p09d0888164)" d="M 49.793 56.4868 
L 416.832 56.4868 
" style="fill:none;stroke:#cccccc;stroke-linecap:round;stroke-width:0.8;"/>
     </g>
     <g id="line2d_22">
      <g>
       <use style="fill:#262626;stroke:#262626;" x="49.793" xlink:href="#m8c917646f3" y="56.4868"/>
      </g>
     </g>
     <g id="text_15">
      <!-- 17.5 -->
      <g style="fill:#262626;" transform="translate(24.367375 59.636237)scale(0.088 -0.088)">
       <use xlink:href="#ArialMT-31"/>
       <use x="55.615234" xlink:href="#ArialMT-37"/>
       <use x="111.230469" xlink:href="#ArialMT-2e"/>
       <use x="139.013672" xlink:href="#ArialMT-35"/>
      </g>
     </g>
    </g>
    <g id="text_16">
     <!-- kgCO2/m²/year -->
     <defs>
      <path d="M 6.640625 0 
L 6.640625 71.578125 
L 15.4375 71.578125 
L 15.4375 30.765625 
L 36.234375 51.859375 
L 47.609375 51.859375 
L 27.78125 32.625 
L 49.609375 0 
L 38.765625 0 
L 21.625 26.515625 
L 15.4375 20.5625 
L 15.4375 0 
z
" id="ArialMT-6b"/>
      <path d="M 58.796875 25.09375 
L 68.265625 22.703125 
Q 65.28125 11.03125 57.546875 4.90625 
Q 49.8125 -1.21875 38.625 -1.21875 
Q 27.046875 -1.21875 19.796875 3.484375 
Q 12.546875 8.203125 8.765625 17.140625 
Q 4.984375 26.078125 4.984375 36.328125 
Q 4.984375 47.515625 9.25 55.828125 
Q 13.53125 64.15625 21.40625 68.46875 
Q 29.296875 72.796875 38.765625 72.796875 
Q 49.515625 72.796875 56.828125 67.328125 
Q 64.15625 61.859375 67.046875 51.953125 
L 57.71875 49.75 
Q 55.21875 57.5625 50.484375 61.125 
Q 45.75 64.703125 38.578125 64.703125 
Q 30.328125 64.703125 24.78125 60.734375 
Q 19.234375 56.78125 16.984375 50.109375 
Q 14.75 43.453125 14.75 36.375 
Q 14.75 27.25 17.40625 20.4375 
Q 20.0625 13.625 25.671875 10.25 
Q 31.296875 6.890625 37.84375 6.890625 
Q 45.796875 6.890625 51.3125 11.46875 
Q 56.84375 16.0625 58.796875 25.09375 
z
" id="ArialMT-43"/>
      <path d="M 4.828125 34.859375 
Q 4.828125 52.6875 14.390625 62.765625 
Q 23.96875 72.859375 39.109375 72.859375 
Q 49.03125 72.859375 56.984375 68.109375 
Q 64.9375 63.375 69.109375 54.90625 
Q 73.296875 46.4375 73.296875 35.6875 
Q 73.296875 24.8125 68.890625 16.21875 
Q 64.5 7.625 56.4375 3.203125 
Q 48.390625 -1.21875 39.0625 -1.21875 
Q 28.953125 -1.21875 20.984375 3.65625 
Q 13.03125 8.546875 8.921875 16.984375 
Q 4.828125 25.4375 4.828125 34.859375 
z
M 14.59375 34.71875 
Q 14.59375 21.78125 21.546875 14.328125 
Q 28.515625 6.890625 39.015625 6.890625 
Q 49.703125 6.890625 56.609375 14.40625 
Q 63.53125 21.921875 63.53125 35.75 
Q 63.53125 44.484375 60.578125 51 
Q 57.625 57.515625 51.921875 61.109375 
Q 46.234375 64.703125 39.15625 64.703125 
Q 29.109375 64.703125 21.84375 57.78125 
Q 14.59375 50.875 14.59375 34.71875 
z
" id="ArialMT-4f"/>
      <path d="M 0 -1.21875 
L 20.75 72.796875 
L 27.78125 72.796875 
L 7.078125 -1.21875 
z
" id="ArialMT-2f"/>
      <path d="M 6.59375 0 
L 6.59375 51.859375 
L 14.453125 51.859375 
L 14.453125 44.578125 
Q 16.890625 48.390625 20.9375 50.703125 
Q 25 53.03125 30.171875 53.03125 
Q 35.9375 53.03125 39.625 50.640625 
Q 43.3125 48.25 44.828125 43.953125 
Q 50.984375 53.03125 60.84375 53.03125 
Q 68.5625 53.03125 72.703125 48.75 
Q 76.859375 44.484375 76.859375 35.59375 
L 76.859375 0 
L 68.109375 0 
L 68.109375 32.671875 
Q 68.109375 37.9375 67.25 40.25 
Q 66.40625 42.578125 64.15625 43.984375 
Q 61.921875 45.40625 58.890625 45.40625 
Q 53.421875 45.40625 49.796875 41.765625 
Q 46.1875 38.140625 46.1875 30.125 
L 46.1875 0 
L 37.40625 0 
L 37.40625 33.6875 
Q 37.40625 39.546875 35.25 42.46875 
Q 33.109375 45.40625 28.21875 45.40625 
Q 24.515625 45.40625 21.359375 43.453125 
Q 18.21875 41.5 16.796875 37.734375 
Q 15.375 33.984375 15.375 26.90625 
L 15.375 0 
z
" id="ArialMT-6d"/>
      <path d="M 1.21875 35.796875 
Q 1.515625 38.578125 3.515625 41.359375 
Q 6.59375 45.5625 13.625 50.65625 
Q 20.65625 55.765625 21.96875 57.234375 
Q 23.78125 59.234375 23.78125 61.328125 
Q 23.78125 63.671875 22.0625 65.1875 
Q 20.359375 66.703125 17.046875 66.703125 
Q 13.8125 66.703125 12.21875 65.546875 
Q 10.640625 64.40625 9.625 61.140625 
L 2.25 61.921875 
Q 3.65625 67.328125 7.140625 69.890625 
Q 10.640625 72.46875 17.1875 72.46875 
Q 24.5625 72.46875 28 69.578125 
Q 31.453125 66.703125 31.453125 62.546875 
Q 31.453125 58.453125 28.5625 54.78125 
Q 26.375 52.046875 18.5625 46.4375 
Q 14.5 43.453125 12.796875 41.703125 
L 31.640625 41.703125 
L 31.640625 35.796875 
z
" id="ArialMT-b2"/>
     </defs>
     <g style="fill:#262626;" transform="translate(17.262687 193.072656)rotate(-90)scale(0.1 -0.1)">
      <use xlink:href="#ArialMT-6b"/>
      <use x="50" xlink:href="#ArialMT-67"/>
      <use x="105.615234" xlink:href="#ArialMT-43"/>
      <use x="177.832031" xlink:href="#ArialMT-4f"/>
      <use x="255.615234" xlink:href="#ArialMT-32"/>
      <use x="311.230469" xlink:href="#ArialMT-2f"/>
      <use x="339.013672" xlink:href="#ArialMT-6d"/>
      <use x="422.314453" xlink:href="#ArialMT-b2"/>
      <use x="455.615234" xlink:href="#ArialMT-2f"/>
      <use x="483.398438" xlink:href="#ArialMT-79"/>
      <use x="533.398438" xlink:href="#ArialMT-65"/>
      <use x="589.013672" xlink:href="#ArialMT-61"/>
      <use x="644.628906" xlink:href="#ArialMT-72"/>
     </g>
    </g>
   </g>
   <g id="patch_3">
    <path clip-path="url(#p09d0888164)" d="M 65.086292 265.195666 
L 95.672875 265.195666 
L 95.672875 247.234879 
L 65.086292 247.234879 
L 65.086292 265.195666 
z
" style="fill:#1e94d2;stroke:#484848;stroke-linejoin:miter;"/>
   </g>
   <g id="patch_4">
    <path clip-path="url(#p09d0888164)" d="M 126.259458 246.324445 
L 156.846042 246.324445 
L 156.846042 205.456317 
L 126.259458 205.456317 
L 126.259458 246.324445 
z
" style="fill:#1e94d2;stroke:#484848;stroke-linejoin:miter;"/>
   </g>
   <g id="patch_5">
    <path clip-path="url(#p09d0888164)" d="M 187.432625 253.537444 
L 218.019208 253.537444 
L 218.019208 234.829587 
L 187.432625 234.829587 
L 187.432625 253.537444 
z
" style="fill:#1e94d2;stroke:#484848;stroke-linejoin:miter;"/>
   </g>
   <g id="patch_6">
    <path clip-path="url(#p09d0888164)" d="M 248.605792 267.308338 
L 279.192375 267.308338 
L 279.192375 225.608447 
L 248.605792 225.608447 
L 248.605792 267.308338 
z
" style="fill:#1e94d2;stroke:#484848;stroke-linejoin:miter;"/>
   </g>
   <g id="patch_7">
    <path clip-path="url(#p09d0888164)" d="M 309.778958 250.089777 
L 340.365542 250.089777 
L 340.365542 201.543566 
L 309.778958 201.543566 
L 309.778958 250.089777 
z
" style="fill:#1e94d2;stroke:#484848;stroke-linejoin:miter;"/>
   </g>
   <g id="patch_8">
    <path clip-path="url(#p09d0888164)" d="M 370.952125 269.400629 
L 401.538708 269.400629 
L 401.538708 267.3695 
L 370.952125 267.3695 
L 370.952125 269.400629 
z
" style="fill:#1e94d2;stroke:#484848;stroke-linejoin:miter;"/>
   </g>
   <g id="line2d_23">
    <path clip-path="url(#p09d0888164)" d="M 80.379583 265.195666 
L 80.379583 270.181233 
" style="fill:none;stroke:#484848;stroke-linecap:round;"/>
   </g>
   <g id="line2d_24">
    <path clip-path="url(#p09d0888164)" d="M 80.379583 247.234879 
L 80.379583 224.965672 
" style="fill:none;stroke:#484848;stroke-linecap:round;"/>
   </g>
   <g id="line2d_25">
    <path clip-path="url(#p09d0888164)" d="M 72.732937 270.181233 
L 88.026229 270.181233 
" style="fill:none;stroke:#484848;stroke-linecap:round;"/>
   </g>
   <g id="line2d_26">
    <path clip-path="url(#p09d0888164)" d="M 72.732937 224.965672 
L 88.026229 224.965672 
" style="fill:none;stroke:#484848;stroke-linecap:round;"/>
   </g>
   <g id="line2d_27">
    <defs>
     <path d="M 0 2.828427 
L 1.697056 0 
L 0 -2.828427 
L -1.697056 0 
z
" id="md608608ebe" style="stroke:#000000;stroke-linejoin:miter;"/>
    </defs>
    <g clip-path="url(#p09d0888164)">
     <use style="fill:#ffffff;stroke:#000000;stroke-linejoin:miter;" x="80.379583" xlink:href="#md608608ebe" y="199.856301"/>
     <use style="fill:#ffffff;stroke:#000000;stroke-linejoin:miter;" x="80.379583" xlink:href="#md608608ebe" y="217.095215"/>
     <use style="fill:#ffffff;stroke:#000000;stroke-linejoin:miter;" x="80.379583" xlink:href="#md608608ebe" y="107.269899"/>
     <use style="fill:#ffffff;stroke:#000000;stroke-linejoin:miter;" x="80.379583" xlink:href="#md608608ebe" y="47.220057"/>
    </g>
   </g>
   <g id="line2d_28">
    <path clip-path="url(#p09d0888164)" d="M 141.55275 246.324445 
L 141.55275 257.310608 
" style="fill:none;stroke:#484848;stroke-linecap:round;"/>
   </g>
   <g id="line2d_29">
    <path clip-path="url(#p09d0888164)" d="M 141.55275 205.456317 
L 141.55275 155.046153 
" style="fill:none;stroke:#484848;stroke-linecap:round;"/>
   </g>
   <g id="line2d_30">
    <path clip-path="url(#p09d0888164)" d="M 133.906104 257.310608 
L 149.199396 257.310608 
" style="fill:none;stroke:#484848;stroke-linecap:round;"/>
   </g>
   <g id="line2d_31">
    <path clip-path="url(#p09d0888164)" d="M 133.906104 155.046153 
L 149.199396 155.046153 
" style="fill:none;stroke:#484848;stroke-linecap:round;"/>
   </g>
   <g id="line2d_32">
    <g clip-path="url(#p09d0888164)">
     <use style="fill:#ffffff;stroke:#000000;stroke-linejoin:miter;" x="141.55275" xlink:href="#md608608ebe" y="128.612428"/>
     <use style="fill:#ffffff;stroke:#000000;stroke-linejoin:miter;" x="141.55275" xlink:href="#md608608ebe" y="136.159554"/>
    </g>
   </g>
   <g id="line2d_33">
    <path clip-path="url(#p09d0888164)" d="M 202.725917 253.537444 
L 202.725917 267.116427 
" style="fill:none;stroke:#484848;stroke-linecap:round;"/>
   </g>
   <g id="line2d_34">
    <path clip-path="url(#p09d0888164)" d="M 202.725917 234.829587 
L 202.725917 214.409952 
" style="fill:none;stroke:#484848;stroke-linecap:round;"/>
   </g>
   <g id="line2d_35">
    <path clip-path="url(#p09d0888164)" d="M 195.079271 267.116427 
L 210.372562 267.116427 
" style="fill:none;stroke:#484848;stroke-linecap:round;"/>
   </g>
   <g id="line2d_36">
    <path clip-path="url(#p09d0888164)" d="M 195.079271 214.409952 
L 210.372562 214.409952 
" style="fill:none;stroke:#484848;stroke-linecap:round;"/>
   </g>
   <g id="line2d_37">
    <g clip-path="url(#p09d0888164)">
     <use style="fill:#ffffff;stroke:#000000;stroke-linejoin:miter;" x="202.725917" xlink:href="#md608608ebe" y="196.159952"/>
    </g>
   </g>
   <g id="line2d_38">
    <path clip-path="url(#p09d0888164)" d="M 263.899083 267.308338 
L 263.899083 271.077842 
" style="fill:none;stroke:#484848;stroke-linecap:round;"/>
   </g>
   <g id="line2d_39">
    <path clip-path="url(#p09d0888164)" d="M 263.899083 225.608447 
L 263.899083 188.713867 
" style="fill:none;stroke:#484848;stroke-linecap:round;"/>
   </g>
   <g id="line2d_40">
    <path clip-path="url(#p09d0888164)" d="M 256.252437 271.077842 
L 271.545729 271.077842 
" style="fill:none;stroke:#484848;stroke-linecap:round;"/>
   </g>
   <g id="line2d_41">
    <path clip-path="url(#p09d0888164)" d="M 256.252437 188.713867 
L 271.545729 188.713867 
" style="fill:none;stroke:#484848;stroke-linecap:round;"/>
   </g>
   <g id="line2d_42"/>
   <g id="line2d_43">
    <path clip-path="url(#p09d0888164)" d="M 325.07225 250.089777 
L 325.07225 269.966934 
" style="fill:none;stroke:#484848;stroke-linecap:round;"/>
   </g>
   <g id="line2d_44">
    <path clip-path="url(#p09d0888164)" d="M 325.07225 201.543566 
L 325.07225 173.401914 
" style="fill:none;stroke:#484848;stroke-linecap:round;"/>
   </g>
   <g id="line2d_45">
    <path clip-path="url(#p09d0888164)" d="M 317.425604 269.966934 
L 332.718896 269.966934 
" style="fill:none;stroke:#484848;stroke-linecap:round;"/>
   </g>
   <g id="line2d_46">
    <path clip-path="url(#p09d0888164)" d="M 317.425604 173.401914 
L 332.718896 173.401914 
" style="fill:none;stroke:#484848;stroke-linecap:round;"/>
   </g>
   <g id="line2d_47"/>
   <g id="line2d_48">
    <path clip-path="url(#p09d0888164)" d="M 386.245417 269.400629 
L 386.245417 271.136193 
" style="fill:none;stroke:#484848;stroke-linecap:round;"/>
   </g>
   <g id="line2d_49">
    <path clip-path="url(#p09d0888164)" d="M 386.245417 267.3695 
L 386.245417 265.096807 
" style="fill:none;stroke:#484848;stroke-linecap:round;"/>
   </g>
   <g id="line2d_50">
    <path clip-path="url(#p09d0888164)" d="M 378.598771 271.136193 
L 393.892062 271.136193 
" style="fill:none;stroke:#484848;stroke-linecap:round;"/>
   </g>
   <g id="line2d_51">
    <path clip-path="url(#p09d0888164)" d="M 378.598771 265.096807 
L 393.892062 265.096807 
" style="fill:none;stroke:#484848;stroke-linecap:round;"/>
   </g>
   <g id="line2d_52">
    <g clip-path="url(#p09d0888164)">
     <use style="fill:#ffffff;stroke:#000000;stroke-linejoin:miter;" x="386.245417" xlink:href="#md608608ebe" y="259.808046"/>
     <use style="fill:#ffffff;stroke:#000000;stroke-linejoin:miter;" x="386.245417" xlink:href="#md608608ebe" y="251.152364"/>
     <use style="fill:#ffffff;stroke:#000000;stroke-linejoin:miter;" x="386.245417" xlink:href="#md608608ebe" y="263.691773"/>
    </g>
   </g>
   <g id="line2d_53">
    <path clip-path="url(#p09d0888164)" d="M 65.086292 259.087312 
L 95.672875 259.087312 
" style="fill:none;stroke:#484848;stroke-linecap:round;"/>
   </g>
   <g id="line2d_54">
    <path clip-path="url(#p09d0888164)" d="M 80.379583 247.304043 
" style="fill:none;stroke:#0076b4;stroke-dasharray:3.7,1.6;stroke-dashoffset:0;"/>
    <defs>
     <path d="M 0 2.5 
C 0.663008 2.5 1.29895 2.236584 1.767767 1.767767 
C 2.236584 1.29895 2.5 0.663008 2.5 0 
C 2.5 -0.663008 2.236584 -1.29895 1.767767 -1.767767 
C 1.29895 -2.236584 0.663008 -2.5 0 -2.5 
C -0.663008 -2.5 -1.29895 -2.236584 -1.767767 -1.767767 
C -2.236584 -1.29895 -2.5 -0.663008 -2.5 0 
C -2.5 0.663008 -2.236584 1.29895 -1.767767 1.767767 
C -1.29895 2.236584 -0.663008 2.5 0 2.5 
z
" id="md100578b98" style="stroke:#000000;"/>
    </defs>
    <g clip-path="url(#p09d0888164)">
     <use style="fill:#ffffff;stroke:#000000;" x="80.379583" xlink:href="#md100578b98" y="247.304043"/>
    </g>
   </g>
   <g id="line2d_55">
    <path clip-path="url(#p09d0888164)" d="M 126.259458 230.131756 
L 156.846042 230.131756 
" style="fill:none;stroke:#484848;stroke-linecap:round;"/>
   </g>
   <g id="line2d_56">
    <path clip-path="url(#p09d0888164)" d="M 141.55275 220.1843 
" style="fill:none;stroke:#0076b4;stroke-dasharray:3.7,1.6;stroke-dashoffset:0;"/>
    <g clip-path="url(#p09d0888164)">
     <use style="fill:#ffffff;stroke:#000000;" x="141.55275" xlink:href="#md100578b98" y="220.1843"/>
    </g>
   </g>
   <g id="line2d_57">
    <path clip-path="url(#p09d0888164)" d="M 187.432625 247.688866 
L 218.019208 247.688866 
" style="fill:none;stroke:#484848;stroke-linecap:round;"/>
   </g>
   <g id="line2d_58">
    <path clip-path="url(#p09d0888164)" d="M 202.725917 244.038518 
" style="fill:none;stroke:#0076b4;stroke-dasharray:3.7,1.6;stroke-dashoffset:0;"/>
    <g clip-path="url(#p09d0888164)">
     <use style="fill:#ffffff;stroke:#000000;" x="202.725917" xlink:href="#md100578b98" y="244.038518"/>
    </g>
   </g>
   <g id="line2d_59">
    <path clip-path="url(#p09d0888164)" d="M 248.605792 247.260196 
L 279.192375 247.260196 
" style="fill:none;stroke:#484848;stroke-linecap:round;"/>
   </g>
   <g id="line2d_60">
    <path clip-path="url(#p09d0888164)" d="M 263.899083 245.033973 
" style="fill:none;stroke:#0076b4;stroke-dasharray:3.7,1.6;stroke-dashoffset:0;"/>
    <g clip-path="url(#p09d0888164)">
     <use style="fill:#ffffff;stroke:#000000;" x="263.899083" xlink:href="#md100578b98" y="245.033973"/>
    </g>
   </g>
   <g id="line2d_61">
    <path clip-path="url(#p09d0888164)" d="M 309.778958 226.940508 
L 340.365542 226.940508 
" style="fill:none;stroke:#484848;stroke-linecap:round;"/>
   </g>
   <g id="line2d_62">
    <path clip-path="url(#p09d0888164)" d="M 325.07225 222.879774 
" style="fill:none;stroke:#0076b4;stroke-dasharray:3.7,1.6;stroke-dashoffset:0;"/>
    <g clip-path="url(#p09d0888164)">
     <use style="fill:#ffffff;stroke:#000000;" x="325.07225" xlink:href="#md100578b98" y="222.879774"/>
    </g>
   </g>
   <g id="line2d_63">
    <path clip-path="url(#p09d0888164)" d="M 370.952125 269.400629 
L 401.538708 269.400629 
" style="fill:none;stroke:#484848;stroke-linecap:round;"/>
   </g>
   <g id="line2d_64">
    <path clip-path="url(#p09d0888164)" d="M 386.245417 268.107913 
" style="fill:none;stroke:#0076b4;stroke-dasharray:3.7,1.6;stroke-dashoffset:0;"/>
    <g clip-path="url(#p09d0888164)">
     <use style="fill:#ffffff;stroke:#000000;" x="386.245417" xlink:href="#md100578b98" y="268.107913"/>
    </g>
   </g>
   <g id="patch_9">
    <path d="M 49.793 282.332 
L 49.793 36.02425 
" style="fill:none;stroke:#262626;stroke-linecap:square;stroke-linejoin:miter;"/>
   </g>
   <g id="patch_10">
    <path d="M 416.832 282.332 
L 416.832 36.02425 
" style="fill:none;stroke:#262626;stroke-linecap:square;stroke-linejoin:miter;"/>
   </g>
   <g id="patch_11">
    <path d="M 49.793 282.332 
L 416.832 282.332 
" style="fill:none;stroke:#262626;stroke-linecap:square;stroke-linejoin:miter;"/>
   </g>
   <g id="patch_12">
    <path d="M 49.793 36.02425 
L 416.832 36.02425 
" style="fill:none;stroke:#262626;stroke-linecap:square;stroke-linejoin:miter;"/>
   </g>
   <g id="text_17">
    <!-- Embodied Carbon of building part types  -->
    <defs>
     <path d="M 8.6875 0 
L 8.6875 45.015625 
L 0.921875 45.015625 
L 0.921875 51.859375 
L 8.6875 51.859375 
L 8.6875 57.375 
Q 8.6875 62.59375 9.625 65.140625 
Q 10.890625 68.5625 14.078125 70.671875 
Q 17.28125 72.796875 23.046875 72.796875 
Q 26.765625 72.796875 31.25 71.921875 
L 29.9375 64.265625 
Q 27.203125 64.75 24.75 64.75 
Q 20.75 64.75 19.09375 63.03125 
Q 17.4375 61.328125 17.4375 56.640625 
L 17.4375 51.859375 
L 27.546875 51.859375 
L 27.546875 45.015625 
L 17.4375 45.015625 
L 17.4375 0 
z
" id="ArialMT-66"/>
    </defs>
    <g style="fill:#262626;" transform="translate(135.176172 18.362875)scale(0.11 -0.11)">
     <use xlink:href="#ArialMT-45"/>
     <use x="66.699219" xlink:href="#ArialMT-6d"/>
     <use x="150" xlink:href="#ArialMT-62"/>
     <use x="205.615234" xlink:href="#ArialMT-6f"/>
     <use x="261.230469" xlink:href="#ArialMT-64"/>
     <use x="316.845703" xlink:href="#ArialMT-69"/>
     <use x="339.0625" xlink:href="#ArialMT-65"/>
     <use x="394.677734" xlink:href="#ArialMT-64"/>
     <use x="450.292969" xlink:href="#ArialMT-20"/>
     <use x="478.076172" xlink:href="#ArialMT-43"/>
     <use x="550.292969" xlink:href="#ArialMT-61"/>
     <use x="605.908203" xlink:href="#ArialMT-72"/>
     <use x="639.208984" xlink:href="#ArialMT-62"/>
     <use x="694.824219" xlink:href="#ArialMT-6f"/>
     <use x="750.439453" xlink:href="#ArialMT-6e"/>
     <use x="806.054688" xlink:href="#ArialMT-20"/>
     <use x="833.837891" xlink:href="#ArialMT-6f"/>
     <use x="889.453125" xlink:href="#ArialMT-66"/>
     <use x="917.236328" xlink:href="#ArialMT-20"/>
     <use x="945.019531" xlink:href="#ArialMT-62"/>
     <use x="1000.634766" xlink:href="#ArialMT-75"/>
     <use x="1056.25" xlink:href="#ArialMT-69"/>
     <use x="1078.466797" xlink:href="#ArialMT-6c"/>
     <use x="1100.683594" xlink:href="#ArialMT-64"/>
     <use x="1156.298828" xlink:href="#ArialMT-69"/>
     <use x="1178.515625" xlink:href="#ArialMT-6e"/>
     <use x="1234.130859" xlink:href="#ArialMT-67"/>
     <use x="1289.746094" xlink:href="#ArialMT-20"/>
     <use x="1317.529297" xlink:href="#ArialMT-70"/>
     <use x="1373.144531" xlink:href="#ArialMT-61"/>
     <use x="1428.759766" xlink:href="#ArialMT-72"/>
     <use x="1462.060547" xlink:href="#ArialMT-74"/>
     <use x="1489.84375" xlink:href="#ArialMT-20"/>
     <use x="1517.626953" xlink:href="#ArialMT-74"/>
     <use x="1545.410156" xlink:href="#ArialMT-79"/>
     <use x="1595.410156" xlink:href="#ArialMT-70"/>
     <use x="1651.025391" xlink:href="#ArialMT-65"/>
     <use x="1706.640625" xlink:href="#ArialMT-73"/>
     <use x="1756.640625" xlink:href="#ArialMT-20"/>
    </g>
    <!-- for non-residential cases -->
    <defs>
     <path d="M 3.171875 21.484375 
L 3.171875 30.328125 
L 30.171875 30.328125 
L 30.171875 21.484375 
z
" id="ArialMT-2d"/>
    </defs>
    <g style="fill:#262626;" transform="translate(173.396875 30.126344)scale(0.11 -0.11)">
     <use xlink:href="#ArialMT-66"/>
     <use x="27.783203" xlink:href="#ArialMT-6f"/>
     <use x="83.398438" xlink:href="#ArialMT-72"/>
     <use x="116.699219" xlink:href="#ArialMT-20"/>
     <use x="144.482422" xlink:href="#ArialMT-6e"/>
     <use x="200.097656" xlink:href="#ArialMT-6f"/>
     <use x="255.712891" xlink:href="#ArialMT-6e"/>
     <use x="311.328125" xlink:href="#ArialMT-2d"/>
     <use x="344.628906" xlink:href="#ArialMT-72"/>
     <use x="377.929688" xlink:href="#ArialMT-65"/>
     <use x="433.544922" xlink:href="#ArialMT-73"/>
     <use x="483.544922" xlink:href="#ArialMT-69"/>
     <use x="505.761719" xlink:href="#ArialMT-64"/>
     <use x="561.376953" xlink:href="#ArialMT-65"/>
     <use x="616.992188" xlink:href="#ArialMT-6e"/>
     <use x="672.607422" xlink:href="#ArialMT-74"/>
     <use x="700.390625" xlink:href="#ArialMT-69"/>
     <use x="722.607422" xlink:href="#ArialMT-61"/>
     <use x="778.222656" xlink:href="#ArialMT-6c"/>
     <use x="800.439453" xlink:href="#ArialMT-20"/>
     <use x="828.222656" xlink:href="#ArialMT-63"/>
     <use x="878.222656" xlink:href="#ArialMT-61"/>
     <use x="933.837891" xlink:href="#ArialMT-73"/>
     <use x="983.837891" xlink:href="#ArialMT-65"/>
     <use x="1039.453125" xlink:href="#ArialMT-73"/>
    </g>
   </g>
  </g>
 </g>
 <defs>
  <clipPath id="p09d0888164">
   <rect height="246.30775" width="367.039" x="49.793" y="36.02425"/>
  </clipPath>
 </defs>
</svg>
