<?xml version="1.0" encoding="utf-8" standalone="no"?>
<!DOCTYPE svg PUBLIC "-//W3C//DTD SVG 1.1//EN"
  "http://www.w3.org/Graphics/SVG/1.1/DTD/svg11.dtd">
<!-- Created with matplotlib (http://matplotlib.org/) -->
<svg height="324pt" version="1.1" viewBox="0 0 432 324" width="432pt" xmlns="http://www.w3.org/2000/svg" xmlns:xlink="http://www.w3.org/1999/xlink">
 <defs>
  <style type="text/css">
*{stroke-linecap:butt;stroke-linejoin:round;}
  </style>
 </defs>
 <g id="figure_1">
  <g id="patch_1">
   <path d="M 0 324 
L 432 324 
L 432 0 
L 0 0 
z
" style="fill:#ffffff;"/>
  </g>
  <g id="axes_1">
   <g id="patch_2">
    <path d="M 50.043 282.332 
L 416.832 282.332 
L 416.832 36.071125 
L 50.043 36.071125 
z
" style="fill:#ffffff;"/>
   </g>
   <g id="matplotlib.axis_1">
    <g id="xtick_1">
     <g id="line2d_1">
      <defs>
       <path d="M 0 0 
L 0 4.8 
" id="mcd150ad340" style="stroke:#262626;"/>
      </defs>
      <g>
       <use style="fill:#262626;stroke:#262626;" x="80.60875" xlink:href="#mcd150ad340" y="282.332"/>
      </g>
     </g>
     <g id="text_1">
      <!-- A123 -->
      <defs>
       <path d="M -0.140625 0 
L 27.34375 71.578125 
L 37.546875 71.578125 
L 66.84375 0 
L 56.0625 0 
L 47.703125 21.6875 
L 17.78125 21.6875 
L 9.90625 0 
z
M 20.515625 29.390625 
L 44.78125 29.390625 
L 37.3125 49.21875 
Q 33.890625 58.25 32.234375 64.0625 
Q 30.859375 57.171875 28.375 50.390625 
z
" id="ArialMT-41"/>
       <path d="M 37.25 0 
L 28.46875 0 
L 28.46875 56 
Q 25.296875 52.984375 20.140625 49.953125 
Q 14.984375 46.921875 10.890625 45.40625 
L 10.890625 53.90625 
Q 18.265625 57.375 23.78125 62.296875 
Q 29.296875 67.234375 31.59375 71.875 
L 37.25 71.875 
z
" id="ArialMT-31"/>
       <path d="M 50.34375 8.453125 
L 50.34375 0 
L 3.03125 0 
Q 2.9375 3.171875 4.046875 6.109375 
Q 5.859375 10.9375 9.828125 15.625 
Q 13.8125 20.3125 21.34375 26.46875 
Q 33.015625 36.03125 37.109375 41.625 
Q 41.21875 47.21875 41.21875 52.203125 
Q 41.21875 57.421875 37.46875 61 
Q 33.734375 64.59375 27.734375 64.59375 
Q 21.390625 64.59375 17.578125 60.78125 
Q 13.765625 56.984375 13.71875 50.25 
L 4.6875 51.171875 
Q 5.609375 61.28125 11.65625 66.578125 
Q 17.71875 71.875 27.9375 71.875 
Q 38.234375 71.875 44.234375 66.15625 
Q 50.25 60.453125 50.25 52 
Q 50.25 47.703125 48.484375 43.546875 
Q 46.734375 39.40625 42.65625 34.8125 
Q 38.578125 30.21875 29.109375 22.21875 
Q 21.1875 15.578125 18.9375 13.203125 
Q 16.703125 10.84375 15.234375 8.453125 
z
" id="ArialMT-32"/>
       <path d="M 4.203125 18.890625 
L 12.984375 20.0625 
Q 14.5 12.59375 18.140625 9.296875 
Q 21.78125 6 27 6 
Q 33.203125 6 37.46875 10.296875 
Q 41.75 14.59375 41.75 20.953125 
Q 41.75 27 37.796875 30.921875 
Q 33.84375 34.859375 27.734375 34.859375 
Q 25.25 34.859375 21.53125 33.890625 
L 22.515625 41.609375 
Q 23.390625 41.5 23.921875 41.5 
Q 29.546875 41.5 34.03125 44.421875 
Q 38.53125 47.359375 38.53125 53.46875 
Q 38.53125 58.296875 35.25 61.46875 
Q 31.984375 64.65625 26.8125 64.65625 
Q 21.6875 64.65625 18.265625 61.421875 
Q 14.84375 58.203125 13.875 51.765625 
L 5.078125 53.328125 
Q 6.6875 62.15625 12.390625 67.015625 
Q 18.109375 71.875 26.609375 71.875 
Q 32.46875 71.875 37.390625 69.359375 
Q 42.328125 66.84375 44.9375 62.5 
Q 47.5625 58.15625 47.5625 53.265625 
Q 47.5625 48.640625 45.0625 44.828125 
Q 42.578125 41.015625 37.703125 38.765625 
Q 44.046875 37.3125 47.5625 32.6875 
Q 51.078125 28.078125 51.078125 21.140625 
Q 51.078125 11.765625 44.234375 5.25 
Q 37.40625 -1.265625 26.953125 -1.265625 
Q 17.53125 -1.265625 11.296875 4.34375 
Q 5.078125 9.96875 4.203125 18.890625 
z
" id="ArialMT-33"/>
      </defs>
      <g style="fill:#262626;" transform="translate(70.333375 296.930875)scale(0.088 -0.088)">
       <use xlink:href="#ArialMT-41"/>
       <use x="66.699219" xlink:href="#ArialMT-31"/>
       <use x="122.314453" xlink:href="#ArialMT-32"/>
       <use x="177.929688" xlink:href="#ArialMT-33"/>
      </g>
     </g>
    </g>
    <g id="xtick_2">
     <g id="line2d_2">
      <g>
       <use style="fill:#262626;stroke:#262626;" x="141.74025" xlink:href="#mcd150ad340" y="282.332"/>
      </g>
     </g>
     <g id="text_2">
      <!-- A45 -->
      <defs>
       <path d="M 32.328125 0 
L 32.328125 17.140625 
L 1.265625 17.140625 
L 1.265625 25.203125 
L 33.9375 71.578125 
L 41.109375 71.578125 
L 41.109375 25.203125 
L 50.78125 25.203125 
L 50.78125 17.140625 
L 41.109375 17.140625 
L 41.109375 0 
z
M 32.328125 25.203125 
L 32.328125 57.46875 
L 9.90625 25.203125 
z
" id="ArialMT-34"/>
       <path d="M 4.15625 18.75 
L 13.375 19.53125 
Q 14.40625 12.796875 18.140625 9.390625 
Q 21.875 6 27.15625 6 
Q 33.5 6 37.890625 10.78125 
Q 42.28125 15.578125 42.28125 23.484375 
Q 42.28125 31 38.0625 35.34375 
Q 33.84375 39.703125 27 39.703125 
Q 22.75 39.703125 19.328125 37.765625 
Q 15.921875 35.84375 13.96875 32.765625 
L 5.71875 33.84375 
L 12.640625 70.609375 
L 48.25 70.609375 
L 48.25 62.203125 
L 19.671875 62.203125 
L 15.828125 42.96875 
Q 22.265625 47.46875 29.34375 47.46875 
Q 38.71875 47.46875 45.15625 40.96875 
Q 51.609375 34.46875 51.609375 24.265625 
Q 51.609375 14.546875 45.953125 7.46875 
Q 39.0625 -1.21875 27.15625 -1.21875 
Q 17.390625 -1.21875 11.203125 4.25 
Q 5.03125 9.71875 4.15625 18.75 
z
" id="ArialMT-35"/>
      </defs>
      <g style="fill:#262626;" transform="translate(133.911687 296.930875)scale(0.088 -0.088)">
       <use xlink:href="#ArialMT-41"/>
       <use x="66.699219" xlink:href="#ArialMT-34"/>
       <use x="122.314453" xlink:href="#ArialMT-35"/>
      </g>
     </g>
    </g>
    <g id="xtick_3">
     <g id="line2d_3">
      <g>
       <use style="fill:#262626;stroke:#262626;" x="202.87175" xlink:href="#mcd150ad340" y="282.332"/>
      </g>
     </g>
     <g id="text_3">
      <!-- B1234 -->
      <defs>
       <path d="M 7.328125 0 
L 7.328125 71.578125 
L 34.1875 71.578125 
Q 42.390625 71.578125 47.34375 69.40625 
Q 52.296875 67.234375 55.09375 62.71875 
Q 57.90625 58.203125 57.90625 53.265625 
Q 57.90625 48.6875 55.421875 44.625 
Q 52.9375 40.578125 47.90625 38.09375 
Q 54.390625 36.1875 57.875 31.59375 
Q 61.375 27 61.375 20.75 
Q 61.375 15.71875 59.25 11.390625 
Q 57.125 7.078125 54 4.734375 
Q 50.875 2.390625 46.15625 1.1875 
Q 41.453125 0 34.625 0 
z
M 16.796875 41.5 
L 32.28125 41.5 
Q 38.578125 41.5 41.3125 42.328125 
Q 44.921875 43.40625 46.75 45.890625 
Q 48.578125 48.390625 48.578125 52.15625 
Q 48.578125 55.71875 46.875 58.421875 
Q 45.171875 61.140625 41.984375 62.140625 
Q 38.8125 63.140625 31.109375 63.140625 
L 16.796875 63.140625 
z
M 16.796875 8.453125 
L 34.625 8.453125 
Q 39.203125 8.453125 41.0625 8.796875 
Q 44.34375 9.375 46.53125 10.734375 
Q 48.734375 12.109375 50.140625 14.71875 
Q 51.5625 17.328125 51.5625 20.75 
Q 51.5625 24.75 49.515625 27.703125 
Q 47.46875 30.671875 43.828125 31.859375 
Q 40.1875 33.0625 33.34375 33.0625 
L 16.796875 33.0625 
z
" id="ArialMT-42"/>
      </defs>
      <g style="fill:#262626;" transform="translate(190.149563 296.930875)scale(0.088 -0.088)">
       <use xlink:href="#ArialMT-42"/>
       <use x="66.699219" xlink:href="#ArialMT-31"/>
       <use x="122.314453" xlink:href="#ArialMT-32"/>
       <use x="177.929688" xlink:href="#ArialMT-33"/>
       <use x="233.544922" xlink:href="#ArialMT-34"/>
      </g>
     </g>
    </g>
    <g id="xtick_4">
     <g id="line2d_4">
      <g>
       <use style="fill:#262626;stroke:#262626;" x="264.00325" xlink:href="#mcd150ad340" y="282.332"/>
      </g>
     </g>
     <g id="text_4">
      <!-- B5 -->
      <g style="fill:#262626;" transform="translate(258.6215 296.930875)scale(0.088 -0.088)">
       <use xlink:href="#ArialMT-42"/>
       <use x="66.699219" xlink:href="#ArialMT-35"/>
      </g>
     </g>
    </g>
    <g id="xtick_5">
     <g id="line2d_5">
      <g>
       <use style="fill:#262626;stroke:#262626;" x="325.13475" xlink:href="#mcd150ad340" y="282.332"/>
      </g>
     </g>
     <g id="text_5">
      <!-- C12 -->
      <defs>
       <path d="M 58.796875 25.09375 
L 68.265625 22.703125 
Q 65.28125 11.03125 57.546875 4.90625 
Q 49.8125 -1.21875 38.625 -1.21875 
Q 27.046875 -1.21875 19.796875 3.484375 
Q 12.546875 8.203125 8.765625 17.140625 
Q 4.984375 26.078125 4.984375 36.328125 
Q 4.984375 47.515625 9.25 55.828125 
Q 13.53125 64.15625 21.40625 68.46875 
Q 29.296875 72.796875 38.765625 72.796875 
Q 49.515625 72.796875 56.828125 67.328125 
Q 64.15625 61.859375 67.046875 51.953125 
L 57.71875 49.75 
Q 55.21875 57.5625 50.484375 61.125 
Q 45.75 64.703125 38.578125 64.703125 
Q 30.328125 64.703125 24.78125 60.734375 
Q 19.234375 56.78125 16.984375 50.109375 
Q 14.75 43.453125 14.75 36.375 
Q 14.75 27.25 17.40625 20.4375 
Q 20.0625 13.625 25.671875 10.25 
Q 31.296875 6.890625 37.84375 6.890625 
Q 45.796875 6.890625 51.3125 11.46875 
Q 56.84375 16.0625 58.796875 25.09375 
z
" id="ArialMT-43"/>
      </defs>
      <g style="fill:#262626;" transform="translate(317.0635 296.930875)scale(0.088 -0.088)">
       <use xlink:href="#ArialMT-43"/>
       <use x="72.216797" xlink:href="#ArialMT-31"/>
       <use x="127.832031" xlink:href="#ArialMT-32"/>
      </g>
     </g>
    </g>
    <g id="xtick_6">
     <g id="line2d_6">
      <g>
       <use style="fill:#262626;stroke:#262626;" x="386.26625" xlink:href="#mcd150ad340" y="282.332"/>
      </g>
     </g>
     <g id="text_6">
      <!-- C34 -->
      <g style="fill:#262626;" transform="translate(378.195 296.930875)scale(0.088 -0.088)">
       <use xlink:href="#ArialMT-43"/>
       <use x="72.216797" xlink:href="#ArialMT-33"/>
       <use x="127.832031" xlink:href="#ArialMT-34"/>
      </g>
     </g>
    </g>
    <g id="text_7">
     <!-- Life cycle stages -->
     <defs>
      <path d="M 7.328125 0 
L 7.328125 71.578125 
L 16.796875 71.578125 
L 16.796875 8.453125 
L 52.046875 8.453125 
L 52.046875 0 
z
" id="ArialMT-4c"/>
      <path d="M 6.640625 61.46875 
L 6.640625 71.578125 
L 15.4375 71.578125 
L 15.4375 61.46875 
z
M 6.640625 0 
L 6.640625 51.859375 
L 15.4375 51.859375 
L 15.4375 0 
z
" id="ArialMT-69"/>
      <path d="M 8.6875 0 
L 8.6875 45.015625 
L 0.921875 45.015625 
L 0.921875 51.859375 
L 8.6875 51.859375 
L 8.6875 57.375 
Q 8.6875 62.59375 9.625 65.140625 
Q 10.890625 68.5625 14.078125 70.671875 
Q 17.28125 72.796875 23.046875 72.796875 
Q 26.765625 72.796875 31.25 71.921875 
L 29.9375 64.265625 
Q 27.203125 64.75 24.75 64.75 
Q 20.75 64.75 19.09375 63.03125 
Q 17.4375 61.328125 17.4375 56.640625 
L 17.4375 51.859375 
L 27.546875 51.859375 
L 27.546875 45.015625 
L 17.4375 45.015625 
L 17.4375 0 
z
" id="ArialMT-66"/>
      <path d="M 42.09375 16.703125 
L 51.171875 15.578125 
Q 49.03125 7.625 43.21875 3.21875 
Q 37.40625 -1.171875 28.375 -1.171875 
Q 17 -1.171875 10.328125 5.828125 
Q 3.65625 12.84375 3.65625 25.484375 
Q 3.65625 38.578125 10.390625 45.796875 
Q 17.140625 53.03125 27.875 53.03125 
Q 38.28125 53.03125 44.875 45.953125 
Q 51.46875 38.875 51.46875 26.03125 
Q 51.46875 25.25 51.421875 23.6875 
L 12.75 23.6875 
Q 13.234375 15.140625 17.578125 10.59375 
Q 21.921875 6.0625 28.421875 6.0625 
Q 33.25 6.0625 36.671875 8.59375 
Q 40.09375 11.140625 42.09375 16.703125 
z
M 13.234375 30.90625 
L 42.1875 30.90625 
Q 41.609375 37.453125 38.875 40.71875 
Q 34.671875 45.796875 27.984375 45.796875 
Q 21.921875 45.796875 17.796875 41.75 
Q 13.671875 37.703125 13.234375 30.90625 
z
" id="ArialMT-65"/>
      <path id="ArialMT-20"/>
      <path d="M 40.4375 19 
L 49.078125 17.875 
Q 47.65625 8.9375 41.8125 3.875 
Q 35.984375 -1.171875 27.484375 -1.171875 
Q 16.84375 -1.171875 10.375 5.78125 
Q 3.90625 12.75 3.90625 25.734375 
Q 3.90625 34.125 6.6875 40.421875 
Q 9.46875 46.734375 15.15625 49.875 
Q 20.84375 53.03125 27.546875 53.03125 
Q 35.984375 53.03125 41.359375 48.75 
Q 46.734375 44.484375 48.25 36.625 
L 39.703125 35.296875 
Q 38.484375 40.53125 35.375 43.15625 
Q 32.28125 45.796875 27.875 45.796875 
Q 21.234375 45.796875 17.078125 41.03125 
Q 12.9375 36.28125 12.9375 25.984375 
Q 12.9375 15.53125 16.9375 10.796875 
Q 20.953125 6.0625 27.390625 6.0625 
Q 32.5625 6.0625 36.03125 9.234375 
Q 39.5 12.40625 40.4375 19 
z
" id="ArialMT-63"/>
      <path d="M 6.203125 -19.96875 
L 5.21875 -11.71875 
Q 8.109375 -12.5 10.25 -12.5 
Q 13.1875 -12.5 14.9375 -11.515625 
Q 16.703125 -10.546875 17.828125 -8.796875 
Q 18.65625 -7.46875 20.515625 -2.25 
Q 20.75 -1.515625 21.296875 -0.09375 
L 1.609375 51.859375 
L 11.078125 51.859375 
L 21.875 21.828125 
Q 23.96875 16.109375 25.640625 9.8125 
Q 27.15625 15.875 29.25 21.625 
L 40.328125 51.859375 
L 49.125 51.859375 
L 29.390625 -0.875 
Q 26.21875 -9.421875 24.46875 -12.640625 
Q 22.125 -17 19.09375 -19.015625 
Q 16.0625 -21.046875 11.859375 -21.046875 
Q 9.328125 -21.046875 6.203125 -19.96875 
z
" id="ArialMT-79"/>
      <path d="M 6.390625 0 
L 6.390625 71.578125 
L 15.1875 71.578125 
L 15.1875 0 
z
" id="ArialMT-6c"/>
      <path d="M 3.078125 15.484375 
L 11.765625 16.84375 
Q 12.5 11.625 15.84375 8.84375 
Q 19.1875 6.0625 25.203125 6.0625 
Q 31.25 6.0625 34.171875 8.515625 
Q 37.109375 10.984375 37.109375 14.3125 
Q 37.109375 17.28125 34.515625 19 
Q 32.71875 20.171875 25.53125 21.96875 
Q 15.875 24.421875 12.140625 26.203125 
Q 8.40625 27.984375 6.46875 31.125 
Q 4.546875 34.28125 4.546875 38.09375 
Q 4.546875 41.546875 6.125 44.5 
Q 7.71875 47.46875 10.453125 49.421875 
Q 12.5 50.921875 16.03125 51.96875 
Q 19.578125 53.03125 23.640625 53.03125 
Q 29.734375 53.03125 34.34375 51.265625 
Q 38.96875 49.515625 41.15625 46.5 
Q 43.359375 43.5 44.1875 38.484375 
L 35.59375 37.3125 
Q 35.015625 41.3125 32.203125 43.546875 
Q 29.390625 45.796875 24.265625 45.796875 
Q 18.21875 45.796875 15.625 43.796875 
Q 13.03125 41.796875 13.03125 39.109375 
Q 13.03125 37.40625 14.109375 36.03125 
Q 15.1875 34.625 17.484375 33.6875 
Q 18.796875 33.203125 25.25 31.453125 
Q 34.578125 28.953125 38.25 27.359375 
Q 41.9375 25.78125 44.03125 22.75 
Q 46.140625 19.734375 46.140625 15.234375 
Q 46.140625 10.84375 43.578125 6.953125 
Q 41.015625 3.078125 36.171875 0.953125 
Q 31.34375 -1.171875 25.25 -1.171875 
Q 15.140625 -1.171875 9.84375 3.03125 
Q 4.546875 7.234375 3.078125 15.484375 
z
" id="ArialMT-73"/>
      <path d="M 25.78125 7.859375 
L 27.046875 0.09375 
Q 23.34375 -0.6875 20.40625 -0.6875 
Q 15.625 -0.6875 12.984375 0.828125 
Q 10.359375 2.34375 9.28125 4.8125 
Q 8.203125 7.28125 8.203125 15.1875 
L 8.203125 45.015625 
L 1.765625 45.015625 
L 1.765625 51.859375 
L 8.203125 51.859375 
L 8.203125 64.703125 
L 16.9375 69.96875 
L 16.9375 51.859375 
L 25.78125 51.859375 
L 25.78125 45.015625 
L 16.9375 45.015625 
L 16.9375 14.703125 
Q 16.9375 10.9375 17.40625 9.859375 
Q 17.875 8.796875 18.921875 8.15625 
Q 19.96875 7.515625 21.921875 7.515625 
Q 23.390625 7.515625 25.78125 7.859375 
z
" id="ArialMT-74"/>
      <path d="M 40.4375 6.390625 
Q 35.546875 2.25 31.03125 0.53125 
Q 26.515625 -1.171875 21.34375 -1.171875 
Q 12.796875 -1.171875 8.203125 3 
Q 3.609375 7.171875 3.609375 13.671875 
Q 3.609375 17.484375 5.34375 20.625 
Q 7.078125 23.78125 9.890625 25.6875 
Q 12.703125 27.59375 16.21875 28.5625 
Q 18.796875 29.25 24.03125 29.890625 
Q 34.671875 31.15625 39.703125 32.90625 
Q 39.75 34.71875 39.75 35.203125 
Q 39.75 40.578125 37.25 42.78125 
Q 33.890625 45.75 27.25 45.75 
Q 21.046875 45.75 18.09375 43.578125 
Q 15.140625 41.40625 13.71875 35.890625 
L 5.125 37.0625 
Q 6.296875 42.578125 8.984375 45.96875 
Q 11.671875 49.359375 16.75 51.1875 
Q 21.828125 53.03125 28.515625 53.03125 
Q 35.15625 53.03125 39.296875 51.46875 
Q 43.453125 49.90625 45.40625 47.53125 
Q 47.359375 45.171875 48.140625 41.546875 
Q 48.578125 39.3125 48.578125 33.453125 
L 48.578125 21.734375 
Q 48.578125 9.46875 49.140625 6.21875 
Q 49.703125 2.984375 51.375 0 
L 42.1875 0 
Q 40.828125 2.734375 40.4375 6.390625 
z
M 39.703125 26.03125 
Q 34.90625 24.078125 25.34375 22.703125 
Q 19.921875 21.921875 17.671875 20.9375 
Q 15.4375 19.96875 14.203125 18.09375 
Q 12.984375 16.21875 12.984375 13.921875 
Q 12.984375 10.40625 15.640625 8.0625 
Q 18.3125 5.71875 23.4375 5.71875 
Q 28.515625 5.71875 32.46875 7.9375 
Q 36.421875 10.15625 38.28125 14.015625 
Q 39.703125 17 39.703125 22.796875 
z
" id="ArialMT-61"/>
      <path d="M 4.984375 -4.296875 
L 13.53125 -5.5625 
Q 14.0625 -9.515625 16.5 -11.328125 
Q 19.78125 -13.765625 25.4375 -13.765625 
Q 31.546875 -13.765625 34.859375 -11.328125 
Q 38.1875 -8.890625 39.359375 -4.5 
Q 40.046875 -1.8125 39.984375 6.78125 
Q 34.234375 0 25.640625 0 
Q 14.9375 0 9.078125 7.71875 
Q 3.21875 15.4375 3.21875 26.21875 
Q 3.21875 33.640625 5.90625 39.90625 
Q 8.59375 46.1875 13.6875 49.609375 
Q 18.796875 53.03125 25.6875 53.03125 
Q 34.859375 53.03125 40.828125 45.609375 
L 40.828125 51.859375 
L 48.921875 51.859375 
L 48.921875 7.03125 
Q 48.921875 -5.078125 46.453125 -10.125 
Q 44 -15.1875 38.640625 -18.109375 
Q 33.296875 -21.046875 25.484375 -21.046875 
Q 16.21875 -21.046875 10.5 -16.875 
Q 4.78125 -12.703125 4.984375 -4.296875 
z
M 12.25 26.859375 
Q 12.25 16.65625 16.296875 11.96875 
Q 20.359375 7.28125 26.46875 7.28125 
Q 32.515625 7.28125 36.609375 11.9375 
Q 40.71875 16.609375 40.71875 26.5625 
Q 40.71875 36.078125 36.5 40.90625 
Q 32.28125 45.75 26.3125 45.75 
Q 20.453125 45.75 16.34375 40.984375 
Q 12.25 36.234375 12.25 26.859375 
z
" id="ArialMT-67"/>
     </defs>
     <g style="fill:#262626;" transform="translate(196.476562 310.959563)scale(0.1 -0.1)">
      <use xlink:href="#ArialMT-4c"/>
      <use x="55.615234" xlink:href="#ArialMT-69"/>
      <use x="77.832031" xlink:href="#ArialMT-66"/>
      <use x="105.615234" xlink:href="#ArialMT-65"/>
      <use x="161.230469" xlink:href="#ArialMT-20"/>
      <use x="189.013672" xlink:href="#ArialMT-63"/>
      <use x="239.013672" xlink:href="#ArialMT-79"/>
      <use x="289.013672" xlink:href="#ArialMT-63"/>
      <use x="339.013672" xlink:href="#ArialMT-6c"/>
      <use x="361.230469" xlink:href="#ArialMT-65"/>
      <use x="416.845703" xlink:href="#ArialMT-20"/>
      <use x="444.628906" xlink:href="#ArialMT-73"/>
      <use x="494.628906" xlink:href="#ArialMT-74"/>
      <use x="522.412109" xlink:href="#ArialMT-61"/>
      <use x="578.027344" xlink:href="#ArialMT-67"/>
      <use x="633.642578" xlink:href="#ArialMT-65"/>
      <use x="689.257812" xlink:href="#ArialMT-73"/>
     </g>
    </g>
   </g>
   <g id="matplotlib.axis_2">
    <g id="ytick_1">
     <g id="line2d_7">
      <path clip-path="url(#pb3e3d81001)" d="M 50.043 282.332 
L 416.832 282.332 
" style="fill:none;stroke:#cccccc;stroke-linecap:round;stroke-width:0.8;"/>
     </g>
     <g id="line2d_8">
      <defs>
       <path d="M 0 0 
L -4.8 0 
" id="m199292cc84" style="stroke:#262626;"/>
      </defs>
      <g>
       <use style="fill:#262626;stroke:#262626;" x="50.043" xlink:href="#m199292cc84" y="282.332"/>
      </g>
     </g>
     <g id="text_8">
      <!-- −1.0 -->
      <defs>
       <path d="M 52.828125 31.203125 
L 5.5625 31.203125 
L 5.5625 39.40625 
L 52.828125 39.40625 
z
" id="ArialMT-2212"/>
       <path d="M 9.078125 0 
L 9.078125 10.015625 
L 19.09375 10.015625 
L 19.09375 0 
z
" id="ArialMT-2e"/>
       <path d="M 4.15625 35.296875 
Q 4.15625 48 6.765625 55.734375 
Q 9.375 63.484375 14.515625 67.671875 
Q 19.671875 71.875 27.484375 71.875 
Q 33.25 71.875 37.59375 69.546875 
Q 41.9375 67.234375 44.765625 62.859375 
Q 47.609375 58.5 49.21875 52.21875 
Q 50.828125 45.953125 50.828125 35.296875 
Q 50.828125 22.703125 48.234375 14.96875 
Q 45.65625 7.234375 40.5 3 
Q 35.359375 -1.21875 27.484375 -1.21875 
Q 17.140625 -1.21875 11.234375 6.203125 
Q 4.15625 15.140625 4.15625 35.296875 
z
M 13.1875 35.296875 
Q 13.1875 17.671875 17.3125 11.828125 
Q 21.4375 6 27.484375 6 
Q 33.546875 6 37.671875 11.859375 
Q 41.796875 17.71875 41.796875 35.296875 
Q 41.796875 52.984375 37.671875 58.78125 
Q 33.546875 64.59375 27.390625 64.59375 
Q 21.34375 64.59375 17.71875 59.46875 
Q 13.1875 52.9375 13.1875 35.296875 
z
" id="ArialMT-30"/>
      </defs>
      <g style="fill:#262626;" transform="translate(24.37125 285.481438)scale(0.088 -0.088)">
       <use xlink:href="#ArialMT-2212"/>
       <use x="58.398438" xlink:href="#ArialMT-31"/>
       <use x="114.013672" xlink:href="#ArialMT-2e"/>
       <use x="141.796875" xlink:href="#ArialMT-30"/>
      </g>
     </g>
    </g>
    <g id="ytick_2">
     <g id="line2d_9">
      <path clip-path="url(#pb3e3d81001)" d="M 50.043 241.288521 
L 416.832 241.288521 
" style="fill:none;stroke:#cccccc;stroke-linecap:round;stroke-width:0.8;"/>
     </g>
     <g id="line2d_10">
      <g>
       <use style="fill:#262626;stroke:#262626;" x="50.043" xlink:href="#m199292cc84" y="241.288521"/>
      </g>
     </g>
     <g id="text_9">
      <!-- −0.5 -->
      <g style="fill:#262626;" transform="translate(24.37125 244.437958)scale(0.088 -0.088)">
       <use xlink:href="#ArialMT-2212"/>
       <use x="58.398438" xlink:href="#ArialMT-30"/>
       <use x="114.013672" xlink:href="#ArialMT-2e"/>
       <use x="141.796875" xlink:href="#ArialMT-35"/>
      </g>
     </g>
    </g>
    <g id="ytick_3">
     <g id="line2d_11">
      <path clip-path="url(#pb3e3d81001)" d="M 50.043 200.245042 
L 416.832 200.245042 
" style="fill:none;stroke:#cccccc;stroke-linecap:round;stroke-width:0.8;"/>
     </g>
     <g id="line2d_12">
      <g>
       <use style="fill:#262626;stroke:#262626;" x="50.043" xlink:href="#m199292cc84" y="200.245042"/>
      </g>
     </g>
     <g id="text_10">
      <!-- 0.0 -->
      <g style="fill:#262626;" transform="translate(29.511 203.394479)scale(0.088 -0.088)">
       <use xlink:href="#ArialMT-30"/>
       <use x="55.615234" xlink:href="#ArialMT-2e"/>
       <use x="83.398438" xlink:href="#ArialMT-30"/>
      </g>
     </g>
    </g>
    <g id="ytick_4">
     <g id="line2d_13">
      <path clip-path="url(#pb3e3d81001)" d="M 50.043 159.201563 
L 416.832 159.201563 
" style="fill:none;stroke:#cccccc;stroke-linecap:round;stroke-width:0.8;"/>
     </g>
     <g id="line2d_14">
      <g>
       <use style="fill:#262626;stroke:#262626;" x="50.043" xlink:href="#m199292cc84" y="159.201563"/>
      </g>
     </g>
     <g id="text_11">
      <!-- 0.5 -->
      <g style="fill:#262626;" transform="translate(29.511 162.351)scale(0.088 -0.088)">
       <use xlink:href="#ArialMT-30"/>
       <use x="55.615234" xlink:href="#ArialMT-2e"/>
       <use x="83.398438" xlink:href="#ArialMT-35"/>
      </g>
     </g>
    </g>
    <g id="ytick_5">
     <g id="line2d_15">
      <path clip-path="url(#pb3e3d81001)" d="M 50.043 118.158083 
L 416.832 118.158083 
" style="fill:none;stroke:#cccccc;stroke-linecap:round;stroke-width:0.8;"/>
     </g>
     <g id="line2d_16">
      <g>
       <use style="fill:#262626;stroke:#262626;" x="50.043" xlink:href="#m199292cc84" y="118.158083"/>
      </g>
     </g>
     <g id="text_12">
      <!-- 1.0 -->
      <g style="fill:#262626;" transform="translate(29.511 121.307521)scale(0.088 -0.088)">
       <use xlink:href="#ArialMT-31"/>
       <use x="55.615234" xlink:href="#ArialMT-2e"/>
       <use x="83.398438" xlink:href="#ArialMT-30"/>
      </g>
     </g>
    </g>
    <g id="ytick_6">
     <g id="line2d_17">
      <path clip-path="url(#pb3e3d81001)" d="M 50.043 77.114604 
L 416.832 77.114604 
" style="fill:none;stroke:#cccccc;stroke-linecap:round;stroke-width:0.8;"/>
     </g>
     <g id="line2d_18">
      <g>
       <use style="fill:#262626;stroke:#262626;" x="50.043" xlink:href="#m199292cc84" y="77.114604"/>
      </g>
     </g>
     <g id="text_13">
      <!-- 1.5 -->
      <g style="fill:#262626;" transform="translate(29.511 80.264042)scale(0.088 -0.088)">
       <use xlink:href="#ArialMT-31"/>
       <use x="55.615234" xlink:href="#ArialMT-2e"/>
       <use x="83.398438" xlink:href="#ArialMT-35"/>
      </g>
     </g>
    </g>
    <g id="ytick_7">
     <g id="line2d_19">
      <path clip-path="url(#pb3e3d81001)" d="M 50.043 36.071125 
L 416.832 36.071125 
" style="fill:none;stroke:#cccccc;stroke-linecap:round;stroke-width:0.8;"/>
     </g>
     <g id="line2d_20">
      <g>
       <use style="fill:#262626;stroke:#262626;" x="50.043" xlink:href="#m199292cc84" y="36.071125"/>
      </g>
     </g>
     <g id="text_14">
      <!-- 2.0 -->
      <g style="fill:#262626;" transform="translate(29.511 39.220563)scale(0.088 -0.088)">
       <use xlink:href="#ArialMT-32"/>
       <use x="55.615234" xlink:href="#ArialMT-2e"/>
       <use x="83.398438" xlink:href="#ArialMT-30"/>
      </g>
     </g>
    </g>
    <g id="text_15">
     <!-- Ratio -->
     <defs>
      <path d="M 7.859375 0 
L 7.859375 71.578125 
L 39.59375 71.578125 
Q 49.171875 71.578125 54.140625 69.640625 
Q 59.125 67.71875 62.109375 62.828125 
Q 65.09375 57.953125 65.09375 52.046875 
Q 65.09375 44.4375 60.15625 39.203125 
Q 55.21875 33.984375 44.921875 32.5625 
Q 48.6875 30.765625 50.640625 29 
Q 54.78125 25.203125 58.5 19.484375 
L 70.953125 0 
L 59.03125 0 
L 49.5625 14.890625 
Q 45.40625 21.34375 42.71875 24.75 
Q 40.046875 28.171875 37.921875 29.53125 
Q 35.796875 30.90625 33.59375 31.453125 
Q 31.984375 31.78125 28.328125 31.78125 
L 17.328125 31.78125 
L 17.328125 0 
z
M 17.328125 39.984375 
L 37.703125 39.984375 
Q 44.1875 39.984375 47.84375 41.328125 
Q 51.515625 42.671875 53.421875 45.625 
Q 55.328125 48.578125 55.328125 52.046875 
Q 55.328125 57.125 51.640625 60.390625 
Q 47.953125 63.671875 39.984375 63.671875 
L 17.328125 63.671875 
z
" id="ArialMT-52"/>
      <path d="M 3.328125 25.921875 
Q 3.328125 40.328125 11.328125 47.265625 
Q 18.015625 53.03125 27.640625 53.03125 
Q 38.328125 53.03125 45.109375 46.015625 
Q 51.90625 39.015625 51.90625 26.65625 
Q 51.90625 16.65625 48.90625 10.90625 
Q 45.90625 5.171875 40.15625 2 
Q 34.421875 -1.171875 27.640625 -1.171875 
Q 16.75 -1.171875 10.03125 5.8125 
Q 3.328125 12.796875 3.328125 25.921875 
z
M 12.359375 25.921875 
Q 12.359375 15.96875 16.703125 11.015625 
Q 21.046875 6.0625 27.640625 6.0625 
Q 34.1875 6.0625 38.53125 11.03125 
Q 42.875 16.015625 42.875 26.21875 
Q 42.875 35.84375 38.5 40.796875 
Q 34.125 45.75 27.640625 45.75 
Q 21.046875 45.75 16.703125 40.8125 
Q 12.359375 35.890625 12.359375 25.921875 
z
" id="ArialMT-6f"/>
     </defs>
     <g style="fill:#262626;" transform="translate(17.38375 170.873438)rotate(-90)scale(0.1 -0.1)">
      <use xlink:href="#ArialMT-52"/>
      <use x="72.216797" xlink:href="#ArialMT-61"/>
      <use x="127.832031" xlink:href="#ArialMT-74"/>
      <use x="155.615234" xlink:href="#ArialMT-69"/>
      <use x="177.832031" xlink:href="#ArialMT-6f"/>
     </g>
    </g>
   </g>
   <g id="patch_3">
    <path clip-path="url(#pb3e3d81001)" d="M 65.325875 158.088118 
L 95.891625 158.088118 
L 95.891625 140.19771 
L 65.325875 140.19771 
L 65.325875 158.088118 
z
" style="fill:#1e94d2;stroke:#484848;stroke-linejoin:miter;"/>
   </g>
   <g id="patch_4">
    <path clip-path="url(#pb3e3d81001)" d="M 126.457375 196.02275 
L 157.023125 196.02275 
L 157.023125 194.341271 
L 126.457375 194.341271 
L 126.457375 196.02275 
z
" style="fill:#1e94d2;stroke:#484848;stroke-linejoin:miter;"/>
   </g>
   <g id="patch_5">
    <path clip-path="url(#pb3e3d81001)" d="M 187.588875 193.828478 
L 218.154625 193.828478 
L 218.154625 169.82962 
L 187.588875 169.82962 
L 187.588875 193.828478 
z
" style="fill:#1e94d2;stroke:#484848;stroke-linejoin:miter;"/>
   </g>
   <g id="patch_6">
    <path clip-path="url(#pb3e3d81001)" d="M 309.851875 198.771859 
L 340.417625 198.771859 
L 340.417625 197.479793 
L 309.851875 197.479793 
L 309.851875 198.771859 
z
" style="fill:#1e94d2;stroke:#484848;stroke-linejoin:miter;"/>
   </g>
   <g id="patch_7">
    <path clip-path="url(#pb3e3d81001)" d="M 370.983375 198.906607 
L 401.549125 198.906607 
L 401.549125 188.843164 
L 370.983375 188.843164 
L 370.983375 198.906607 
z
" style="fill:#1e94d2;stroke:#484848;stroke-linejoin:miter;"/>
   </g>
   <g id="line2d_21">
    <path clip-path="url(#pb3e3d81001)" d="M 80.60875 158.088118 
L 80.60875 181.677753 
" style="fill:none;stroke:#484848;stroke-linecap:round;"/>
   </g>
   <g id="line2d_22">
    <path clip-path="url(#pb3e3d81001)" d="M 80.60875 140.19771 
L 80.60875 120.772254 
" style="fill:none;stroke:#484848;stroke-linecap:round;"/>
   </g>
   <g id="line2d_23">
    <path clip-path="url(#pb3e3d81001)" d="M 72.967313 181.677753 
L 88.250187 181.677753 
" style="fill:none;stroke:#484848;stroke-linecap:round;"/>
   </g>
   <g id="line2d_24">
    <path clip-path="url(#pb3e3d81001)" d="M 72.967313 120.772254 
L 88.250187 120.772254 
" style="fill:none;stroke:#484848;stroke-linecap:round;"/>
   </g>
   <g id="line2d_25">
    <defs>
     <path d="M 0 2.828427 
L 1.697056 0 
L 0 -2.828427 
L -1.697056 0 
z
" id="me584a5669b" style="stroke:#000000;stroke-linejoin:miter;"/>
    </defs>
    <g clip-path="url(#pb3e3d81001)">
     <use style="fill:#ffffff;stroke:#000000;stroke-linejoin:miter;" x="80.60875" xlink:href="#me584a5669b" y="215.821315"/>
     <use style="fill:#ffffff;stroke:#000000;stroke-linejoin:miter;" x="80.60875" xlink:href="#me584a5669b" y="268.189678"/>
     <use style="fill:#ffffff;stroke:#000000;stroke-linejoin:miter;" x="80.60875" xlink:href="#me584a5669b" y="199.718843"/>
     <use style="fill:#ffffff;stroke:#000000;stroke-linejoin:miter;" x="80.60875" xlink:href="#me584a5669b" y="186.999192"/>
     <use style="fill:#ffffff;stroke:#000000;stroke-linejoin:miter;" x="80.60875" xlink:href="#me584a5669b" y="195.346543"/>
     <use style="fill:#ffffff;stroke:#000000;stroke-linejoin:miter;" x="80.60875" xlink:href="#me584a5669b" y="217.79151"/>
     <use style="fill:#ffffff;stroke:#000000;stroke-linejoin:miter;" x="80.60875" xlink:href="#me584a5669b" y="220.766781"/>
     <use style="fill:#ffffff;stroke:#000000;stroke-linejoin:miter;" x="80.60875" xlink:href="#me584a5669b" y="228.550889"/>
     <use style="fill:#ffffff;stroke:#000000;stroke-linejoin:miter;" x="80.60875" xlink:href="#me584a5669b" y="217.835104"/>
     <use style="fill:#ffffff;stroke:#000000;stroke-linejoin:miter;" x="80.60875" xlink:href="#me584a5669b" y="199.055376"/>
     <use style="fill:#ffffff;stroke:#000000;stroke-linejoin:miter;" x="80.60875" xlink:href="#me584a5669b" y="212.447157"/>
     <use style="fill:#ffffff;stroke:#000000;stroke-linejoin:miter;" x="80.60875" xlink:href="#me584a5669b" y="269.370901"/>
     <use style="fill:#ffffff;stroke:#000000;stroke-linejoin:miter;" x="80.60875" xlink:href="#me584a5669b" y="260.918011"/>
     <use style="fill:#ffffff;stroke:#000000;stroke-linejoin:miter;" x="80.60875" xlink:href="#me584a5669b" y="109.186349"/>
    </g>
   </g>
   <g id="line2d_26">
    <path clip-path="url(#pb3e3d81001)" d="M 141.74025 196.02275 
L 141.74025 197.633738 
" style="fill:none;stroke:#484848;stroke-linecap:round;"/>
   </g>
   <g id="line2d_27">
    <path clip-path="url(#pb3e3d81001)" d="M 141.74025 194.341271 
L 141.74025 191.884333 
" style="fill:none;stroke:#484848;stroke-linecap:round;"/>
   </g>
   <g id="line2d_28">
    <path clip-path="url(#pb3e3d81001)" d="M 134.098813 197.633738 
L 149.381687 197.633738 
" style="fill:none;stroke:#484848;stroke-linecap:round;"/>
   </g>
   <g id="line2d_29">
    <path clip-path="url(#pb3e3d81001)" d="M 134.098813 191.884333 
L 149.381687 191.884333 
" style="fill:none;stroke:#484848;stroke-linecap:round;"/>
   </g>
   <g id="line2d_30">
    <g clip-path="url(#pb3e3d81001)">
     <use style="fill:#ffffff;stroke:#000000;stroke-linejoin:miter;" x="141.74025" xlink:href="#me584a5669b" y="199.11481"/>
     <use style="fill:#ffffff;stroke:#000000;stroke-linejoin:miter;" x="141.74025" xlink:href="#me584a5669b" y="187.414871"/>
     <use style="fill:#ffffff;stroke:#000000;stroke-linejoin:miter;" x="141.74025" xlink:href="#me584a5669b" y="187.821384"/>
     <use style="fill:#ffffff;stroke:#000000;stroke-linejoin:miter;" x="141.74025" xlink:href="#me584a5669b" y="187.824947"/>
     <use style="fill:#ffffff;stroke:#000000;stroke-linejoin:miter;" x="141.74025" xlink:href="#me584a5669b" y="187.818663"/>
     <use style="fill:#ffffff;stroke:#000000;stroke-linejoin:miter;" x="141.74025" xlink:href="#me584a5669b" y="187.711879"/>
     <use style="fill:#ffffff;stroke:#000000;stroke-linejoin:miter;" x="141.74025" xlink:href="#me584a5669b" y="187.104396"/>
     <use style="fill:#ffffff;stroke:#000000;stroke-linejoin:miter;" x="141.74025" xlink:href="#me584a5669b" y="187.402902"/>
     <use style="fill:#ffffff;stroke:#000000;stroke-linejoin:miter;" x="141.74025" xlink:href="#me584a5669b" y="188.069552"/>
     <use style="fill:#ffffff;stroke:#000000;stroke-linejoin:miter;" x="141.74025" xlink:href="#me584a5669b" y="188.232316"/>
     <use style="fill:#ffffff;stroke:#000000;stroke-linejoin:miter;" x="141.74025" xlink:href="#me584a5669b" y="187.99177"/>
     <use style="fill:#ffffff;stroke:#000000;stroke-linejoin:miter;" x="141.74025" xlink:href="#me584a5669b" y="189.984172"/>
     <use style="fill:#ffffff;stroke:#000000;stroke-linejoin:miter;" x="141.74025" xlink:href="#me584a5669b" y="189.866231"/>
     <use style="fill:#ffffff;stroke:#000000;stroke-linejoin:miter;" x="141.74025" xlink:href="#me584a5669b" y="187.345663"/>
     <use style="fill:#ffffff;stroke:#000000;stroke-linejoin:miter;" x="141.74025" xlink:href="#me584a5669b" y="187.158715"/>
     <use style="fill:#ffffff;stroke:#000000;stroke-linejoin:miter;" x="141.74025" xlink:href="#me584a5669b" y="189.495559"/>
     <use style="fill:#ffffff;stroke:#000000;stroke-linejoin:miter;" x="141.74025" xlink:href="#me584a5669b" y="189.09743"/>
     <use style="fill:#ffffff;stroke:#000000;stroke-linejoin:miter;" x="141.74025" xlink:href="#me584a5669b" y="189.495559"/>
     <use style="fill:#ffffff;stroke:#000000;stroke-linejoin:miter;" x="141.74025" xlink:href="#me584a5669b" y="185.912398"/>
     <use style="fill:#ffffff;stroke:#000000;stroke-linejoin:miter;" x="141.74025" xlink:href="#me584a5669b" y="188.042926"/>
     <use style="fill:#ffffff;stroke:#000000;stroke-linejoin:miter;" x="141.74025" xlink:href="#me584a5669b" y="191.645456"/>
     <use style="fill:#ffffff;stroke:#000000;stroke-linejoin:miter;" x="141.74025" xlink:href="#me584a5669b" y="190.740236"/>
     <use style="fill:#ffffff;stroke:#000000;stroke-linejoin:miter;" x="141.74025" xlink:href="#me584a5669b" y="187.158715"/>
    </g>
   </g>
   <g id="line2d_31">
    <path clip-path="url(#pb3e3d81001)" d="M 202.87175 193.828478 
L 202.87175 200.523657 
" style="fill:none;stroke:#484848;stroke-linecap:round;"/>
   </g>
   <g id="line2d_32">
    <path clip-path="url(#pb3e3d81001)" d="M 202.87175 169.82962 
L 202.87175 162.51108 
" style="fill:none;stroke:#484848;stroke-linecap:round;"/>
   </g>
   <g id="line2d_33">
    <path clip-path="url(#pb3e3d81001)" d="M 195.230312 200.523657 
L 210.513188 200.523657 
" style="fill:none;stroke:#484848;stroke-linecap:round;"/>
   </g>
   <g id="line2d_34">
    <path clip-path="url(#pb3e3d81001)" d="M 195.230312 162.51108 
L 210.513188 162.51108 
" style="fill:none;stroke:#484848;stroke-linecap:round;"/>
   </g>
   <g id="line2d_35"/>
   <g id="line2d_36">
    <path clip-path="url(#pb3e3d81001)" d="M 325.13475 198.771859 
L 325.13475 199.564858 
" style="fill:none;stroke:#484848;stroke-linecap:round;"/>
   </g>
   <g id="line2d_37">
    <path clip-path="url(#pb3e3d81001)" d="M 325.13475 197.479793 
L 325.13475 195.657484 
" style="fill:none;stroke:#484848;stroke-linecap:round;"/>
   </g>
   <g id="line2d_38">
    <path clip-path="url(#pb3e3d81001)" d="M 317.493313 199.564858 
L 332.776187 199.564858 
" style="fill:none;stroke:#484848;stroke-linecap:round;"/>
   </g>
   <g id="line2d_39">
    <path clip-path="url(#pb3e3d81001)" d="M 317.493313 195.657484 
L 332.776187 195.657484 
" style="fill:none;stroke:#484848;stroke-linecap:round;"/>
   </g>
   <g id="line2d_40">
    <g clip-path="url(#pb3e3d81001)">
     <use style="fill:#ffffff;stroke:#000000;stroke-linejoin:miter;" x="325.13475" xlink:href="#me584a5669b" y="201.771638"/>
     <use style="fill:#ffffff;stroke:#000000;stroke-linejoin:miter;" x="325.13475" xlink:href="#me584a5669b" y="211.922551"/>
     <use style="fill:#ffffff;stroke:#000000;stroke-linejoin:miter;" x="325.13475" xlink:href="#me584a5669b" y="195.523009"/>
     <use style="fill:#ffffff;stroke:#000000;stroke-linejoin:miter;" x="325.13475" xlink:href="#me584a5669b" y="195.107519"/>
     <use style="fill:#ffffff;stroke:#000000;stroke-linejoin:miter;" x="325.13475" xlink:href="#me584a5669b" y="193.869983"/>
     <use style="fill:#ffffff;stroke:#000000;stroke-linejoin:miter;" x="325.13475" xlink:href="#me584a5669b" y="195.188647"/>
     <use style="fill:#ffffff;stroke:#000000;stroke-linejoin:miter;" x="325.13475" xlink:href="#me584a5669b" y="195.4985"/>
     <use style="fill:#ffffff;stroke:#000000;stroke-linejoin:miter;" x="325.13475" xlink:href="#me584a5669b" y="194.318284"/>
     <use style="fill:#ffffff;stroke:#000000;stroke-linejoin:miter;" x="325.13475" xlink:href="#me584a5669b" y="194.571952"/>
     <use style="fill:#ffffff;stroke:#000000;stroke-linejoin:miter;" x="325.13475" xlink:href="#me584a5669b" y="192.066459"/>
     <use style="fill:#ffffff;stroke:#000000;stroke-linejoin:miter;" x="325.13475" xlink:href="#me584a5669b" y="192.753477"/>
     <use style="fill:#ffffff;stroke:#000000;stroke-linejoin:miter;" x="325.13475" xlink:href="#me584a5669b" y="194.292812"/>
     <use style="fill:#ffffff;stroke:#000000;stroke-linejoin:miter;" x="325.13475" xlink:href="#me584a5669b" y="194.015217"/>
     <use style="fill:#ffffff;stroke:#000000;stroke-linejoin:miter;" x="325.13475" xlink:href="#me584a5669b" y="194.707568"/>
     <use style="fill:#ffffff;stroke:#000000;stroke-linejoin:miter;" x="325.13475" xlink:href="#me584a5669b" y="194.773728"/>
     <use style="fill:#ffffff;stroke:#000000;stroke-linejoin:miter;" x="325.13475" xlink:href="#me584a5669b" y="194.734669"/>
     <use style="fill:#ffffff;stroke:#000000;stroke-linejoin:miter;" x="325.13475" xlink:href="#me584a5669b" y="194.398192"/>
     <use style="fill:#ffffff;stroke:#000000;stroke-linejoin:miter;" x="325.13475" xlink:href="#me584a5669b" y="195.053304"/>
     <use style="fill:#ffffff;stroke:#000000;stroke-linejoin:miter;" x="325.13475" xlink:href="#me584a5669b" y="193.350012"/>
     <use style="fill:#ffffff;stroke:#000000;stroke-linejoin:miter;" x="325.13475" xlink:href="#me584a5669b" y="193.33247"/>
     <use style="fill:#ffffff;stroke:#000000;stroke-linejoin:miter;" x="325.13475" xlink:href="#me584a5669b" y="189.914042"/>
     <use style="fill:#ffffff;stroke:#000000;stroke-linejoin:miter;" x="325.13475" xlink:href="#me584a5669b" y="194.625481"/>
    </g>
   </g>
   <g id="line2d_41">
    <path clip-path="url(#pb3e3d81001)" d="M 386.26625 198.906607 
L 386.26625 199.332188 
" style="fill:none;stroke:#484848;stroke-linecap:round;"/>
   </g>
   <g id="line2d_42">
    <path clip-path="url(#pb3e3d81001)" d="M 386.26625 188.843164 
L 386.26625 176.539739 
" style="fill:none;stroke:#484848;stroke-linecap:round;"/>
   </g>
   <g id="line2d_43">
    <path clip-path="url(#pb3e3d81001)" d="M 378.624812 199.332188 
L 393.907687 199.332188 
" style="fill:none;stroke:#484848;stroke-linecap:round;"/>
   </g>
   <g id="line2d_44">
    <path clip-path="url(#pb3e3d81001)" d="M 378.624812 176.539739 
L 393.907687 176.539739 
" style="fill:none;stroke:#484848;stroke-linecap:round;"/>
   </g>
   <g id="line2d_45">
    <g clip-path="url(#pb3e3d81001)">
     <use style="fill:#ffffff;stroke:#000000;stroke-linejoin:miter;" x="386.26625" xlink:href="#me584a5669b" y="109.902659"/>
     <use style="fill:#ffffff;stroke:#000000;stroke-linejoin:miter;" x="386.26625" xlink:href="#me584a5669b" y="166.119003"/>
     <use style="fill:#ffffff;stroke:#000000;stroke-linejoin:miter;" x="386.26625" xlink:href="#me584a5669b" y="158.743342"/>
     <use style="fill:#ffffff;stroke:#000000;stroke-linejoin:miter;" x="386.26625" xlink:href="#me584a5669b" y="173.227444"/>
     <use style="fill:#ffffff;stroke:#000000;stroke-linejoin:miter;" x="386.26625" xlink:href="#me584a5669b" y="67.122746"/>
     <use style="fill:#ffffff;stroke:#000000;stroke-linejoin:miter;" x="386.26625" xlink:href="#me584a5669b" y="172.95608"/>
     <use style="fill:#ffffff;stroke:#000000;stroke-linejoin:miter;" x="386.26625" xlink:href="#me584a5669b" y="172.691377"/>
     <use style="fill:#ffffff;stroke:#000000;stroke-linejoin:miter;" x="386.26625" xlink:href="#me584a5669b" y="151.050742"/>
     <use style="fill:#ffffff;stroke:#000000;stroke-linejoin:miter;" x="386.26625" xlink:href="#me584a5669b" y="164.078016"/>
     <use style="fill:#ffffff;stroke:#000000;stroke-linejoin:miter;" x="386.26625" xlink:href="#me584a5669b" y="167.72002"/>
     <use style="fill:#ffffff;stroke:#000000;stroke-linejoin:miter;" x="386.26625" xlink:href="#me584a5669b" y="133.593238"/>
     <use style="fill:#ffffff;stroke:#000000;stroke-linejoin:miter;" x="386.26625" xlink:href="#me584a5669b" y="147.07508"/>
     <use style="fill:#ffffff;stroke:#000000;stroke-linejoin:miter;" x="386.26625" xlink:href="#me584a5669b" y="136.564562"/>
     <use style="fill:#ffffff;stroke:#000000;stroke-linejoin:miter;" x="386.26625" xlink:href="#me584a5669b" y="112.665276"/>
     <use style="fill:#ffffff;stroke:#000000;stroke-linejoin:miter;" x="386.26625" xlink:href="#me584a5669b" y="147.415628"/>
     <use style="fill:#ffffff;stroke:#000000;stroke-linejoin:miter;" x="386.26625" xlink:href="#me584a5669b" y="148.921656"/>
     <use style="fill:#ffffff;stroke:#000000;stroke-linejoin:miter;" x="386.26625" xlink:href="#me584a5669b" y="161.024729"/>
     <use style="fill:#ffffff;stroke:#000000;stroke-linejoin:miter;" x="386.26625" xlink:href="#me584a5669b" y="117.232309"/>
     <use style="fill:#ffffff;stroke:#000000;stroke-linejoin:miter;" x="386.26625" xlink:href="#me584a5669b" y="111.272462"/>
     <use style="fill:#ffffff;stroke:#000000;stroke-linejoin:miter;" x="386.26625" xlink:href="#me584a5669b" y="125.761534"/>
     <use style="fill:#ffffff;stroke:#000000;stroke-linejoin:miter;" x="386.26625" xlink:href="#me584a5669b" y="142.404456"/>
     <use style="fill:#ffffff;stroke:#000000;stroke-linejoin:miter;" x="386.26625" xlink:href="#me584a5669b" y="170.802864"/>
     <use style="fill:#ffffff;stroke:#000000;stroke-linejoin:miter;" x="386.26625" xlink:href="#me584a5669b" y="157.019954"/>
     <use style="fill:#ffffff;stroke:#000000;stroke-linejoin:miter;" x="386.26625" xlink:href="#me584a5669b" y="167.133762"/>
     <use style="fill:#ffffff;stroke:#000000;stroke-linejoin:miter;" x="386.26625" xlink:href="#me584a5669b" y="160.692779"/>
     <use style="fill:#ffffff;stroke:#000000;stroke-linejoin:miter;" x="386.26625" xlink:href="#me584a5669b" y="141.956088"/>
     <use style="fill:#ffffff;stroke:#000000;stroke-linejoin:miter;" x="386.26625" xlink:href="#me584a5669b" y="172.956999"/>
     <use style="fill:#ffffff;stroke:#000000;stroke-linejoin:miter;" x="386.26625" xlink:href="#me584a5669b" y="127.44185"/>
     <use style="fill:#ffffff;stroke:#000000;stroke-linejoin:miter;" x="386.26625" xlink:href="#me584a5669b" y="170.241242"/>
     <use style="fill:#ffffff;stroke:#000000;stroke-linejoin:miter;" x="386.26625" xlink:href="#me584a5669b" y="66.83095"/>
     <use style="fill:#ffffff;stroke:#000000;stroke-linejoin:miter;" x="386.26625" xlink:href="#me584a5669b" y="79.814187"/>
    </g>
   </g>
   <g id="line2d_46">
    <path clip-path="url(#pb3e3d81001)" d="M 65.325875 156.466297 
L 95.891625 156.466297 
" style="fill:none;stroke:#484848;stroke-linecap:round;"/>
   </g>
   <g id="line2d_47">
    <path clip-path="url(#pb3e3d81001)" d="M 80.60875 154.880781 
" style="fill:none;stroke:#0076b4;stroke-dasharray:3.7,1.6;stroke-dashoffset:0;"/>
    <defs>
     <path d="M 0 2.5 
C 0.663008 2.5 1.29895 2.236584 1.767767 1.767767 
C 2.236584 1.29895 2.5 0.663008 2.5 0 
C 2.5 -0.663008 2.236584 -1.29895 1.767767 -1.767767 
C 1.29895 -2.236584 0.663008 -2.5 0 -2.5 
C -0.663008 -2.5 -1.29895 -2.236584 -1.767767 -1.767767 
C -2.236584 -1.29895 -2.5 -0.663008 -2.5 0 
C -2.5 0.663008 -2.236584 1.29895 -1.767767 1.767767 
C -1.29895 2.236584 -0.663008 2.5 0 2.5 
z
" id="m7a5da03160" style="stroke:#000000;"/>
    </defs>
    <g clip-path="url(#pb3e3d81001)">
     <use style="fill:#ffffff;stroke:#000000;" x="80.60875" xlink:href="#m7a5da03160" y="154.880781"/>
    </g>
   </g>
   <g id="line2d_48">
    <path clip-path="url(#pb3e3d81001)" d="M 126.457375 194.854927 
L 157.023125 194.854927 
" style="fill:none;stroke:#484848;stroke-linecap:round;"/>
   </g>
   <g id="line2d_49">
    <path clip-path="url(#pb3e3d81001)" d="M 141.74025 194.354213 
" style="fill:none;stroke:#0076b4;stroke-dasharray:3.7,1.6;stroke-dashoffset:0;"/>
    <g clip-path="url(#pb3e3d81001)">
     <use style="fill:#ffffff;stroke:#000000;" x="141.74025" xlink:href="#m7a5da03160" y="194.354213"/>
    </g>
   </g>
   <g id="line2d_50">
    <path clip-path="url(#pb3e3d81001)" d="M 187.588875 176.577566 
L 218.154625 176.577566 
" style="fill:none;stroke:#484848;stroke-linecap:round;"/>
   </g>
   <g id="line2d_51">
    <path clip-path="url(#pb3e3d81001)" d="M 202.87175 181.441503 
" style="fill:none;stroke:#0076b4;stroke-dasharray:3.7,1.6;stroke-dashoffset:0;"/>
    <g clip-path="url(#pb3e3d81001)">
     <use style="fill:#ffffff;stroke:#000000;" x="202.87175" xlink:href="#m7a5da03160" y="181.441503"/>
    </g>
   </g>
   <g id="line2d_52">
    <path clip-path="url(#pb3e3d81001)" d="M 309.851875 198.636433 
L 340.417625 198.636433 
" style="fill:none;stroke:#484848;stroke-linecap:round;"/>
   </g>
   <g id="line2d_53">
    <path clip-path="url(#pb3e3d81001)" d="M 325.13475 197.952968 
" style="fill:none;stroke:#0076b4;stroke-dasharray:3.7,1.6;stroke-dashoffset:0;"/>
    <g clip-path="url(#pb3e3d81001)">
     <use style="fill:#ffffff;stroke:#000000;" x="325.13475" xlink:href="#m7a5da03160" y="197.952968"/>
    </g>
   </g>
   <g id="line2d_54">
    <path clip-path="url(#pb3e3d81001)" d="M 370.983375 198.475034 
L 401.549125 198.475034 
" style="fill:none;stroke:#484848;stroke-linecap:round;"/>
   </g>
   <g id="line2d_55">
    <path clip-path="url(#pb3e3d81001)" d="M 386.26625 186.773897 
" style="fill:none;stroke:#0076b4;stroke-dasharray:3.7,1.6;stroke-dashoffset:0;"/>
    <g clip-path="url(#pb3e3d81001)">
     <use style="fill:#ffffff;stroke:#000000;" x="386.26625" xlink:href="#m7a5da03160" y="186.773897"/>
    </g>
   </g>
   <g id="patch_8">
    <path d="M 50.043 282.332 
L 50.043 36.071125 
" style="fill:none;stroke:#262626;stroke-linecap:square;stroke-linejoin:miter;"/>
   </g>
   <g id="patch_9">
    <path d="M 416.832 282.332 
L 416.832 36.071125 
" style="fill:none;stroke:#262626;stroke-linecap:square;stroke-linejoin:miter;"/>
   </g>
   <g id="patch_10">
    <path d="M 50.043 282.332 
L 416.832 282.332 
" style="fill:none;stroke:#262626;stroke-linecap:square;stroke-linejoin:miter;"/>
   </g>
   <g id="patch_11">
    <path d="M 50.043 36.071125 
L 416.832 36.071125 
" style="fill:none;stroke:#262626;stroke-linecap:square;stroke-linejoin:miter;"/>
   </g>
   <g id="text_16">
    <!-- Magnitude of Ratio based on scope of life cycle module -->
    <defs>
     <path d="M 7.421875 0 
L 7.421875 71.578125 
L 21.6875 71.578125 
L 38.625 20.90625 
Q 40.96875 13.8125 42.046875 10.296875 
Q 43.265625 14.203125 45.84375 21.78125 
L 62.984375 71.578125 
L 75.734375 71.578125 
L 75.734375 0 
L 66.609375 0 
L 66.609375 59.90625 
L 45.796875 0 
L 37.25 0 
L 16.546875 60.9375 
L 16.546875 0 
z
" id="ArialMT-4d"/>
     <path d="M 6.59375 0 
L 6.59375 51.859375 
L 14.5 51.859375 
L 14.5 44.484375 
Q 20.21875 53.03125 31 53.03125 
Q 35.6875 53.03125 39.625 51.34375 
Q 43.5625 49.65625 45.515625 46.921875 
Q 47.46875 44.1875 48.25 40.4375 
Q 48.734375 37.984375 48.734375 31.890625 
L 48.734375 0 
L 39.9375 0 
L 39.9375 31.546875 
Q 39.9375 36.921875 38.90625 39.578125 
Q 37.890625 42.234375 35.28125 43.8125 
Q 32.671875 45.40625 29.15625 45.40625 
Q 23.53125 45.40625 19.453125 41.84375 
Q 15.375 38.28125 15.375 28.328125 
L 15.375 0 
z
" id="ArialMT-6e"/>
     <path d="M 40.578125 0 
L 40.578125 7.625 
Q 34.515625 -1.171875 24.125 -1.171875 
Q 19.53125 -1.171875 15.546875 0.578125 
Q 11.578125 2.34375 9.640625 5 
Q 7.71875 7.671875 6.9375 11.53125 
Q 6.390625 14.109375 6.390625 19.734375 
L 6.390625 51.859375 
L 15.1875 51.859375 
L 15.1875 23.09375 
Q 15.1875 16.21875 15.71875 13.8125 
Q 16.546875 10.359375 19.234375 8.375 
Q 21.921875 6.390625 25.875 6.390625 
Q 29.828125 6.390625 33.296875 8.421875 
Q 36.765625 10.453125 38.203125 13.9375 
Q 39.65625 17.4375 39.65625 24.078125 
L 39.65625 51.859375 
L 48.4375 51.859375 
L 48.4375 0 
z
" id="ArialMT-75"/>
     <path d="M 40.234375 0 
L 40.234375 6.546875 
Q 35.296875 -1.171875 25.734375 -1.171875 
Q 19.53125 -1.171875 14.328125 2.25 
Q 9.125 5.671875 6.265625 11.796875 
Q 3.421875 17.921875 3.421875 25.875 
Q 3.421875 33.640625 6 39.96875 
Q 8.59375 46.296875 13.765625 49.65625 
Q 18.953125 53.03125 25.34375 53.03125 
Q 30.03125 53.03125 33.6875 51.046875 
Q 37.359375 49.078125 39.65625 45.90625 
L 39.65625 71.578125 
L 48.390625 71.578125 
L 48.390625 0 
z
M 12.453125 25.875 
Q 12.453125 15.921875 16.640625 10.984375 
Q 20.84375 6.0625 26.5625 6.0625 
Q 32.328125 6.0625 36.34375 10.765625 
Q 40.375 15.484375 40.375 25.140625 
Q 40.375 35.796875 36.265625 40.765625 
Q 32.171875 45.75 26.171875 45.75 
Q 20.3125 45.75 16.375 40.96875 
Q 12.453125 36.1875 12.453125 25.875 
z
" id="ArialMT-64"/>
     <path d="M 14.703125 0 
L 6.546875 0 
L 6.546875 71.578125 
L 15.328125 71.578125 
L 15.328125 46.046875 
Q 20.90625 53.03125 29.546875 53.03125 
Q 34.328125 53.03125 38.59375 51.09375 
Q 42.875 49.171875 45.625 45.671875 
Q 48.390625 42.1875 49.953125 37.25 
Q 51.515625 32.328125 51.515625 26.703125 
Q 51.515625 13.375 44.921875 6.09375 
Q 38.328125 -1.171875 29.109375 -1.171875 
Q 19.921875 -1.171875 14.703125 6.5 
z
M 14.59375 26.3125 
Q 14.59375 17 17.140625 12.84375 
Q 21.296875 6.0625 28.375 6.0625 
Q 34.125 6.0625 38.328125 11.0625 
Q 42.53125 16.0625 42.53125 25.984375 
Q 42.53125 36.140625 38.5 40.96875 
Q 34.46875 45.796875 28.765625 45.796875 
Q 23 45.796875 18.796875 40.796875 
Q 14.59375 35.796875 14.59375 26.3125 
z
" id="ArialMT-62"/>
     <path d="M 6.59375 -19.875 
L 6.59375 51.859375 
L 14.59375 51.859375 
L 14.59375 45.125 
Q 17.4375 49.078125 21 51.046875 
Q 24.5625 53.03125 29.640625 53.03125 
Q 36.28125 53.03125 41.359375 49.609375 
Q 46.4375 46.1875 49.015625 39.953125 
Q 51.609375 33.734375 51.609375 26.3125 
Q 51.609375 18.359375 48.75 11.984375 
Q 45.90625 5.609375 40.453125 2.21875 
Q 35.015625 -1.171875 29 -1.171875 
Q 24.609375 -1.171875 21.109375 0.6875 
Q 17.625 2.546875 15.375 5.375 
L 15.375 -19.875 
z
M 14.546875 25.640625 
Q 14.546875 15.625 18.59375 10.84375 
Q 22.65625 6.0625 28.421875 6.0625 
Q 34.28125 6.0625 38.453125 11.015625 
Q 42.625 15.96875 42.625 26.375 
Q 42.625 36.28125 38.546875 41.203125 
Q 34.46875 46.140625 28.8125 46.140625 
Q 23.1875 46.140625 18.859375 40.890625 
Q 14.546875 35.640625 14.546875 25.640625 
z
" id="ArialMT-70"/>
     <path d="M 6.59375 0 
L 6.59375 51.859375 
L 14.453125 51.859375 
L 14.453125 44.578125 
Q 16.890625 48.390625 20.9375 50.703125 
Q 25 53.03125 30.171875 53.03125 
Q 35.9375 53.03125 39.625 50.640625 
Q 43.3125 48.25 44.828125 43.953125 
Q 50.984375 53.03125 60.84375 53.03125 
Q 68.5625 53.03125 72.703125 48.75 
Q 76.859375 44.484375 76.859375 35.59375 
L 76.859375 0 
L 68.109375 0 
L 68.109375 32.671875 
Q 68.109375 37.9375 67.25 40.25 
Q 66.40625 42.578125 64.15625 43.984375 
Q 61.921875 45.40625 58.890625 45.40625 
Q 53.421875 45.40625 49.796875 41.765625 
Q 46.1875 38.140625 46.1875 30.125 
L 46.1875 0 
L 37.40625 0 
L 37.40625 33.6875 
Q 37.40625 39.546875 35.25 42.46875 
Q 33.109375 45.40625 28.21875 45.40625 
Q 24.515625 45.40625 21.359375 43.453125 
Q 18.21875 41.5 16.796875 37.734375 
Q 15.375 33.984375 15.375 26.90625 
L 15.375 0 
z
" id="ArialMT-6d"/>
    </defs>
    <g style="fill:#262626;" transform="translate(98.616172 18.146781)scale(0.11 -0.11)">
     <use xlink:href="#ArialMT-4d"/>
     <use x="83.300781" xlink:href="#ArialMT-61"/>
     <use x="138.916016" xlink:href="#ArialMT-67"/>
     <use x="194.53125" xlink:href="#ArialMT-6e"/>
     <use x="250.146484" xlink:href="#ArialMT-69"/>
     <use x="272.363281" xlink:href="#ArialMT-74"/>
     <use x="300.146484" xlink:href="#ArialMT-75"/>
     <use x="355.761719" xlink:href="#ArialMT-64"/>
     <use x="411.376953" xlink:href="#ArialMT-65"/>
     <use x="466.992188" xlink:href="#ArialMT-20"/>
     <use x="494.775391" xlink:href="#ArialMT-6f"/>
     <use x="550.390625" xlink:href="#ArialMT-66"/>
     <use x="578.173828" xlink:href="#ArialMT-20"/>
     <use x="605.957031" xlink:href="#ArialMT-52"/>
     <use x="678.173828" xlink:href="#ArialMT-61"/>
     <use x="733.789062" xlink:href="#ArialMT-74"/>
     <use x="761.572266" xlink:href="#ArialMT-69"/>
     <use x="783.789062" xlink:href="#ArialMT-6f"/>
     <use x="839.404297" xlink:href="#ArialMT-20"/>
     <use x="867.1875" xlink:href="#ArialMT-62"/>
     <use x="922.802734" xlink:href="#ArialMT-61"/>
     <use x="978.417969" xlink:href="#ArialMT-73"/>
     <use x="1028.417969" xlink:href="#ArialMT-65"/>
     <use x="1084.033203" xlink:href="#ArialMT-64"/>
     <use x="1139.648438" xlink:href="#ArialMT-20"/>
     <use x="1167.431641" xlink:href="#ArialMT-6f"/>
     <use x="1223.046875" xlink:href="#ArialMT-6e"/>
     <use x="1278.662109" xlink:href="#ArialMT-20"/>
     <use x="1306.445312" xlink:href="#ArialMT-73"/>
     <use x="1356.445312" xlink:href="#ArialMT-63"/>
     <use x="1406.445312" xlink:href="#ArialMT-6f"/>
     <use x="1462.060547" xlink:href="#ArialMT-70"/>
     <use x="1517.675781" xlink:href="#ArialMT-65"/>
     <use x="1573.291016" xlink:href="#ArialMT-20"/>
     <use x="1601.074219" xlink:href="#ArialMT-6f"/>
     <use x="1656.689453" xlink:href="#ArialMT-66"/>
     <use x="1684.472656" xlink:href="#ArialMT-20"/>
     <use x="1712.255859" xlink:href="#ArialMT-6c"/>
     <use x="1734.472656" xlink:href="#ArialMT-69"/>
     <use x="1756.689453" xlink:href="#ArialMT-66"/>
     <use x="1784.472656" xlink:href="#ArialMT-65"/>
     <use x="1840.087891" xlink:href="#ArialMT-20"/>
     <use x="1867.871094" xlink:href="#ArialMT-63"/>
     <use x="1917.871094" xlink:href="#ArialMT-79"/>
     <use x="1967.871094" xlink:href="#ArialMT-63"/>
     <use x="2017.871094" xlink:href="#ArialMT-6c"/>
     <use x="2040.087891" xlink:href="#ArialMT-65"/>
     <use x="2095.703125" xlink:href="#ArialMT-20"/>
     <use x="2123.486328" xlink:href="#ArialMT-6d"/>
     <use x="2206.787109" xlink:href="#ArialMT-6f"/>
     <use x="2262.402344" xlink:href="#ArialMT-64"/>
     <use x="2318.017578" xlink:href="#ArialMT-75"/>
     <use x="2373.632812" xlink:href="#ArialMT-6c"/>
     <use x="2395.849609" xlink:href="#ArialMT-65"/>
    </g>
    <!-- for residential cases with disaggregated data -->
    <defs>
     <path d="M 6.5 0 
L 6.5 51.859375 
L 14.40625 51.859375 
L 14.40625 44 
Q 17.4375 49.515625 20 51.265625 
Q 22.5625 53.03125 25.640625 53.03125 
Q 30.078125 53.03125 34.671875 50.203125 
L 31.640625 42.046875 
Q 28.421875 43.953125 25.203125 43.953125 
Q 22.3125 43.953125 20.015625 42.21875 
Q 17.71875 40.484375 16.75 37.40625 
Q 15.28125 32.71875 15.28125 27.15625 
L 15.28125 0 
z
" id="ArialMT-72"/>
     <path d="M 16.15625 0 
L 0.296875 51.859375 
L 9.375 51.859375 
L 17.625 21.921875 
L 20.703125 10.796875 
Q 20.90625 11.625 23.390625 21.484375 
L 31.640625 51.859375 
L 40.671875 51.859375 
L 48.4375 21.78125 
L 51.03125 11.859375 
L 54 21.875 
L 62.890625 51.859375 
L 71.4375 51.859375 
L 55.21875 0 
L 46.09375 0 
L 37.84375 31.0625 
L 35.84375 39.890625 
L 25.34375 0 
z
" id="ArialMT-77"/>
     <path d="M 6.59375 0 
L 6.59375 71.578125 
L 15.375 71.578125 
L 15.375 45.90625 
Q 21.53125 53.03125 30.90625 53.03125 
Q 36.671875 53.03125 40.921875 50.75 
Q 45.171875 48.484375 47 44.484375 
Q 48.828125 40.484375 48.828125 32.859375 
L 48.828125 0 
L 40.046875 0 
L 40.046875 32.859375 
Q 40.046875 39.453125 37.1875 42.453125 
Q 34.328125 45.453125 29.109375 45.453125 
Q 25.203125 45.453125 21.75 43.421875 
Q 18.3125 41.40625 16.84375 37.9375 
Q 15.375 34.46875 15.375 28.375 
L 15.375 0 
z
" id="ArialMT-68"/>
    </defs>
    <g style="fill:#262626;" transform="translate(124.602812 30.071125)scale(0.11 -0.11)">
     <use xlink:href="#ArialMT-66"/>
     <use x="27.783203" xlink:href="#ArialMT-6f"/>
     <use x="83.398438" xlink:href="#ArialMT-72"/>
     <use x="116.699219" xlink:href="#ArialMT-20"/>
     <use x="144.482422" xlink:href="#ArialMT-72"/>
     <use x="177.783203" xlink:href="#ArialMT-65"/>
     <use x="233.398438" xlink:href="#ArialMT-73"/>
     <use x="283.398438" xlink:href="#ArialMT-69"/>
     <use x="305.615234" xlink:href="#ArialMT-64"/>
     <use x="361.230469" xlink:href="#ArialMT-65"/>
     <use x="416.845703" xlink:href="#ArialMT-6e"/>
     <use x="472.460938" xlink:href="#ArialMT-74"/>
     <use x="500.244141" xlink:href="#ArialMT-69"/>
     <use x="522.460938" xlink:href="#ArialMT-61"/>
     <use x="578.076172" xlink:href="#ArialMT-6c"/>
     <use x="600.292969" xlink:href="#ArialMT-20"/>
     <use x="628.076172" xlink:href="#ArialMT-63"/>
     <use x="678.076172" xlink:href="#ArialMT-61"/>
     <use x="733.691406" xlink:href="#ArialMT-73"/>
     <use x="783.691406" xlink:href="#ArialMT-65"/>
     <use x="839.306641" xlink:href="#ArialMT-73"/>
     <use x="889.306641" xlink:href="#ArialMT-20"/>
     <use x="917.089844" xlink:href="#ArialMT-77"/>
     <use x="989.306641" xlink:href="#ArialMT-69"/>
     <use x="1011.523438" xlink:href="#ArialMT-74"/>
     <use x="1039.306641" xlink:href="#ArialMT-68"/>
     <use x="1094.921875" xlink:href="#ArialMT-20"/>
     <use x="1122.705078" xlink:href="#ArialMT-64"/>
     <use x="1178.320312" xlink:href="#ArialMT-69"/>
     <use x="1200.537109" xlink:href="#ArialMT-73"/>
     <use x="1250.537109" xlink:href="#ArialMT-61"/>
     <use x="1306.152344" xlink:href="#ArialMT-67"/>
     <use x="1361.767578" xlink:href="#ArialMT-67"/>
     <use x="1417.382812" xlink:href="#ArialMT-72"/>
     <use x="1450.683594" xlink:href="#ArialMT-65"/>
     <use x="1506.298828" xlink:href="#ArialMT-67"/>
     <use x="1561.914062" xlink:href="#ArialMT-61"/>
     <use x="1617.529297" xlink:href="#ArialMT-74"/>
     <use x="1645.3125" xlink:href="#ArialMT-65"/>
     <use x="1700.927734" xlink:href="#ArialMT-64"/>
     <use x="1756.542969" xlink:href="#ArialMT-20"/>
     <use x="1784.326172" xlink:href="#ArialMT-64"/>
     <use x="1839.941406" xlink:href="#ArialMT-61"/>
     <use x="1895.556641" xlink:href="#ArialMT-74"/>
     <use x="1923.339844" xlink:href="#ArialMT-61"/>
    </g>
   </g>
  </g>
 </g>
 <defs>
  <clipPath id="pb3e3d81001">
   <rect height="246.260875" width="366.789" x="50.043" y="36.071125"/>
  </clipPath>
 </defs>
</svg>
