<?xml version="1.0" encoding="utf-8" standalone="no"?>
<!DOCTYPE svg PUBLIC "-//W3C//DTD SVG 1.1//EN"
  "http://www.w3.org/Graphics/SVG/1.1/DTD/svg11.dtd">
<!-- Created with matplotlib (http://matplotlib.org/) -->
<svg height="266.976pt" version="1.1" viewBox="0 0 432 266.976" width="432pt" xmlns="http://www.w3.org/2000/svg" xmlns:xlink="http://www.w3.org/1999/xlink">
 <defs>
  <style type="text/css">
*{stroke-linecap:butt;stroke-linejoin:round;}
  </style>
 </defs>
 <g id="figure_1">
  <g id="patch_1">
   <path d="M 0 266.976 
L 432 266.976 
L 432 0 
L 0 0 
z
" style="fill:#ffffff;"/>
  </g>
  <g id="axes_1">
   <g id="patch_2">
    <path d="M 52.168 144.808 
L 416.832 144.808 
L 416.832 37.168 
L 52.168 37.168 
z
" style="fill:#ffffff;"/>
   </g>
   <g id="matplotlib.axis_1">
    <g id="xtick_1">
     <g id="line2d_1">
      <defs>
       <path d="M 0 0 
L 0 4.8 
" id="m2e1e0c7ca7" style="stroke:#262626;"/>
      </defs>
      <g>
       <use style="fill:#262626;stroke:#262626;" x="72.427111" xlink:href="#m2e1e0c7ca7" y="144.808"/>
      </g>
     </g>
     <g id="text_1">
      <!-- massive concrete -->
      <defs>
       <path d="M 6.59375 0 
L 6.59375 51.859375 
L 14.453125 51.859375 
L 14.453125 44.578125 
Q 16.890625 48.390625 20.9375 50.703125 
Q 25 53.03125 30.171875 53.03125 
Q 35.9375 53.03125 39.625 50.640625 
Q 43.3125 48.25 44.828125 43.953125 
Q 50.984375 53.03125 60.84375 53.03125 
Q 68.5625 53.03125 72.703125 48.75 
Q 76.859375 44.484375 76.859375 35.59375 
L 76.859375 0 
L 68.109375 0 
L 68.109375 32.671875 
Q 68.109375 37.9375 67.25 40.25 
Q 66.40625 42.578125 64.15625 43.984375 
Q 61.921875 45.40625 58.890625 45.40625 
Q 53.421875 45.40625 49.796875 41.765625 
Q 46.1875 38.140625 46.1875 30.125 
L 46.1875 0 
L 37.40625 0 
L 37.40625 33.6875 
Q 37.40625 39.546875 35.25 42.46875 
Q 33.109375 45.40625 28.21875 45.40625 
Q 24.515625 45.40625 21.359375 43.453125 
Q 18.21875 41.5 16.796875 37.734375 
Q 15.375 33.984375 15.375 26.90625 
L 15.375 0 
z
" id="ArialMT-6d"/>
       <path d="M 40.4375 6.390625 
Q 35.546875 2.25 31.03125 0.53125 
Q 26.515625 -1.171875 21.34375 -1.171875 
Q 12.796875 -1.171875 8.203125 3 
Q 3.609375 7.171875 3.609375 13.671875 
Q 3.609375 17.484375 5.34375 20.625 
Q 7.078125 23.78125 9.890625 25.6875 
Q 12.703125 27.59375 16.21875 28.5625 
Q 18.796875 29.25 24.03125 29.890625 
Q 34.671875 31.15625 39.703125 32.90625 
Q 39.75 34.71875 39.75 35.203125 
Q 39.75 40.578125 37.25 42.78125 
Q 33.890625 45.75 27.25 45.75 
Q 21.046875 45.75 18.09375 43.578125 
Q 15.140625 41.40625 13.71875 35.890625 
L 5.125 37.0625 
Q 6.296875 42.578125 8.984375 45.96875 
Q 11.671875 49.359375 16.75 51.1875 
Q 21.828125 53.03125 28.515625 53.03125 
Q 35.15625 53.03125 39.296875 51.46875 
Q 43.453125 49.90625 45.40625 47.53125 
Q 47.359375 45.171875 48.140625 41.546875 
Q 48.578125 39.3125 48.578125 33.453125 
L 48.578125 21.734375 
Q 48.578125 9.46875 49.140625 6.21875 
Q 49.703125 2.984375 51.375 0 
L 42.1875 0 
Q 40.828125 2.734375 40.4375 6.390625 
z
M 39.703125 26.03125 
Q 34.90625 24.078125 25.34375 22.703125 
Q 19.921875 21.921875 17.671875 20.9375 
Q 15.4375 19.96875 14.203125 18.09375 
Q 12.984375 16.21875 12.984375 13.921875 
Q 12.984375 10.40625 15.640625 8.0625 
Q 18.3125 5.71875 23.4375 5.71875 
Q 28.515625 5.71875 32.46875 7.9375 
Q 36.421875 10.15625 38.28125 14.015625 
Q 39.703125 17 39.703125 22.796875 
z
" id="ArialMT-61"/>
       <path d="M 3.078125 15.484375 
L 11.765625 16.84375 
Q 12.5 11.625 15.84375 8.84375 
Q 19.1875 6.0625 25.203125 6.0625 
Q 31.25 6.0625 34.171875 8.515625 
Q 37.109375 10.984375 37.109375 14.3125 
Q 37.109375 17.28125 34.515625 19 
Q 32.71875 20.171875 25.53125 21.96875 
Q 15.875 24.421875 12.140625 26.203125 
Q 8.40625 27.984375 6.46875 31.125 
Q 4.546875 34.28125 4.546875 38.09375 
Q 4.546875 41.546875 6.125 44.5 
Q 7.71875 47.46875 10.453125 49.421875 
Q 12.5 50.921875 16.03125 51.96875 
Q 19.578125 53.03125 23.640625 53.03125 
Q 29.734375 53.03125 34.34375 51.265625 
Q 38.96875 49.515625 41.15625 46.5 
Q 43.359375 43.5 44.1875 38.484375 
L 35.59375 37.3125 
Q 35.015625 41.3125 32.203125 43.546875 
Q 29.390625 45.796875 24.265625 45.796875 
Q 18.21875 45.796875 15.625 43.796875 
Q 13.03125 41.796875 13.03125 39.109375 
Q 13.03125 37.40625 14.109375 36.03125 
Q 15.1875 34.625 17.484375 33.6875 
Q 18.796875 33.203125 25.25 31.453125 
Q 34.578125 28.953125 38.25 27.359375 
Q 41.9375 25.78125 44.03125 22.75 
Q 46.140625 19.734375 46.140625 15.234375 
Q 46.140625 10.84375 43.578125 6.953125 
Q 41.015625 3.078125 36.171875 0.953125 
Q 31.34375 -1.171875 25.25 -1.171875 
Q 15.140625 -1.171875 9.84375 3.03125 
Q 4.546875 7.234375 3.078125 15.484375 
z
" id="ArialMT-73"/>
       <path d="M 6.640625 61.46875 
L 6.640625 71.578125 
L 15.4375 71.578125 
L 15.4375 61.46875 
z
M 6.640625 0 
L 6.640625 51.859375 
L 15.4375 51.859375 
L 15.4375 0 
z
" id="ArialMT-69"/>
       <path d="M 21 0 
L 1.265625 51.859375 
L 10.546875 51.859375 
L 21.6875 20.796875 
Q 23.484375 15.765625 25 10.359375 
Q 26.171875 14.453125 28.265625 20.21875 
L 39.796875 51.859375 
L 48.828125 51.859375 
L 29.203125 0 
z
" id="ArialMT-76"/>
       <path d="M 42.09375 16.703125 
L 51.171875 15.578125 
Q 49.03125 7.625 43.21875 3.21875 
Q 37.40625 -1.171875 28.375 -1.171875 
Q 17 -1.171875 10.328125 5.828125 
Q 3.65625 12.84375 3.65625 25.484375 
Q 3.65625 38.578125 10.390625 45.796875 
Q 17.140625 53.03125 27.875 53.03125 
Q 38.28125 53.03125 44.875 45.953125 
Q 51.46875 38.875 51.46875 26.03125 
Q 51.46875 25.25 51.421875 23.6875 
L 12.75 23.6875 
Q 13.234375 15.140625 17.578125 10.59375 
Q 21.921875 6.0625 28.421875 6.0625 
Q 33.25 6.0625 36.671875 8.59375 
Q 40.09375 11.140625 42.09375 16.703125 
z
M 13.234375 30.90625 
L 42.1875 30.90625 
Q 41.609375 37.453125 38.875 40.71875 
Q 34.671875 45.796875 27.984375 45.796875 
Q 21.921875 45.796875 17.796875 41.75 
Q 13.671875 37.703125 13.234375 30.90625 
z
" id="ArialMT-65"/>
       <path id="ArialMT-20"/>
       <path d="M 40.4375 19 
L 49.078125 17.875 
Q 47.65625 8.9375 41.8125 3.875 
Q 35.984375 -1.171875 27.484375 -1.171875 
Q 16.84375 -1.171875 10.375 5.78125 
Q 3.90625 12.75 3.90625 25.734375 
Q 3.90625 34.125 6.6875 40.421875 
Q 9.46875 46.734375 15.15625 49.875 
Q 20.84375 53.03125 27.546875 53.03125 
Q 35.984375 53.03125 41.359375 48.75 
Q 46.734375 44.484375 48.25 36.625 
L 39.703125 35.296875 
Q 38.484375 40.53125 35.375 43.15625 
Q 32.28125 45.796875 27.875 45.796875 
Q 21.234375 45.796875 17.078125 41.03125 
Q 12.9375 36.28125 12.9375 25.984375 
Q 12.9375 15.53125 16.9375 10.796875 
Q 20.953125 6.0625 27.390625 6.0625 
Q 32.5625 6.0625 36.03125 9.234375 
Q 39.5 12.40625 40.4375 19 
z
" id="ArialMT-63"/>
       <path d="M 3.328125 25.921875 
Q 3.328125 40.328125 11.328125 47.265625 
Q 18.015625 53.03125 27.640625 53.03125 
Q 38.328125 53.03125 45.109375 46.015625 
Q 51.90625 39.015625 51.90625 26.65625 
Q 51.90625 16.65625 48.90625 10.90625 
Q 45.90625 5.171875 40.15625 2 
Q 34.421875 -1.171875 27.640625 -1.171875 
Q 16.75 -1.171875 10.03125 5.8125 
Q 3.328125 12.796875 3.328125 25.921875 
z
M 12.359375 25.921875 
Q 12.359375 15.96875 16.703125 11.015625 
Q 21.046875 6.0625 27.640625 6.0625 
Q 34.1875 6.0625 38.53125 11.03125 
Q 42.875 16.015625 42.875 26.21875 
Q 42.875 35.84375 38.5 40.796875 
Q 34.125 45.75 27.640625 45.75 
Q 21.046875 45.75 16.703125 40.8125 
Q 12.359375 35.890625 12.359375 25.921875 
z
" id="ArialMT-6f"/>
       <path d="M 6.59375 0 
L 6.59375 51.859375 
L 14.5 51.859375 
L 14.5 44.484375 
Q 20.21875 53.03125 31 53.03125 
Q 35.6875 53.03125 39.625 51.34375 
Q 43.5625 49.65625 45.515625 46.921875 
Q 47.46875 44.1875 48.25 40.4375 
Q 48.734375 37.984375 48.734375 31.890625 
L 48.734375 0 
L 39.9375 0 
L 39.9375 31.546875 
Q 39.9375 36.921875 38.90625 39.578125 
Q 37.890625 42.234375 35.28125 43.8125 
Q 32.671875 45.40625 29.15625 45.40625 
Q 23.53125 45.40625 19.453125 41.84375 
Q 15.375 38.28125 15.375 28.328125 
L 15.375 0 
z
" id="ArialMT-6e"/>
       <path d="M 6.5 0 
L 6.5 51.859375 
L 14.40625 51.859375 
L 14.40625 44 
Q 17.4375 49.515625 20 51.265625 
Q 22.5625 53.03125 25.640625 53.03125 
Q 30.078125 53.03125 34.671875 50.203125 
L 31.640625 42.046875 
Q 28.421875 43.953125 25.203125 43.953125 
Q 22.3125 43.953125 20.015625 42.21875 
Q 17.71875 40.484375 16.75 37.40625 
Q 15.28125 32.71875 15.28125 27.15625 
L 15.28125 0 
z
" id="ArialMT-72"/>
       <path d="M 25.78125 7.859375 
L 27.046875 0.09375 
Q 23.34375 -0.6875 20.40625 -0.6875 
Q 15.625 -0.6875 12.984375 0.828125 
Q 10.359375 2.34375 9.28125 4.8125 
Q 8.203125 7.28125 8.203125 15.1875 
L 8.203125 45.015625 
L 1.765625 45.015625 
L 1.765625 51.859375 
L 8.203125 51.859375 
L 8.203125 64.703125 
L 16.9375 69.96875 
L 16.9375 51.859375 
L 25.78125 51.859375 
L 25.78125 45.015625 
L 16.9375 45.015625 
L 16.9375 14.703125 
Q 16.9375 10.9375 17.40625 9.859375 
Q 17.875 8.796875 18.921875 8.15625 
Q 19.96875 7.515625 21.921875 7.515625 
Q 23.390625 7.515625 25.78125 7.859375 
z
" id="ArialMT-74"/>
      </defs>
      <g style="fill:#262626;" transform="translate(74.753752 223.130812)rotate(-90)scale(0.09 -0.09)">
       <use xlink:href="#ArialMT-6d"/>
       <use x="83.300781" xlink:href="#ArialMT-61"/>
       <use x="138.916016" xlink:href="#ArialMT-73"/>
       <use x="188.916016" xlink:href="#ArialMT-73"/>
       <use x="238.916016" xlink:href="#ArialMT-69"/>
       <use x="261.132812" xlink:href="#ArialMT-76"/>
       <use x="311.132812" xlink:href="#ArialMT-65"/>
       <use x="366.748047" xlink:href="#ArialMT-20"/>
       <use x="394.53125" xlink:href="#ArialMT-63"/>
       <use x="444.53125" xlink:href="#ArialMT-6f"/>
       <use x="500.146484" xlink:href="#ArialMT-6e"/>
       <use x="555.761719" xlink:href="#ArialMT-63"/>
       <use x="605.761719" xlink:href="#ArialMT-72"/>
       <use x="639.0625" xlink:href="#ArialMT-65"/>
       <use x="694.677734" xlink:href="#ArialMT-74"/>
       <use x="722.460938" xlink:href="#ArialMT-65"/>
      </g>
     </g>
    </g>
    <g id="xtick_2">
     <g id="line2d_2">
      <g>
       <use style="fill:#262626;stroke:#262626;" x="112.945333" xlink:href="#m2e1e0c7ca7" y="144.808"/>
      </g>
     </g>
     <g id="text_2">
      <!-- massive brick -->
      <defs>
       <path d="M 14.703125 0 
L 6.546875 0 
L 6.546875 71.578125 
L 15.328125 71.578125 
L 15.328125 46.046875 
Q 20.90625 53.03125 29.546875 53.03125 
Q 34.328125 53.03125 38.59375 51.09375 
Q 42.875 49.171875 45.625 45.671875 
Q 48.390625 42.1875 49.953125 37.25 
Q 51.515625 32.328125 51.515625 26.703125 
Q 51.515625 13.375 44.921875 6.09375 
Q 38.328125 -1.171875 29.109375 -1.171875 
Q 19.921875 -1.171875 14.703125 6.5 
z
M 14.59375 26.3125 
Q 14.59375 17 17.140625 12.84375 
Q 21.296875 6.0625 28.375 6.0625 
Q 34.125 6.0625 38.328125 11.0625 
Q 42.53125 16.0625 42.53125 25.984375 
Q 42.53125 36.140625 38.5 40.96875 
Q 34.46875 45.796875 28.765625 45.796875 
Q 23 45.796875 18.796875 40.796875 
Q 14.59375 35.796875 14.59375 26.3125 
z
" id="ArialMT-62"/>
       <path d="M 6.640625 0 
L 6.640625 71.578125 
L 15.4375 71.578125 
L 15.4375 30.765625 
L 36.234375 51.859375 
L 47.609375 51.859375 
L 27.78125 32.625 
L 49.609375 0 
L 38.765625 0 
L 21.625 26.515625 
L 15.4375 20.5625 
L 15.4375 0 
z
" id="ArialMT-6b"/>
      </defs>
      <g style="fill:#262626;" transform="translate(115.271974 207.615656)rotate(-90)scale(0.09 -0.09)">
       <use xlink:href="#ArialMT-6d"/>
       <use x="83.300781" xlink:href="#ArialMT-61"/>
       <use x="138.916016" xlink:href="#ArialMT-73"/>
       <use x="188.916016" xlink:href="#ArialMT-73"/>
       <use x="238.916016" xlink:href="#ArialMT-69"/>
       <use x="261.132812" xlink:href="#ArialMT-76"/>
       <use x="311.132812" xlink:href="#ArialMT-65"/>
       <use x="366.748047" xlink:href="#ArialMT-20"/>
       <use x="394.53125" xlink:href="#ArialMT-62"/>
       <use x="450.146484" xlink:href="#ArialMT-72"/>
       <use x="483.447266" xlink:href="#ArialMT-69"/>
       <use x="505.664062" xlink:href="#ArialMT-63"/>
       <use x="555.664062" xlink:href="#ArialMT-6b"/>
      </g>
     </g>
    </g>
    <g id="xtick_3">
     <g id="line2d_3">
      <g>
       <use style="fill:#262626;stroke:#262626;" x="153.463556" xlink:href="#m2e1e0c7ca7" y="144.808"/>
      </g>
     </g>
     <g id="text_3">
      <!-- massive wood -->
      <defs>
       <path d="M 16.15625 0 
L 0.296875 51.859375 
L 9.375 51.859375 
L 17.625 21.921875 
L 20.703125 10.796875 
Q 20.90625 11.625 23.390625 21.484375 
L 31.640625 51.859375 
L 40.671875 51.859375 
L 48.4375 21.78125 
L 51.03125 11.859375 
L 54 21.875 
L 62.890625 51.859375 
L 71.4375 51.859375 
L 55.21875 0 
L 46.09375 0 
L 37.84375 31.0625 
L 35.84375 39.890625 
L 25.34375 0 
z
" id="ArialMT-77"/>
       <path d="M 40.234375 0 
L 40.234375 6.546875 
Q 35.296875 -1.171875 25.734375 -1.171875 
Q 19.53125 -1.171875 14.328125 2.25 
Q 9.125 5.671875 6.265625 11.796875 
Q 3.421875 17.921875 3.421875 25.875 
Q 3.421875 33.640625 6 39.96875 
Q 8.59375 46.296875 13.765625 49.65625 
Q 18.953125 53.03125 25.34375 53.03125 
Q 30.03125 53.03125 33.6875 51.046875 
Q 37.359375 49.078125 39.65625 45.90625 
L 39.65625 71.578125 
L 48.390625 71.578125 
L 48.390625 0 
z
M 12.453125 25.875 
Q 12.453125 15.921875 16.640625 10.984375 
Q 20.84375 6.0625 26.5625 6.0625 
Q 32.328125 6.0625 36.34375 10.765625 
Q 40.375 15.484375 40.375 25.140625 
Q 40.375 35.796875 36.265625 40.765625 
Q 32.171875 45.75 26.171875 45.75 
Q 20.3125 45.75 16.375 40.96875 
Q 12.453125 36.1875 12.453125 25.875 
z
" id="ArialMT-64"/>
      </defs>
      <g style="fill:#262626;" transform="translate(155.790196 210.128625)rotate(-90)scale(0.09 -0.09)">
       <use xlink:href="#ArialMT-6d"/>
       <use x="83.300781" xlink:href="#ArialMT-61"/>
       <use x="138.916016" xlink:href="#ArialMT-73"/>
       <use x="188.916016" xlink:href="#ArialMT-73"/>
       <use x="238.916016" xlink:href="#ArialMT-69"/>
       <use x="261.132812" xlink:href="#ArialMT-76"/>
       <use x="311.132812" xlink:href="#ArialMT-65"/>
       <use x="366.748047" xlink:href="#ArialMT-20"/>
       <use x="394.53125" xlink:href="#ArialMT-77"/>
       <use x="466.748047" xlink:href="#ArialMT-6f"/>
       <use x="522.363281" xlink:href="#ArialMT-6f"/>
       <use x="577.978516" xlink:href="#ArialMT-64"/>
      </g>
     </g>
    </g>
    <g id="xtick_4">
     <g id="line2d_4">
      <g>
       <use style="fill:#262626;stroke:#262626;" x="193.981778" xlink:href="#m2e1e0c7ca7" y="144.808"/>
      </g>
     </g>
     <g id="text_4">
      <!-- frame concrete -->
      <defs>
       <path d="M 8.6875 0 
L 8.6875 45.015625 
L 0.921875 45.015625 
L 0.921875 51.859375 
L 8.6875 51.859375 
L 8.6875 57.375 
Q 8.6875 62.59375 9.625 65.140625 
Q 10.890625 68.5625 14.078125 70.671875 
Q 17.28125 72.796875 23.046875 72.796875 
Q 26.765625 72.796875 31.25 71.921875 
L 29.9375 64.265625 
Q 27.203125 64.75 24.75 64.75 
Q 20.75 64.75 19.09375 63.03125 
Q 17.4375 61.328125 17.4375 56.640625 
L 17.4375 51.859375 
L 27.546875 51.859375 
L 27.546875 45.015625 
L 17.4375 45.015625 
L 17.4375 0 
z
" id="ArialMT-66"/>
      </defs>
      <g style="fill:#262626;" transform="translate(196.308418 213.128156)rotate(-90)scale(0.09 -0.09)">
       <use xlink:href="#ArialMT-66"/>
       <use x="27.783203" xlink:href="#ArialMT-72"/>
       <use x="61.083984" xlink:href="#ArialMT-61"/>
       <use x="116.699219" xlink:href="#ArialMT-6d"/>
       <use x="200" xlink:href="#ArialMT-65"/>
       <use x="255.615234" xlink:href="#ArialMT-20"/>
       <use x="283.398438" xlink:href="#ArialMT-63"/>
       <use x="333.398438" xlink:href="#ArialMT-6f"/>
       <use x="389.013672" xlink:href="#ArialMT-6e"/>
       <use x="444.628906" xlink:href="#ArialMT-63"/>
       <use x="494.628906" xlink:href="#ArialMT-72"/>
       <use x="527.929688" xlink:href="#ArialMT-65"/>
       <use x="583.544922" xlink:href="#ArialMT-74"/>
       <use x="611.328125" xlink:href="#ArialMT-65"/>
      </g>
     </g>
    </g>
    <g id="xtick_5">
     <g id="line2d_5">
      <g>
       <use style="fill:#262626;stroke:#262626;" x="234.5" xlink:href="#m2e1e0c7ca7" y="144.808"/>
      </g>
     </g>
     <g id="text_5">
      <!-- frame concrete/wood -->
      <defs>
       <path d="M 0 -1.21875 
L 20.75 72.796875 
L 27.78125 72.796875 
L 7.078125 -1.21875 
z
" id="ArialMT-2f"/>
      </defs>
      <g style="fill:#262626;" transform="translate(236.826641 237.142688)rotate(-90)scale(0.09 -0.09)">
       <use xlink:href="#ArialMT-66"/>
       <use x="27.783203" xlink:href="#ArialMT-72"/>
       <use x="61.083984" xlink:href="#ArialMT-61"/>
       <use x="116.699219" xlink:href="#ArialMT-6d"/>
       <use x="200" xlink:href="#ArialMT-65"/>
       <use x="255.615234" xlink:href="#ArialMT-20"/>
       <use x="283.398438" xlink:href="#ArialMT-63"/>
       <use x="333.398438" xlink:href="#ArialMT-6f"/>
       <use x="389.013672" xlink:href="#ArialMT-6e"/>
       <use x="444.628906" xlink:href="#ArialMT-63"/>
       <use x="494.628906" xlink:href="#ArialMT-72"/>
       <use x="527.929688" xlink:href="#ArialMT-65"/>
       <use x="583.544922" xlink:href="#ArialMT-74"/>
       <use x="611.328125" xlink:href="#ArialMT-65"/>
       <use x="666.943359" xlink:href="#ArialMT-2f"/>
       <use x="694.726562" xlink:href="#ArialMT-77"/>
       <use x="766.943359" xlink:href="#ArialMT-6f"/>
       <use x="822.558594" xlink:href="#ArialMT-6f"/>
       <use x="878.173828" xlink:href="#ArialMT-64"/>
      </g>
     </g>
    </g>
    <g id="xtick_6">
     <g id="line2d_6">
      <g>
       <use style="fill:#262626;stroke:#262626;" x="275.018222" xlink:href="#m2e1e0c7ca7" y="144.808"/>
      </g>
     </g>
     <g id="text_6">
      <!-- frame wood -->
      <g style="fill:#262626;" transform="translate(277.344863 200.125969)rotate(-90)scale(0.09 -0.09)">
       <use xlink:href="#ArialMT-66"/>
       <use x="27.783203" xlink:href="#ArialMT-72"/>
       <use x="61.083984" xlink:href="#ArialMT-61"/>
       <use x="116.699219" xlink:href="#ArialMT-6d"/>
       <use x="200" xlink:href="#ArialMT-65"/>
       <use x="255.615234" xlink:href="#ArialMT-20"/>
       <use x="283.398438" xlink:href="#ArialMT-77"/>
       <use x="355.615234" xlink:href="#ArialMT-6f"/>
       <use x="411.230469" xlink:href="#ArialMT-6f"/>
       <use x="466.845703" xlink:href="#ArialMT-64"/>
      </g>
     </g>
    </g>
    <g id="xtick_7">
     <g id="line2d_7">
      <g>
       <use style="fill:#262626;stroke:#262626;" x="315.536444" xlink:href="#m2e1e0c7ca7" y="144.808"/>
      </g>
     </g>
     <g id="text_7">
      <!-- frame steel -->
      <defs>
       <path d="M 6.390625 0 
L 6.390625 71.578125 
L 15.1875 71.578125 
L 15.1875 0 
z
" id="ArialMT-6c"/>
      </defs>
      <g style="fill:#262626;" transform="translate(317.863085 197.621438)rotate(-90)scale(0.09 -0.09)">
       <use xlink:href="#ArialMT-66"/>
       <use x="27.783203" xlink:href="#ArialMT-72"/>
       <use x="61.083984" xlink:href="#ArialMT-61"/>
       <use x="116.699219" xlink:href="#ArialMT-6d"/>
       <use x="200" xlink:href="#ArialMT-65"/>
       <use x="255.615234" xlink:href="#ArialMT-20"/>
       <use x="283.398438" xlink:href="#ArialMT-73"/>
       <use x="333.398438" xlink:href="#ArialMT-74"/>
       <use x="361.181641" xlink:href="#ArialMT-65"/>
       <use x="416.796875" xlink:href="#ArialMT-65"/>
       <use x="472.412109" xlink:href="#ArialMT-6c"/>
      </g>
     </g>
    </g>
    <g id="xtick_8">
     <g id="line2d_8">
      <g>
       <use style="fill:#262626;stroke:#262626;" x="356.054667" xlink:href="#m2e1e0c7ca7" y="144.808"/>
      </g>
     </g>
     <g id="text_8">
      <!-- other -->
      <defs>
       <path d="M 6.59375 0 
L 6.59375 71.578125 
L 15.375 71.578125 
L 15.375 45.90625 
Q 21.53125 53.03125 30.90625 53.03125 
Q 36.671875 53.03125 40.921875 50.75 
Q 45.171875 48.484375 47 44.484375 
Q 48.828125 40.484375 48.828125 32.859375 
L 48.828125 0 
L 40.046875 0 
L 40.046875 32.859375 
Q 40.046875 39.453125 37.1875 42.453125 
Q 34.328125 45.453125 29.109375 45.453125 
Q 25.203125 45.453125 21.75 43.421875 
Q 18.3125 41.40625 16.84375 37.9375 
Q 15.375 34.46875 15.375 28.375 
L 15.375 0 
z
" id="ArialMT-68"/>
      </defs>
      <g style="fill:#262626;" transform="translate(358.381307 173.619563)rotate(-90)scale(0.09 -0.09)">
       <use xlink:href="#ArialMT-6f"/>
       <use x="55.615234" xlink:href="#ArialMT-74"/>
       <use x="83.398438" xlink:href="#ArialMT-68"/>
       <use x="139.013672" xlink:href="#ArialMT-65"/>
       <use x="194.628906" xlink:href="#ArialMT-72"/>
      </g>
     </g>
    </g>
    <g id="xtick_9">
     <g id="line2d_9">
      <g>
       <use style="fill:#262626;stroke:#262626;" x="396.572889" xlink:href="#m2e1e0c7ca7" y="144.808"/>
      </g>
     </g>
     <g id="text_9">
      <!-- No data -->
      <defs>
       <path d="M 7.625 0 
L 7.625 71.578125 
L 17.328125 71.578125 
L 54.9375 15.375 
L 54.9375 71.578125 
L 64.015625 71.578125 
L 64.015625 0 
L 54.296875 0 
L 16.703125 56.25 
L 16.703125 0 
z
" id="ArialMT-4e"/>
      </defs>
      <g style="fill:#262626;" transform="translate(398.89953 184.627688)rotate(-90)scale(0.09 -0.09)">
       <use xlink:href="#ArialMT-4e"/>
       <use x="72.216797" xlink:href="#ArialMT-6f"/>
       <use x="127.832031" xlink:href="#ArialMT-20"/>
       <use x="155.615234" xlink:href="#ArialMT-64"/>
       <use x="211.230469" xlink:href="#ArialMT-61"/>
       <use x="266.845703" xlink:href="#ArialMT-74"/>
       <use x="294.628906" xlink:href="#ArialMT-61"/>
      </g>
     </g>
    </g>
    <g id="text_10">
     <!-- building structure type -->
     <defs>
      <path d="M 40.578125 0 
L 40.578125 7.625 
Q 34.515625 -1.171875 24.125 -1.171875 
Q 19.53125 -1.171875 15.546875 0.578125 
Q 11.578125 2.34375 9.640625 5 
Q 7.71875 7.671875 6.9375 11.53125 
Q 6.390625 14.109375 6.390625 19.734375 
L 6.390625 51.859375 
L 15.1875 51.859375 
L 15.1875 23.09375 
Q 15.1875 16.21875 15.71875 13.8125 
Q 16.546875 10.359375 19.234375 8.375 
Q 21.921875 6.390625 25.875 6.390625 
Q 29.828125 6.390625 33.296875 8.421875 
Q 36.765625 10.453125 38.203125 13.9375 
Q 39.65625 17.4375 39.65625 24.078125 
L 39.65625 51.859375 
L 48.4375 51.859375 
L 48.4375 0 
z
" id="ArialMT-75"/>
      <path d="M 4.984375 -4.296875 
L 13.53125 -5.5625 
Q 14.0625 -9.515625 16.5 -11.328125 
Q 19.78125 -13.765625 25.4375 -13.765625 
Q 31.546875 -13.765625 34.859375 -11.328125 
Q 38.1875 -8.890625 39.359375 -4.5 
Q 40.046875 -1.8125 39.984375 6.78125 
Q 34.234375 0 25.640625 0 
Q 14.9375 0 9.078125 7.71875 
Q 3.21875 15.4375 3.21875 26.21875 
Q 3.21875 33.640625 5.90625 39.90625 
Q 8.59375 46.1875 13.6875 49.609375 
Q 18.796875 53.03125 25.6875 53.03125 
Q 34.859375 53.03125 40.828125 45.609375 
L 40.828125 51.859375 
L 48.921875 51.859375 
L 48.921875 7.03125 
Q 48.921875 -5.078125 46.453125 -10.125 
Q 44 -15.1875 38.640625 -18.109375 
Q 33.296875 -21.046875 25.484375 -21.046875 
Q 16.21875 -21.046875 10.5 -16.875 
Q 4.78125 -12.703125 4.984375 -4.296875 
z
M 12.25 26.859375 
Q 12.25 16.65625 16.296875 11.96875 
Q 20.359375 7.28125 26.46875 7.28125 
Q 32.515625 7.28125 36.609375 11.9375 
Q 40.71875 16.609375 40.71875 26.5625 
Q 40.71875 36.078125 36.5 40.90625 
Q 32.28125 45.75 26.3125 45.75 
Q 20.453125 45.75 16.34375 40.984375 
Q 12.25 36.234375 12.25 26.859375 
z
" id="ArialMT-67"/>
      <path d="M 6.203125 -19.96875 
L 5.21875 -11.71875 
Q 8.109375 -12.5 10.25 -12.5 
Q 13.1875 -12.5 14.9375 -11.515625 
Q 16.703125 -10.546875 17.828125 -8.796875 
Q 18.65625 -7.46875 20.515625 -2.25 
Q 20.75 -1.515625 21.296875 -0.09375 
L 1.609375 51.859375 
L 11.078125 51.859375 
L 21.875 21.828125 
Q 23.96875 16.109375 25.640625 9.8125 
Q 27.15625 15.875 29.25 21.625 
L 40.328125 51.859375 
L 49.125 51.859375 
L 29.390625 -0.875 
Q 26.21875 -9.421875 24.46875 -12.640625 
Q 22.125 -17 19.09375 -19.015625 
Q 16.0625 -21.046875 11.859375 -21.046875 
Q 9.328125 -21.046875 6.203125 -19.96875 
z
" id="ArialMT-79"/>
      <path d="M 6.59375 -19.875 
L 6.59375 51.859375 
L 14.59375 51.859375 
L 14.59375 45.125 
Q 17.4375 49.078125 21 51.046875 
Q 24.5625 53.03125 29.640625 53.03125 
Q 36.28125 53.03125 41.359375 49.609375 
Q 46.4375 46.1875 49.015625 39.953125 
Q 51.609375 33.734375 51.609375 26.3125 
Q 51.609375 18.359375 48.75 11.984375 
Q 45.90625 5.609375 40.453125 2.21875 
Q 35.015625 -1.171875 29 -1.171875 
Q 24.609375 -1.171875 21.109375 0.6875 
Q 17.625 2.546875 15.375 5.375 
L 15.375 -19.875 
z
M 14.546875 25.640625 
Q 14.546875 15.625 18.59375 10.84375 
Q 22.65625 6.0625 28.421875 6.0625 
Q 34.28125 6.0625 38.453125 11.015625 
Q 42.625 15.96875 42.625 26.375 
Q 42.625 36.28125 38.546875 41.203125 
Q 34.46875 46.140625 28.8125 46.140625 
Q 23.1875 46.140625 18.859375 40.890625 
Q 14.546875 35.640625 14.546875 25.640625 
z
" id="ArialMT-70"/>
     </defs>
     <g style="fill:#262626;" transform="translate(185.5875 254.3005)scale(0.1 -0.1)">
      <use xlink:href="#ArialMT-62"/>
      <use x="55.615234" xlink:href="#ArialMT-75"/>
      <use x="111.230469" xlink:href="#ArialMT-69"/>
      <use x="133.447266" xlink:href="#ArialMT-6c"/>
      <use x="155.664062" xlink:href="#ArialMT-64"/>
      <use x="211.279297" xlink:href="#ArialMT-69"/>
      <use x="233.496094" xlink:href="#ArialMT-6e"/>
      <use x="289.111328" xlink:href="#ArialMT-67"/>
      <use x="344.726562" xlink:href="#ArialMT-20"/>
      <use x="372.509766" xlink:href="#ArialMT-73"/>
      <use x="422.509766" xlink:href="#ArialMT-74"/>
      <use x="450.292969" xlink:href="#ArialMT-72"/>
      <use x="483.59375" xlink:href="#ArialMT-75"/>
      <use x="539.208984" xlink:href="#ArialMT-63"/>
      <use x="589.208984" xlink:href="#ArialMT-74"/>
      <use x="616.992188" xlink:href="#ArialMT-75"/>
      <use x="672.607422" xlink:href="#ArialMT-72"/>
      <use x="705.908203" xlink:href="#ArialMT-65"/>
      <use x="761.523438" xlink:href="#ArialMT-20"/>
      <use x="789.306641" xlink:href="#ArialMT-74"/>
      <use x="817.089844" xlink:href="#ArialMT-79"/>
      <use x="867.089844" xlink:href="#ArialMT-70"/>
      <use x="922.705078" xlink:href="#ArialMT-65"/>
     </g>
    </g>
   </g>
   <g id="matplotlib.axis_2">
    <g id="ytick_1">
     <g id="line2d_10">
      <path clip-path="url(#p043267955c)" d="M 52.168 144.808 
L 416.832 144.808 
" style="fill:none;stroke:#cccccc;stroke-linecap:round;stroke-width:0.8;"/>
     </g>
     <g id="line2d_11">
      <defs>
       <path d="M 0 0 
L -4.8 0 
" id="m80ddb4307a" style="stroke:#262626;"/>
      </defs>
      <g>
       <use style="fill:#262626;stroke:#262626;" x="52.168" xlink:href="#m80ddb4307a" y="144.808"/>
      </g>
     </g>
     <g id="text_11">
      <!-- 0 -->
      <defs>
       <path d="M 4.15625 35.296875 
Q 4.15625 48 6.765625 55.734375 
Q 9.375 63.484375 14.515625 67.671875 
Q 19.671875 71.875 27.484375 71.875 
Q 33.25 71.875 37.59375 69.546875 
Q 41.9375 67.234375 44.765625 62.859375 
Q 47.609375 58.5 49.21875 52.21875 
Q 50.828125 45.953125 50.828125 35.296875 
Q 50.828125 22.703125 48.234375 14.96875 
Q 45.65625 7.234375 40.5 3 
Q 35.359375 -1.21875 27.484375 -1.21875 
Q 17.140625 -1.21875 11.234375 6.203125 
Q 4.15625 15.140625 4.15625 35.296875 
z
M 13.1875 35.296875 
Q 13.1875 17.671875 17.3125 11.828125 
Q 21.4375 6 27.484375 6 
Q 33.546875 6 37.671875 11.859375 
Q 41.796875 17.71875 41.796875 35.296875 
Q 41.796875 52.984375 37.671875 58.78125 
Q 33.546875 64.59375 27.390625 64.59375 
Q 21.34375 64.59375 17.71875 59.46875 
Q 13.1875 52.9375 13.1875 35.296875 
z
" id="ArialMT-30"/>
      </defs>
      <g style="fill:#262626;" transform="translate(38.974375 147.957438)scale(0.088 -0.088)">
       <use xlink:href="#ArialMT-30"/>
      </g>
     </g>
    </g>
    <g id="ytick_2">
     <g id="line2d_12">
      <path clip-path="url(#p043267955c)" d="M 52.168 117.898 
L 416.832 117.898 
" style="fill:none;stroke:#cccccc;stroke-linecap:round;stroke-width:0.8;"/>
     </g>
     <g id="line2d_13">
      <g>
       <use style="fill:#262626;stroke:#262626;" x="52.168" xlink:href="#m80ddb4307a" y="117.898"/>
      </g>
     </g>
     <g id="text_12">
      <!-- 500 -->
      <defs>
       <path d="M 4.15625 18.75 
L 13.375 19.53125 
Q 14.40625 12.796875 18.140625 9.390625 
Q 21.875 6 27.15625 6 
Q 33.5 6 37.890625 10.78125 
Q 42.28125 15.578125 42.28125 23.484375 
Q 42.28125 31 38.0625 35.34375 
Q 33.84375 39.703125 27 39.703125 
Q 22.75 39.703125 19.328125 37.765625 
Q 15.921875 35.84375 13.96875 32.765625 
L 5.71875 33.84375 
L 12.640625 70.609375 
L 48.25 70.609375 
L 48.25 62.203125 
L 19.671875 62.203125 
L 15.828125 42.96875 
Q 22.265625 47.46875 29.34375 47.46875 
Q 38.71875 47.46875 45.15625 40.96875 
Q 51.609375 34.46875 51.609375 24.265625 
Q 51.609375 14.546875 45.953125 7.46875 
Q 39.0625 -1.21875 27.15625 -1.21875 
Q 17.390625 -1.21875 11.203125 4.25 
Q 5.03125 9.71875 4.15625 18.75 
z
" id="ArialMT-35"/>
      </defs>
      <g style="fill:#262626;" transform="translate(29.187125 121.047438)scale(0.088 -0.088)">
       <use xlink:href="#ArialMT-35"/>
       <use x="55.615234" xlink:href="#ArialMT-30"/>
       <use x="111.230469" xlink:href="#ArialMT-30"/>
      </g>
     </g>
    </g>
    <g id="ytick_3">
     <g id="line2d_14">
      <path clip-path="url(#p043267955c)" d="M 52.168 90.988 
L 416.832 90.988 
" style="fill:none;stroke:#cccccc;stroke-linecap:round;stroke-width:0.8;"/>
     </g>
     <g id="line2d_15">
      <g>
       <use style="fill:#262626;stroke:#262626;" x="52.168" xlink:href="#m80ddb4307a" y="90.988"/>
      </g>
     </g>
     <g id="text_13">
      <!-- 1000 -->
      <defs>
       <path d="M 37.25 0 
L 28.46875 0 
L 28.46875 56 
Q 25.296875 52.984375 20.140625 49.953125 
Q 14.984375 46.921875 10.890625 45.40625 
L 10.890625 53.90625 
Q 18.265625 57.375 23.78125 62.296875 
Q 29.296875 67.234375 31.59375 71.875 
L 37.25 71.875 
z
" id="ArialMT-31"/>
      </defs>
      <g style="fill:#262626;" transform="translate(24.2935 94.137438)scale(0.088 -0.088)">
       <use xlink:href="#ArialMT-31"/>
       <use x="55.615234" xlink:href="#ArialMT-30"/>
       <use x="111.230469" xlink:href="#ArialMT-30"/>
       <use x="166.845703" xlink:href="#ArialMT-30"/>
      </g>
     </g>
    </g>
    <g id="ytick_4">
     <g id="line2d_16">
      <path clip-path="url(#p043267955c)" d="M 52.168 64.078 
L 416.832 64.078 
" style="fill:none;stroke:#cccccc;stroke-linecap:round;stroke-width:0.8;"/>
     </g>
     <g id="line2d_17">
      <g>
       <use style="fill:#262626;stroke:#262626;" x="52.168" xlink:href="#m80ddb4307a" y="64.078"/>
      </g>
     </g>
     <g id="text_14">
      <!-- 1500 -->
      <g style="fill:#262626;" transform="translate(24.2935 67.227438)scale(0.088 -0.088)">
       <use xlink:href="#ArialMT-31"/>
       <use x="55.615234" xlink:href="#ArialMT-35"/>
       <use x="111.230469" xlink:href="#ArialMT-30"/>
       <use x="166.845703" xlink:href="#ArialMT-30"/>
      </g>
     </g>
    </g>
    <g id="ytick_5">
     <g id="line2d_18">
      <path clip-path="url(#p043267955c)" d="M 52.168 37.168 
L 416.832 37.168 
" style="fill:none;stroke:#cccccc;stroke-linecap:round;stroke-width:0.8;"/>
     </g>
     <g id="line2d_19">
      <g>
       <use style="fill:#262626;stroke:#262626;" x="52.168" xlink:href="#m80ddb4307a" y="37.168"/>
      </g>
     </g>
     <g id="text_15">
      <!-- 2000 -->
      <defs>
       <path d="M 50.34375 8.453125 
L 50.34375 0 
L 3.03125 0 
Q 2.9375 3.171875 4.046875 6.109375 
Q 5.859375 10.9375 9.828125 15.625 
Q 13.8125 20.3125 21.34375 26.46875 
Q 33.015625 36.03125 37.109375 41.625 
Q 41.21875 47.21875 41.21875 52.203125 
Q 41.21875 57.421875 37.46875 61 
Q 33.734375 64.59375 27.734375 64.59375 
Q 21.390625 64.59375 17.578125 60.78125 
Q 13.765625 56.984375 13.71875 50.25 
L 4.6875 51.171875 
Q 5.609375 61.28125 11.65625 66.578125 
Q 17.71875 71.875 27.9375 71.875 
Q 38.234375 71.875 44.234375 66.15625 
Q 50.25 60.453125 50.25 52 
Q 50.25 47.703125 48.484375 43.546875 
Q 46.734375 39.40625 42.65625 34.8125 
Q 38.578125 30.21875 29.109375 22.21875 
Q 21.1875 15.578125 18.9375 13.203125 
Q 16.703125 10.84375 15.234375 8.453125 
z
" id="ArialMT-32"/>
      </defs>
      <g style="fill:#262626;" transform="translate(24.2935 40.317438)scale(0.088 -0.088)">
       <use xlink:href="#ArialMT-32"/>
       <use x="55.615234" xlink:href="#ArialMT-30"/>
       <use x="111.230469" xlink:href="#ArialMT-30"/>
       <use x="166.845703" xlink:href="#ArialMT-30"/>
      </g>
     </g>
    </g>
    <g id="text_16">
     <!-- kgCO2e/m² -->
     <defs>
      <path d="M 58.796875 25.09375 
L 68.265625 22.703125 
Q 65.28125 11.03125 57.546875 4.90625 
Q 49.8125 -1.21875 38.625 -1.21875 
Q 27.046875 -1.21875 19.796875 3.484375 
Q 12.546875 8.203125 8.765625 17.140625 
Q 4.984375 26.078125 4.984375 36.328125 
Q 4.984375 47.515625 9.25 55.828125 
Q 13.53125 64.15625 21.40625 68.46875 
Q 29.296875 72.796875 38.765625 72.796875 
Q 49.515625 72.796875 56.828125 67.328125 
Q 64.15625 61.859375 67.046875 51.953125 
L 57.71875 49.75 
Q 55.21875 57.5625 50.484375 61.125 
Q 45.75 64.703125 38.578125 64.703125 
Q 30.328125 64.703125 24.78125 60.734375 
Q 19.234375 56.78125 16.984375 50.109375 
Q 14.75 43.453125 14.75 36.375 
Q 14.75 27.25 17.40625 20.4375 
Q 20.0625 13.625 25.671875 10.25 
Q 31.296875 6.890625 37.84375 6.890625 
Q 45.796875 6.890625 51.3125 11.46875 
Q 56.84375 16.0625 58.796875 25.09375 
z
" id="ArialMT-43"/>
      <path d="M 4.828125 34.859375 
Q 4.828125 52.6875 14.390625 62.765625 
Q 23.96875 72.859375 39.109375 72.859375 
Q 49.03125 72.859375 56.984375 68.109375 
Q 64.9375 63.375 69.109375 54.90625 
Q 73.296875 46.4375 73.296875 35.6875 
Q 73.296875 24.8125 68.890625 16.21875 
Q 64.5 7.625 56.4375 3.203125 
Q 48.390625 -1.21875 39.0625 -1.21875 
Q 28.953125 -1.21875 20.984375 3.65625 
Q 13.03125 8.546875 8.921875 16.984375 
Q 4.828125 25.4375 4.828125 34.859375 
z
M 14.59375 34.71875 
Q 14.59375 21.78125 21.546875 14.328125 
Q 28.515625 6.890625 39.015625 6.890625 
Q 49.703125 6.890625 56.609375 14.40625 
Q 63.53125 21.921875 63.53125 35.75 
Q 63.53125 44.484375 60.578125 51 
Q 57.625 57.515625 51.921875 61.109375 
Q 46.234375 64.703125 39.15625 64.703125 
Q 29.109375 64.703125 21.84375 57.78125 
Q 14.59375 50.875 14.59375 34.71875 
z
" id="ArialMT-4f"/>
      <path d="M 1.21875 35.796875 
Q 1.515625 38.578125 3.515625 41.359375 
Q 6.59375 45.5625 13.625 50.65625 
Q 20.65625 55.765625 21.96875 57.234375 
Q 23.78125 59.234375 23.78125 61.328125 
Q 23.78125 63.671875 22.0625 65.1875 
Q 20.359375 66.703125 17.046875 66.703125 
Q 13.8125 66.703125 12.21875 65.546875 
Q 10.640625 64.40625 9.625 61.140625 
L 2.25 61.921875 
Q 3.65625 67.328125 7.140625 69.890625 
Q 10.640625 72.46875 17.1875 72.46875 
Q 24.5625 72.46875 28 69.578125 
Q 31.453125 66.703125 31.453125 62.546875 
Q 31.453125 58.453125 28.5625 54.78125 
Q 26.375 52.046875 18.5625 46.4375 
Q 14.5 43.453125 12.796875 41.703125 
L 31.640625 41.703125 
L 31.640625 35.796875 
z
" id="ArialMT-b2"/>
     </defs>
     <g style="fill:#262626;" transform="translate(17.188812 116.548156)rotate(-90)scale(0.1 -0.1)">
      <use xlink:href="#ArialMT-6b"/>
      <use x="50" xlink:href="#ArialMT-67"/>
      <use x="105.615234" xlink:href="#ArialMT-43"/>
      <use x="177.832031" xlink:href="#ArialMT-4f"/>
      <use x="255.615234" xlink:href="#ArialMT-32"/>
      <use x="311.230469" xlink:href="#ArialMT-65"/>
      <use x="366.845703" xlink:href="#ArialMT-2f"/>
      <use x="394.628906" xlink:href="#ArialMT-6d"/>
      <use x="477.929688" xlink:href="#ArialMT-b2"/>
     </g>
    </g>
   </g>
   <g id="patch_3">
    <path clip-path="url(#p043267955c)" d="M 62.297556 113.343246 
L 82.556667 113.343246 
L 82.556667 105.452338 
L 62.297556 105.452338 
L 62.297556 113.343246 
z
" style="fill:#cfd9de;stroke:#818181;stroke-linejoin:miter;"/>
   </g>
   <g id="patch_4">
    <path clip-path="url(#p043267955c)" d="M 102.815778 114.401643 
L 123.074889 114.401643 
L 123.074889 109.025357 
L 102.815778 109.025357 
L 102.815778 114.401643 
z
" style="fill:#cfd9de;stroke:#818181;stroke-linejoin:miter;"/>
   </g>
   <g id="patch_5">
    <path clip-path="url(#p043267955c)" d="M 143.334 113.891622 
L 163.593111 113.891622 
L 163.593111 111.959453 
L 143.334 111.959453 
L 143.334 113.891622 
z
" style="fill:#cfd9de;stroke:#818181;stroke-linejoin:miter;"/>
   </g>
   <g id="patch_6">
    <path clip-path="url(#p043267955c)" d="M 183.852222 121.070129 
L 204.111333 121.070129 
L 204.111333 105.916573 
L 183.852222 105.916573 
L 183.852222 121.070129 
z
" style="fill:#cfd9de;stroke:#818181;stroke-linejoin:miter;"/>
   </g>
   <g id="patch_7">
    <path clip-path="url(#p043267955c)" d="M 224.370444 112.679036 
L 244.629556 112.679036 
L 244.629556 106.11072 
L 224.370444 106.11072 
L 224.370444 112.679036 
z
" style="fill:#cfd9de;stroke:#818181;stroke-linejoin:miter;"/>
   </g>
   <g id="patch_8">
    <path clip-path="url(#p043267955c)" d="M 264.888667 123.705333 
L 285.147778 123.705333 
L 285.147778 112.583154 
L 264.888667 112.583154 
L 264.888667 123.705333 
z
" style="fill:#cfd9de;stroke:#818181;stroke-linejoin:miter;"/>
   </g>
   <g id="patch_9">
    <path clip-path="url(#p043267955c)" d="M 305.406889 115.34155 
L 325.666 115.34155 
L 325.666 112.91965 
L 305.406889 112.91965 
L 305.406889 115.34155 
z
" style="fill:#cfd9de;stroke:#818181;stroke-linejoin:miter;"/>
   </g>
   <g id="patch_10">
    <path clip-path="url(#p043267955c)" d="M 345.925111 95.666128 
L 366.184222 95.666128 
L 366.184222 95.666128 
L 345.925111 95.666128 
L 345.925111 95.666128 
z
" style="fill:#cfd9de;stroke:#818181;stroke-linejoin:miter;"/>
   </g>
   <g id="patch_11">
    <path clip-path="url(#p043267955c)" d="M 386.443333 128.163951 
L 406.702444 128.163951 
L 406.702444 121.719922 
L 386.443333 121.719922 
L 386.443333 128.163951 
z
" style="fill:#cfd9de;stroke:#818181;stroke-linejoin:miter;"/>
   </g>
   <g id="line2d_20">
    <path clip-path="url(#p043267955c)" d="M 72.427111 113.343246 
L 72.427111 124.404838 
" style="fill:none;stroke:#818181;stroke-linecap:round;"/>
   </g>
   <g id="line2d_21">
    <path clip-path="url(#p043267955c)" d="M 72.427111 105.452338 
L 72.427111 96.218369 
" style="fill:none;stroke:#818181;stroke-linecap:round;"/>
   </g>
   <g id="line2d_22">
    <path clip-path="url(#p043267955c)" d="M 67.362333 124.404838 
L 77.491889 124.404838 
" style="fill:none;stroke:#818181;stroke-linecap:round;"/>
   </g>
   <g id="line2d_23">
    <path clip-path="url(#p043267955c)" d="M 67.362333 96.218369 
L 77.491889 96.218369 
" style="fill:none;stroke:#818181;stroke-linecap:round;"/>
   </g>
   <g id="line2d_24">
    <defs>
     <path d="M 0 2.828427 
L 1.697056 0 
L 0 -2.828427 
L -1.697056 0 
z
" id="m7b5a4c989f" style="stroke:#000000;stroke-linejoin:miter;"/>
    </defs>
    <g clip-path="url(#p043267955c)">
     <use style="fill:#ffffff;stroke:#000000;stroke-linejoin:miter;" x="72.427111" xlink:href="#m7b5a4c989f" y="128.791168"/>
     <use style="fill:#ffffff;stroke:#000000;stroke-linejoin:miter;" x="72.427111" xlink:href="#m7b5a4c989f" y="132.509728"/>
     <use style="fill:#ffffff;stroke:#000000;stroke-linejoin:miter;" x="72.427111" xlink:href="#m7b5a4c989f" y="73.008166"/>
     <use style="fill:#ffffff;stroke:#000000;stroke-linejoin:miter;" x="72.427111" xlink:href="#m7b5a4c989f" y="51.878909"/>
    </g>
   </g>
   <g id="line2d_25">
    <path clip-path="url(#p043267955c)" d="M 112.945333 114.401643 
L 112.945333 118.85544 
" style="fill:none;stroke:#818181;stroke-linecap:round;"/>
   </g>
   <g id="line2d_26">
    <path clip-path="url(#p043267955c)" d="M 112.945333 109.025357 
L 112.945333 101.398367 
" style="fill:none;stroke:#818181;stroke-linecap:round;"/>
   </g>
   <g id="line2d_27">
    <path clip-path="url(#p043267955c)" d="M 107.880556 118.85544 
L 118.010111 118.85544 
" style="fill:none;stroke:#818181;stroke-linecap:round;"/>
   </g>
   <g id="line2d_28">
    <path clip-path="url(#p043267955c)" d="M 107.880556 101.398367 
L 118.010111 101.398367 
" style="fill:none;stroke:#818181;stroke-linecap:round;"/>
   </g>
   <g id="line2d_29">
    <g clip-path="url(#p043267955c)">
     <use style="fill:#ffffff;stroke:#000000;stroke-linejoin:miter;" x="112.945333" xlink:href="#m7b5a4c989f" y="99.95982"/>
     <use style="fill:#ffffff;stroke:#000000;stroke-linejoin:miter;" x="112.945333" xlink:href="#m7b5a4c989f" y="100.07372"/>
     <use style="fill:#ffffff;stroke:#000000;stroke-linejoin:miter;" x="112.945333" xlink:href="#m7b5a4c989f" y="100.152963"/>
     <use style="fill:#ffffff;stroke:#000000;stroke-linejoin:miter;" x="112.945333" xlink:href="#m7b5a4c989f" y="94.860665"/>
     <use style="fill:#ffffff;stroke:#000000;stroke-linejoin:miter;" x="112.945333" xlink:href="#m7b5a4c989f" y="94.610826"/>
     <use style="fill:#ffffff;stroke:#000000;stroke-linejoin:miter;" x="112.945333" xlink:href="#m7b5a4c989f" y="100.34967"/>
     <use style="fill:#ffffff;stroke:#000000;stroke-linejoin:miter;" x="112.945333" xlink:href="#m7b5a4c989f" y="94.22944"/>
     <use style="fill:#ffffff;stroke:#000000;stroke-linejoin:miter;" x="112.945333" xlink:href="#m7b5a4c989f" y="97.094371"/>
     <use style="fill:#ffffff;stroke:#000000;stroke-linejoin:miter;" x="112.945333" xlink:href="#m7b5a4c989f" y="91.990105"/>
     <use style="fill:#ffffff;stroke:#000000;stroke-linejoin:miter;" x="112.945333" xlink:href="#m7b5a4c989f" y="98.134962"/>
     <use style="fill:#ffffff;stroke:#000000;stroke-linejoin:miter;" x="112.945333" xlink:href="#m7b5a4c989f" y="78.553794"/>
     <use style="fill:#ffffff;stroke:#000000;stroke-linejoin:miter;" x="112.945333" xlink:href="#m7b5a4c989f" y="81.617681"/>
     <use style="fill:#ffffff;stroke:#000000;stroke-linejoin:miter;" x="112.945333" xlink:href="#m7b5a4c989f" y="99.933767"/>
     <use style="fill:#ffffff;stroke:#000000;stroke-linejoin:miter;" x="112.945333" xlink:href="#m7b5a4c989f" y="100.786027"/>
     <use style="fill:#ffffff;stroke:#000000;stroke-linejoin:miter;" x="112.945333" xlink:href="#m7b5a4c989f" y="100.350824"/>
     <use style="fill:#ffffff;stroke:#000000;stroke-linejoin:miter;" x="112.945333" xlink:href="#m7b5a4c989f" y="100.420276"/>
     <use style="fill:#ffffff;stroke:#000000;stroke-linejoin:miter;" x="112.945333" xlink:href="#m7b5a4c989f" y="99.508088"/>
     <use style="fill:#ffffff;stroke:#000000;stroke-linejoin:miter;" x="112.945333" xlink:href="#m7b5a4c989f" y="99.90397"/>
     <use style="fill:#ffffff;stroke:#000000;stroke-linejoin:miter;" x="112.945333" xlink:href="#m7b5a4c989f" y="100.833811"/>
     <use style="fill:#ffffff;stroke:#000000;stroke-linejoin:miter;" x="112.945333" xlink:href="#m7b5a4c989f" y="99.324798"/>
     <use style="fill:#ffffff;stroke:#000000;stroke-linejoin:miter;" x="112.945333" xlink:href="#m7b5a4c989f" y="97.895128"/>
     <use style="fill:#ffffff;stroke:#000000;stroke-linejoin:miter;" x="112.945333" xlink:href="#m7b5a4c989f" y="96.747486"/>
     <use style="fill:#ffffff;stroke:#000000;stroke-linejoin:miter;" x="112.945333" xlink:href="#m7b5a4c989f" y="95.228468"/>
     <use style="fill:#ffffff;stroke:#000000;stroke-linejoin:miter;" x="112.945333" xlink:href="#m7b5a4c989f" y="98.598419"/>
     <use style="fill:#ffffff;stroke:#000000;stroke-linejoin:miter;" x="112.945333" xlink:href="#m7b5a4c989f" y="96.863272"/>
     <use style="fill:#ffffff;stroke:#000000;stroke-linejoin:miter;" x="112.945333" xlink:href="#m7b5a4c989f" y="93.768573"/>
     <use style="fill:#ffffff;stroke:#000000;stroke-linejoin:miter;" x="112.945333" xlink:href="#m7b5a4c989f" y="92.066435"/>
     <use style="fill:#ffffff;stroke:#000000;stroke-linejoin:miter;" x="112.945333" xlink:href="#m7b5a4c989f" y="100.833811"/>
     <use style="fill:#ffffff;stroke:#000000;stroke-linejoin:miter;" x="112.945333" xlink:href="#m7b5a4c989f" y="93.768573"/>
     <use style="fill:#ffffff;stroke:#000000;stroke-linejoin:miter;" x="112.945333" xlink:href="#m7b5a4c989f" y="92.066435"/>
    </g>
   </g>
   <g id="line2d_30">
    <path clip-path="url(#p043267955c)" d="M 153.463556 113.891622 
L 153.463556 114.711317 
" style="fill:none;stroke:#818181;stroke-linecap:round;"/>
   </g>
   <g id="line2d_31">
    <path clip-path="url(#p043267955c)" d="M 153.463556 111.959453 
L 153.463556 109.846325 
" style="fill:none;stroke:#818181;stroke-linecap:round;"/>
   </g>
   <g id="line2d_32">
    <path clip-path="url(#p043267955c)" d="M 148.398778 114.711317 
L 158.528333 114.711317 
" style="fill:none;stroke:#818181;stroke-linecap:round;"/>
   </g>
   <g id="line2d_33">
    <path clip-path="url(#p043267955c)" d="M 148.398778 109.846325 
L 158.528333 109.846325 
" style="fill:none;stroke:#818181;stroke-linecap:round;"/>
   </g>
   <g id="line2d_34">
    <g clip-path="url(#p043267955c)">
     <use style="fill:#ffffff;stroke:#000000;stroke-linejoin:miter;" x="153.463556" xlink:href="#m7b5a4c989f" y="119.2435"/>
     <use style="fill:#ffffff;stroke:#000000;stroke-linejoin:miter;" x="153.463556" xlink:href="#m7b5a4c989f" y="107.119072"/>
    </g>
   </g>
   <g id="line2d_35">
    <path clip-path="url(#p043267955c)" d="M 193.981778 121.070129 
L 193.981778 123.114682 
" style="fill:none;stroke:#818181;stroke-linecap:round;"/>
   </g>
   <g id="line2d_36">
    <path clip-path="url(#p043267955c)" d="M 193.981778 105.916573 
L 193.981778 100.178422 
" style="fill:none;stroke:#818181;stroke-linecap:round;"/>
   </g>
   <g id="line2d_37">
    <path clip-path="url(#p043267955c)" d="M 188.917 123.114682 
L 199.046556 123.114682 
" style="fill:none;stroke:#818181;stroke-linecap:round;"/>
   </g>
   <g id="line2d_38">
    <path clip-path="url(#p043267955c)" d="M 188.917 100.178422 
L 199.046556 100.178422 
" style="fill:none;stroke:#818181;stroke-linecap:round;"/>
   </g>
   <g id="line2d_39"/>
   <g id="line2d_40">
    <path clip-path="url(#p043267955c)" d="M 234.5 112.679036 
L 234.5 115.108492 
" style="fill:none;stroke:#818181;stroke-linecap:round;"/>
   </g>
   <g id="line2d_41">
    <path clip-path="url(#p043267955c)" d="M 234.5 106.11072 
L 234.5 100.366242 
" style="fill:none;stroke:#818181;stroke-linecap:round;"/>
   </g>
   <g id="line2d_42">
    <path clip-path="url(#p043267955c)" d="M 229.435222 115.108492 
L 239.564778 115.108492 
" style="fill:none;stroke:#818181;stroke-linecap:round;"/>
   </g>
   <g id="line2d_43">
    <path clip-path="url(#p043267955c)" d="M 229.435222 100.366242 
L 239.564778 100.366242 
" style="fill:none;stroke:#818181;stroke-linecap:round;"/>
   </g>
   <g id="line2d_44"/>
   <g id="line2d_45">
    <path clip-path="url(#p043267955c)" d="M 275.018222 123.705333 
L 275.018222 127.8547 
" style="fill:none;stroke:#818181;stroke-linecap:round;"/>
   </g>
   <g id="line2d_46">
    <path clip-path="url(#p043267955c)" d="M 275.018222 112.583154 
L 275.018222 102.496381 
" style="fill:none;stroke:#818181;stroke-linecap:round;"/>
   </g>
   <g id="line2d_47">
    <path clip-path="url(#p043267955c)" d="M 269.953444 127.8547 
L 280.083 127.8547 
" style="fill:none;stroke:#818181;stroke-linecap:round;"/>
   </g>
   <g id="line2d_48">
    <path clip-path="url(#p043267955c)" d="M 269.953444 102.496381 
L 280.083 102.496381 
" style="fill:none;stroke:#818181;stroke-linecap:round;"/>
   </g>
   <g id="line2d_49"/>
   <g id="line2d_50">
    <path clip-path="url(#p043267955c)" d="M 315.536444 115.34155 
L 315.536444 116.5525 
" style="fill:none;stroke:#818181;stroke-linecap:round;"/>
   </g>
   <g id="line2d_51">
    <path clip-path="url(#p043267955c)" d="M 315.536444 112.91965 
L 315.536444 111.7087 
" style="fill:none;stroke:#818181;stroke-linecap:round;"/>
   </g>
   <g id="line2d_52">
    <path clip-path="url(#p043267955c)" d="M 310.471667 116.5525 
L 320.601222 116.5525 
" style="fill:none;stroke:#818181;stroke-linecap:round;"/>
   </g>
   <g id="line2d_53">
    <path clip-path="url(#p043267955c)" d="M 310.471667 111.7087 
L 320.601222 111.7087 
" style="fill:none;stroke:#818181;stroke-linecap:round;"/>
   </g>
   <g id="line2d_54"/>
   <g id="line2d_55">
    <path clip-path="url(#p043267955c)" d="M 356.054667 95.666128 
L 356.054667 95.666128 
" style="fill:none;stroke:#818181;stroke-linecap:round;"/>
   </g>
   <g id="line2d_56">
    <path clip-path="url(#p043267955c)" d="M 356.054667 95.666128 
L 356.054667 95.666128 
" style="fill:none;stroke:#818181;stroke-linecap:round;"/>
   </g>
   <g id="line2d_57">
    <path clip-path="url(#p043267955c)" d="M 350.989889 95.666128 
L 361.119444 95.666128 
" style="fill:none;stroke:#818181;stroke-linecap:round;"/>
   </g>
   <g id="line2d_58">
    <path clip-path="url(#p043267955c)" d="M 350.989889 95.666128 
L 361.119444 95.666128 
" style="fill:none;stroke:#818181;stroke-linecap:round;"/>
   </g>
   <g id="line2d_59"/>
   <g id="line2d_60">
    <path clip-path="url(#p043267955c)" d="M 396.572889 128.163951 
L 396.572889 132.9676 
" style="fill:none;stroke:#818181;stroke-linecap:round;"/>
   </g>
   <g id="line2d_61">
    <path clip-path="url(#p043267955c)" d="M 396.572889 121.719922 
L 396.572889 113.997331 
" style="fill:none;stroke:#818181;stroke-linecap:round;"/>
   </g>
   <g id="line2d_62">
    <path clip-path="url(#p043267955c)" d="M 391.508111 132.9676 
L 401.637667 132.9676 
" style="fill:none;stroke:#818181;stroke-linecap:round;"/>
   </g>
   <g id="line2d_63">
    <path clip-path="url(#p043267955c)" d="M 391.508111 113.997331 
L 401.637667 113.997331 
" style="fill:none;stroke:#818181;stroke-linecap:round;"/>
   </g>
   <g id="line2d_64"/>
   <g id="line2d_65">
    <path clip-path="url(#p043267955c)" d="M 62.297556 108.488145 
L 82.556667 108.488145 
" style="fill:none;stroke:#818181;stroke-linecap:round;"/>
   </g>
   <g id="line2d_66">
    <path clip-path="url(#p043267955c)" d="M 72.427111 108.285486 
" style="fill:none;stroke:#0076b4;stroke-dasharray:3.7,1.6;stroke-dashoffset:0;"/>
    <defs>
     <path d="M 0 2.5 
C 0.663008 2.5 1.29895 2.236584 1.767767 1.767767 
C 2.236584 1.29895 2.5 0.663008 2.5 0 
C 2.5 -0.663008 2.236584 -1.29895 1.767767 -1.767767 
C 1.29895 -2.236584 0.663008 -2.5 0 -2.5 
C -0.663008 -2.5 -1.29895 -2.236584 -1.767767 -1.767767 
C -2.236584 -1.29895 -2.5 -0.663008 -2.5 0 
C -2.5 0.663008 -2.236584 1.29895 -1.767767 1.767767 
C -1.29895 2.236584 -0.663008 2.5 0 2.5 
z
" id="m6697c1cf9e" style="stroke:#000000;"/>
    </defs>
    <g clip-path="url(#p043267955c)">
     <use style="fill:#ffffff;stroke:#000000;" x="72.427111" xlink:href="#m6697c1cf9e" y="108.285486"/>
    </g>
   </g>
   <g id="line2d_67">
    <path clip-path="url(#p043267955c)" d="M 102.815778 112.102422 
L 123.074889 112.102422 
" style="fill:none;stroke:#818181;stroke-linecap:round;"/>
   </g>
   <g id="line2d_68">
    <path clip-path="url(#p043267955c)" d="M 112.945333 110.78684 
" style="fill:none;stroke:#0076b4;stroke-dasharray:3.7,1.6;stroke-dashoffset:0;"/>
    <g clip-path="url(#p043267955c)">
     <use style="fill:#ffffff;stroke:#000000;" x="112.945333" xlink:href="#m6697c1cf9e" y="110.78684"/>
    </g>
   </g>
   <g id="line2d_69">
    <path clip-path="url(#p043267955c)" d="M 143.334 113.228126 
L 163.593111 113.228126 
" style="fill:none;stroke:#818181;stroke-linecap:round;"/>
   </g>
   <g id="line2d_70">
    <path clip-path="url(#p043267955c)" d="M 153.463556 112.799917 
" style="fill:none;stroke:#0076b4;stroke-dasharray:3.7,1.6;stroke-dashoffset:0;"/>
    <g clip-path="url(#p043267955c)">
     <use style="fill:#ffffff;stroke:#000000;" x="153.463556" xlink:href="#m6697c1cf9e" y="112.799917"/>
    </g>
   </g>
   <g id="line2d_71">
    <path clip-path="url(#p043267955c)" d="M 183.852222 110.076632 
L 204.111333 110.076632 
" style="fill:none;stroke:#818181;stroke-linecap:round;"/>
   </g>
   <g id="line2d_72">
    <path clip-path="url(#p043267955c)" d="M 193.981778 112.222809 
" style="fill:none;stroke:#0076b4;stroke-dasharray:3.7,1.6;stroke-dashoffset:0;"/>
    <g clip-path="url(#p043267955c)">
     <use style="fill:#ffffff;stroke:#000000;" x="193.981778" xlink:href="#m6697c1cf9e" y="112.222809"/>
    </g>
   </g>
   <g id="line2d_73">
    <path clip-path="url(#p043267955c)" d="M 224.370444 108.451774 
L 244.629556 108.451774 
" style="fill:none;stroke:#818181;stroke-linecap:round;"/>
   </g>
   <g id="line2d_74">
    <path clip-path="url(#p043267955c)" d="M 234.5 108.632796 
" style="fill:none;stroke:#0076b4;stroke-dasharray:3.7,1.6;stroke-dashoffset:0;"/>
    <g clip-path="url(#p043267955c)">
     <use style="fill:#ffffff;stroke:#000000;" x="234.5" xlink:href="#m6697c1cf9e" y="108.632796"/>
    </g>
   </g>
   <g id="line2d_75">
    <path clip-path="url(#p043267955c)" d="M 264.888667 121.007641 
L 285.147778 121.007641 
" style="fill:none;stroke:#818181;stroke-linecap:round;"/>
   </g>
   <g id="line2d_76">
    <path clip-path="url(#p043267955c)" d="M 275.018222 118.239693 
" style="fill:none;stroke:#0076b4;stroke-dasharray:3.7,1.6;stroke-dashoffset:0;"/>
    <g clip-path="url(#p043267955c)">
     <use style="fill:#ffffff;stroke:#000000;" x="275.018222" xlink:href="#m6697c1cf9e" y="118.239693"/>
    </g>
   </g>
   <g id="line2d_77">
    <path clip-path="url(#p043267955c)" d="M 305.406889 114.1306 
L 325.666 114.1306 
" style="fill:none;stroke:#818181;stroke-linecap:round;"/>
   </g>
   <g id="line2d_78">
    <path clip-path="url(#p043267955c)" d="M 315.536444 114.1306 
" style="fill:none;stroke:#0076b4;stroke-dasharray:3.7,1.6;stroke-dashoffset:0;"/>
    <g clip-path="url(#p043267955c)">
     <use style="fill:#ffffff;stroke:#000000;" x="315.536444" xlink:href="#m6697c1cf9e" y="114.1306"/>
    </g>
   </g>
   <g id="line2d_79">
    <path clip-path="url(#p043267955c)" d="M 345.925111 95.666128 
L 366.184222 95.666128 
" style="fill:none;stroke:#818181;stroke-linecap:round;"/>
   </g>
   <g id="line2d_80">
    <path clip-path="url(#p043267955c)" d="M 356.054667 95.666128 
" style="fill:none;stroke:#0076b4;stroke-dasharray:3.7,1.6;stroke-dashoffset:0;"/>
    <g clip-path="url(#p043267955c)">
     <use style="fill:#ffffff;stroke:#000000;" x="356.054667" xlink:href="#m6697c1cf9e" y="95.666128"/>
    </g>
   </g>
   <g id="line2d_81">
    <path clip-path="url(#p043267955c)" d="M 386.443333 124.94842 
L 406.702444 124.94842 
" style="fill:none;stroke:#818181;stroke-linecap:round;"/>
   </g>
   <g id="line2d_82">
    <path clip-path="url(#p043267955c)" d="M 396.572889 124.763422 
" style="fill:none;stroke:#0076b4;stroke-dasharray:3.7,1.6;stroke-dashoffset:0;"/>
    <g clip-path="url(#p043267955c)">
     <use style="fill:#ffffff;stroke:#000000;" x="396.572889" xlink:href="#m6697c1cf9e" y="124.763422"/>
    </g>
   </g>
   <g id="patch_12">
    <path d="M 52.168 144.808 
L 52.168 37.168 
" style="fill:none;stroke:#262626;stroke-linecap:square;stroke-linejoin:miter;"/>
   </g>
   <g id="patch_13">
    <path d="M 416.832 144.808 
L 416.832 37.168 
" style="fill:none;stroke:#262626;stroke-linecap:square;stroke-linejoin:miter;"/>
   </g>
   <g id="patch_14">
    <path d="M 52.168 144.808 
L 416.832 144.808 
" style="fill:none;stroke:#262626;stroke-linecap:square;stroke-linejoin:miter;"/>
   </g>
   <g id="patch_15">
    <path d="M 52.168 37.168 
L 416.832 37.168 
" style="fill:none;stroke:#262626;stroke-linecap:square;stroke-linejoin:miter;"/>
   </g>
   <g id="text_17">
    <!-- Embodied carbon per m² by building structure type -->
    <defs>
     <path d="M 7.90625 0 
L 7.90625 71.578125 
L 59.671875 71.578125 
L 59.671875 63.140625 
L 17.390625 63.140625 
L 17.390625 41.21875 
L 56.984375 41.21875 
L 56.984375 32.8125 
L 17.390625 32.8125 
L 17.390625 8.453125 
L 61.328125 8.453125 
L 61.328125 0 
z
" id="ArialMT-45"/>
    </defs>
    <g style="fill:#262626;" transform="translate(111.306875 19.513844)scale(0.11 -0.11)">
     <use xlink:href="#ArialMT-45"/>
     <use x="66.699219" xlink:href="#ArialMT-6d"/>
     <use x="150" xlink:href="#ArialMT-62"/>
     <use x="205.615234" xlink:href="#ArialMT-6f"/>
     <use x="261.230469" xlink:href="#ArialMT-64"/>
     <use x="316.845703" xlink:href="#ArialMT-69"/>
     <use x="339.0625" xlink:href="#ArialMT-65"/>
     <use x="394.677734" xlink:href="#ArialMT-64"/>
     <use x="450.292969" xlink:href="#ArialMT-20"/>
     <use x="478.076172" xlink:href="#ArialMT-63"/>
     <use x="528.076172" xlink:href="#ArialMT-61"/>
     <use x="583.691406" xlink:href="#ArialMT-72"/>
     <use x="616.992188" xlink:href="#ArialMT-62"/>
     <use x="672.607422" xlink:href="#ArialMT-6f"/>
     <use x="728.222656" xlink:href="#ArialMT-6e"/>
     <use x="783.837891" xlink:href="#ArialMT-20"/>
     <use x="811.621094" xlink:href="#ArialMT-70"/>
     <use x="867.236328" xlink:href="#ArialMT-65"/>
     <use x="922.851562" xlink:href="#ArialMT-72"/>
     <use x="956.152344" xlink:href="#ArialMT-20"/>
     <use x="983.935547" xlink:href="#ArialMT-6d"/>
     <use x="1067.236328" xlink:href="#ArialMT-b2"/>
     <use x="1100.537109" xlink:href="#ArialMT-20"/>
     <use x="1128.320312" xlink:href="#ArialMT-62"/>
     <use x="1183.935547" xlink:href="#ArialMT-79"/>
     <use x="1233.935547" xlink:href="#ArialMT-20"/>
     <use x="1261.71875" xlink:href="#ArialMT-62"/>
     <use x="1317.333984" xlink:href="#ArialMT-75"/>
     <use x="1372.949219" xlink:href="#ArialMT-69"/>
     <use x="1395.166016" xlink:href="#ArialMT-6c"/>
     <use x="1417.382812" xlink:href="#ArialMT-64"/>
     <use x="1472.998047" xlink:href="#ArialMT-69"/>
     <use x="1495.214844" xlink:href="#ArialMT-6e"/>
     <use x="1550.830078" xlink:href="#ArialMT-67"/>
     <use x="1606.445312" xlink:href="#ArialMT-20"/>
     <use x="1634.228516" xlink:href="#ArialMT-73"/>
     <use x="1684.228516" xlink:href="#ArialMT-74"/>
     <use x="1712.011719" xlink:href="#ArialMT-72"/>
     <use x="1745.3125" xlink:href="#ArialMT-75"/>
     <use x="1800.927734" xlink:href="#ArialMT-63"/>
     <use x="1850.927734" xlink:href="#ArialMT-74"/>
     <use x="1878.710938" xlink:href="#ArialMT-75"/>
     <use x="1934.326172" xlink:href="#ArialMT-72"/>
     <use x="1967.626953" xlink:href="#ArialMT-65"/>
     <use x="2023.242188" xlink:href="#ArialMT-20"/>
     <use x="2051.025391" xlink:href="#ArialMT-74"/>
     <use x="2078.808594" xlink:href="#ArialMT-79"/>
     <use x="2128.808594" xlink:href="#ArialMT-70"/>
     <use x="2184.423828" xlink:href="#ArialMT-65"/>
    </g>
    <!-- for EU-ECB residential cases -->
    <defs>
     <path d="M 54.6875 71.578125 
L 64.15625 71.578125 
L 64.15625 30.21875 
Q 64.15625 19.4375 61.71875 13.078125 
Q 59.28125 6.734375 52.90625 2.75 
Q 46.53125 -1.21875 36.1875 -1.21875 
Q 26.125 -1.21875 19.71875 2.25 
Q 13.328125 5.71875 10.59375 12.28125 
Q 7.859375 18.84375 7.859375 30.21875 
L 7.859375 71.578125 
L 17.328125 71.578125 
L 17.328125 30.28125 
Q 17.328125 20.953125 19.0625 16.53125 
Q 20.796875 12.109375 25.015625 9.71875 
Q 29.25 7.328125 35.359375 7.328125 
Q 45.796875 7.328125 50.234375 12.0625 
Q 54.6875 16.796875 54.6875 30.28125 
z
" id="ArialMT-55"/>
     <path d="M 3.171875 21.484375 
L 3.171875 30.328125 
L 30.171875 30.328125 
L 30.171875 21.484375 
z
" id="ArialMT-2d"/>
     <path d="M 7.328125 0 
L 7.328125 71.578125 
L 34.1875 71.578125 
Q 42.390625 71.578125 47.34375 69.40625 
Q 52.296875 67.234375 55.09375 62.71875 
Q 57.90625 58.203125 57.90625 53.265625 
Q 57.90625 48.6875 55.421875 44.625 
Q 52.9375 40.578125 47.90625 38.09375 
Q 54.390625 36.1875 57.875 31.59375 
Q 61.375 27 61.375 20.75 
Q 61.375 15.71875 59.25 11.390625 
Q 57.125 7.078125 54 4.734375 
Q 50.875 2.390625 46.15625 1.1875 
Q 41.453125 0 34.625 0 
z
M 16.796875 41.5 
L 32.28125 41.5 
Q 38.578125 41.5 41.3125 42.328125 
Q 44.921875 43.40625 46.75 45.890625 
Q 48.578125 48.390625 48.578125 52.15625 
Q 48.578125 55.71875 46.875 58.421875 
Q 45.171875 61.140625 41.984375 62.140625 
Q 38.8125 63.140625 31.109375 63.140625 
L 16.796875 63.140625 
z
M 16.796875 8.453125 
L 34.625 8.453125 
Q 39.203125 8.453125 41.0625 8.796875 
Q 44.34375 9.375 46.53125 10.734375 
Q 48.734375 12.109375 50.140625 14.71875 
Q 51.5625 17.328125 51.5625 20.75 
Q 51.5625 24.75 49.515625 27.703125 
Q 47.46875 30.671875 43.828125 31.859375 
Q 40.1875 33.0625 33.34375 33.0625 
L 16.796875 33.0625 
z
" id="ArialMT-42"/>
    </defs>
    <g style="fill:#262626;" transform="translate(163.281875 31.277312)scale(0.11 -0.11)">
     <use xlink:href="#ArialMT-66"/>
     <use x="27.783203" xlink:href="#ArialMT-6f"/>
     <use x="83.398438" xlink:href="#ArialMT-72"/>
     <use x="116.699219" xlink:href="#ArialMT-20"/>
     <use x="144.482422" xlink:href="#ArialMT-45"/>
     <use x="211.181641" xlink:href="#ArialMT-55"/>
     <use x="283.398438" xlink:href="#ArialMT-2d"/>
     <use x="316.699219" xlink:href="#ArialMT-45"/>
     <use x="383.398438" xlink:href="#ArialMT-43"/>
     <use x="455.615234" xlink:href="#ArialMT-42"/>
     <use x="522.314453" xlink:href="#ArialMT-20"/>
     <use x="550.097656" xlink:href="#ArialMT-72"/>
     <use x="583.398438" xlink:href="#ArialMT-65"/>
     <use x="639.013672" xlink:href="#ArialMT-73"/>
     <use x="689.013672" xlink:href="#ArialMT-69"/>
     <use x="711.230469" xlink:href="#ArialMT-64"/>
     <use x="766.845703" xlink:href="#ArialMT-65"/>
     <use x="822.460938" xlink:href="#ArialMT-6e"/>
     <use x="878.076172" xlink:href="#ArialMT-74"/>
     <use x="905.859375" xlink:href="#ArialMT-69"/>
     <use x="928.076172" xlink:href="#ArialMT-61"/>
     <use x="983.691406" xlink:href="#ArialMT-6c"/>
     <use x="1005.908203" xlink:href="#ArialMT-20"/>
     <use x="1033.691406" xlink:href="#ArialMT-63"/>
     <use x="1083.691406" xlink:href="#ArialMT-61"/>
     <use x="1139.306641" xlink:href="#ArialMT-73"/>
     <use x="1189.306641" xlink:href="#ArialMT-65"/>
     <use x="1244.921875" xlink:href="#ArialMT-73"/>
    </g>
   </g>
  </g>
 </g>
 <defs>
  <clipPath id="p043267955c">
   <rect height="107.64" width="364.664" x="52.168" y="37.168"/>
  </clipPath>
 </defs>
</svg>
