<?xml version="1.0" encoding="utf-8" standalone="no"?>
<!DOCTYPE svg PUBLIC "-//W3C//DTD SVG 1.1//EN"
  "http://www.w3.org/Graphics/SVG/1.1/DTD/svg11.dtd">
<!-- Created with matplotlib (http://matplotlib.org/) -->
<svg height="266.976pt" version="1.1" viewBox="0 0 432 266.976" width="432pt" xmlns="http://www.w3.org/2000/svg" xmlns:xlink="http://www.w3.org/1999/xlink">
 <defs>
  <style type="text/css">
*{stroke-linecap:butt;stroke-linejoin:round;}
  </style>
 </defs>
 <g id="figure_1">
  <g id="patch_1">
   <path d="M 0 266.976 
L 432 266.976 
L 432 0 
L 0 0 
z
" style="fill:#ffffff;"/>
  </g>
  <g id="axes_1">
   <g id="patch_2">
    <path d="M 52.168 140.433 
L 416.832 140.433 
L 416.832 37.214875 
L 52.168 37.214875 
z
" style="fill:#ffffff;"/>
   </g>
   <g id="matplotlib.axis_1">
    <g id="xtick_1">
     <g id="line2d_1">
      <defs>
       <path d="M 0 0 
L 0 4.8 
" id="md2ad8eff30" style="stroke:#262626;"/>
      </defs>
      <g>
       <use style="fill:#262626;stroke:#262626;" x="65.191714" xlink:href="#md2ad8eff30" y="140.433"/>
      </g>
     </g>
     <g id="text_1">
      <!-- Single family house -->
      <defs>
       <path d="M 4.5 23 
L 13.421875 23.78125 
Q 14.0625 18.40625 16.375 14.96875 
Q 18.703125 11.53125 23.578125 9.40625 
Q 28.46875 7.28125 34.578125 7.28125 
Q 39.984375 7.28125 44.140625 8.890625 
Q 48.296875 10.5 50.3125 13.296875 
Q 52.34375 16.109375 52.34375 19.4375 
Q 52.34375 22.796875 50.390625 25.3125 
Q 48.4375 27.828125 43.953125 29.546875 
Q 41.0625 30.671875 31.203125 33.03125 
Q 21.34375 35.40625 17.390625 37.5 
Q 12.25 40.1875 9.734375 44.15625 
Q 7.234375 48.140625 7.234375 53.078125 
Q 7.234375 58.5 10.296875 63.203125 
Q 13.375 67.921875 19.28125 70.359375 
Q 25.203125 72.796875 32.421875 72.796875 
Q 40.375 72.796875 46.453125 70.234375 
Q 52.546875 67.671875 55.8125 62.6875 
Q 59.078125 57.71875 59.328125 51.421875 
L 50.25 50.734375 
Q 49.515625 57.515625 45.28125 60.984375 
Q 41.0625 64.453125 32.8125 64.453125 
Q 24.21875 64.453125 20.28125 61.296875 
Q 16.359375 58.15625 16.359375 53.71875 
Q 16.359375 49.859375 19.140625 47.359375 
Q 21.875 44.875 33.421875 42.265625 
Q 44.96875 39.65625 49.265625 37.703125 
Q 55.515625 34.8125 58.484375 30.390625 
Q 61.46875 25.984375 61.46875 20.21875 
Q 61.46875 14.5 58.203125 9.4375 
Q 54.9375 4.390625 48.796875 1.578125 
Q 42.671875 -1.21875 35.015625 -1.21875 
Q 25.296875 -1.21875 18.71875 1.609375 
Q 12.15625 4.4375 8.421875 10.125 
Q 4.6875 15.828125 4.5 23 
z
" id="ArialMT-53"/>
       <path d="M 6.640625 61.46875 
L 6.640625 71.578125 
L 15.4375 71.578125 
L 15.4375 61.46875 
z
M 6.640625 0 
L 6.640625 51.859375 
L 15.4375 51.859375 
L 15.4375 0 
z
" id="ArialMT-69"/>
       <path d="M 6.59375 0 
L 6.59375 51.859375 
L 14.5 51.859375 
L 14.5 44.484375 
Q 20.21875 53.03125 31 53.03125 
Q 35.6875 53.03125 39.625 51.34375 
Q 43.5625 49.65625 45.515625 46.921875 
Q 47.46875 44.1875 48.25 40.4375 
Q 48.734375 37.984375 48.734375 31.890625 
L 48.734375 0 
L 39.9375 0 
L 39.9375 31.546875 
Q 39.9375 36.921875 38.90625 39.578125 
Q 37.890625 42.234375 35.28125 43.8125 
Q 32.671875 45.40625 29.15625 45.40625 
Q 23.53125 45.40625 19.453125 41.84375 
Q 15.375 38.28125 15.375 28.328125 
L 15.375 0 
z
" id="ArialMT-6e"/>
       <path d="M 4.984375 -4.296875 
L 13.53125 -5.5625 
Q 14.0625 -9.515625 16.5 -11.328125 
Q 19.78125 -13.765625 25.4375 -13.765625 
Q 31.546875 -13.765625 34.859375 -11.328125 
Q 38.1875 -8.890625 39.359375 -4.5 
Q 40.046875 -1.8125 39.984375 6.78125 
Q 34.234375 0 25.640625 0 
Q 14.9375 0 9.078125 7.71875 
Q 3.21875 15.4375 3.21875 26.21875 
Q 3.21875 33.640625 5.90625 39.90625 
Q 8.59375 46.1875 13.6875 49.609375 
Q 18.796875 53.03125 25.6875 53.03125 
Q 34.859375 53.03125 40.828125 45.609375 
L 40.828125 51.859375 
L 48.921875 51.859375 
L 48.921875 7.03125 
Q 48.921875 -5.078125 46.453125 -10.125 
Q 44 -15.1875 38.640625 -18.109375 
Q 33.296875 -21.046875 25.484375 -21.046875 
Q 16.21875 -21.046875 10.5 -16.875 
Q 4.78125 -12.703125 4.984375 -4.296875 
z
M 12.25 26.859375 
Q 12.25 16.65625 16.296875 11.96875 
Q 20.359375 7.28125 26.46875 7.28125 
Q 32.515625 7.28125 36.609375 11.9375 
Q 40.71875 16.609375 40.71875 26.5625 
Q 40.71875 36.078125 36.5 40.90625 
Q 32.28125 45.75 26.3125 45.75 
Q 20.453125 45.75 16.34375 40.984375 
Q 12.25 36.234375 12.25 26.859375 
z
" id="ArialMT-67"/>
       <path d="M 6.390625 0 
L 6.390625 71.578125 
L 15.1875 71.578125 
L 15.1875 0 
z
" id="ArialMT-6c"/>
       <path d="M 42.09375 16.703125 
L 51.171875 15.578125 
Q 49.03125 7.625 43.21875 3.21875 
Q 37.40625 -1.171875 28.375 -1.171875 
Q 17 -1.171875 10.328125 5.828125 
Q 3.65625 12.84375 3.65625 25.484375 
Q 3.65625 38.578125 10.390625 45.796875 
Q 17.140625 53.03125 27.875 53.03125 
Q 38.28125 53.03125 44.875 45.953125 
Q 51.46875 38.875 51.46875 26.03125 
Q 51.46875 25.25 51.421875 23.6875 
L 12.75 23.6875 
Q 13.234375 15.140625 17.578125 10.59375 
Q 21.921875 6.0625 28.421875 6.0625 
Q 33.25 6.0625 36.671875 8.59375 
Q 40.09375 11.140625 42.09375 16.703125 
z
M 13.234375 30.90625 
L 42.1875 30.90625 
Q 41.609375 37.453125 38.875 40.71875 
Q 34.671875 45.796875 27.984375 45.796875 
Q 21.921875 45.796875 17.796875 41.75 
Q 13.671875 37.703125 13.234375 30.90625 
z
" id="ArialMT-65"/>
       <path id="ArialMT-20"/>
       <path d="M 8.6875 0 
L 8.6875 45.015625 
L 0.921875 45.015625 
L 0.921875 51.859375 
L 8.6875 51.859375 
L 8.6875 57.375 
Q 8.6875 62.59375 9.625 65.140625 
Q 10.890625 68.5625 14.078125 70.671875 
Q 17.28125 72.796875 23.046875 72.796875 
Q 26.765625 72.796875 31.25 71.921875 
L 29.9375 64.265625 
Q 27.203125 64.75 24.75 64.75 
Q 20.75 64.75 19.09375 63.03125 
Q 17.4375 61.328125 17.4375 56.640625 
L 17.4375 51.859375 
L 27.546875 51.859375 
L 27.546875 45.015625 
L 17.4375 45.015625 
L 17.4375 0 
z
" id="ArialMT-66"/>
       <path d="M 40.4375 6.390625 
Q 35.546875 2.25 31.03125 0.53125 
Q 26.515625 -1.171875 21.34375 -1.171875 
Q 12.796875 -1.171875 8.203125 3 
Q 3.609375 7.171875 3.609375 13.671875 
Q 3.609375 17.484375 5.34375 20.625 
Q 7.078125 23.78125 9.890625 25.6875 
Q 12.703125 27.59375 16.21875 28.5625 
Q 18.796875 29.25 24.03125 29.890625 
Q 34.671875 31.15625 39.703125 32.90625 
Q 39.75 34.71875 39.75 35.203125 
Q 39.75 40.578125 37.25 42.78125 
Q 33.890625 45.75 27.25 45.75 
Q 21.046875 45.75 18.09375 43.578125 
Q 15.140625 41.40625 13.71875 35.890625 
L 5.125 37.0625 
Q 6.296875 42.578125 8.984375 45.96875 
Q 11.671875 49.359375 16.75 51.1875 
Q 21.828125 53.03125 28.515625 53.03125 
Q 35.15625 53.03125 39.296875 51.46875 
Q 43.453125 49.90625 45.40625 47.53125 
Q 47.359375 45.171875 48.140625 41.546875 
Q 48.578125 39.3125 48.578125 33.453125 
L 48.578125 21.734375 
Q 48.578125 9.46875 49.140625 6.21875 
Q 49.703125 2.984375 51.375 0 
L 42.1875 0 
Q 40.828125 2.734375 40.4375 6.390625 
z
M 39.703125 26.03125 
Q 34.90625 24.078125 25.34375 22.703125 
Q 19.921875 21.921875 17.671875 20.9375 
Q 15.4375 19.96875 14.203125 18.09375 
Q 12.984375 16.21875 12.984375 13.921875 
Q 12.984375 10.40625 15.640625 8.0625 
Q 18.3125 5.71875 23.4375 5.71875 
Q 28.515625 5.71875 32.46875 7.9375 
Q 36.421875 10.15625 38.28125 14.015625 
Q 39.703125 17 39.703125 22.796875 
z
" id="ArialMT-61"/>
       <path d="M 6.59375 0 
L 6.59375 51.859375 
L 14.453125 51.859375 
L 14.453125 44.578125 
Q 16.890625 48.390625 20.9375 50.703125 
Q 25 53.03125 30.171875 53.03125 
Q 35.9375 53.03125 39.625 50.640625 
Q 43.3125 48.25 44.828125 43.953125 
Q 50.984375 53.03125 60.84375 53.03125 
Q 68.5625 53.03125 72.703125 48.75 
Q 76.859375 44.484375 76.859375 35.59375 
L 76.859375 0 
L 68.109375 0 
L 68.109375 32.671875 
Q 68.109375 37.9375 67.25 40.25 
Q 66.40625 42.578125 64.15625 43.984375 
Q 61.921875 45.40625 58.890625 45.40625 
Q 53.421875 45.40625 49.796875 41.765625 
Q 46.1875 38.140625 46.1875 30.125 
L 46.1875 0 
L 37.40625 0 
L 37.40625 33.6875 
Q 37.40625 39.546875 35.25 42.46875 
Q 33.109375 45.40625 28.21875 45.40625 
Q 24.515625 45.40625 21.359375 43.453125 
Q 18.21875 41.5 16.796875 37.734375 
Q 15.375 33.984375 15.375 26.90625 
L 15.375 0 
z
" id="ArialMT-6d"/>
       <path d="M 6.203125 -19.96875 
L 5.21875 -11.71875 
Q 8.109375 -12.5 10.25 -12.5 
Q 13.1875 -12.5 14.9375 -11.515625 
Q 16.703125 -10.546875 17.828125 -8.796875 
Q 18.65625 -7.46875 20.515625 -2.25 
Q 20.75 -1.515625 21.296875 -0.09375 
L 1.609375 51.859375 
L 11.078125 51.859375 
L 21.875 21.828125 
Q 23.96875 16.109375 25.640625 9.8125 
Q 27.15625 15.875 29.25 21.625 
L 40.328125 51.859375 
L 49.125 51.859375 
L 29.390625 -0.875 
Q 26.21875 -9.421875 24.46875 -12.640625 
Q 22.125 -17 19.09375 -19.015625 
Q 16.0625 -21.046875 11.859375 -21.046875 
Q 9.328125 -21.046875 6.203125 -19.96875 
z
" id="ArialMT-79"/>
       <path d="M 6.59375 0 
L 6.59375 71.578125 
L 15.375 71.578125 
L 15.375 45.90625 
Q 21.53125 53.03125 30.90625 53.03125 
Q 36.671875 53.03125 40.921875 50.75 
Q 45.171875 48.484375 47 44.484375 
Q 48.828125 40.484375 48.828125 32.859375 
L 48.828125 0 
L 40.046875 0 
L 40.046875 32.859375 
Q 40.046875 39.453125 37.1875 42.453125 
Q 34.328125 45.453125 29.109375 45.453125 
Q 25.203125 45.453125 21.75 43.421875 
Q 18.3125 41.40625 16.84375 37.9375 
Q 15.375 34.46875 15.375 28.375 
L 15.375 0 
z
" id="ArialMT-68"/>
       <path d="M 3.328125 25.921875 
Q 3.328125 40.328125 11.328125 47.265625 
Q 18.015625 53.03125 27.640625 53.03125 
Q 38.328125 53.03125 45.109375 46.015625 
Q 51.90625 39.015625 51.90625 26.65625 
Q 51.90625 16.65625 48.90625 10.90625 
Q 45.90625 5.171875 40.15625 2 
Q 34.421875 -1.171875 27.640625 -1.171875 
Q 16.75 -1.171875 10.03125 5.8125 
Q 3.328125 12.796875 3.328125 25.921875 
z
M 12.359375 25.921875 
Q 12.359375 15.96875 16.703125 11.015625 
Q 21.046875 6.0625 27.640625 6.0625 
Q 34.1875 6.0625 38.53125 11.03125 
Q 42.875 16.015625 42.875 26.21875 
Q 42.875 35.84375 38.5 40.796875 
Q 34.125 45.75 27.640625 45.75 
Q 21.046875 45.75 16.703125 40.8125 
Q 12.359375 35.890625 12.359375 25.921875 
z
" id="ArialMT-6f"/>
       <path d="M 40.578125 0 
L 40.578125 7.625 
Q 34.515625 -1.171875 24.125 -1.171875 
Q 19.53125 -1.171875 15.546875 0.578125 
Q 11.578125 2.34375 9.640625 5 
Q 7.71875 7.671875 6.9375 11.53125 
Q 6.390625 14.109375 6.390625 19.734375 
L 6.390625 51.859375 
L 15.1875 51.859375 
L 15.1875 23.09375 
Q 15.1875 16.21875 15.71875 13.8125 
Q 16.546875 10.359375 19.234375 8.375 
Q 21.921875 6.390625 25.875 6.390625 
Q 29.828125 6.390625 33.296875 8.421875 
Q 36.765625 10.453125 38.203125 13.9375 
Q 39.65625 17.4375 39.65625 24.078125 
L 39.65625 51.859375 
L 48.4375 51.859375 
L 48.4375 0 
z
" id="ArialMT-75"/>
       <path d="M 3.078125 15.484375 
L 11.765625 16.84375 
Q 12.5 11.625 15.84375 8.84375 
Q 19.1875 6.0625 25.203125 6.0625 
Q 31.25 6.0625 34.171875 8.515625 
Q 37.109375 10.984375 37.109375 14.3125 
Q 37.109375 17.28125 34.515625 19 
Q 32.71875 20.171875 25.53125 21.96875 
Q 15.875 24.421875 12.140625 26.203125 
Q 8.40625 27.984375 6.46875 31.125 
Q 4.546875 34.28125 4.546875 38.09375 
Q 4.546875 41.546875 6.125 44.5 
Q 7.71875 47.46875 10.453125 49.421875 
Q 12.5 50.921875 16.03125 51.96875 
Q 19.578125 53.03125 23.640625 53.03125 
Q 29.734375 53.03125 34.34375 51.265625 
Q 38.96875 49.515625 41.15625 46.5 
Q 43.359375 43.5 44.1875 38.484375 
L 35.59375 37.3125 
Q 35.015625 41.3125 32.203125 43.546875 
Q 29.390625 45.796875 24.265625 45.796875 
Q 18.21875 45.796875 15.625 43.796875 
Q 13.03125 41.796875 13.03125 39.109375 
Q 13.03125 37.40625 14.109375 36.03125 
Q 15.1875 34.625 17.484375 33.6875 
Q 18.796875 33.203125 25.25 31.453125 
Q 34.578125 28.953125 38.25 27.359375 
Q 41.9375 25.78125 44.03125 22.75 
Q 46.140625 19.734375 46.140625 15.234375 
Q 46.140625 10.84375 43.578125 6.953125 
Q 41.015625 3.078125 36.171875 0.953125 
Q 31.34375 -1.171875 25.25 -1.171875 
Q 15.140625 -1.171875 9.84375 3.03125 
Q 4.546875 7.234375 3.078125 15.484375 
z
" id="ArialMT-73"/>
      </defs>
      <g style="fill:#262626;" transform="translate(67.520464 226.771437)rotate(-90)scale(0.09 -0.09)">
       <use xlink:href="#ArialMT-53"/>
       <use x="66.699219" xlink:href="#ArialMT-69"/>
       <use x="88.916016" xlink:href="#ArialMT-6e"/>
       <use x="144.53125" xlink:href="#ArialMT-67"/>
       <use x="200.146484" xlink:href="#ArialMT-6c"/>
       <use x="222.363281" xlink:href="#ArialMT-65"/>
       <use x="277.978516" xlink:href="#ArialMT-20"/>
       <use x="305.761719" xlink:href="#ArialMT-66"/>
       <use x="333.544922" xlink:href="#ArialMT-61"/>
       <use x="389.160156" xlink:href="#ArialMT-6d"/>
       <use x="472.460938" xlink:href="#ArialMT-69"/>
       <use x="494.677734" xlink:href="#ArialMT-6c"/>
       <use x="516.894531" xlink:href="#ArialMT-79"/>
       <use x="566.894531" xlink:href="#ArialMT-20"/>
       <use x="594.677734" xlink:href="#ArialMT-68"/>
       <use x="650.292969" xlink:href="#ArialMT-6f"/>
       <use x="705.908203" xlink:href="#ArialMT-75"/>
       <use x="761.523438" xlink:href="#ArialMT-73"/>
       <use x="811.523438" xlink:href="#ArialMT-65"/>
      </g>
     </g>
    </g>
    <g id="xtick_2">
     <g id="line2d_2">
      <g>
       <use style="fill:#262626;stroke:#262626;" x="91.239143" xlink:href="#md2ad8eff30" y="140.433"/>
      </g>
     </g>
     <g id="text_2">
      <!-- Multi-family house -->
      <defs>
       <path d="M 7.421875 0 
L 7.421875 71.578125 
L 21.6875 71.578125 
L 38.625 20.90625 
Q 40.96875 13.8125 42.046875 10.296875 
Q 43.265625 14.203125 45.84375 21.78125 
L 62.984375 71.578125 
L 75.734375 71.578125 
L 75.734375 0 
L 66.609375 0 
L 66.609375 59.90625 
L 45.796875 0 
L 37.25 0 
L 16.546875 60.9375 
L 16.546875 0 
z
" id="ArialMT-4d"/>
       <path d="M 25.78125 7.859375 
L 27.046875 0.09375 
Q 23.34375 -0.6875 20.40625 -0.6875 
Q 15.625 -0.6875 12.984375 0.828125 
Q 10.359375 2.34375 9.28125 4.8125 
Q 8.203125 7.28125 8.203125 15.1875 
L 8.203125 45.015625 
L 1.765625 45.015625 
L 1.765625 51.859375 
L 8.203125 51.859375 
L 8.203125 64.703125 
L 16.9375 69.96875 
L 16.9375 51.859375 
L 25.78125 51.859375 
L 25.78125 45.015625 
L 16.9375 45.015625 
L 16.9375 14.703125 
Q 16.9375 10.9375 17.40625 9.859375 
Q 17.875 8.796875 18.921875 8.15625 
Q 19.96875 7.515625 21.921875 7.515625 
Q 23.390625 7.515625 25.78125 7.859375 
z
" id="ArialMT-74"/>
       <path d="M 3.171875 21.484375 
L 3.171875 30.328125 
L 30.171875 30.328125 
L 30.171875 21.484375 
z
" id="ArialMT-2d"/>
      </defs>
      <g style="fill:#262626;" transform="translate(93.567893 221.251906)rotate(-90)scale(0.09 -0.09)">
       <use xlink:href="#ArialMT-4d"/>
       <use x="83.300781" xlink:href="#ArialMT-75"/>
       <use x="138.916016" xlink:href="#ArialMT-6c"/>
       <use x="161.132812" xlink:href="#ArialMT-74"/>
       <use x="188.916016" xlink:href="#ArialMT-69"/>
       <use x="211.132812" xlink:href="#ArialMT-2d"/>
       <use x="244.433594" xlink:href="#ArialMT-66"/>
       <use x="272.216797" xlink:href="#ArialMT-61"/>
       <use x="327.832031" xlink:href="#ArialMT-6d"/>
       <use x="411.132812" xlink:href="#ArialMT-69"/>
       <use x="433.349609" xlink:href="#ArialMT-6c"/>
       <use x="455.566406" xlink:href="#ArialMT-79"/>
       <use x="505.566406" xlink:href="#ArialMT-20"/>
       <use x="533.349609" xlink:href="#ArialMT-68"/>
       <use x="588.964844" xlink:href="#ArialMT-6f"/>
       <use x="644.580078" xlink:href="#ArialMT-75"/>
       <use x="700.195312" xlink:href="#ArialMT-73"/>
       <use x="750.195312" xlink:href="#ArialMT-65"/>
      </g>
     </g>
    </g>
    <g id="xtick_3">
     <g id="line2d_3">
      <g>
       <use style="fill:#262626;stroke:#262626;" x="117.286571" xlink:href="#md2ad8eff30" y="140.433"/>
      </g>
     </g>
     <g id="text_3">
      <!-- Row house -->
      <defs>
       <path d="M 7.859375 0 
L 7.859375 71.578125 
L 39.59375 71.578125 
Q 49.171875 71.578125 54.140625 69.640625 
Q 59.125 67.71875 62.109375 62.828125 
Q 65.09375 57.953125 65.09375 52.046875 
Q 65.09375 44.4375 60.15625 39.203125 
Q 55.21875 33.984375 44.921875 32.5625 
Q 48.6875 30.765625 50.640625 29 
Q 54.78125 25.203125 58.5 19.484375 
L 70.953125 0 
L 59.03125 0 
L 49.5625 14.890625 
Q 45.40625 21.34375 42.71875 24.75 
Q 40.046875 28.171875 37.921875 29.53125 
Q 35.796875 30.90625 33.59375 31.453125 
Q 31.984375 31.78125 28.328125 31.78125 
L 17.328125 31.78125 
L 17.328125 0 
z
M 17.328125 39.984375 
L 37.703125 39.984375 
Q 44.1875 39.984375 47.84375 41.328125 
Q 51.515625 42.671875 53.421875 45.625 
Q 55.328125 48.578125 55.328125 52.046875 
Q 55.328125 57.125 51.640625 60.390625 
Q 47.953125 63.671875 39.984375 63.671875 
L 17.328125 63.671875 
z
" id="ArialMT-52"/>
       <path d="M 16.15625 0 
L 0.296875 51.859375 
L 9.375 51.859375 
L 17.625 21.921875 
L 20.703125 10.796875 
Q 20.90625 11.625 23.390625 21.484375 
L 31.640625 51.859375 
L 40.671875 51.859375 
L 48.4375 21.78125 
L 51.03125 11.859375 
L 54 21.875 
L 62.890625 51.859375 
L 71.4375 51.859375 
L 55.21875 0 
L 46.09375 0 
L 37.84375 31.0625 
L 35.84375 39.890625 
L 25.34375 0 
z
" id="ArialMT-77"/>
      </defs>
      <g style="fill:#262626;" transform="translate(119.613212 193.756906)rotate(-90)scale(0.09 -0.09)">
       <use xlink:href="#ArialMT-52"/>
       <use x="72.216797" xlink:href="#ArialMT-6f"/>
       <use x="127.832031" xlink:href="#ArialMT-77"/>
       <use x="200.048828" xlink:href="#ArialMT-20"/>
       <use x="227.832031" xlink:href="#ArialMT-68"/>
       <use x="283.447266" xlink:href="#ArialMT-6f"/>
       <use x="339.0625" xlink:href="#ArialMT-75"/>
       <use x="394.677734" xlink:href="#ArialMT-73"/>
       <use x="444.677734" xlink:href="#ArialMT-65"/>
      </g>
     </g>
    </g>
    <g id="xtick_4">
     <g id="line2d_4">
      <g>
       <use style="fill:#262626;stroke:#262626;" x="143.334" xlink:href="#md2ad8eff30" y="140.433"/>
      </g>
     </g>
     <g id="text_4">
      <!-- Semi-detached -->
      <defs>
       <path d="M 40.234375 0 
L 40.234375 6.546875 
Q 35.296875 -1.171875 25.734375 -1.171875 
Q 19.53125 -1.171875 14.328125 2.25 
Q 9.125 5.671875 6.265625 11.796875 
Q 3.421875 17.921875 3.421875 25.875 
Q 3.421875 33.640625 6 39.96875 
Q 8.59375 46.296875 13.765625 49.65625 
Q 18.953125 53.03125 25.34375 53.03125 
Q 30.03125 53.03125 33.6875 51.046875 
Q 37.359375 49.078125 39.65625 45.90625 
L 39.65625 71.578125 
L 48.390625 71.578125 
L 48.390625 0 
z
M 12.453125 25.875 
Q 12.453125 15.921875 16.640625 10.984375 
Q 20.84375 6.0625 26.5625 6.0625 
Q 32.328125 6.0625 36.34375 10.765625 
Q 40.375 15.484375 40.375 25.140625 
Q 40.375 35.796875 36.265625 40.765625 
Q 32.171875 45.75 26.171875 45.75 
Q 20.3125 45.75 16.375 40.96875 
Q 12.453125 36.1875 12.453125 25.875 
z
" id="ArialMT-64"/>
       <path d="M 40.4375 19 
L 49.078125 17.875 
Q 47.65625 8.9375 41.8125 3.875 
Q 35.984375 -1.171875 27.484375 -1.171875 
Q 16.84375 -1.171875 10.375 5.78125 
Q 3.90625 12.75 3.90625 25.734375 
Q 3.90625 34.125 6.6875 40.421875 
Q 9.46875 46.734375 15.15625 49.875 
Q 20.84375 53.03125 27.546875 53.03125 
Q 35.984375 53.03125 41.359375 48.75 
Q 46.734375 44.484375 48.25 36.625 
L 39.703125 35.296875 
Q 38.484375 40.53125 35.375 43.15625 
Q 32.28125 45.796875 27.875 45.796875 
Q 21.234375 45.796875 17.078125 41.03125 
Q 12.9375 36.28125 12.9375 25.984375 
Q 12.9375 15.53125 16.9375 10.796875 
Q 20.953125 6.0625 27.390625 6.0625 
Q 32.5625 6.0625 36.03125 9.234375 
Q 39.5 12.40625 40.4375 19 
z
" id="ArialMT-63"/>
      </defs>
      <g style="fill:#262626;" transform="translate(145.660641 209.263625)rotate(-90)scale(0.09 -0.09)">
       <use xlink:href="#ArialMT-53"/>
       <use x="66.699219" xlink:href="#ArialMT-65"/>
       <use x="122.314453" xlink:href="#ArialMT-6d"/>
       <use x="205.615234" xlink:href="#ArialMT-69"/>
       <use x="227.832031" xlink:href="#ArialMT-2d"/>
       <use x="261.132812" xlink:href="#ArialMT-64"/>
       <use x="316.748047" xlink:href="#ArialMT-65"/>
       <use x="372.363281" xlink:href="#ArialMT-74"/>
       <use x="400.146484" xlink:href="#ArialMT-61"/>
       <use x="455.761719" xlink:href="#ArialMT-63"/>
       <use x="505.761719" xlink:href="#ArialMT-68"/>
       <use x="561.376953" xlink:href="#ArialMT-65"/>
       <use x="616.992188" xlink:href="#ArialMT-64"/>
      </g>
     </g>
    </g>
    <g id="xtick_5">
     <g id="line2d_5">
      <g>
       <use style="fill:#262626;stroke:#262626;" x="169.381429" xlink:href="#md2ad8eff30" y="140.433"/>
      </g>
     </g>
     <g id="text_5">
      <!-- Office -->
      <defs>
       <path d="M 4.828125 34.859375 
Q 4.828125 52.6875 14.390625 62.765625 
Q 23.96875 72.859375 39.109375 72.859375 
Q 49.03125 72.859375 56.984375 68.109375 
Q 64.9375 63.375 69.109375 54.90625 
Q 73.296875 46.4375 73.296875 35.6875 
Q 73.296875 24.8125 68.890625 16.21875 
Q 64.5 7.625 56.4375 3.203125 
Q 48.390625 -1.21875 39.0625 -1.21875 
Q 28.953125 -1.21875 20.984375 3.65625 
Q 13.03125 8.546875 8.921875 16.984375 
Q 4.828125 25.4375 4.828125 34.859375 
z
M 14.59375 34.71875 
Q 14.59375 21.78125 21.546875 14.328125 
Q 28.515625 6.890625 39.015625 6.890625 
Q 49.703125 6.890625 56.609375 14.40625 
Q 63.53125 21.921875 63.53125 35.75 
Q 63.53125 44.484375 60.578125 51 
Q 57.625 57.515625 51.921875 61.109375 
Q 46.234375 64.703125 39.15625 64.703125 
Q 29.109375 64.703125 21.84375 57.78125 
Q 14.59375 50.875 14.59375 34.71875 
z
" id="ArialMT-4f"/>
      </defs>
      <g style="fill:#262626;" transform="translate(171.708069 172.237063)rotate(-90)scale(0.09 -0.09)">
       <use xlink:href="#ArialMT-4f"/>
       <use x="77.783203" xlink:href="#ArialMT-66"/>
       <use x="105.550781" xlink:href="#ArialMT-66"/>
       <use x="133.333984" xlink:href="#ArialMT-69"/>
       <use x="155.550781" xlink:href="#ArialMT-63"/>
       <use x="205.550781" xlink:href="#ArialMT-65"/>
      </g>
     </g>
    </g>
    <g id="xtick_6">
     <g id="line2d_6">
      <g>
       <use style="fill:#262626;stroke:#262626;" x="195.428857" xlink:href="#md2ad8eff30" y="140.433"/>
      </g>
     </g>
     <g id="text_6">
      <!-- Hospital and Health -->
      <defs>
       <path d="M 8.015625 0 
L 8.015625 71.578125 
L 17.484375 71.578125 
L 17.484375 42.1875 
L 54.6875 42.1875 
L 54.6875 71.578125 
L 64.15625 71.578125 
L 64.15625 0 
L 54.6875 0 
L 54.6875 33.734375 
L 17.484375 33.734375 
L 17.484375 0 
z
" id="ArialMT-48"/>
       <path d="M 6.59375 -19.875 
L 6.59375 51.859375 
L 14.59375 51.859375 
L 14.59375 45.125 
Q 17.4375 49.078125 21 51.046875 
Q 24.5625 53.03125 29.640625 53.03125 
Q 36.28125 53.03125 41.359375 49.609375 
Q 46.4375 46.1875 49.015625 39.953125 
Q 51.609375 33.734375 51.609375 26.3125 
Q 51.609375 18.359375 48.75 11.984375 
Q 45.90625 5.609375 40.453125 2.21875 
Q 35.015625 -1.171875 29 -1.171875 
Q 24.609375 -1.171875 21.109375 0.6875 
Q 17.625 2.546875 15.375 5.375 
L 15.375 -19.875 
z
M 14.546875 25.640625 
Q 14.546875 15.625 18.59375 10.84375 
Q 22.65625 6.0625 28.421875 6.0625 
Q 34.28125 6.0625 38.453125 11.015625 
Q 42.625 15.96875 42.625 26.375 
Q 42.625 36.28125 38.546875 41.203125 
Q 34.46875 46.140625 28.8125 46.140625 
Q 23.1875 46.140625 18.859375 40.890625 
Q 14.546875 35.640625 14.546875 25.640625 
z
" id="ArialMT-70"/>
      </defs>
      <g style="fill:#262626;" transform="translate(197.755498 227.276281)rotate(-90)scale(0.09 -0.09)">
       <use xlink:href="#ArialMT-48"/>
       <use x="72.216797" xlink:href="#ArialMT-6f"/>
       <use x="127.832031" xlink:href="#ArialMT-73"/>
       <use x="177.832031" xlink:href="#ArialMT-70"/>
       <use x="233.447266" xlink:href="#ArialMT-69"/>
       <use x="255.664062" xlink:href="#ArialMT-74"/>
       <use x="283.447266" xlink:href="#ArialMT-61"/>
       <use x="339.0625" xlink:href="#ArialMT-6c"/>
       <use x="361.279297" xlink:href="#ArialMT-20"/>
       <use x="389.0625" xlink:href="#ArialMT-61"/>
       <use x="444.677734" xlink:href="#ArialMT-6e"/>
       <use x="500.292969" xlink:href="#ArialMT-64"/>
       <use x="555.908203" xlink:href="#ArialMT-20"/>
       <use x="583.691406" xlink:href="#ArialMT-48"/>
       <use x="655.908203" xlink:href="#ArialMT-65"/>
       <use x="711.523438" xlink:href="#ArialMT-61"/>
       <use x="767.138672" xlink:href="#ArialMT-6c"/>
       <use x="789.355469" xlink:href="#ArialMT-74"/>
       <use x="817.138672" xlink:href="#ArialMT-68"/>
      </g>
     </g>
    </g>
    <g id="xtick_7">
     <g id="line2d_7">
      <g>
       <use style="fill:#262626;stroke:#262626;" x="221.476286" xlink:href="#md2ad8eff30" y="140.433"/>
      </g>
     </g>
     <g id="text_7">
      <!-- School and Daycare -->
      <defs>
       <path d="M 7.71875 0 
L 7.71875 71.578125 
L 32.375 71.578125 
Q 40.71875 71.578125 45.125 70.5625 
Q 51.265625 69.140625 55.609375 65.4375 
Q 61.28125 60.640625 64.078125 53.1875 
Q 66.890625 45.75 66.890625 36.1875 
Q 66.890625 28.03125 64.984375 21.734375 
Q 63.09375 15.4375 60.109375 11.296875 
Q 57.125 7.171875 53.578125 4.796875 
Q 50.046875 2.4375 45.046875 1.21875 
Q 40.046875 0 33.546875 0 
z
M 17.1875 8.453125 
L 32.46875 8.453125 
Q 39.546875 8.453125 43.578125 9.765625 
Q 47.609375 11.078125 50 13.484375 
Q 53.375 16.84375 55.25 22.53125 
Q 57.125 28.21875 57.125 36.328125 
Q 57.125 47.5625 53.4375 53.59375 
Q 49.75 59.625 44.484375 61.671875 
Q 40.671875 63.140625 32.234375 63.140625 
L 17.1875 63.140625 
z
" id="ArialMT-44"/>
       <path d="M 6.5 0 
L 6.5 51.859375 
L 14.40625 51.859375 
L 14.40625 44 
Q 17.4375 49.515625 20 51.265625 
Q 22.5625 53.03125 25.640625 53.03125 
Q 30.078125 53.03125 34.671875 50.203125 
L 31.640625 42.046875 
Q 28.421875 43.953125 25.203125 43.953125 
Q 22.3125 43.953125 20.015625 42.21875 
Q 17.71875 40.484375 16.75 37.40625 
Q 15.28125 32.71875 15.28125 27.15625 
L 15.28125 0 
z
" id="ArialMT-72"/>
      </defs>
      <g style="fill:#262626;" transform="translate(223.805036 229.776594)rotate(-90)scale(0.09 -0.09)">
       <use xlink:href="#ArialMT-53"/>
       <use x="66.699219" xlink:href="#ArialMT-63"/>
       <use x="116.699219" xlink:href="#ArialMT-68"/>
       <use x="172.314453" xlink:href="#ArialMT-6f"/>
       <use x="227.929688" xlink:href="#ArialMT-6f"/>
       <use x="283.544922" xlink:href="#ArialMT-6c"/>
       <use x="305.761719" xlink:href="#ArialMT-20"/>
       <use x="333.544922" xlink:href="#ArialMT-61"/>
       <use x="389.160156" xlink:href="#ArialMT-6e"/>
       <use x="444.775391" xlink:href="#ArialMT-64"/>
       <use x="500.390625" xlink:href="#ArialMT-20"/>
       <use x="528.173828" xlink:href="#ArialMT-44"/>
       <use x="600.390625" xlink:href="#ArialMT-61"/>
       <use x="656.005859" xlink:href="#ArialMT-79"/>
       <use x="706.005859" xlink:href="#ArialMT-63"/>
       <use x="756.005859" xlink:href="#ArialMT-61"/>
       <use x="811.621094" xlink:href="#ArialMT-72"/>
       <use x="844.921875" xlink:href="#ArialMT-65"/>
      </g>
     </g>
    </g>
    <g id="xtick_8">
     <g id="line2d_8">
      <g>
       <use style="fill:#262626;stroke:#262626;" x="247.523714" xlink:href="#md2ad8eff30" y="140.433"/>
      </g>
     </g>
     <g id="text_8">
      <!-- Sport &amp; Entertainment -->
      <defs>
       <path d="M 47.515625 8.453125 
Q 43.171875 3.609375 38.03125 1.1875 
Q 32.90625 -1.21875 26.953125 -1.21875 
Q 15.96875 -1.21875 9.515625 6.203125 
Q 4.296875 12.25 4.296875 19.734375 
Q 4.296875 26.375 8.5625 31.71875 
Q 12.84375 37.0625 21.34375 41.109375 
Q 16.5 46.6875 14.890625 50.140625 
Q 13.28125 53.609375 13.28125 56.84375 
Q 13.28125 63.28125 18.328125 68.03125 
Q 23.390625 72.796875 31.0625 72.796875 
Q 38.375 72.796875 43.03125 68.296875 
Q 47.703125 63.8125 47.703125 57.515625 
Q 47.703125 47.3125 34.1875 40.09375 
L 47.015625 23.734375 
Q 49.21875 28.03125 50.4375 33.6875 
L 59.578125 31.734375 
Q 57.234375 22.359375 53.21875 16.3125 
Q 58.15625 9.765625 64.40625 5.328125 
L 58.5 -1.65625 
Q 53.171875 1.765625 47.515625 8.453125 
z
M 29.640625 45.75 
Q 35.359375 49.125 37.03125 51.65625 
Q 38.71875 54.203125 38.71875 57.28125 
Q 38.71875 60.9375 36.390625 63.25 
Q 34.078125 65.578125 30.609375 65.578125 
Q 27.046875 65.578125 24.671875 63.28125 
Q 22.3125 60.984375 22.3125 57.671875 
Q 22.3125 56 23.171875 54.171875 
Q 24.03125 52.34375 25.734375 50.296875 
z
M 42 15.375 
L 25.875 35.359375 
Q 18.75 31.109375 16.25 27.46875 
Q 13.765625 23.828125 13.765625 20.265625 
Q 13.765625 15.921875 17.234375 11.234375 
Q 20.703125 6.546875 27.046875 6.546875 
Q 31 6.546875 35.21875 9 
Q 39.453125 11.46875 42 15.375 
z
" id="ArialMT-26"/>
       <path d="M 7.90625 0 
L 7.90625 71.578125 
L 59.671875 71.578125 
L 59.671875 63.140625 
L 17.390625 63.140625 
L 17.390625 41.21875 
L 56.984375 41.21875 
L 56.984375 32.8125 
L 17.390625 32.8125 
L 17.390625 8.453125 
L 61.328125 8.453125 
L 61.328125 0 
z
" id="ArialMT-45"/>
      </defs>
      <g style="fill:#262626;" transform="translate(249.905199 237.273313)rotate(-90)scale(0.09 -0.09)">
       <use xlink:href="#ArialMT-53"/>
       <use x="66.699219" xlink:href="#ArialMT-70"/>
       <use x="122.314453" xlink:href="#ArialMT-6f"/>
       <use x="177.929688" xlink:href="#ArialMT-72"/>
       <use x="211.230469" xlink:href="#ArialMT-74"/>
       <use x="239.013672" xlink:href="#ArialMT-20"/>
       <use x="266.796875" xlink:href="#ArialMT-26"/>
       <use x="333.496094" xlink:href="#ArialMT-20"/>
       <use x="361.279297" xlink:href="#ArialMT-45"/>
       <use x="427.978516" xlink:href="#ArialMT-6e"/>
       <use x="483.59375" xlink:href="#ArialMT-74"/>
       <use x="511.376953" xlink:href="#ArialMT-65"/>
       <use x="566.992188" xlink:href="#ArialMT-72"/>
       <use x="600.292969" xlink:href="#ArialMT-74"/>
       <use x="628.076172" xlink:href="#ArialMT-61"/>
       <use x="683.691406" xlink:href="#ArialMT-69"/>
       <use x="705.908203" xlink:href="#ArialMT-6e"/>
       <use x="761.523438" xlink:href="#ArialMT-6d"/>
       <use x="844.824219" xlink:href="#ArialMT-65"/>
       <use x="900.439453" xlink:href="#ArialMT-6e"/>
       <use x="956.054688" xlink:href="#ArialMT-74"/>
      </g>
     </g>
    </g>
    <g id="xtick_9">
     <g id="line2d_9">
      <g>
       <use style="fill:#262626;stroke:#262626;" x="273.571143" xlink:href="#md2ad8eff30" y="140.433"/>
      </g>
     </g>
     <g id="text_9">
      <!-- Hotel &amp; Resort -->
      <g style="fill:#262626;" transform="translate(275.897783 207.252688)rotate(-90)scale(0.09 -0.09)">
       <use xlink:href="#ArialMT-48"/>
       <use x="72.216797" xlink:href="#ArialMT-6f"/>
       <use x="127.832031" xlink:href="#ArialMT-74"/>
       <use x="155.615234" xlink:href="#ArialMT-65"/>
       <use x="211.230469" xlink:href="#ArialMT-6c"/>
       <use x="233.447266" xlink:href="#ArialMT-20"/>
       <use x="261.230469" xlink:href="#ArialMT-26"/>
       <use x="327.929688" xlink:href="#ArialMT-20"/>
       <use x="355.712891" xlink:href="#ArialMT-52"/>
       <use x="427.929688" xlink:href="#ArialMT-65"/>
       <use x="483.544922" xlink:href="#ArialMT-73"/>
       <use x="533.544922" xlink:href="#ArialMT-6f"/>
       <use x="589.160156" xlink:href="#ArialMT-72"/>
       <use x="622.460938" xlink:href="#ArialMT-74"/>
      </g>
     </g>
    </g>
    <g id="xtick_10">
     <g id="line2d_10">
      <g>
       <use style="fill:#262626;stroke:#262626;" x="299.618571" xlink:href="#md2ad8eff30" y="140.433"/>
      </g>
     </g>
     <g id="text_10">
      <!-- Retail and Restaurant -->
      <g style="fill:#262626;" transform="translate(301.945212 235.778469)rotate(-90)scale(0.09 -0.09)">
       <use xlink:href="#ArialMT-52"/>
       <use x="72.216797" xlink:href="#ArialMT-65"/>
       <use x="127.832031" xlink:href="#ArialMT-74"/>
       <use x="155.615234" xlink:href="#ArialMT-61"/>
       <use x="211.230469" xlink:href="#ArialMT-69"/>
       <use x="233.447266" xlink:href="#ArialMT-6c"/>
       <use x="255.664062" xlink:href="#ArialMT-20"/>
       <use x="283.447266" xlink:href="#ArialMT-61"/>
       <use x="339.0625" xlink:href="#ArialMT-6e"/>
       <use x="394.677734" xlink:href="#ArialMT-64"/>
       <use x="450.292969" xlink:href="#ArialMT-20"/>
       <use x="478.076172" xlink:href="#ArialMT-52"/>
       <use x="550.292969" xlink:href="#ArialMT-65"/>
       <use x="605.908203" xlink:href="#ArialMT-73"/>
       <use x="655.908203" xlink:href="#ArialMT-74"/>
       <use x="683.691406" xlink:href="#ArialMT-61"/>
       <use x="739.306641" xlink:href="#ArialMT-75"/>
       <use x="794.921875" xlink:href="#ArialMT-72"/>
       <use x="828.222656" xlink:href="#ArialMT-61"/>
       <use x="883.837891" xlink:href="#ArialMT-6e"/>
       <use x="939.453125" xlink:href="#ArialMT-74"/>
      </g>
     </g>
    </g>
    <g id="xtick_11">
     <g id="line2d_11">
      <g>
       <use style="fill:#262626;stroke:#262626;" x="325.666" xlink:href="#md2ad8eff30" y="140.433"/>
      </g>
     </g>
     <g id="text_11">
      <!-- Art &amp; Culture -->
      <defs>
       <path d="M -0.140625 0 
L 27.34375 71.578125 
L 37.546875 71.578125 
L 66.84375 0 
L 56.0625 0 
L 47.703125 21.6875 
L 17.78125 21.6875 
L 9.90625 0 
z
M 20.515625 29.390625 
L 44.78125 29.390625 
L 37.3125 49.21875 
Q 33.890625 58.25 32.234375 64.0625 
Q 30.859375 57.171875 28.375 50.390625 
z
" id="ArialMT-41"/>
       <path d="M 58.796875 25.09375 
L 68.265625 22.703125 
Q 65.28125 11.03125 57.546875 4.90625 
Q 49.8125 -1.21875 38.625 -1.21875 
Q 27.046875 -1.21875 19.796875 3.484375 
Q 12.546875 8.203125 8.765625 17.140625 
Q 4.984375 26.078125 4.984375 36.328125 
Q 4.984375 47.515625 9.25 55.828125 
Q 13.53125 64.15625 21.40625 68.46875 
Q 29.296875 72.796875 38.765625 72.796875 
Q 49.515625 72.796875 56.828125 67.328125 
Q 64.15625 61.859375 67.046875 51.953125 
L 57.71875 49.75 
Q 55.21875 57.5625 50.484375 61.125 
Q 45.75 64.703125 38.578125 64.703125 
Q 30.328125 64.703125 24.78125 60.734375 
Q 19.234375 56.78125 16.984375 50.109375 
Q 14.75 43.453125 14.75 36.375 
Q 14.75 27.25 17.40625 20.4375 
Q 20.0625 13.625 25.671875 10.25 
Q 31.296875 6.890625 37.84375 6.890625 
Q 45.796875 6.890625 51.3125 11.46875 
Q 56.84375 16.0625 58.796875 25.09375 
z
" id="ArialMT-43"/>
      </defs>
      <g style="fill:#262626;" transform="translate(327.992641 200.248156)rotate(-90)scale(0.09 -0.09)">
       <use xlink:href="#ArialMT-41"/>
       <use x="66.699219" xlink:href="#ArialMT-72"/>
       <use x="100" xlink:href="#ArialMT-74"/>
       <use x="127.783203" xlink:href="#ArialMT-20"/>
       <use x="155.566406" xlink:href="#ArialMT-26"/>
       <use x="222.265625" xlink:href="#ArialMT-20"/>
       <use x="250.048828" xlink:href="#ArialMT-43"/>
       <use x="322.265625" xlink:href="#ArialMT-75"/>
       <use x="377.880859" xlink:href="#ArialMT-6c"/>
       <use x="400.097656" xlink:href="#ArialMT-74"/>
       <use x="427.880859" xlink:href="#ArialMT-75"/>
       <use x="483.496094" xlink:href="#ArialMT-72"/>
       <use x="516.796875" xlink:href="#ArialMT-65"/>
      </g>
     </g>
    </g>
    <g id="xtick_12">
     <g id="line2d_12">
      <g>
       <use style="fill:#262626;stroke:#262626;" x="351.713429" xlink:href="#md2ad8eff30" y="140.433"/>
      </g>
     </g>
     <g id="text_12">
      <!-- Mixed use -->
      <defs>
       <path d="M 0.734375 0 
L 19.671875 26.953125 
L 2.15625 51.859375 
L 13.140625 51.859375 
L 21.09375 39.703125 
Q 23.34375 36.234375 24.703125 33.890625 
Q 26.859375 37.109375 28.65625 39.59375 
L 37.40625 51.859375 
L 47.90625 51.859375 
L 29.984375 27.4375 
L 49.265625 0 
L 38.484375 0 
L 27.828125 16.109375 
L 25 20.453125 
L 11.375 0 
z
" id="ArialMT-78"/>
      </defs>
      <g style="fill:#262626;" transform="translate(354.040069 189.749094)rotate(-90)scale(0.09 -0.09)">
       <use xlink:href="#ArialMT-4d"/>
       <use x="83.300781" xlink:href="#ArialMT-69"/>
       <use x="105.517578" xlink:href="#ArialMT-78"/>
       <use x="155.517578" xlink:href="#ArialMT-65"/>
       <use x="211.132812" xlink:href="#ArialMT-64"/>
       <use x="266.748047" xlink:href="#ArialMT-20"/>
       <use x="294.53125" xlink:href="#ArialMT-75"/>
       <use x="350.146484" xlink:href="#ArialMT-73"/>
       <use x="400.146484" xlink:href="#ArialMT-65"/>
      </g>
     </g>
    </g>
    <g id="xtick_13">
     <g id="line2d_13">
      <g>
       <use style="fill:#262626;stroke:#262626;" x="377.760857" xlink:href="#md2ad8eff30" y="140.433"/>
      </g>
     </g>
     <g id="text_13">
      <!-- Other -->
      <g style="fill:#262626;" transform="translate(380.087498 171.240031)rotate(-90)scale(0.09 -0.09)">
       <use xlink:href="#ArialMT-4f"/>
       <use x="77.783203" xlink:href="#ArialMT-74"/>
       <use x="105.566406" xlink:href="#ArialMT-68"/>
       <use x="161.181641" xlink:href="#ArialMT-65"/>
       <use x="216.796875" xlink:href="#ArialMT-72"/>
      </g>
     </g>
    </g>
    <g id="xtick_14">
     <g id="line2d_14">
      <g>
       <use style="fill:#262626;stroke:#262626;" x="403.808286" xlink:href="#md2ad8eff30" y="140.433"/>
      </g>
     </g>
     <g id="text_14">
      <!-- No data -->
      <defs>
       <path d="M 7.625 0 
L 7.625 71.578125 
L 17.328125 71.578125 
L 54.9375 15.375 
L 54.9375 71.578125 
L 64.015625 71.578125 
L 64.015625 0 
L 54.296875 0 
L 16.703125 56.25 
L 16.703125 0 
z
" id="ArialMT-4e"/>
      </defs>
      <g style="fill:#262626;" transform="translate(406.134926 180.252688)rotate(-90)scale(0.09 -0.09)">
       <use xlink:href="#ArialMT-4e"/>
       <use x="72.216797" xlink:href="#ArialMT-6f"/>
       <use x="127.832031" xlink:href="#ArialMT-20"/>
       <use x="155.615234" xlink:href="#ArialMT-64"/>
       <use x="211.230469" xlink:href="#ArialMT-61"/>
       <use x="266.845703" xlink:href="#ArialMT-74"/>
       <use x="294.628906" xlink:href="#ArialMT-61"/>
      </g>
     </g>
    </g>
    <g id="text_15">
     <!-- building use subtype -->
     <defs>
      <path d="M 14.703125 0 
L 6.546875 0 
L 6.546875 71.578125 
L 15.328125 71.578125 
L 15.328125 46.046875 
Q 20.90625 53.03125 29.546875 53.03125 
Q 34.328125 53.03125 38.59375 51.09375 
Q 42.875 49.171875 45.625 45.671875 
Q 48.390625 42.1875 49.953125 37.25 
Q 51.515625 32.328125 51.515625 26.703125 
Q 51.515625 13.375 44.921875 6.09375 
Q 38.328125 -1.171875 29.109375 -1.171875 
Q 19.921875 -1.171875 14.703125 6.5 
z
M 14.59375 26.3125 
Q 14.59375 17 17.140625 12.84375 
Q 21.296875 6.0625 28.375 6.0625 
Q 34.125 6.0625 38.328125 11.0625 
Q 42.53125 16.0625 42.53125 25.984375 
Q 42.53125 36.140625 38.5 40.96875 
Q 34.46875 45.796875 28.765625 45.796875 
Q 23 45.796875 18.796875 40.796875 
Q 14.59375 35.796875 14.59375 26.3125 
z
" id="ArialMT-62"/>
     </defs>
     <g style="fill:#262626;" transform="translate(188.914844 254.431125)scale(0.1 -0.1)">
      <use xlink:href="#ArialMT-62"/>
      <use x="55.615234" xlink:href="#ArialMT-75"/>
      <use x="111.230469" xlink:href="#ArialMT-69"/>
      <use x="133.447266" xlink:href="#ArialMT-6c"/>
      <use x="155.664062" xlink:href="#ArialMT-64"/>
      <use x="211.279297" xlink:href="#ArialMT-69"/>
      <use x="233.496094" xlink:href="#ArialMT-6e"/>
      <use x="289.111328" xlink:href="#ArialMT-67"/>
      <use x="344.726562" xlink:href="#ArialMT-20"/>
      <use x="372.509766" xlink:href="#ArialMT-75"/>
      <use x="428.125" xlink:href="#ArialMT-73"/>
      <use x="478.125" xlink:href="#ArialMT-65"/>
      <use x="533.740234" xlink:href="#ArialMT-20"/>
      <use x="561.523438" xlink:href="#ArialMT-73"/>
      <use x="611.523438" xlink:href="#ArialMT-75"/>
      <use x="667.138672" xlink:href="#ArialMT-62"/>
      <use x="722.753906" xlink:href="#ArialMT-74"/>
      <use x="750.537109" xlink:href="#ArialMT-79"/>
      <use x="800.537109" xlink:href="#ArialMT-70"/>
      <use x="856.152344" xlink:href="#ArialMT-65"/>
     </g>
    </g>
   </g>
   <g id="matplotlib.axis_2">
    <g id="ytick_1">
     <g id="line2d_15">
      <path clip-path="url(#p6b035d08b3)" d="M 52.168 140.433 
L 416.832 140.433 
" style="fill:none;stroke:#cccccc;stroke-linecap:round;stroke-width:0.8;"/>
     </g>
     <g id="line2d_16">
      <defs>
       <path d="M 0 0 
L -4.8 0 
" id="m37bc5ab8ca" style="stroke:#262626;"/>
      </defs>
      <g>
       <use style="fill:#262626;stroke:#262626;" x="52.168" xlink:href="#m37bc5ab8ca" y="140.433"/>
      </g>
     </g>
     <g id="text_16">
      <!-- 0 -->
      <defs>
       <path d="M 4.15625 35.296875 
Q 4.15625 48 6.765625 55.734375 
Q 9.375 63.484375 14.515625 67.671875 
Q 19.671875 71.875 27.484375 71.875 
Q 33.25 71.875 37.59375 69.546875 
Q 41.9375 67.234375 44.765625 62.859375 
Q 47.609375 58.5 49.21875 52.21875 
Q 50.828125 45.953125 50.828125 35.296875 
Q 50.828125 22.703125 48.234375 14.96875 
Q 45.65625 7.234375 40.5 3 
Q 35.359375 -1.21875 27.484375 -1.21875 
Q 17.140625 -1.21875 11.234375 6.203125 
Q 4.15625 15.140625 4.15625 35.296875 
z
M 13.1875 35.296875 
Q 13.1875 17.671875 17.3125 11.828125 
Q 21.4375 6 27.484375 6 
Q 33.546875 6 37.671875 11.859375 
Q 41.796875 17.71875 41.796875 35.296875 
Q 41.796875 52.984375 37.671875 58.78125 
Q 33.546875 64.59375 27.390625 64.59375 
Q 21.34375 64.59375 17.71875 59.46875 
Q 13.1875 52.9375 13.1875 35.296875 
z
" id="ArialMT-30"/>
      </defs>
      <g style="fill:#262626;" transform="translate(38.974375 143.582438)scale(0.088 -0.088)">
       <use xlink:href="#ArialMT-30"/>
      </g>
     </g>
    </g>
    <g id="ytick_2">
     <g id="line2d_17">
      <path clip-path="url(#p6b035d08b3)" d="M 52.168 114.628469 
L 416.832 114.628469 
" style="fill:none;stroke:#cccccc;stroke-linecap:round;stroke-width:0.8;"/>
     </g>
     <g id="line2d_18">
      <g>
       <use style="fill:#262626;stroke:#262626;" x="52.168" xlink:href="#m37bc5ab8ca" y="114.628469"/>
      </g>
     </g>
     <g id="text_17">
      <!-- 500 -->
      <defs>
       <path d="M 4.15625 18.75 
L 13.375 19.53125 
Q 14.40625 12.796875 18.140625 9.390625 
Q 21.875 6 27.15625 6 
Q 33.5 6 37.890625 10.78125 
Q 42.28125 15.578125 42.28125 23.484375 
Q 42.28125 31 38.0625 35.34375 
Q 33.84375 39.703125 27 39.703125 
Q 22.75 39.703125 19.328125 37.765625 
Q 15.921875 35.84375 13.96875 32.765625 
L 5.71875 33.84375 
L 12.640625 70.609375 
L 48.25 70.609375 
L 48.25 62.203125 
L 19.671875 62.203125 
L 15.828125 42.96875 
Q 22.265625 47.46875 29.34375 47.46875 
Q 38.71875 47.46875 45.15625 40.96875 
Q 51.609375 34.46875 51.609375 24.265625 
Q 51.609375 14.546875 45.953125 7.46875 
Q 39.0625 -1.21875 27.15625 -1.21875 
Q 17.390625 -1.21875 11.203125 4.25 
Q 5.03125 9.71875 4.15625 18.75 
z
" id="ArialMT-35"/>
      </defs>
      <g style="fill:#262626;" transform="translate(29.187125 117.777906)scale(0.088 -0.088)">
       <use xlink:href="#ArialMT-35"/>
       <use x="55.615234" xlink:href="#ArialMT-30"/>
       <use x="111.230469" xlink:href="#ArialMT-30"/>
      </g>
     </g>
    </g>
    <g id="ytick_3">
     <g id="line2d_19">
      <path clip-path="url(#p6b035d08b3)" d="M 52.168 88.823937 
L 416.832 88.823937 
" style="fill:none;stroke:#cccccc;stroke-linecap:round;stroke-width:0.8;"/>
     </g>
     <g id="line2d_20">
      <g>
       <use style="fill:#262626;stroke:#262626;" x="52.168" xlink:href="#m37bc5ab8ca" y="88.823937"/>
      </g>
     </g>
     <g id="text_18">
      <!-- 1000 -->
      <defs>
       <path d="M 37.25 0 
L 28.46875 0 
L 28.46875 56 
Q 25.296875 52.984375 20.140625 49.953125 
Q 14.984375 46.921875 10.890625 45.40625 
L 10.890625 53.90625 
Q 18.265625 57.375 23.78125 62.296875 
Q 29.296875 67.234375 31.59375 71.875 
L 37.25 71.875 
z
" id="ArialMT-31"/>
      </defs>
      <g style="fill:#262626;" transform="translate(24.2935 91.973375)scale(0.088 -0.088)">
       <use xlink:href="#ArialMT-31"/>
       <use x="55.615234" xlink:href="#ArialMT-30"/>
       <use x="111.230469" xlink:href="#ArialMT-30"/>
       <use x="166.845703" xlink:href="#ArialMT-30"/>
      </g>
     </g>
    </g>
    <g id="ytick_4">
     <g id="line2d_21">
      <path clip-path="url(#p6b035d08b3)" d="M 52.168 63.019406 
L 416.832 63.019406 
" style="fill:none;stroke:#cccccc;stroke-linecap:round;stroke-width:0.8;"/>
     </g>
     <g id="line2d_22">
      <g>
       <use style="fill:#262626;stroke:#262626;" x="52.168" xlink:href="#m37bc5ab8ca" y="63.019406"/>
      </g>
     </g>
     <g id="text_19">
      <!-- 1500 -->
      <g style="fill:#262626;" transform="translate(24.2935 66.168844)scale(0.088 -0.088)">
       <use xlink:href="#ArialMT-31"/>
       <use x="55.615234" xlink:href="#ArialMT-35"/>
       <use x="111.230469" xlink:href="#ArialMT-30"/>
       <use x="166.845703" xlink:href="#ArialMT-30"/>
      </g>
     </g>
    </g>
    <g id="ytick_5">
     <g id="line2d_23">
      <path clip-path="url(#p6b035d08b3)" d="M 52.168 37.214875 
L 416.832 37.214875 
" style="fill:none;stroke:#cccccc;stroke-linecap:round;stroke-width:0.8;"/>
     </g>
     <g id="line2d_24">
      <g>
       <use style="fill:#262626;stroke:#262626;" x="52.168" xlink:href="#m37bc5ab8ca" y="37.214875"/>
      </g>
     </g>
     <g id="text_20">
      <!-- 2000 -->
      <defs>
       <path d="M 50.34375 8.453125 
L 50.34375 0 
L 3.03125 0 
Q 2.9375 3.171875 4.046875 6.109375 
Q 5.859375 10.9375 9.828125 15.625 
Q 13.8125 20.3125 21.34375 26.46875 
Q 33.015625 36.03125 37.109375 41.625 
Q 41.21875 47.21875 41.21875 52.203125 
Q 41.21875 57.421875 37.46875 61 
Q 33.734375 64.59375 27.734375 64.59375 
Q 21.390625 64.59375 17.578125 60.78125 
Q 13.765625 56.984375 13.71875 50.25 
L 4.6875 51.171875 
Q 5.609375 61.28125 11.65625 66.578125 
Q 17.71875 71.875 27.9375 71.875 
Q 38.234375 71.875 44.234375 66.15625 
Q 50.25 60.453125 50.25 52 
Q 50.25 47.703125 48.484375 43.546875 
Q 46.734375 39.40625 42.65625 34.8125 
Q 38.578125 30.21875 29.109375 22.21875 
Q 21.1875 15.578125 18.9375 13.203125 
Q 16.703125 10.84375 15.234375 8.453125 
z
" id="ArialMT-32"/>
      </defs>
      <g style="fill:#262626;" transform="translate(24.2935 40.364313)scale(0.088 -0.088)">
       <use xlink:href="#ArialMT-32"/>
       <use x="55.615234" xlink:href="#ArialMT-30"/>
       <use x="111.230469" xlink:href="#ArialMT-30"/>
       <use x="166.845703" xlink:href="#ArialMT-30"/>
      </g>
     </g>
    </g>
    <g id="text_21">
     <!-- kgCO2e/m² -->
     <defs>
      <path d="M 6.640625 0 
L 6.640625 71.578125 
L 15.4375 71.578125 
L 15.4375 30.765625 
L 36.234375 51.859375 
L 47.609375 51.859375 
L 27.78125 32.625 
L 49.609375 0 
L 38.765625 0 
L 21.625 26.515625 
L 15.4375 20.5625 
L 15.4375 0 
z
" id="ArialMT-6b"/>
      <path d="M 0 -1.21875 
L 20.75 72.796875 
L 27.78125 72.796875 
L 7.078125 -1.21875 
z
" id="ArialMT-2f"/>
      <path d="M 1.21875 35.796875 
Q 1.515625 38.578125 3.515625 41.359375 
Q 6.59375 45.5625 13.625 50.65625 
Q 20.65625 55.765625 21.96875 57.234375 
Q 23.78125 59.234375 23.78125 61.328125 
Q 23.78125 63.671875 22.0625 65.1875 
Q 20.359375 66.703125 17.046875 66.703125 
Q 13.8125 66.703125 12.21875 65.546875 
Q 10.640625 64.40625 9.625 61.140625 
L 2.25 61.921875 
Q 3.65625 67.328125 7.140625 69.890625 
Q 10.640625 72.46875 17.1875 72.46875 
Q 24.5625 72.46875 28 69.578125 
Q 31.453125 66.703125 31.453125 62.546875 
Q 31.453125 58.453125 28.5625 54.78125 
Q 26.375 52.046875 18.5625 46.4375 
Q 14.5 43.453125 12.796875 41.703125 
L 31.640625 41.703125 
L 31.640625 35.796875 
z
" id="ArialMT-b2"/>
     </defs>
     <g style="fill:#262626;" transform="translate(17.188812 114.384094)rotate(-90)scale(0.1 -0.1)">
      <use xlink:href="#ArialMT-6b"/>
      <use x="50" xlink:href="#ArialMT-67"/>
      <use x="105.615234" xlink:href="#ArialMT-43"/>
      <use x="177.832031" xlink:href="#ArialMT-4f"/>
      <use x="255.615234" xlink:href="#ArialMT-32"/>
      <use x="311.230469" xlink:href="#ArialMT-65"/>
      <use x="366.845703" xlink:href="#ArialMT-2f"/>
      <use x="394.628906" xlink:href="#ArialMT-6d"/>
      <use x="477.929688" xlink:href="#ArialMT-b2"/>
     </g>
    </g>
   </g>
   <g id="patch_3">
    <path clip-path="url(#p6b035d08b3)" d="M 58.679857 121.145355 
L 71.703571 121.145355 
L 71.703571 115.580245 
L 58.679857 115.580245 
L 58.679857 121.145355 
z
" style="fill:#a1d6f1;stroke:#797979;stroke-linejoin:miter;"/>
   </g>
   <g id="patch_4">
    <path clip-path="url(#p6b035d08b3)" d="M 84.727286 120.282779 
L 97.751 120.282779 
L 97.751 116.516714 
L 84.727286 116.516714 
L 84.727286 120.282779 
z
" style="fill:#a1d6f1;stroke:#797979;stroke-linejoin:miter;"/>
   </g>
   <g id="patch_5">
    <path clip-path="url(#p6b035d08b3)" d="M 110.774714 126.627247 
L 123.798429 126.627247 
L 123.798429 124.557664 
L 110.774714 124.557664 
L 110.774714 126.627247 
z
" style="fill:#a1d6f1;stroke:#797979;stroke-linejoin:miter;"/>
   </g>
   <g id="patch_6">
    <path clip-path="url(#p6b035d08b3)" d="M 162.869571 124.194929 
L 175.893286 124.194929 
L 175.893286 121.051941 
L 162.869571 121.051941 
L 162.869571 124.194929 
z
" style="fill:#a1d6f1;stroke:#797979;stroke-linejoin:miter;"/>
   </g>
   <g id="patch_7">
    <path clip-path="url(#p6b035d08b3)" d="M 214.964429 125.618993 
L 227.988143 125.618993 
L 227.988143 123.774358 
L 214.964429 123.774358 
L 214.964429 125.618993 
z
" style="fill:#a1d6f1;stroke:#797979;stroke-linejoin:miter;"/>
   </g>
   <g id="patch_8">
    <path clip-path="url(#p6b035d08b3)" d="M 241.011857 105.867072 
L 254.035571 105.867072 
L 254.035571 94.204435 
L 241.011857 94.204435 
L 241.011857 105.867072 
z
" style="fill:#a1d6f1;stroke:#797979;stroke-linejoin:miter;"/>
   </g>
   <g id="patch_9">
    <path clip-path="url(#p6b035d08b3)" d="M 267.059286 124.093401 
L 280.083 124.093401 
L 280.083 121.316211 
L 267.059286 121.316211 
L 267.059286 124.093401 
z
" style="fill:#a1d6f1;stroke:#797979;stroke-linejoin:miter;"/>
   </g>
   <g id="patch_10">
    <path clip-path="url(#p6b035d08b3)" d="M 293.106714 120.090996 
L 306.130429 120.090996 
L 306.130429 119.899309 
L 293.106714 119.899309 
L 293.106714 120.090996 
z
" style="fill:#a1d6f1;stroke:#797979;stroke-linejoin:miter;"/>
   </g>
   <g id="patch_11">
    <path clip-path="url(#p6b035d08b3)" d="M 319.154143 121.393074 
L 332.177857 121.393074 
L 332.177857 121.393074 
L 319.154143 121.393074 
L 319.154143 121.393074 
z
" style="fill:#a1d6f1;stroke:#797979;stroke-linejoin:miter;"/>
   </g>
   <g id="patch_12">
    <path clip-path="url(#p6b035d08b3)" d="M 371.249 123.41175 
L 384.272714 123.41175 
L 384.272714 123.41175 
L 371.249 123.41175 
L 371.249 123.41175 
z
" style="fill:#a1d6f1;stroke:#797979;stroke-linejoin:miter;"/>
   </g>
   <g id="line2d_25">
    <path clip-path="url(#p6b035d08b3)" d="M 65.191714 121.145355 
L 65.191714 122.356396 
" style="fill:none;stroke:#797979;stroke-linecap:round;"/>
   </g>
   <g id="line2d_26">
    <path clip-path="url(#p6b035d08b3)" d="M 65.191714 115.580245 
L 65.191714 110.888041 
" style="fill:none;stroke:#797979;stroke-linecap:round;"/>
   </g>
   <g id="line2d_27">
    <path clip-path="url(#p6b035d08b3)" d="M 61.935786 122.356396 
L 68.447643 122.356396 
" style="fill:none;stroke:#797979;stroke-linecap:round;"/>
   </g>
   <g id="line2d_28">
    <path clip-path="url(#p6b035d08b3)" d="M 61.935786 110.888041 
L 68.447643 110.888041 
" style="fill:none;stroke:#797979;stroke-linecap:round;"/>
   </g>
   <g id="line2d_29"/>
   <g id="line2d_30">
    <path clip-path="url(#p6b035d08b3)" d="M 91.239143 120.282779 
L 91.239143 123.04324 
" style="fill:none;stroke:#797979;stroke-linecap:round;"/>
   </g>
   <g id="line2d_31">
    <path clip-path="url(#p6b035d08b3)" d="M 91.239143 116.516714 
L 91.239143 111.328198 
" style="fill:none;stroke:#797979;stroke-linecap:round;"/>
   </g>
   <g id="line2d_32">
    <path clip-path="url(#p6b035d08b3)" d="M 87.983214 123.04324 
L 94.495071 123.04324 
" style="fill:none;stroke:#797979;stroke-linecap:round;"/>
   </g>
   <g id="line2d_33">
    <path clip-path="url(#p6b035d08b3)" d="M 87.983214 111.328198 
L 94.495071 111.328198 
" style="fill:none;stroke:#797979;stroke-linecap:round;"/>
   </g>
   <g id="line2d_34"/>
   <g id="line2d_35">
    <path clip-path="url(#p6b035d08b3)" d="M 117.286571 126.627247 
L 117.286571 127.512216 
" style="fill:none;stroke:#797979;stroke-linecap:round;"/>
   </g>
   <g id="line2d_36">
    <path clip-path="url(#p6b035d08b3)" d="M 117.286571 124.557664 
L 117.286571 123.895837 
" style="fill:none;stroke:#797979;stroke-linecap:round;"/>
   </g>
   <g id="line2d_37">
    <path clip-path="url(#p6b035d08b3)" d="M 114.030643 127.512216 
L 120.5425 127.512216 
" style="fill:none;stroke:#797979;stroke-linecap:round;"/>
   </g>
   <g id="line2d_38">
    <path clip-path="url(#p6b035d08b3)" d="M 114.030643 123.895837 
L 120.5425 123.895837 
" style="fill:none;stroke:#797979;stroke-linecap:round;"/>
   </g>
   <g id="line2d_39"/>
   <g id="line2d_40">
    <path clip-path="url(#p6b035d08b3)" d="M 169.381429 124.194929 
L 169.381429 127.489151 
" style="fill:none;stroke:#797979;stroke-linecap:round;"/>
   </g>
   <g id="line2d_41">
    <path clip-path="url(#p6b035d08b3)" d="M 169.381429 121.051941 
L 169.381429 118.693595 
" style="fill:none;stroke:#797979;stroke-linecap:round;"/>
   </g>
   <g id="line2d_42">
    <path clip-path="url(#p6b035d08b3)" d="M 166.1255 127.489151 
L 172.637357 127.489151 
" style="fill:none;stroke:#797979;stroke-linecap:round;"/>
   </g>
   <g id="line2d_43">
    <path clip-path="url(#p6b035d08b3)" d="M 166.1255 118.693595 
L 172.637357 118.693595 
" style="fill:none;stroke:#797979;stroke-linecap:round;"/>
   </g>
   <g id="line2d_44"/>
   <g id="line2d_45">
    <path clip-path="url(#p6b035d08b3)" d="M 221.476286 125.618993 
L 221.476286 126.541311 
" style="fill:none;stroke:#797979;stroke-linecap:round;"/>
   </g>
   <g id="line2d_46">
    <path clip-path="url(#p6b035d08b3)" d="M 221.476286 123.774358 
L 221.476286 122.852041 
" style="fill:none;stroke:#797979;stroke-linecap:round;"/>
   </g>
   <g id="line2d_47">
    <path clip-path="url(#p6b035d08b3)" d="M 218.220357 126.541311 
L 224.732214 126.541311 
" style="fill:none;stroke:#797979;stroke-linecap:round;"/>
   </g>
   <g id="line2d_48">
    <path clip-path="url(#p6b035d08b3)" d="M 218.220357 122.852041 
L 224.732214 122.852041 
" style="fill:none;stroke:#797979;stroke-linecap:round;"/>
   </g>
   <g id="line2d_49"/>
   <g id="line2d_50">
    <path clip-path="url(#p6b035d08b3)" d="M 247.523714 105.867072 
L 247.523714 111.69839 
" style="fill:none;stroke:#797979;stroke-linecap:round;"/>
   </g>
   <g id="line2d_51">
    <path clip-path="url(#p6b035d08b3)" d="M 247.523714 94.204435 
L 247.523714 88.373117 
" style="fill:none;stroke:#797979;stroke-linecap:round;"/>
   </g>
   <g id="line2d_52">
    <path clip-path="url(#p6b035d08b3)" d="M 244.267786 111.69839 
L 250.779643 111.69839 
" style="fill:none;stroke:#797979;stroke-linecap:round;"/>
   </g>
   <g id="line2d_53">
    <path clip-path="url(#p6b035d08b3)" d="M 244.267786 88.373117 
L 250.779643 88.373117 
" style="fill:none;stroke:#797979;stroke-linecap:round;"/>
   </g>
   <g id="line2d_54"/>
   <g id="line2d_55">
    <path clip-path="url(#p6b035d08b3)" d="M 273.571143 124.093401 
L 273.571143 124.855876 
" style="fill:none;stroke:#797979;stroke-linecap:round;"/>
   </g>
   <g id="line2d_56">
    <path clip-path="url(#p6b035d08b3)" d="M 273.571143 121.316211 
L 273.571143 119.301496 
" style="fill:none;stroke:#797979;stroke-linecap:round;"/>
   </g>
   <g id="line2d_57">
    <path clip-path="url(#p6b035d08b3)" d="M 270.315214 124.855876 
L 276.827071 124.855876 
" style="fill:none;stroke:#797979;stroke-linecap:round;"/>
   </g>
   <g id="line2d_58">
    <path clip-path="url(#p6b035d08b3)" d="M 270.315214 119.301496 
L 276.827071 119.301496 
" style="fill:none;stroke:#797979;stroke-linecap:round;"/>
   </g>
   <g id="line2d_59"/>
   <g id="line2d_60">
    <path clip-path="url(#p6b035d08b3)" d="M 299.618571 120.090996 
L 299.618571 120.269249 
" style="fill:none;stroke:#797979;stroke-linecap:round;"/>
   </g>
   <g id="line2d_61">
    <path clip-path="url(#p6b035d08b3)" d="M 299.618571 119.899309 
L 299.618571 119.885875 
" style="fill:none;stroke:#797979;stroke-linecap:round;"/>
   </g>
   <g id="line2d_62">
    <path clip-path="url(#p6b035d08b3)" d="M 296.362643 120.269249 
L 302.8745 120.269249 
" style="fill:none;stroke:#797979;stroke-linecap:round;"/>
   </g>
   <g id="line2d_63">
    <path clip-path="url(#p6b035d08b3)" d="M 296.362643 119.885875 
L 302.8745 119.885875 
" style="fill:none;stroke:#797979;stroke-linecap:round;"/>
   </g>
   <g id="line2d_64"/>
   <g id="line2d_65">
    <path clip-path="url(#p6b035d08b3)" d="M 325.666 121.393074 
L 325.666 121.393074 
" style="fill:none;stroke:#797979;stroke-linecap:round;"/>
   </g>
   <g id="line2d_66">
    <path clip-path="url(#p6b035d08b3)" d="M 325.666 121.393074 
L 325.666 121.393074 
" style="fill:none;stroke:#797979;stroke-linecap:round;"/>
   </g>
   <g id="line2d_67">
    <path clip-path="url(#p6b035d08b3)" d="M 322.410071 121.393074 
L 328.921929 121.393074 
" style="fill:none;stroke:#797979;stroke-linecap:round;"/>
   </g>
   <g id="line2d_68">
    <path clip-path="url(#p6b035d08b3)" d="M 322.410071 121.393074 
L 328.921929 121.393074 
" style="fill:none;stroke:#797979;stroke-linecap:round;"/>
   </g>
   <g id="line2d_69"/>
   <g id="line2d_70">
    <path clip-path="url(#p6b035d08b3)" d="M 377.760857 123.41175 
L 377.760857 123.41175 
" style="fill:none;stroke:#797979;stroke-linecap:round;"/>
   </g>
   <g id="line2d_71">
    <path clip-path="url(#p6b035d08b3)" d="M 377.760857 123.41175 
L 377.760857 123.41175 
" style="fill:none;stroke:#797979;stroke-linecap:round;"/>
   </g>
   <g id="line2d_72">
    <path clip-path="url(#p6b035d08b3)" d="M 374.504929 123.41175 
L 381.016786 123.41175 
" style="fill:none;stroke:#797979;stroke-linecap:round;"/>
   </g>
   <g id="line2d_73">
    <path clip-path="url(#p6b035d08b3)" d="M 374.504929 123.41175 
L 381.016786 123.41175 
" style="fill:none;stroke:#797979;stroke-linecap:round;"/>
   </g>
   <g id="line2d_74"/>
   <g id="line2d_75">
    <path clip-path="url(#p6b035d08b3)" d="M 58.679857 120.088473 
L 71.703571 120.088473 
" style="fill:none;stroke:#797979;stroke-linecap:round;"/>
   </g>
   <g id="line2d_76">
    <path clip-path="url(#p6b035d08b3)" d="M 65.191714 118.011702 
" style="fill:none;stroke:#0076b4;stroke-dasharray:3.7,1.6;stroke-dashoffset:0;"/>
    <defs>
     <path d="M 0 2.5 
C 0.663008 2.5 1.29895 2.236584 1.767767 1.767767 
C 2.236584 1.29895 2.5 0.663008 2.5 0 
C 2.5 -0.663008 2.236584 -1.29895 1.767767 -1.767767 
C 1.29895 -2.236584 0.663008 -2.5 0 -2.5 
C -0.663008 -2.5 -1.29895 -2.236584 -1.767767 -1.767767 
C -2.236584 -1.29895 -2.5 -0.663008 -2.5 0 
C -2.5 0.663008 -2.236584 1.29895 -1.767767 1.767767 
C -1.29895 2.236584 -0.663008 2.5 0 2.5 
z
" id="me5facccf4c" style="stroke:#000000;"/>
    </defs>
    <g clip-path="url(#p6b035d08b3)">
     <use style="fill:#ffffff;stroke:#000000;" x="65.191714" xlink:href="#me5facccf4c" y="118.011702"/>
    </g>
   </g>
   <g id="line2d_77">
    <path clip-path="url(#p6b035d08b3)" d="M 84.727286 118.179818 
L 97.751 118.179818 
" style="fill:none;stroke:#797979;stroke-linecap:round;"/>
   </g>
   <g id="line2d_78">
    <path clip-path="url(#p6b035d08b3)" d="M 91.239143 118.035103 
" style="fill:none;stroke:#0076b4;stroke-dasharray:3.7,1.6;stroke-dashoffset:0;"/>
    <g clip-path="url(#p6b035d08b3)">
     <use style="fill:#ffffff;stroke:#000000;" x="91.239143" xlink:href="#me5facccf4c" y="118.035103"/>
    </g>
   </g>
   <g id="line2d_79">
    <path clip-path="url(#p6b035d08b3)" d="M 110.774714 124.79202 
L 123.798429 124.79202 
" style="fill:none;stroke:#797979;stroke-linecap:round;"/>
   </g>
   <g id="line2d_80">
    <path clip-path="url(#p6b035d08b3)" d="M 117.286571 125.433923 
" style="fill:none;stroke:#0076b4;stroke-dasharray:3.7,1.6;stroke-dashoffset:0;"/>
    <g clip-path="url(#p6b035d08b3)">
     <use style="fill:#ffffff;stroke:#000000;" x="117.286571" xlink:href="#me5facccf4c" y="125.433923"/>
    </g>
   </g>
   <g id="line2d_81">
    <path clip-path="url(#p6b035d08b3)" d="M 162.869571 122.943854 
L 175.893286 122.943854 
" style="fill:none;stroke:#797979;stroke-linecap:round;"/>
   </g>
   <g id="line2d_82">
    <path clip-path="url(#p6b035d08b3)" d="M 169.381429 122.850618 
" style="fill:none;stroke:#0076b4;stroke-dasharray:3.7,1.6;stroke-dashoffset:0;"/>
    <g clip-path="url(#p6b035d08b3)">
     <use style="fill:#ffffff;stroke:#000000;" x="169.381429" xlink:href="#me5facccf4c" y="122.850618"/>
    </g>
   </g>
   <g id="line2d_83">
    <path clip-path="url(#p6b035d08b3)" d="M 214.964429 124.696676 
L 227.988143 124.696676 
" style="fill:none;stroke:#797979;stroke-linecap:round;"/>
   </g>
   <g id="line2d_84">
    <path clip-path="url(#p6b035d08b3)" d="M 221.476286 124.696676 
" style="fill:none;stroke:#0076b4;stroke-dasharray:3.7,1.6;stroke-dashoffset:0;"/>
    <g clip-path="url(#p6b035d08b3)">
     <use style="fill:#ffffff;stroke:#000000;" x="221.476286" xlink:href="#me5facccf4c" y="124.696676"/>
    </g>
   </g>
   <g id="line2d_85">
    <path clip-path="url(#p6b035d08b3)" d="M 241.011857 100.035754 
L 254.035571 100.035754 
" style="fill:none;stroke:#797979;stroke-linecap:round;"/>
   </g>
   <g id="line2d_86">
    <path clip-path="url(#p6b035d08b3)" d="M 247.523714 100.035754 
" style="fill:none;stroke:#0076b4;stroke-dasharray:3.7,1.6;stroke-dashoffset:0;"/>
    <g clip-path="url(#p6b035d08b3)">
     <use style="fill:#ffffff;stroke:#000000;" x="247.523714" xlink:href="#me5facccf4c" y="100.035754"/>
    </g>
   </g>
   <g id="line2d_87">
    <path clip-path="url(#p6b035d08b3)" d="M 267.059286 123.330926 
L 280.083 123.330926 
" style="fill:none;stroke:#797979;stroke-linecap:round;"/>
   </g>
   <g id="line2d_88">
    <path clip-path="url(#p6b035d08b3)" d="M 273.571143 122.496099 
" style="fill:none;stroke:#0076b4;stroke-dasharray:3.7,1.6;stroke-dashoffset:0;"/>
    <g clip-path="url(#p6b035d08b3)">
     <use style="fill:#ffffff;stroke:#000000;" x="273.571143" xlink:href="#me5facccf4c" y="122.496099"/>
    </g>
   </g>
   <g id="line2d_89">
    <path clip-path="url(#p6b035d08b3)" d="M 293.106714 119.912743 
L 306.130429 119.912743 
" style="fill:none;stroke:#797979;stroke-linecap:round;"/>
   </g>
   <g id="line2d_90">
    <path clip-path="url(#p6b035d08b3)" d="M 299.618571 120.022622 
" style="fill:none;stroke:#0076b4;stroke-dasharray:3.7,1.6;stroke-dashoffset:0;"/>
    <g clip-path="url(#p6b035d08b3)">
     <use style="fill:#ffffff;stroke:#000000;" x="299.618571" xlink:href="#me5facccf4c" y="120.022622"/>
    </g>
   </g>
   <g id="line2d_91">
    <path clip-path="url(#p6b035d08b3)" d="M 319.154143 121.393074 
L 332.177857 121.393074 
" style="fill:none;stroke:#797979;stroke-linecap:round;"/>
   </g>
   <g id="line2d_92">
    <path clip-path="url(#p6b035d08b3)" d="M 325.666 121.393074 
" style="fill:none;stroke:#0076b4;stroke-dasharray:3.7,1.6;stroke-dashoffset:0;"/>
    <g clip-path="url(#p6b035d08b3)">
     <use style="fill:#ffffff;stroke:#000000;" x="325.666" xlink:href="#me5facccf4c" y="121.393074"/>
    </g>
   </g>
   <g id="line2d_93">
    <path clip-path="url(#p6b035d08b3)" d="M 371.249 123.41175 
L 384.272714 123.41175 
" style="fill:none;stroke:#797979;stroke-linecap:round;"/>
   </g>
   <g id="line2d_94">
    <path clip-path="url(#p6b035d08b3)" d="M 377.760857 123.41175 
" style="fill:none;stroke:#0076b4;stroke-dasharray:3.7,1.6;stroke-dashoffset:0;"/>
    <g clip-path="url(#p6b035d08b3)">
     <use style="fill:#ffffff;stroke:#000000;" x="377.760857" xlink:href="#me5facccf4c" y="123.41175"/>
    </g>
   </g>
   <g id="patch_13">
    <path d="M 52.168 140.433 
L 52.168 37.214875 
" style="fill:none;stroke:#262626;stroke-linecap:square;stroke-linejoin:miter;"/>
   </g>
   <g id="patch_14">
    <path d="M 416.832 140.433 
L 416.832 37.214875 
" style="fill:none;stroke:#262626;stroke-linecap:square;stroke-linejoin:miter;"/>
   </g>
   <g id="patch_15">
    <path d="M 52.168 140.433 
L 416.832 140.433 
" style="fill:none;stroke:#262626;stroke-linecap:square;stroke-linejoin:miter;"/>
   </g>
   <g id="patch_16">
    <path d="M 52.168 37.214875 
L 416.832 37.214875 
" style="fill:none;stroke:#262626;stroke-linecap:square;stroke-linejoin:miter;"/>
   </g>
   <g id="text_22">
    <!-- Embodied carbon per m² (harmonized) -->
    <defs>
     <path d="M 23.390625 -21.046875 
Q 16.109375 -11.859375 11.078125 0.4375 
Q 6.0625 12.75 6.0625 25.921875 
Q 6.0625 37.546875 9.8125 48.1875 
Q 14.203125 60.546875 23.390625 72.796875 
L 29.6875 72.796875 
Q 23.78125 62.640625 21.875 58.296875 
Q 18.890625 51.5625 17.1875 44.234375 
Q 15.09375 35.109375 15.09375 25.875 
Q 15.09375 2.390625 29.6875 -21.046875 
z
" id="ArialMT-28"/>
     <path d="M 1.953125 0 
L 1.953125 7.125 
L 34.96875 45.015625 
Q 29.34375 44.734375 25.046875 44.734375 
L 3.90625 44.734375 
L 3.90625 51.859375 
L 46.296875 51.859375 
L 46.296875 46.046875 
L 18.21875 13.140625 
L 12.796875 7.125 
Q 18.703125 7.5625 23.875 7.5625 
L 47.859375 7.5625 
L 47.859375 0 
z
" id="ArialMT-7a"/>
     <path d="M 12.359375 -21.046875 
L 6.0625 -21.046875 
Q 20.65625 2.390625 20.65625 25.875 
Q 20.65625 35.0625 18.5625 44.09375 
Q 16.890625 51.421875 13.921875 58.15625 
Q 12.015625 62.546875 6.0625 72.796875 
L 12.359375 72.796875 
Q 21.53125 60.546875 25.921875 48.1875 
Q 29.6875 37.546875 29.6875 25.921875 
Q 29.6875 12.75 24.625 0.4375 
Q 19.578125 -11.859375 12.359375 -21.046875 
z
" id="ArialMT-29"/>
    </defs>
    <g style="fill:#262626;" transform="translate(140.048672 19.290531)scale(0.11 -0.11)">
     <use xlink:href="#ArialMT-45"/>
     <use x="66.699219" xlink:href="#ArialMT-6d"/>
     <use x="150" xlink:href="#ArialMT-62"/>
     <use x="205.615234" xlink:href="#ArialMT-6f"/>
     <use x="261.230469" xlink:href="#ArialMT-64"/>
     <use x="316.845703" xlink:href="#ArialMT-69"/>
     <use x="339.0625" xlink:href="#ArialMT-65"/>
     <use x="394.677734" xlink:href="#ArialMT-64"/>
     <use x="450.292969" xlink:href="#ArialMT-20"/>
     <use x="478.076172" xlink:href="#ArialMT-63"/>
     <use x="528.076172" xlink:href="#ArialMT-61"/>
     <use x="583.691406" xlink:href="#ArialMT-72"/>
     <use x="616.992188" xlink:href="#ArialMT-62"/>
     <use x="672.607422" xlink:href="#ArialMT-6f"/>
     <use x="728.222656" xlink:href="#ArialMT-6e"/>
     <use x="783.837891" xlink:href="#ArialMT-20"/>
     <use x="811.621094" xlink:href="#ArialMT-70"/>
     <use x="867.236328" xlink:href="#ArialMT-65"/>
     <use x="922.851562" xlink:href="#ArialMT-72"/>
     <use x="956.152344" xlink:href="#ArialMT-20"/>
     <use x="983.935547" xlink:href="#ArialMT-6d"/>
     <use x="1067.236328" xlink:href="#ArialMT-b2"/>
     <use x="1100.537109" xlink:href="#ArialMT-20"/>
     <use x="1128.320312" xlink:href="#ArialMT-28"/>
     <use x="1161.621094" xlink:href="#ArialMT-68"/>
     <use x="1217.236328" xlink:href="#ArialMT-61"/>
     <use x="1272.851562" xlink:href="#ArialMT-72"/>
     <use x="1306.152344" xlink:href="#ArialMT-6d"/>
     <use x="1389.453125" xlink:href="#ArialMT-6f"/>
     <use x="1445.068359" xlink:href="#ArialMT-6e"/>
     <use x="1500.683594" xlink:href="#ArialMT-69"/>
     <use x="1522.900391" xlink:href="#ArialMT-7a"/>
     <use x="1572.900391" xlink:href="#ArialMT-65"/>
     <use x="1628.515625" xlink:href="#ArialMT-64"/>
     <use x="1684.130859" xlink:href="#ArialMT-29"/>
    </g>
    <!-- by building use subtype for NL -->
    <defs>
     <path d="M 7.328125 0 
L 7.328125 71.578125 
L 16.796875 71.578125 
L 16.796875 8.453125 
L 52.046875 8.453125 
L 52.046875 0 
z
" id="ArialMT-4c"/>
    </defs>
    <g style="fill:#262626;" transform="translate(160.515547 31.214875)scale(0.11 -0.11)">
     <use xlink:href="#ArialMT-62"/>
     <use x="55.615234" xlink:href="#ArialMT-79"/>
     <use x="105.615234" xlink:href="#ArialMT-20"/>
     <use x="133.398438" xlink:href="#ArialMT-62"/>
     <use x="189.013672" xlink:href="#ArialMT-75"/>
     <use x="244.628906" xlink:href="#ArialMT-69"/>
     <use x="266.845703" xlink:href="#ArialMT-6c"/>
     <use x="289.0625" xlink:href="#ArialMT-64"/>
     <use x="344.677734" xlink:href="#ArialMT-69"/>
     <use x="366.894531" xlink:href="#ArialMT-6e"/>
     <use x="422.509766" xlink:href="#ArialMT-67"/>
     <use x="478.125" xlink:href="#ArialMT-20"/>
     <use x="505.908203" xlink:href="#ArialMT-75"/>
     <use x="561.523438" xlink:href="#ArialMT-73"/>
     <use x="611.523438" xlink:href="#ArialMT-65"/>
     <use x="667.138672" xlink:href="#ArialMT-20"/>
     <use x="694.921875" xlink:href="#ArialMT-73"/>
     <use x="744.921875" xlink:href="#ArialMT-75"/>
     <use x="800.537109" xlink:href="#ArialMT-62"/>
     <use x="856.152344" xlink:href="#ArialMT-74"/>
     <use x="883.935547" xlink:href="#ArialMT-79"/>
     <use x="933.935547" xlink:href="#ArialMT-70"/>
     <use x="989.550781" xlink:href="#ArialMT-65"/>
     <use x="1045.166016" xlink:href="#ArialMT-20"/>
     <use x="1072.949219" xlink:href="#ArialMT-66"/>
     <use x="1100.732422" xlink:href="#ArialMT-6f"/>
     <use x="1156.347656" xlink:href="#ArialMT-72"/>
     <use x="1189.648438" xlink:href="#ArialMT-20"/>
     <use x="1217.431641" xlink:href="#ArialMT-4e"/>
     <use x="1289.648438" xlink:href="#ArialMT-4c"/>
    </g>
   </g>
  </g>
 </g>
 <defs>
  <clipPath id="p6b035d08b3">
   <rect height="103.218125" width="364.664" x="52.168" y="37.214875"/>
  </clipPath>
 </defs>
</svg>
